%FSLAX34Y34*%
G04 Gerber Fmt 3.4, Leading zero omitted, Abs format*
G04 (created by PCBNEW (2013-12-19 BZR 4560)-product) date Thu 19 Dec 2013 08:44:30 PM CET*
%MOIN*%
G01*
G70*
G90*
G04 APERTURE LIST*
%ADD10C,0.005906*%
%ADD11C,0.007874*%
%ADD12C,0.002600*%
%ADD13C,0.006000*%
%ADD14C,0.019685*%
%ADD15R,0.040000X0.040000*%
%ADD16C,0.040000*%
%ADD17R,0.055100X0.039300*%
%ADD18R,0.118110X0.059055*%
%ADD19R,0.059055X0.118110*%
%ADD20R,0.059000X0.051100*%
%ADD21R,0.051100X0.059000*%
%ADD22R,0.064961X0.064961*%
%ADD23C,0.064961*%
%ADD24R,0.031400X0.031400*%
%ADD25R,0.039370X0.009843*%
%ADD26R,0.055118X0.145669*%
G04 APERTURE END LIST*
G54D10*
G54D11*
X29263Y-26798D02*
X29263Y-27098D01*
X29075Y-24228D02*
X29075Y-24416D01*
X29263Y-24434D01*
X29244Y-24416D01*
X29225Y-24378D01*
X29225Y-24284D01*
X29244Y-24247D01*
X29263Y-24228D01*
X29300Y-24209D01*
X29394Y-24209D01*
X29431Y-24228D01*
X29450Y-24247D01*
X29469Y-24284D01*
X29469Y-24378D01*
X29450Y-24416D01*
X29431Y-24434D01*
X29075Y-24097D02*
X29469Y-23966D01*
X29075Y-23834D01*
X21861Y-24223D02*
X21880Y-24167D01*
X21899Y-24148D01*
X21936Y-24130D01*
X21992Y-24130D01*
X22030Y-24148D01*
X22049Y-24167D01*
X22067Y-24205D01*
X22067Y-24355D01*
X21674Y-24355D01*
X21674Y-24223D01*
X21692Y-24186D01*
X21711Y-24167D01*
X21749Y-24148D01*
X21786Y-24148D01*
X21824Y-24167D01*
X21842Y-24186D01*
X21861Y-24223D01*
X21861Y-24355D01*
X21955Y-27022D02*
X21955Y-26835D01*
X22067Y-27060D02*
X21674Y-26929D01*
X22067Y-26797D01*
X24291Y-25826D02*
X25944Y-25826D01*
X25944Y-25826D02*
X25944Y-26968D01*
X25944Y-26968D02*
X25944Y-27007D01*
X25944Y-27007D02*
X24291Y-27007D01*
X24291Y-27007D02*
X24291Y-25826D01*
G54D12*
X23196Y-24869D02*
X23196Y-24689D01*
X23196Y-24689D02*
X22967Y-24689D01*
X22967Y-24869D02*
X22967Y-24689D01*
X23196Y-24869D02*
X22967Y-24869D01*
X23985Y-24499D02*
X23985Y-24319D01*
X23985Y-24319D02*
X23756Y-24319D01*
X23756Y-24499D02*
X23756Y-24319D01*
X23985Y-24499D02*
X23756Y-24499D01*
X23985Y-25239D02*
X23985Y-25059D01*
X23985Y-25059D02*
X23756Y-25059D01*
X23756Y-25239D02*
X23756Y-25059D01*
X23985Y-25239D02*
X23756Y-25239D01*
X23594Y-24975D02*
X23594Y-24583D01*
X23594Y-24583D02*
X23358Y-24583D01*
X23358Y-24975D02*
X23358Y-24583D01*
X23594Y-24975D02*
X23358Y-24975D01*
G54D13*
X23217Y-24220D02*
X23735Y-24220D01*
X23735Y-24220D02*
X23735Y-25338D01*
X23735Y-25338D02*
X23217Y-25338D01*
X23217Y-25338D02*
X23217Y-24220D01*
G54D11*
X19441Y-23108D02*
X19486Y-22999D01*
X19486Y-22999D02*
X19377Y-22954D01*
X19377Y-22954D02*
X19332Y-23063D01*
X19332Y-23063D02*
X19441Y-23108D01*
X18917Y-22572D02*
X19329Y-22401D01*
X19842Y-23031D02*
G75*
G03X19842Y-23031I-433J0D01*
G74*
G01*
X18646Y-23226D02*
X18592Y-23204D01*
X18592Y-23204D02*
X18953Y-22331D01*
X18953Y-22331D02*
X19008Y-22353D01*
X19810Y-23709D02*
X19865Y-23731D01*
X19865Y-23731D02*
X20226Y-22858D01*
X20226Y-22858D02*
X20172Y-22836D01*
X19780Y-23781D02*
X18616Y-23299D01*
X18616Y-23299D02*
X19038Y-22281D01*
X19038Y-22281D02*
X20202Y-22763D01*
X20202Y-22763D02*
X19780Y-23781D01*
X19486Y-28181D02*
X19441Y-28072D01*
X19441Y-28072D02*
X19332Y-28117D01*
X19332Y-28117D02*
X19377Y-28226D01*
X19377Y-28226D02*
X19486Y-28181D01*
X18737Y-28172D02*
X18907Y-27760D01*
X19842Y-28149D02*
G75*
G03X19842Y-28149I-433J0D01*
G74*
G01*
X19008Y-28827D02*
X18953Y-28849D01*
X18953Y-28849D02*
X18592Y-27976D01*
X18592Y-27976D02*
X18646Y-27954D01*
X20172Y-28345D02*
X20226Y-28322D01*
X20226Y-28322D02*
X19865Y-27449D01*
X19865Y-27449D02*
X19810Y-27472D01*
X20202Y-28417D02*
X19038Y-28899D01*
X19038Y-28899D02*
X18616Y-27881D01*
X18616Y-27881D02*
X19780Y-27399D01*
X19780Y-27399D02*
X20202Y-28417D01*
X28181Y-31714D02*
X28072Y-31759D01*
X28072Y-31759D02*
X28117Y-31868D01*
X28117Y-31868D02*
X28226Y-31823D01*
X28226Y-31823D02*
X28181Y-31714D01*
X28172Y-32463D02*
X27760Y-32293D01*
X28582Y-31791D02*
G75*
G03X28582Y-31791I-433J0D01*
G74*
G01*
X28827Y-32192D02*
X28849Y-32247D01*
X28849Y-32247D02*
X27976Y-32608D01*
X27976Y-32608D02*
X27954Y-32554D01*
X28345Y-31028D02*
X28322Y-30974D01*
X28322Y-30974D02*
X27449Y-31335D01*
X27449Y-31335D02*
X27472Y-31390D01*
X28417Y-30998D02*
X28899Y-32162D01*
X28899Y-32162D02*
X27881Y-32584D01*
X27881Y-32584D02*
X27399Y-31420D01*
X27399Y-31420D02*
X28417Y-30998D01*
X22999Y-19486D02*
X23108Y-19441D01*
X23108Y-19441D02*
X23063Y-19332D01*
X23063Y-19332D02*
X22954Y-19377D01*
X22954Y-19377D02*
X22999Y-19486D01*
X23008Y-18737D02*
X23420Y-18907D01*
X23464Y-19409D02*
G75*
G03X23464Y-19409I-433J0D01*
G74*
G01*
X22353Y-19008D02*
X22331Y-18953D01*
X22331Y-18953D02*
X23204Y-18592D01*
X23204Y-18592D02*
X23226Y-18646D01*
X22836Y-20172D02*
X22858Y-20226D01*
X22858Y-20226D02*
X23731Y-19865D01*
X23731Y-19865D02*
X23709Y-19810D01*
X22763Y-20202D02*
X22281Y-19038D01*
X22281Y-19038D02*
X23299Y-18616D01*
X23299Y-18616D02*
X23781Y-19780D01*
X23781Y-19780D02*
X22763Y-20202D01*
X23108Y-31739D02*
X22999Y-31694D01*
X22999Y-31694D02*
X22954Y-31803D01*
X22954Y-31803D02*
X23063Y-31848D01*
X23063Y-31848D02*
X23108Y-31739D01*
X22572Y-32263D02*
X22401Y-31851D01*
X23464Y-31771D02*
G75*
G03X23464Y-31771I-433J0D01*
G74*
G01*
X23226Y-32534D02*
X23204Y-32588D01*
X23204Y-32588D02*
X22331Y-32227D01*
X22331Y-32227D02*
X22353Y-32172D01*
X23709Y-31370D02*
X23731Y-31315D01*
X23731Y-31315D02*
X22858Y-30954D01*
X22858Y-30954D02*
X22836Y-31008D01*
X23781Y-31400D02*
X23299Y-32564D01*
X23299Y-32564D02*
X22281Y-32142D01*
X22281Y-32142D02*
X22763Y-30978D01*
X22763Y-30978D02*
X23781Y-31400D01*
X25649Y-32224D02*
X25531Y-32224D01*
X25531Y-32224D02*
X25531Y-32342D01*
X25531Y-32342D02*
X25649Y-32342D01*
X25649Y-32342D02*
X25649Y-32224D01*
X25354Y-32913D02*
X25039Y-32598D01*
X26023Y-32283D02*
G75*
G03X26023Y-32283I-433J0D01*
G74*
G01*
X26062Y-32913D02*
X26062Y-32972D01*
X26062Y-32972D02*
X25118Y-32972D01*
X25118Y-32972D02*
X25118Y-32913D01*
X26062Y-31653D02*
X26062Y-31594D01*
X26062Y-31594D02*
X25118Y-31594D01*
X25118Y-31594D02*
X25118Y-31653D01*
X26141Y-31653D02*
X26141Y-32913D01*
X26141Y-32913D02*
X25039Y-32913D01*
X25039Y-32913D02*
X25039Y-31653D01*
X25039Y-31653D02*
X26141Y-31653D01*
X18956Y-25649D02*
X18956Y-25531D01*
X18956Y-25531D02*
X18838Y-25531D01*
X18838Y-25531D02*
X18838Y-25649D01*
X18838Y-25649D02*
X18956Y-25649D01*
X18267Y-25354D02*
X18582Y-25039D01*
X19330Y-25590D02*
G75*
G03X19330Y-25590I-433J0D01*
G74*
G01*
X18267Y-26062D02*
X18208Y-26062D01*
X18208Y-26062D02*
X18208Y-25118D01*
X18208Y-25118D02*
X18267Y-25118D01*
X19527Y-26062D02*
X19586Y-26062D01*
X19586Y-26062D02*
X19586Y-25118D01*
X19586Y-25118D02*
X19527Y-25118D01*
X19527Y-26141D02*
X18267Y-26141D01*
X18267Y-26141D02*
X18267Y-25039D01*
X18267Y-25039D02*
X19527Y-25039D01*
X19527Y-25039D02*
X19527Y-26141D01*
X20846Y-20949D02*
X20929Y-20866D01*
X20929Y-20866D02*
X20846Y-20782D01*
X20846Y-20782D02*
X20762Y-20866D01*
X20762Y-20866D02*
X20846Y-20949D01*
X20568Y-20253D02*
X21013Y-20253D01*
X21279Y-20866D02*
G75*
G03X21279Y-20866I-433J0D01*
G74*
G01*
X20066Y-20754D02*
X20025Y-20713D01*
X20025Y-20713D02*
X20693Y-20044D01*
X20693Y-20044D02*
X20735Y-20086D01*
X20957Y-21645D02*
X20999Y-21687D01*
X20999Y-21687D02*
X21667Y-21019D01*
X21667Y-21019D02*
X21625Y-20977D01*
X20902Y-21701D02*
X20011Y-20810D01*
X20011Y-20810D02*
X20790Y-20030D01*
X20790Y-20030D02*
X21681Y-20921D01*
X21681Y-20921D02*
X20902Y-21701D01*
X20929Y-30295D02*
X20846Y-30211D01*
X20846Y-30211D02*
X20762Y-30295D01*
X20762Y-30295D02*
X20846Y-30378D01*
X20846Y-30378D02*
X20929Y-30295D01*
X20234Y-30573D02*
X20234Y-30128D01*
X21279Y-30295D02*
G75*
G03X21279Y-30295I-433J0D01*
G74*
G01*
X20735Y-31074D02*
X20693Y-31116D01*
X20693Y-31116D02*
X20025Y-30448D01*
X20025Y-30448D02*
X20066Y-30406D01*
X21625Y-30183D02*
X21667Y-30142D01*
X21667Y-30142D02*
X20999Y-29474D01*
X20999Y-29474D02*
X20957Y-29515D01*
X21681Y-30239D02*
X20790Y-31130D01*
X20790Y-31130D02*
X20011Y-30350D01*
X20011Y-30350D02*
X20902Y-29460D01*
X20902Y-29460D02*
X21681Y-30239D01*
X24549Y-18923D02*
X24499Y-18673D01*
X24499Y-18673D02*
X23959Y-18780D01*
X24009Y-19031D02*
X23959Y-18780D01*
X24549Y-18923D02*
X24009Y-19031D01*
X24662Y-19491D02*
X24612Y-19240D01*
X24612Y-19240D02*
X24072Y-19348D01*
X24122Y-19599D02*
X24072Y-19348D01*
X24662Y-19491D02*
X24122Y-19599D01*
X24518Y-19171D02*
X24487Y-19018D01*
X24487Y-19018D02*
X24103Y-19095D01*
X24134Y-19248D02*
X24103Y-19095D01*
X24518Y-19171D02*
X24134Y-19248D01*
X24097Y-19340D02*
X24034Y-19024D01*
X24587Y-19242D02*
X24524Y-18926D01*
X24083Y-19970D02*
X23779Y-18448D01*
X23779Y-18448D02*
X24538Y-18297D01*
X24538Y-18297D02*
X24842Y-19818D01*
X24842Y-19818D02*
X24083Y-19970D01*
X22048Y-19831D02*
X21906Y-19620D01*
X21906Y-19620D02*
X21448Y-19927D01*
X21591Y-20139D02*
X21448Y-19927D01*
X22048Y-19831D02*
X21591Y-20139D01*
X22371Y-20313D02*
X22229Y-20100D01*
X22229Y-20100D02*
X21771Y-20408D01*
X21914Y-20620D02*
X21771Y-20408D01*
X22371Y-20313D02*
X21914Y-20620D01*
X22115Y-20073D02*
X22028Y-19944D01*
X22028Y-19944D02*
X21703Y-20162D01*
X21790Y-20292D02*
X21703Y-20162D01*
X22115Y-20073D02*
X21790Y-20292D01*
X21791Y-20391D02*
X21612Y-20123D01*
X22206Y-20112D02*
X22027Y-19845D01*
X22021Y-20978D02*
X21155Y-19689D01*
X21155Y-19689D02*
X21797Y-19258D01*
X21797Y-19258D02*
X22663Y-20546D01*
X22663Y-20546D02*
X22021Y-20978D01*
X20137Y-21631D02*
X19925Y-21489D01*
X19925Y-21489D02*
X19619Y-21948D01*
X19831Y-22089D02*
X19619Y-21948D01*
X20137Y-21631D02*
X19831Y-22089D01*
X20620Y-21953D02*
X20407Y-21811D01*
X20407Y-21811D02*
X20101Y-22269D01*
X20314Y-22411D02*
X20101Y-22269D01*
X20620Y-21953D02*
X20314Y-22411D01*
X20291Y-21829D02*
X20161Y-21742D01*
X20161Y-21742D02*
X19944Y-22068D01*
X20074Y-22155D02*
X19944Y-22068D01*
X20291Y-21829D02*
X20074Y-22155D01*
X20113Y-22246D02*
X19845Y-22067D01*
X20390Y-21830D02*
X20122Y-21651D01*
X20548Y-22701D02*
X19257Y-21840D01*
X19257Y-21840D02*
X19687Y-21196D01*
X19687Y-21196D02*
X20978Y-22057D01*
X20978Y-22057D02*
X20548Y-22701D01*
X19024Y-24012D02*
X18772Y-23968D01*
X18772Y-23968D02*
X18677Y-24510D01*
X18928Y-24555D02*
X18677Y-24510D01*
X19024Y-24012D02*
X18928Y-24555D01*
X19595Y-24113D02*
X19343Y-24068D01*
X19343Y-24068D02*
X19247Y-24611D01*
X19499Y-24655D02*
X19247Y-24611D01*
X19595Y-24113D02*
X19499Y-24655D01*
X19244Y-24131D02*
X19091Y-24104D01*
X19091Y-24104D02*
X19023Y-24490D01*
X19176Y-24517D02*
X19023Y-24490D01*
X19244Y-24131D02*
X19176Y-24517D01*
X19249Y-24585D02*
X18931Y-24529D01*
X19335Y-24092D02*
X19018Y-24036D01*
X19830Y-24826D02*
X18302Y-24557D01*
X18302Y-24557D02*
X18436Y-23795D01*
X18436Y-23795D02*
X19965Y-24064D01*
X19965Y-24064D02*
X19830Y-24826D01*
X18923Y-26631D02*
X18673Y-26681D01*
X18673Y-26681D02*
X18780Y-27222D01*
X19031Y-27172D02*
X18780Y-27222D01*
X18923Y-26631D02*
X19031Y-27172D01*
X19491Y-26518D02*
X19240Y-26568D01*
X19240Y-26568D02*
X19348Y-27108D01*
X19599Y-27058D02*
X19348Y-27108D01*
X19491Y-26518D02*
X19599Y-27058D01*
X19171Y-26662D02*
X19018Y-26693D01*
X19018Y-26693D02*
X19095Y-27077D01*
X19248Y-27046D02*
X19095Y-27077D01*
X19171Y-26662D02*
X19248Y-27046D01*
X19340Y-27083D02*
X19024Y-27146D01*
X19242Y-26593D02*
X18926Y-26656D01*
X19970Y-27097D02*
X18448Y-27401D01*
X18448Y-27401D02*
X18297Y-26642D01*
X18297Y-26642D02*
X19818Y-26338D01*
X19818Y-26338D02*
X19970Y-27097D01*
X19831Y-29093D02*
X19620Y-29235D01*
X19620Y-29235D02*
X19927Y-29692D01*
X20139Y-29550D02*
X19927Y-29692D01*
X19831Y-29093D02*
X20139Y-29550D01*
X20313Y-28769D02*
X20100Y-28912D01*
X20100Y-28912D02*
X20408Y-29369D01*
X20620Y-29227D02*
X20408Y-29369D01*
X20313Y-28769D02*
X20620Y-29227D01*
X20073Y-29026D02*
X19944Y-29113D01*
X19944Y-29113D02*
X20162Y-29438D01*
X20292Y-29351D02*
X20162Y-29438D01*
X20073Y-29026D02*
X20292Y-29351D01*
X20391Y-29349D02*
X20123Y-29529D01*
X20112Y-28934D02*
X19845Y-29114D01*
X20978Y-29120D02*
X19689Y-29986D01*
X19689Y-29986D02*
X19258Y-29343D01*
X19258Y-29343D02*
X20546Y-28478D01*
X20546Y-28478D02*
X20978Y-29120D01*
X21611Y-31044D02*
X21470Y-31257D01*
X21470Y-31257D02*
X21930Y-31561D01*
X22070Y-31348D02*
X21930Y-31561D01*
X21611Y-31044D02*
X22070Y-31348D01*
X21931Y-30560D02*
X21790Y-30774D01*
X21790Y-30774D02*
X22249Y-31078D01*
X22391Y-30865D02*
X22249Y-31078D01*
X21931Y-30560D02*
X22391Y-30865D01*
X21808Y-30889D02*
X21722Y-31019D01*
X21722Y-31019D02*
X22049Y-31236D01*
X22135Y-31106D02*
X22049Y-31236D01*
X21808Y-30889D02*
X22135Y-31106D01*
X22226Y-31066D02*
X22048Y-31335D01*
X21809Y-30790D02*
X21631Y-31059D01*
X22680Y-30629D02*
X21823Y-31923D01*
X21823Y-31923D02*
X21178Y-31496D01*
X21178Y-31496D02*
X22034Y-30202D01*
X22034Y-30202D02*
X22680Y-30629D01*
X24010Y-32152D02*
X23962Y-32402D01*
X23962Y-32402D02*
X24503Y-32506D01*
X24551Y-32256D02*
X24503Y-32506D01*
X24010Y-32152D02*
X24551Y-32256D01*
X24120Y-31582D02*
X24071Y-31834D01*
X24071Y-31834D02*
X24613Y-31938D01*
X24661Y-31687D02*
X24613Y-31938D01*
X24120Y-31582D02*
X24661Y-31687D01*
X24133Y-31933D02*
X24103Y-32086D01*
X24103Y-32086D02*
X24488Y-32160D01*
X24518Y-32007D02*
X24488Y-32160D01*
X24133Y-31933D02*
X24518Y-32007D01*
X24586Y-31936D02*
X24526Y-32252D01*
X24095Y-31841D02*
X24035Y-32158D01*
X24837Y-31358D02*
X24544Y-32882D01*
X24544Y-32882D02*
X23784Y-32736D01*
X23784Y-32736D02*
X24077Y-31212D01*
X24077Y-31212D02*
X24837Y-31358D01*
X26633Y-32259D02*
X26684Y-32509D01*
X26684Y-32509D02*
X27224Y-32397D01*
X27172Y-32147D02*
X27224Y-32397D01*
X26633Y-32259D02*
X27172Y-32147D01*
X26515Y-31691D02*
X26567Y-31942D01*
X26567Y-31942D02*
X27107Y-31830D01*
X27055Y-31580D02*
X27107Y-31830D01*
X26515Y-31691D02*
X27055Y-31580D01*
X26662Y-32010D02*
X26693Y-32163D01*
X26693Y-32163D02*
X27077Y-32083D01*
X27046Y-31931D02*
X27077Y-32083D01*
X26662Y-32010D02*
X27046Y-31931D01*
X27082Y-31838D02*
X27147Y-32154D01*
X26592Y-31940D02*
X26657Y-32255D01*
X27091Y-31208D02*
X27406Y-32728D01*
X27406Y-32728D02*
X26648Y-32885D01*
X26648Y-32885D02*
X26333Y-31365D01*
X26333Y-31365D02*
X27091Y-31208D01*
X29134Y-31389D02*
X29278Y-31600D01*
X29278Y-31600D02*
X29733Y-31289D01*
X29589Y-31079D02*
X29733Y-31289D01*
X29134Y-31389D02*
X29589Y-31079D01*
X28807Y-30910D02*
X28952Y-31121D01*
X28952Y-31121D02*
X29407Y-30811D01*
X29262Y-30599D02*
X29407Y-30811D01*
X28807Y-30910D02*
X29262Y-30599D01*
X29065Y-31148D02*
X29153Y-31277D01*
X29153Y-31277D02*
X29477Y-31056D01*
X29389Y-30927D02*
X29477Y-31056D01*
X29065Y-31148D02*
X29389Y-30927D01*
X29387Y-30828D02*
X29568Y-31094D01*
X28974Y-31110D02*
X29155Y-31376D01*
X29154Y-30243D02*
X30028Y-31525D01*
X30028Y-31525D02*
X29389Y-31961D01*
X29389Y-31961D02*
X28514Y-30679D01*
X28514Y-30679D02*
X29154Y-30243D01*
X31046Y-29550D02*
X31260Y-29689D01*
X31260Y-29689D02*
X31561Y-29227D01*
X31347Y-29088D02*
X31561Y-29227D01*
X31046Y-29550D02*
X31347Y-29088D01*
X30560Y-29233D02*
X30775Y-29373D01*
X30775Y-29373D02*
X31076Y-28911D01*
X30861Y-28771D02*
X31076Y-28911D01*
X30560Y-29233D02*
X30861Y-28771D01*
X30890Y-29353D02*
X31021Y-29439D01*
X31021Y-29439D02*
X31235Y-29110D01*
X31104Y-29025D02*
X31235Y-29110D01*
X30890Y-29353D02*
X31104Y-29025D01*
X31064Y-28934D02*
X31334Y-29110D01*
X30791Y-29353D02*
X31061Y-29529D01*
X30624Y-28484D02*
X31924Y-29331D01*
X31924Y-29331D02*
X31501Y-29980D01*
X31501Y-29980D02*
X30201Y-29132D01*
X30201Y-29132D02*
X30624Y-28484D01*
X27190Y-19030D02*
X27240Y-18780D01*
X27240Y-18780D02*
X26700Y-18672D01*
X26650Y-18922D02*
X26700Y-18672D01*
X27190Y-19030D02*
X26650Y-18922D01*
X27077Y-19599D02*
X27127Y-19348D01*
X27127Y-19348D02*
X26586Y-19240D01*
X26536Y-19491D02*
X26586Y-19240D01*
X27077Y-19599D02*
X26536Y-19491D01*
X27066Y-19248D02*
X27097Y-19095D01*
X27097Y-19095D02*
X26712Y-19018D01*
X26682Y-19171D02*
X26712Y-19018D01*
X27066Y-19248D02*
X26682Y-19171D01*
X26613Y-19242D02*
X26676Y-18926D01*
X27103Y-19340D02*
X27166Y-19024D01*
X26358Y-19818D02*
X26662Y-18297D01*
X26662Y-18297D02*
X27421Y-18448D01*
X27421Y-18448D02*
X27117Y-19970D01*
X27117Y-19970D02*
X26358Y-19818D01*
X32258Y-24569D02*
X32508Y-24519D01*
X32508Y-24519D02*
X32400Y-23978D01*
X32150Y-24028D02*
X32400Y-23978D01*
X32258Y-24569D02*
X32150Y-24028D01*
X31689Y-24682D02*
X31940Y-24632D01*
X31940Y-24632D02*
X31832Y-24092D01*
X31581Y-24142D02*
X31832Y-24092D01*
X31689Y-24682D02*
X31581Y-24142D01*
X32009Y-24538D02*
X32162Y-24507D01*
X32162Y-24507D02*
X32085Y-24123D01*
X31932Y-24153D02*
X32085Y-24123D01*
X32009Y-24538D02*
X31932Y-24153D01*
X31840Y-24117D02*
X32156Y-24054D01*
X31938Y-24607D02*
X32254Y-24544D01*
X31210Y-24103D02*
X32732Y-23799D01*
X32732Y-23799D02*
X32884Y-24558D01*
X32884Y-24558D02*
X31362Y-24862D01*
X31362Y-24862D02*
X31210Y-24103D01*
X29569Y-20137D02*
X29711Y-19925D01*
X29711Y-19925D02*
X29252Y-19619D01*
X29111Y-19831D02*
X29252Y-19619D01*
X29569Y-20137D02*
X29111Y-19831D01*
X29247Y-20620D02*
X29389Y-20407D01*
X29389Y-20407D02*
X28931Y-20101D01*
X28789Y-20314D02*
X28931Y-20101D01*
X29247Y-20620D02*
X28789Y-20314D01*
X29371Y-20291D02*
X29458Y-20161D01*
X29458Y-20161D02*
X29132Y-19944D01*
X29045Y-20074D02*
X29132Y-19944D01*
X29371Y-20291D02*
X29045Y-20074D01*
X28954Y-20113D02*
X29133Y-19845D01*
X29370Y-20390D02*
X29549Y-20122D01*
X28499Y-20548D02*
X29360Y-19257D01*
X29360Y-19257D02*
X30004Y-19687D01*
X30004Y-19687D02*
X29143Y-20978D01*
X29143Y-20978D02*
X28499Y-20548D01*
X31348Y-22069D02*
X31560Y-21927D01*
X31560Y-21927D02*
X31255Y-21469D01*
X31042Y-21610D02*
X31255Y-21469D01*
X31348Y-22069D02*
X31042Y-21610D01*
X30866Y-22390D02*
X31079Y-22248D01*
X31079Y-22248D02*
X30773Y-21790D01*
X30560Y-21932D02*
X30773Y-21790D01*
X30866Y-22390D02*
X30560Y-21932D01*
X31106Y-22135D02*
X31236Y-22048D01*
X31236Y-22048D02*
X31019Y-21722D01*
X30889Y-21809D02*
X31019Y-21722D01*
X31106Y-22135D02*
X30889Y-21809D01*
X30790Y-21810D02*
X31058Y-21631D01*
X31067Y-22226D02*
X31335Y-22047D01*
X30202Y-22037D02*
X31493Y-21176D01*
X31493Y-21176D02*
X31923Y-21820D01*
X31923Y-21820D02*
X30632Y-22681D01*
X30632Y-22681D02*
X30202Y-22037D01*
X32150Y-27171D02*
X32400Y-27221D01*
X32400Y-27221D02*
X32508Y-26680D01*
X32258Y-26630D02*
X32508Y-26680D01*
X32150Y-27171D02*
X32258Y-26630D01*
X31581Y-27057D02*
X31832Y-27107D01*
X31832Y-27107D02*
X31940Y-26567D01*
X31689Y-26517D02*
X31940Y-26567D01*
X31581Y-27057D02*
X31689Y-26517D01*
X31932Y-27046D02*
X32085Y-27077D01*
X32085Y-27077D02*
X32162Y-26693D01*
X32009Y-26662D02*
X32162Y-26693D01*
X31932Y-27046D02*
X32009Y-26662D01*
X31938Y-26593D02*
X32254Y-26656D01*
X31840Y-27083D02*
X32156Y-27146D01*
X31362Y-26338D02*
X32884Y-26642D01*
X32884Y-26642D02*
X32732Y-27401D01*
X32732Y-27401D02*
X31210Y-27097D01*
X31210Y-27097D02*
X31362Y-26338D01*
X23723Y-26257D02*
X23723Y-26002D01*
X23723Y-26002D02*
X23172Y-26002D01*
X23172Y-26257D02*
X23172Y-26002D01*
X23723Y-26257D02*
X23172Y-26257D01*
X23723Y-26837D02*
X23723Y-26581D01*
X23723Y-26581D02*
X23172Y-26581D01*
X23172Y-26837D02*
X23172Y-26581D01*
X23723Y-26837D02*
X23172Y-26837D01*
X23644Y-26495D02*
X23644Y-26339D01*
X23644Y-26339D02*
X23252Y-26339D01*
X23252Y-26495D02*
X23252Y-26339D01*
X23644Y-26495D02*
X23252Y-26495D01*
X23198Y-26578D02*
X23198Y-26256D01*
X23698Y-26578D02*
X23698Y-26256D01*
X23061Y-27193D02*
X23061Y-25641D01*
X23061Y-25641D02*
X23835Y-25641D01*
X23835Y-25641D02*
X23835Y-27193D01*
X23835Y-27193D02*
X23061Y-27193D01*
X25758Y-24578D02*
X26013Y-24578D01*
X26013Y-24578D02*
X26013Y-24027D01*
X25758Y-24027D02*
X26013Y-24027D01*
X25758Y-24578D02*
X25758Y-24027D01*
X25178Y-24578D02*
X25434Y-24578D01*
X25434Y-24578D02*
X25434Y-24027D01*
X25178Y-24027D02*
X25434Y-24027D01*
X25178Y-24578D02*
X25178Y-24027D01*
X25520Y-24499D02*
X25676Y-24499D01*
X25676Y-24499D02*
X25676Y-24107D01*
X25520Y-24107D02*
X25676Y-24107D01*
X25520Y-24499D02*
X25520Y-24107D01*
X25437Y-24053D02*
X25759Y-24053D01*
X25437Y-24553D02*
X25759Y-24553D01*
X24822Y-23916D02*
X26374Y-23916D01*
X26374Y-23916D02*
X26374Y-24690D01*
X26374Y-24690D02*
X24822Y-24690D01*
X24822Y-24690D02*
X24822Y-23916D01*
X31739Y-28072D02*
X31694Y-28181D01*
X31694Y-28181D02*
X31803Y-28226D01*
X31803Y-28226D02*
X31848Y-28117D01*
X31848Y-28117D02*
X31739Y-28072D01*
X32263Y-28608D02*
X31851Y-28779D01*
X32204Y-28149D02*
G75*
G03X32204Y-28149I-433J0D01*
G74*
G01*
X32534Y-27954D02*
X32588Y-27976D01*
X32588Y-27976D02*
X32227Y-28849D01*
X32227Y-28849D02*
X32172Y-28827D01*
X31370Y-27472D02*
X31315Y-27449D01*
X31315Y-27449D02*
X30954Y-28322D01*
X30954Y-28322D02*
X31008Y-28345D01*
X31400Y-27399D02*
X32564Y-27881D01*
X32564Y-27881D02*
X32142Y-28899D01*
X32142Y-28899D02*
X30978Y-28417D01*
X30978Y-28417D02*
X31400Y-27399D01*
X31694Y-22999D02*
X31739Y-23108D01*
X31739Y-23108D02*
X31848Y-23063D01*
X31848Y-23063D02*
X31803Y-22954D01*
X31803Y-22954D02*
X31694Y-22999D01*
X32444Y-23008D02*
X32273Y-23420D01*
X32204Y-23031D02*
G75*
G03X32204Y-23031I-433J0D01*
G74*
G01*
X32172Y-22353D02*
X32227Y-22331D01*
X32227Y-22331D02*
X32588Y-23204D01*
X32588Y-23204D02*
X32534Y-23226D01*
X31008Y-22836D02*
X30954Y-22858D01*
X30954Y-22858D02*
X31315Y-23731D01*
X31315Y-23731D02*
X31370Y-23709D01*
X30978Y-22763D02*
X32142Y-22281D01*
X32142Y-22281D02*
X32564Y-23299D01*
X32564Y-23299D02*
X31400Y-23781D01*
X31400Y-23781D02*
X30978Y-22763D01*
X25531Y-18956D02*
X25649Y-18956D01*
X25649Y-18956D02*
X25649Y-18838D01*
X25649Y-18838D02*
X25531Y-18838D01*
X25531Y-18838D02*
X25531Y-18956D01*
X25826Y-18267D02*
X26141Y-18582D01*
X26023Y-18897D02*
G75*
G03X26023Y-18897I-433J0D01*
G74*
G01*
X25118Y-18267D02*
X25118Y-18208D01*
X25118Y-18208D02*
X26062Y-18208D01*
X26062Y-18208D02*
X26062Y-18267D01*
X25118Y-19527D02*
X25118Y-19586D01*
X25118Y-19586D02*
X26062Y-19586D01*
X26062Y-19586D02*
X26062Y-19527D01*
X25039Y-19527D02*
X25039Y-18267D01*
X25039Y-18267D02*
X26141Y-18267D01*
X26141Y-18267D02*
X26141Y-19527D01*
X26141Y-19527D02*
X25039Y-19527D01*
X32224Y-25531D02*
X32224Y-25649D01*
X32224Y-25649D02*
X32342Y-25649D01*
X32342Y-25649D02*
X32342Y-25531D01*
X32342Y-25531D02*
X32224Y-25531D01*
X32913Y-25826D02*
X32598Y-26141D01*
X32716Y-25590D02*
G75*
G03X32716Y-25590I-433J0D01*
G74*
G01*
X32913Y-25118D02*
X32972Y-25118D01*
X32972Y-25118D02*
X32972Y-26062D01*
X32972Y-26062D02*
X32913Y-26062D01*
X31653Y-25118D02*
X31594Y-25118D01*
X31594Y-25118D02*
X31594Y-26062D01*
X31594Y-26062D02*
X31653Y-26062D01*
X31653Y-25039D02*
X32913Y-25039D01*
X32913Y-25039D02*
X32913Y-26141D01*
X32913Y-26141D02*
X31653Y-26141D01*
X31653Y-26141D02*
X31653Y-25039D01*
X30231Y-20846D02*
X30314Y-20929D01*
X30314Y-20929D02*
X30398Y-20846D01*
X30398Y-20846D02*
X30314Y-20762D01*
X30314Y-20762D02*
X30231Y-20846D01*
X30927Y-20568D02*
X30927Y-21013D01*
X30748Y-20846D02*
G75*
G03X30748Y-20846I-433J0D01*
G74*
G01*
X30426Y-20066D02*
X30468Y-20025D01*
X30468Y-20025D02*
X31136Y-20693D01*
X31136Y-20693D02*
X31094Y-20735D01*
X29535Y-20957D02*
X29493Y-20999D01*
X29493Y-20999D02*
X30161Y-21667D01*
X30161Y-21667D02*
X30203Y-21625D01*
X29479Y-20902D02*
X30370Y-20011D01*
X30370Y-20011D02*
X31150Y-20790D01*
X31150Y-20790D02*
X30259Y-21681D01*
X30259Y-21681D02*
X29479Y-20902D01*
X30314Y-30251D02*
X30231Y-30334D01*
X30231Y-30334D02*
X30314Y-30418D01*
X30314Y-30418D02*
X30398Y-30334D01*
X30398Y-30334D02*
X30314Y-30251D01*
X30593Y-30947D02*
X30147Y-30947D01*
X30748Y-30334D02*
G75*
G03X30748Y-30334I-433J0D01*
G74*
G01*
X31094Y-30446D02*
X31136Y-30487D01*
X31136Y-30487D02*
X30468Y-31155D01*
X30468Y-31155D02*
X30426Y-31114D01*
X30203Y-29555D02*
X30161Y-29513D01*
X30161Y-29513D02*
X29493Y-30181D01*
X29493Y-30181D02*
X29535Y-30223D01*
X30259Y-29499D02*
X31150Y-30390D01*
X31150Y-30390D02*
X30370Y-31169D01*
X30370Y-31169D02*
X29479Y-30278D01*
X29479Y-30278D02*
X30259Y-29499D01*
X28092Y-19441D02*
X28201Y-19486D01*
X28201Y-19486D02*
X28246Y-19377D01*
X28246Y-19377D02*
X28137Y-19332D01*
X28137Y-19332D02*
X28092Y-19441D01*
X28628Y-18917D02*
X28799Y-19329D01*
X28602Y-19409D02*
G75*
G03X28602Y-19409I-433J0D01*
G74*
G01*
X27973Y-18646D02*
X27996Y-18592D01*
X27996Y-18592D02*
X28869Y-18953D01*
X28869Y-18953D02*
X28846Y-19008D01*
X27491Y-19810D02*
X27469Y-19865D01*
X27469Y-19865D02*
X28342Y-20226D01*
X28342Y-20226D02*
X28364Y-20172D01*
X27419Y-19780D02*
X27901Y-18616D01*
X27901Y-18616D02*
X28919Y-19038D01*
X28919Y-19038D02*
X28437Y-20202D01*
X28437Y-20202D02*
X27419Y-19780D01*
X28791Y-24590D02*
X29791Y-24590D01*
X29791Y-24590D02*
X29791Y-26590D01*
X29791Y-26590D02*
X28791Y-26590D01*
X28791Y-26590D02*
X28791Y-24590D01*
X22389Y-26590D02*
X21389Y-26590D01*
X21389Y-26590D02*
X21389Y-24590D01*
X21389Y-24590D02*
X22389Y-24590D01*
X22389Y-24590D02*
X22389Y-26590D01*
X26026Y-22874D02*
X26026Y-23474D01*
X26026Y-23474D02*
X25726Y-23474D01*
X25726Y-23474D02*
X25726Y-22874D01*
X25726Y-22874D02*
X26026Y-22874D01*
X25479Y-22874D02*
X25479Y-23474D01*
X25479Y-23474D02*
X25179Y-23474D01*
X25179Y-23474D02*
X25179Y-22874D01*
X25179Y-22874D02*
X25479Y-22874D01*
X24653Y-22651D02*
X23249Y-23598D01*
X23249Y-23598D02*
X22677Y-22749D01*
X22677Y-22749D02*
X24080Y-21803D01*
X24080Y-21803D02*
X24653Y-22651D01*
X24232Y-22626D02*
X23384Y-23199D01*
X23384Y-23199D02*
X23097Y-22774D01*
X23097Y-22774D02*
X23946Y-22202D01*
X23946Y-22202D02*
X24232Y-22626D01*
X22752Y-23459D02*
X22425Y-23679D01*
X22425Y-23679D02*
X22293Y-23483D01*
X22293Y-23483D02*
X22620Y-23263D01*
X24710Y-22138D02*
X25036Y-21918D01*
X25036Y-21918D02*
X24904Y-21722D01*
X24904Y-21722D02*
X24578Y-21942D01*
X23093Y-23965D02*
X22278Y-22757D01*
X22278Y-22757D02*
X24237Y-21436D01*
X24237Y-21436D02*
X25051Y-22644D01*
X25051Y-22644D02*
X23093Y-23965D01*
X27123Y-21811D02*
X28527Y-22757D01*
X28527Y-22757D02*
X27954Y-23606D01*
X27954Y-23606D02*
X26551Y-22659D01*
X26551Y-22659D02*
X27123Y-21811D01*
X27258Y-22210D02*
X28106Y-22782D01*
X28106Y-22782D02*
X27820Y-23207D01*
X27820Y-23207D02*
X26971Y-22634D01*
X26971Y-22634D02*
X27258Y-22210D01*
X28584Y-23271D02*
X28910Y-23491D01*
X28910Y-23491D02*
X28778Y-23687D01*
X28778Y-23687D02*
X28452Y-23467D01*
X26626Y-21950D02*
X26299Y-21730D01*
X26299Y-21730D02*
X26167Y-21925D01*
X26167Y-21925D02*
X26494Y-22146D01*
X28925Y-22765D02*
X28111Y-23972D01*
X28111Y-23972D02*
X26152Y-22652D01*
X26152Y-22652D02*
X26967Y-21444D01*
X26967Y-21444D02*
X28925Y-22765D01*
X28570Y-26877D02*
X28570Y-25539D01*
X28413Y-27035D02*
X26681Y-27035D01*
X28413Y-27035D02*
X28570Y-26877D01*
X26681Y-25539D02*
X28570Y-25539D01*
X26681Y-27035D02*
X26681Y-25539D01*
X28216Y-26877D02*
X27035Y-26877D01*
X27035Y-26877D02*
X27035Y-25696D01*
X27035Y-25696D02*
X28216Y-25696D01*
X28216Y-25696D02*
X28216Y-26877D01*
X24784Y-25687D02*
X24390Y-25687D01*
X24765Y-25518D02*
X24784Y-25462D01*
X24784Y-25368D01*
X24765Y-25331D01*
X24746Y-25312D01*
X24709Y-25293D01*
X24671Y-25293D01*
X24634Y-25312D01*
X24615Y-25331D01*
X24596Y-25368D01*
X24578Y-25443D01*
X24559Y-25481D01*
X24540Y-25500D01*
X24503Y-25518D01*
X24465Y-25518D01*
X24428Y-25500D01*
X24409Y-25481D01*
X24390Y-25443D01*
X24390Y-25350D01*
X24409Y-25293D01*
X24784Y-25125D02*
X24390Y-25125D01*
X24390Y-24975D01*
X24409Y-24937D01*
X24428Y-24918D01*
X24465Y-24900D01*
X24521Y-24900D01*
X24559Y-24918D01*
X24578Y-24937D01*
X24596Y-24975D01*
X24596Y-25125D01*
%LPC*%
G54D14*
X30118Y-25590D03*
X30984Y-25590D03*
X30118Y-25236D03*
X30118Y-25944D03*
X30984Y-25944D03*
X30984Y-25236D03*
X21062Y-25590D03*
X20196Y-25590D03*
X21062Y-25944D03*
X21062Y-25236D03*
X20196Y-25236D03*
X20196Y-25944D03*
G54D15*
X24618Y-26667D03*
G54D16*
X24618Y-26167D03*
X25118Y-26667D03*
X25118Y-26167D03*
X25618Y-26667D03*
X25618Y-26167D03*
G54D17*
X23909Y-25153D03*
X23909Y-24405D03*
X23043Y-24779D03*
G54D10*
G36*
X20508Y-22847D02*
X20056Y-23938D01*
X19510Y-23712D01*
X19962Y-22621D01*
X20508Y-22847D01*
X20508Y-22847D01*
G37*
G36*
X19308Y-22350D02*
X18856Y-23441D01*
X18310Y-23215D01*
X18762Y-22124D01*
X19308Y-22350D01*
X19308Y-22350D01*
G37*
G36*
X20056Y-27242D02*
X20508Y-28333D01*
X19962Y-28559D01*
X19510Y-27468D01*
X20056Y-27242D01*
X20056Y-27242D01*
G37*
G36*
X18856Y-27739D02*
X19308Y-28830D01*
X18762Y-29056D01*
X18310Y-27965D01*
X18856Y-27739D01*
X18856Y-27739D01*
G37*
G36*
X27242Y-31144D02*
X28333Y-30692D01*
X28559Y-31237D01*
X27468Y-31689D01*
X27242Y-31144D01*
X27242Y-31144D01*
G37*
G36*
X27739Y-32344D02*
X28830Y-31892D01*
X29056Y-32438D01*
X27965Y-32890D01*
X27739Y-32344D01*
X27739Y-32344D01*
G37*
G36*
X23938Y-20056D02*
X22847Y-20508D01*
X22621Y-19962D01*
X23712Y-19510D01*
X23938Y-20056D01*
X23938Y-20056D01*
G37*
G36*
X23441Y-18856D02*
X22350Y-19308D01*
X22124Y-18762D01*
X23215Y-18310D01*
X23441Y-18856D01*
X23441Y-18856D01*
G37*
G36*
X22847Y-30672D02*
X23938Y-31124D01*
X23712Y-31670D01*
X22621Y-31218D01*
X22847Y-30672D01*
X22847Y-30672D01*
G37*
G36*
X22350Y-31873D02*
X23441Y-32325D01*
X23215Y-32870D01*
X22124Y-32418D01*
X22350Y-31873D01*
X22350Y-31873D01*
G37*
G54D18*
X25590Y-31633D03*
X25590Y-32933D03*
G54D19*
X19547Y-25590D03*
X18248Y-25590D03*
G54D10*
G36*
X21932Y-21116D02*
X21097Y-21951D01*
X20679Y-21534D01*
X21514Y-20699D01*
X21932Y-21116D01*
X21932Y-21116D01*
G37*
G36*
X21013Y-20198D02*
X20178Y-21033D01*
X19760Y-20615D01*
X20595Y-19780D01*
X21013Y-20198D01*
X21013Y-20198D01*
G37*
G36*
X21097Y-29209D02*
X21932Y-30044D01*
X21514Y-30462D01*
X20679Y-29627D01*
X21097Y-29209D01*
X21097Y-29209D01*
G37*
G36*
X20178Y-30128D02*
X21013Y-30963D01*
X20595Y-31380D01*
X19760Y-30545D01*
X20178Y-30128D01*
X20178Y-30128D01*
G37*
G36*
X24723Y-19693D02*
X24145Y-19808D01*
X24044Y-19307D01*
X24623Y-19192D01*
X24723Y-19693D01*
X24723Y-19693D01*
G37*
G36*
X24577Y-18959D02*
X23998Y-19075D01*
X23898Y-18574D01*
X24476Y-18458D01*
X24577Y-18959D01*
X24577Y-18959D01*
G37*
G36*
X22505Y-20476D02*
X22015Y-20805D01*
X21730Y-20381D01*
X22220Y-20051D01*
X22505Y-20476D01*
X22505Y-20476D01*
G37*
G36*
X22088Y-19855D02*
X21598Y-20184D01*
X21313Y-19760D01*
X21803Y-19431D01*
X22088Y-19855D01*
X22088Y-19855D01*
G37*
G36*
X20805Y-22052D02*
X20478Y-22543D01*
X20053Y-22259D01*
X20380Y-21769D01*
X20805Y-22052D01*
X20805Y-22052D01*
G37*
G36*
X20183Y-21637D02*
X19855Y-22128D01*
X19430Y-21844D01*
X19758Y-21354D01*
X20183Y-21637D01*
X20183Y-21637D01*
G37*
G36*
X19805Y-24129D02*
X19702Y-24710D01*
X19199Y-24622D01*
X19301Y-24041D01*
X19805Y-24129D01*
X19805Y-24129D01*
G37*
G36*
X19068Y-23999D02*
X18965Y-24580D01*
X18462Y-24492D01*
X18565Y-23911D01*
X19068Y-23999D01*
X19068Y-23999D01*
G37*
G36*
X19693Y-26457D02*
X19808Y-27036D01*
X19307Y-27136D01*
X19192Y-26557D01*
X19693Y-26457D01*
X19693Y-26457D01*
G37*
G36*
X18959Y-26604D02*
X19075Y-27182D01*
X18574Y-27282D01*
X18458Y-26704D01*
X18959Y-26604D01*
X18959Y-26604D01*
G37*
G36*
X20476Y-28636D02*
X20805Y-29126D01*
X20381Y-29411D01*
X20051Y-28921D01*
X20476Y-28636D01*
X20476Y-28636D01*
G37*
G36*
X19855Y-29053D02*
X20184Y-29543D01*
X19760Y-29828D01*
X19431Y-29338D01*
X19855Y-29053D01*
X19855Y-29053D01*
G37*
G36*
X22030Y-30375D02*
X22522Y-30700D01*
X22240Y-31126D01*
X21748Y-30801D01*
X22030Y-30375D01*
X22030Y-30375D01*
G37*
G36*
X21617Y-30998D02*
X22109Y-31324D01*
X21827Y-31750D01*
X21335Y-31425D01*
X21617Y-30998D01*
X21617Y-30998D01*
G37*
G36*
X24140Y-31373D02*
X24719Y-31484D01*
X24623Y-31986D01*
X24043Y-31875D01*
X24140Y-31373D01*
X24140Y-31373D01*
G37*
G36*
X23998Y-32107D02*
X24578Y-32219D01*
X24481Y-32721D01*
X23902Y-32609D01*
X23998Y-32107D01*
X23998Y-32107D01*
G37*
G36*
X26453Y-31490D02*
X27031Y-31371D01*
X27134Y-31871D01*
X26557Y-31991D01*
X26453Y-31490D01*
X26453Y-31490D01*
G37*
G36*
X26605Y-32223D02*
X27182Y-32103D01*
X27286Y-32603D01*
X26708Y-32723D01*
X26605Y-32223D01*
X26605Y-32223D01*
G37*
G36*
X28673Y-30748D02*
X29160Y-30416D01*
X29448Y-30838D01*
X28961Y-31170D01*
X28673Y-30748D01*
X28673Y-30748D01*
G37*
G36*
X29094Y-31366D02*
X29582Y-31034D01*
X29870Y-31456D01*
X29382Y-31788D01*
X29094Y-31366D01*
X29094Y-31366D01*
G37*
G36*
X30374Y-29135D02*
X30696Y-28641D01*
X31124Y-28920D01*
X30802Y-29414D01*
X30374Y-29135D01*
X30374Y-29135D01*
G37*
G36*
X31001Y-29544D02*
X31323Y-29049D01*
X31751Y-29328D01*
X31429Y-29823D01*
X31001Y-29544D01*
X31001Y-29544D01*
G37*
G36*
X27055Y-19808D02*
X26477Y-19693D01*
X26577Y-19192D01*
X27155Y-19307D01*
X27055Y-19808D01*
X27055Y-19808D01*
G37*
G36*
X27202Y-19075D02*
X26623Y-18959D01*
X26723Y-18458D01*
X27302Y-18574D01*
X27202Y-19075D01*
X27202Y-19075D01*
G37*
G36*
X31487Y-24743D02*
X31372Y-24164D01*
X31873Y-24064D01*
X31988Y-24643D01*
X31487Y-24743D01*
X31487Y-24743D01*
G37*
G36*
X32221Y-24596D02*
X32105Y-24018D01*
X32606Y-23918D01*
X32722Y-24496D01*
X32221Y-24596D01*
X32221Y-24596D01*
G37*
G36*
X29148Y-20805D02*
X28657Y-20478D01*
X28940Y-20053D01*
X29431Y-20380D01*
X29148Y-20805D01*
X29148Y-20805D01*
G37*
G36*
X29563Y-20183D02*
X29072Y-19855D01*
X29355Y-19430D01*
X29846Y-19758D01*
X29563Y-20183D01*
X29563Y-20183D01*
G37*
G36*
X30702Y-22523D02*
X30375Y-22032D01*
X30800Y-21749D01*
X31128Y-22240D01*
X30702Y-22523D01*
X30702Y-22523D01*
G37*
G36*
X31325Y-22108D02*
X30997Y-21617D01*
X31423Y-21334D01*
X31750Y-21825D01*
X31325Y-22108D01*
X31325Y-22108D01*
G37*
G36*
X31372Y-27036D02*
X31487Y-26457D01*
X31988Y-26557D01*
X31873Y-27136D01*
X31372Y-27036D01*
X31372Y-27036D01*
G37*
G36*
X32105Y-27182D02*
X32221Y-26604D01*
X32722Y-26704D01*
X32606Y-27282D01*
X32105Y-27182D01*
X32105Y-27182D01*
G37*
G54D20*
X23448Y-26791D03*
X23448Y-26043D03*
G54D21*
X25224Y-24303D03*
X25972Y-24303D03*
G54D10*
G36*
X30672Y-28333D02*
X31124Y-27242D01*
X31670Y-27468D01*
X31218Y-28559D01*
X30672Y-28333D01*
X30672Y-28333D01*
G37*
G36*
X31873Y-28830D02*
X32325Y-27739D01*
X32870Y-27965D01*
X32418Y-29056D01*
X31873Y-28830D01*
X31873Y-28830D01*
G37*
G36*
X31124Y-23938D02*
X30672Y-22847D01*
X31218Y-22621D01*
X31670Y-23712D01*
X31124Y-23938D01*
X31124Y-23938D01*
G37*
G36*
X32325Y-23441D02*
X31873Y-22350D01*
X32418Y-22124D01*
X32870Y-23215D01*
X32325Y-23441D01*
X32325Y-23441D01*
G37*
G54D18*
X25590Y-19547D03*
X25590Y-18248D03*
G54D19*
X31633Y-25590D03*
X32933Y-25590D03*
G54D10*
G36*
X30064Y-21932D02*
X29229Y-21097D01*
X29646Y-20679D01*
X30481Y-21514D01*
X30064Y-21932D01*
X30064Y-21932D01*
G37*
G36*
X30983Y-21013D02*
X30147Y-20178D01*
X30565Y-19760D01*
X31400Y-20595D01*
X30983Y-21013D01*
X30983Y-21013D01*
G37*
G36*
X29229Y-30084D02*
X30064Y-29248D01*
X30481Y-29666D01*
X29646Y-30501D01*
X29229Y-30084D01*
X29229Y-30084D01*
G37*
G36*
X30147Y-31002D02*
X30983Y-30167D01*
X31400Y-30585D01*
X30565Y-31420D01*
X30147Y-31002D01*
X30147Y-31002D01*
G37*
G36*
X28353Y-20508D02*
X27262Y-20056D01*
X27488Y-19510D01*
X28579Y-19962D01*
X28353Y-20508D01*
X28353Y-20508D01*
G37*
G36*
X28850Y-19308D02*
X27759Y-18856D01*
X27985Y-18310D01*
X29076Y-18762D01*
X28850Y-19308D01*
X28850Y-19308D01*
G37*
G54D22*
X29291Y-25090D03*
G54D23*
X29291Y-26090D03*
G54D22*
X21889Y-26090D03*
G54D23*
X21889Y-25090D03*
G54D21*
X25212Y-25177D03*
X25960Y-25177D03*
G54D24*
X25876Y-23469D03*
X25876Y-22879D03*
X25329Y-23469D03*
X25329Y-22879D03*
G54D10*
G36*
X25050Y-21481D02*
X25315Y-21872D01*
X24825Y-22203D01*
X24561Y-21811D01*
X25050Y-21481D01*
X25050Y-21481D01*
G37*
G36*
X22472Y-23149D02*
X22802Y-23639D01*
X22312Y-23969D01*
X21982Y-23479D01*
X22472Y-23149D01*
X22472Y-23149D01*
G37*
G36*
X25889Y-21880D02*
X26153Y-21489D01*
X26643Y-21819D01*
X26379Y-22211D01*
X25889Y-21880D01*
X25889Y-21880D01*
G37*
G36*
X28402Y-23646D02*
X28732Y-23157D01*
X29222Y-23487D01*
X28891Y-23977D01*
X28402Y-23646D01*
X28402Y-23646D01*
G37*
G54D25*
X28216Y-26681D03*
X28216Y-26484D03*
X28216Y-26287D03*
X28216Y-26090D03*
X28216Y-25893D03*
X27035Y-25893D03*
X27035Y-26090D03*
X27035Y-26287D03*
X27035Y-26484D03*
X27035Y-26681D03*
G54D26*
X27625Y-26090D03*
M02*
