M48
METRIC,TZ
T1C0.400
T2C0.850
T3C1.016
%
G90
G05
T1
X045850Y-061200
X045850Y-068650
X048150Y-065650
X048850Y-054350
X048900Y-075850
X049300Y-059200
X049750Y-072000
X052600Y-053650
X053550Y-077250
X054100Y-048950
X054100Y-081100
X058150Y-049800
X059100Y-080900
X061200Y-045900
X061200Y-084000
X064450Y-048250
X065550Y-081850
X068900Y-045950
X068900Y-083950
X070950Y-049300
X071950Y-080400
X075750Y-048850
X075800Y-081050
X076300Y-052500
X077250Y-076450
X080200Y-058050
X080850Y-070850
X081150Y-054250
X081200Y-075600
X081900Y-064300
X083950Y-068750
X084000Y-061200
T2
X066200Y-066500
X066200Y-068500
X068200Y-066500
X068200Y-068500
X070200Y-066500
X070200Y-068500
T3
X058280Y-057350
X060820Y-057350
X069180Y-057150
X071720Y-057150
T0
M30
