G04 (created by PCBNEW (2013-04-07 BZR 4075)-testing) date Mon 08 Apr 2013 07:04:17 PM CEST*
%MOIN*%
G04 Gerber Fmt 3.4, Leading zero omitted, Abs format*
%FSLAX34Y34*%
G01*
G70*
G90*
G04 APERTURE LIST*
%ADD10C,0.006*%
%ADD11C,0.0314961*%
%ADD12C,0.019685*%
%ADD13C,0.0590551*%
G04 APERTURE END LIST*
G54D10*
G54D11*
X31673Y-22775D03*
X33070Y-24094D03*
G54D12*
X31165Y-23271D02*
X31165Y-23271D01*
X31177Y-23271D02*
X31165Y-23271D01*
X31673Y-22775D02*
X31177Y-23271D01*
X32655Y-24201D02*
X32964Y-24201D01*
X32964Y-24201D02*
X33070Y-24094D01*
G54D13*
X20387Y-20406D02*
X22782Y-18809D01*
X22782Y-18809D02*
X25590Y-18248D01*
X25590Y-18248D02*
X28417Y-18809D01*
X28417Y-18809D02*
X30774Y-20387D01*
X30774Y-20387D02*
X32371Y-22782D01*
X32371Y-22782D02*
X32655Y-24201D01*
X32655Y-24201D02*
X32933Y-25590D01*
X32933Y-25590D02*
X32371Y-28398D01*
X32371Y-28398D02*
X30774Y-30793D01*
X30774Y-30793D02*
X28398Y-32391D01*
X28398Y-32391D02*
X25590Y-32933D01*
X25590Y-32933D02*
X22782Y-32371D01*
X22782Y-32371D02*
X20387Y-30754D01*
X20387Y-30754D02*
X18809Y-28398D01*
X18809Y-28398D02*
X18248Y-25590D01*
X18248Y-25590D02*
X18809Y-22782D01*
X18809Y-22782D02*
X20387Y-20406D01*
X25590Y-19547D02*
X27920Y-20009D01*
X27920Y-20009D02*
X29855Y-21305D01*
X29855Y-21305D02*
X31165Y-23271D01*
X31165Y-23271D02*
X31171Y-23280D01*
X31171Y-23280D02*
X31633Y-25590D01*
X31633Y-25590D02*
X31171Y-27901D01*
X31171Y-27901D02*
X29855Y-29875D01*
X29855Y-29875D02*
X27901Y-31191D01*
X27901Y-31191D02*
X25590Y-31633D01*
X25590Y-31633D02*
X23280Y-31171D01*
X23280Y-31171D02*
X21305Y-29835D01*
X21305Y-29835D02*
X20009Y-27901D01*
X20009Y-27901D02*
X19547Y-25590D01*
X19547Y-25590D02*
X20009Y-23280D01*
X20009Y-23280D02*
X21305Y-21325D01*
X21305Y-21325D02*
X23280Y-20009D01*
X23280Y-20009D02*
X25590Y-19547D01*
M02*
