G04 (created by PCBNEW (2013-04-07 BZR 4075)-testing) date Mon 08 Apr 2013 11:01:36 PM CEST*
%MOIN*%
G04 Gerber Fmt 3.4, Leading zero omitted, Abs format*
%FSLAX34Y34*%
G01*
G70*
G90*
G04 APERTURE LIST*
%ADD10C,0.006*%
%ADD11C,0.0314961*%
%ADD12C,0.019685*%
%ADD13C,0.0590551*%
G04 APERTURE END LIST*
G54D10*
G54D11*
X24094Y-33070D03*
X24094Y-18070D03*
X27125Y-18090D03*
X33070Y-24094D03*
X33051Y-27066D03*
X27125Y-33051D03*
X21299Y-31929D03*
X19251Y-29862D03*
X18051Y-27027D03*
X18051Y-24094D03*
X19232Y-21397D03*
X21299Y-19271D03*
X29822Y-19232D03*
X31948Y-21358D03*
X31968Y-29763D03*
X29842Y-31909D03*
X32244Y-25314D03*
X18956Y-25846D03*
X25807Y-32224D03*
X30039Y-20669D03*
X25374Y-18996D03*
X22893Y-19606D03*
X20708Y-21122D03*
X31574Y-22854D03*
X28326Y-31653D03*
X19586Y-28346D03*
X31830Y-27893D03*
X30413Y-30098D03*
X23267Y-31850D03*
X21082Y-30413D03*
X19409Y-23307D03*
X27933Y-19409D03*
G54D12*
X24094Y-33070D02*
X24218Y-32658D01*
X24146Y-18536D02*
X24094Y-18070D01*
X27006Y-18529D02*
X27125Y-18090D01*
X33070Y-24094D02*
X32644Y-24147D01*
X32644Y-24147D02*
X32644Y-24147D01*
X32654Y-26983D02*
X33051Y-27066D01*
X27037Y-32653D02*
X27125Y-33051D01*
X21560Y-31563D02*
X21299Y-31929D01*
X19593Y-29568D02*
X19251Y-29862D01*
X18523Y-26968D02*
X18051Y-27027D01*
X18526Y-24197D02*
X18051Y-24094D01*
X19457Y-21622D02*
X19232Y-21397D01*
X19457Y-21622D02*
X19579Y-21622D01*
X21565Y-19537D02*
X21299Y-19271D01*
X21565Y-19537D02*
X21565Y-19621D01*
X29606Y-19448D02*
X29822Y-19232D01*
X29606Y-19448D02*
X29606Y-19605D01*
X31691Y-21615D02*
X31948Y-21358D01*
X31691Y-21615D02*
X31593Y-21615D01*
X31752Y-29547D02*
X31968Y-29763D01*
X31752Y-29547D02*
X31605Y-29547D01*
X29599Y-31666D02*
X29842Y-31909D01*
X29599Y-31666D02*
X29599Y-31583D01*
X21560Y-31667D02*
X21560Y-31563D01*
X21560Y-31563D02*
X21560Y-31546D01*
X19545Y-29568D02*
X19593Y-29568D01*
G54D13*
X20387Y-20406D02*
X21565Y-19621D01*
X19579Y-21622D02*
X20387Y-20406D01*
X21565Y-19621D02*
X22782Y-18809D01*
X22782Y-18809D02*
X24146Y-18536D01*
X24146Y-18536D02*
X24186Y-18528D01*
X24186Y-18528D02*
X25590Y-18248D01*
X25590Y-18248D02*
X27006Y-18529D01*
X27006Y-18529D02*
X28417Y-18809D01*
X28417Y-18809D02*
X29606Y-19605D01*
X29606Y-19605D02*
X30774Y-20387D01*
X30774Y-20387D02*
X31593Y-21615D01*
X31593Y-21615D02*
X32371Y-22782D01*
X32371Y-22782D02*
X32644Y-24147D01*
X32644Y-24147D02*
X32655Y-24201D01*
X32655Y-24201D02*
X32933Y-25590D01*
X32933Y-25590D02*
X32654Y-26983D01*
X32654Y-26983D02*
X32371Y-28398D01*
X32371Y-28398D02*
X31605Y-29547D01*
X31605Y-29547D02*
X30774Y-30793D01*
X30774Y-30793D02*
X29599Y-31583D01*
X29599Y-31583D02*
X28398Y-32391D01*
X28398Y-32391D02*
X27037Y-32653D01*
X27037Y-32653D02*
X27003Y-32660D01*
X27003Y-32660D02*
X25590Y-32933D01*
X25590Y-32933D02*
X24218Y-32658D01*
X24218Y-32658D02*
X24174Y-32650D01*
X24174Y-32650D02*
X22782Y-32371D01*
X22782Y-32371D02*
X21560Y-31546D01*
X21560Y-31546D02*
X20387Y-30754D01*
X20387Y-30754D02*
X19593Y-29568D01*
X19593Y-29568D02*
X18809Y-28398D01*
X18809Y-28398D02*
X18523Y-26968D01*
X18523Y-26968D02*
X18248Y-25590D01*
X18248Y-25590D02*
X18526Y-24197D01*
X18526Y-24197D02*
X18809Y-22782D01*
X18809Y-22782D02*
X19579Y-21622D01*
G54D12*
X31608Y-25461D02*
X31608Y-25461D01*
X32244Y-25314D02*
X31608Y-25461D01*
X19575Y-25730D02*
X19575Y-25730D01*
X18956Y-25846D02*
X19575Y-25730D01*
X25807Y-32224D02*
X25930Y-31568D01*
X30039Y-20669D02*
X29740Y-21228D01*
X25374Y-18996D02*
X25590Y-19547D01*
X19409Y-23307D02*
X20004Y-23307D01*
X20004Y-23307D02*
X20004Y-23307D01*
X23280Y-20009D02*
X22893Y-19606D01*
X21133Y-21585D02*
X20708Y-21122D01*
X31574Y-22854D02*
X31122Y-23206D01*
X31122Y-23206D02*
X31165Y-23206D01*
X31830Y-27893D02*
X31214Y-27688D01*
X31214Y-27688D02*
X31214Y-27688D01*
X27901Y-31191D02*
X28326Y-31653D01*
X23267Y-31850D02*
X23498Y-31215D01*
X19586Y-28346D02*
X20071Y-27993D01*
X20071Y-27993D02*
X20009Y-27993D01*
X31830Y-27893D02*
X31823Y-27901D01*
X29863Y-29863D02*
X29863Y-29863D01*
X30178Y-29863D02*
X29863Y-29863D01*
X30413Y-30098D02*
X30178Y-29863D01*
X27901Y-31227D02*
X27901Y-31191D01*
X23267Y-31850D02*
X23280Y-31838D01*
X21305Y-30190D02*
X21305Y-29835D01*
X21082Y-30413D02*
X21305Y-30190D01*
X20009Y-27923D02*
X20009Y-27993D01*
X20009Y-27993D02*
X20009Y-27901D01*
X19409Y-23307D02*
X19436Y-23280D01*
X23280Y-19992D02*
X23280Y-20009D01*
X27920Y-19421D02*
X27920Y-20009D01*
X27933Y-19409D02*
X27920Y-19421D01*
X31165Y-23271D02*
X31165Y-23206D01*
X31165Y-23206D02*
X31165Y-23271D01*
X31177Y-23271D02*
X31165Y-23271D01*
G54D13*
X25590Y-19547D02*
X27920Y-20009D01*
X27920Y-20009D02*
X29740Y-21228D01*
X29740Y-21228D02*
X29855Y-21305D01*
X29855Y-21305D02*
X31165Y-23271D01*
X31165Y-23271D02*
X31171Y-23280D01*
X31171Y-23280D02*
X31608Y-25461D01*
X31608Y-25461D02*
X31633Y-25590D01*
X31633Y-25590D02*
X31214Y-27688D01*
X31214Y-27688D02*
X31171Y-27901D01*
X31171Y-27901D02*
X29863Y-29863D01*
X29863Y-29863D02*
X29855Y-29875D01*
X29855Y-29875D02*
X27901Y-31191D01*
X27901Y-31191D02*
X25930Y-31568D01*
X25930Y-31568D02*
X25619Y-31628D01*
X25619Y-31628D02*
X25590Y-31633D01*
X25590Y-31633D02*
X23498Y-31215D01*
X23498Y-31215D02*
X23280Y-31171D01*
X23280Y-31171D02*
X21305Y-29835D01*
X21305Y-29835D02*
X20009Y-27901D01*
X20009Y-27901D02*
X19575Y-25730D01*
X19575Y-25730D02*
X19547Y-25590D01*
X19547Y-25590D02*
X20004Y-23307D01*
X20004Y-23307D02*
X20009Y-23280D01*
X20009Y-23280D02*
X21133Y-21585D01*
X21133Y-21585D02*
X21305Y-21325D01*
X21305Y-21325D02*
X23280Y-20009D01*
X23280Y-20009D02*
X25590Y-19547D01*
M02*
