%FSLAX34Y34*%
G04 Gerber Fmt 3.4, Leading zero omitted, Abs format*
G04 (created by PCBNEW (2013-12-14 BZR 4555)-product) date Sun 15 Dec 2013 04:24:51 PM CET*
%MOIN*%
G01*
G70*
G90*
G04 APERTURE LIST*
%ADD10C,0.005906*%
%ADD11R,0.055100X0.039300*%
%ADD12C,0.019685*%
%ADD13R,0.055118X0.055118*%
%ADD14C,0.055118*%
%ADD15R,0.118110X0.059055*%
%ADD16R,0.059055X0.118110*%
%ADD17R,0.059000X0.051100*%
%ADD18R,0.051100X0.059000*%
%ADD19R,0.064961X0.064961*%
%ADD20C,0.064961*%
%ADD21R,0.039370X0.009843*%
%ADD22R,0.055118X0.145669*%
G04 APERTURE END LIST*
G54D10*
G54D11*
X23621Y-25137D03*
X23621Y-24389D03*
X22755Y-24763D03*
G54D12*
X21062Y-25590D03*
X20196Y-25590D03*
X21062Y-25944D03*
X21062Y-25236D03*
X20196Y-25236D03*
X20196Y-25944D03*
X30118Y-25590D03*
X30984Y-25590D03*
X30118Y-25236D03*
X30118Y-25944D03*
X30984Y-25944D03*
X30984Y-25236D03*
G54D13*
X24330Y-26811D03*
G54D14*
X24330Y-26023D03*
X25118Y-26811D03*
X25118Y-26023D03*
X25905Y-26811D03*
X25905Y-26023D03*
G54D10*
G36*
X20508Y-22847D02*
X20056Y-23938D01*
X19510Y-23712D01*
X19962Y-22621D01*
X20508Y-22847D01*
X20508Y-22847D01*
G37*
G36*
X19308Y-22350D02*
X18856Y-23441D01*
X18310Y-23215D01*
X18762Y-22124D01*
X19308Y-22350D01*
X19308Y-22350D01*
G37*
G36*
X20056Y-27242D02*
X20508Y-28333D01*
X19962Y-28559D01*
X19510Y-27468D01*
X20056Y-27242D01*
X20056Y-27242D01*
G37*
G36*
X18856Y-27739D02*
X19308Y-28830D01*
X18762Y-29056D01*
X18310Y-27965D01*
X18856Y-27739D01*
X18856Y-27739D01*
G37*
G36*
X27242Y-31144D02*
X28333Y-30692D01*
X28559Y-31237D01*
X27468Y-31689D01*
X27242Y-31144D01*
X27242Y-31144D01*
G37*
G36*
X27739Y-32344D02*
X28830Y-31892D01*
X29056Y-32438D01*
X27965Y-32890D01*
X27739Y-32344D01*
X27739Y-32344D01*
G37*
G36*
X23938Y-20056D02*
X22847Y-20508D01*
X22621Y-19962D01*
X23712Y-19510D01*
X23938Y-20056D01*
X23938Y-20056D01*
G37*
G36*
X23441Y-18856D02*
X22350Y-19308D01*
X22124Y-18762D01*
X23215Y-18310D01*
X23441Y-18856D01*
X23441Y-18856D01*
G37*
G36*
X22847Y-30672D02*
X23938Y-31124D01*
X23712Y-31670D01*
X22621Y-31218D01*
X22847Y-30672D01*
X22847Y-30672D01*
G37*
G36*
X22350Y-31873D02*
X23441Y-32325D01*
X23215Y-32870D01*
X22124Y-32418D01*
X22350Y-31873D01*
X22350Y-31873D01*
G37*
G54D15*
X25590Y-31633D03*
X25590Y-32933D03*
G54D16*
X19547Y-25590D03*
X18248Y-25590D03*
G54D10*
G36*
X21932Y-21116D02*
X21097Y-21951D01*
X20679Y-21534D01*
X21514Y-20699D01*
X21932Y-21116D01*
X21932Y-21116D01*
G37*
G36*
X21013Y-20198D02*
X20178Y-21033D01*
X19760Y-20615D01*
X20595Y-19780D01*
X21013Y-20198D01*
X21013Y-20198D01*
G37*
G36*
X21097Y-29209D02*
X21932Y-30044D01*
X21514Y-30462D01*
X20679Y-29627D01*
X21097Y-29209D01*
X21097Y-29209D01*
G37*
G36*
X20178Y-30128D02*
X21013Y-30963D01*
X20595Y-31380D01*
X19760Y-30545D01*
X20178Y-30128D01*
X20178Y-30128D01*
G37*
G36*
X24723Y-19693D02*
X24145Y-19808D01*
X24044Y-19307D01*
X24623Y-19192D01*
X24723Y-19693D01*
X24723Y-19693D01*
G37*
G36*
X24577Y-18959D02*
X23998Y-19075D01*
X23898Y-18574D01*
X24476Y-18458D01*
X24577Y-18959D01*
X24577Y-18959D01*
G37*
G36*
X22505Y-20476D02*
X22015Y-20805D01*
X21730Y-20381D01*
X22220Y-20051D01*
X22505Y-20476D01*
X22505Y-20476D01*
G37*
G36*
X22088Y-19855D02*
X21598Y-20184D01*
X21313Y-19760D01*
X21803Y-19431D01*
X22088Y-19855D01*
X22088Y-19855D01*
G37*
G36*
X20805Y-22052D02*
X20478Y-22543D01*
X20053Y-22259D01*
X20380Y-21769D01*
X20805Y-22052D01*
X20805Y-22052D01*
G37*
G36*
X20183Y-21637D02*
X19855Y-22128D01*
X19430Y-21844D01*
X19758Y-21354D01*
X20183Y-21637D01*
X20183Y-21637D01*
G37*
G36*
X19805Y-24129D02*
X19702Y-24710D01*
X19199Y-24622D01*
X19301Y-24041D01*
X19805Y-24129D01*
X19805Y-24129D01*
G37*
G36*
X19068Y-23999D02*
X18965Y-24580D01*
X18462Y-24492D01*
X18565Y-23911D01*
X19068Y-23999D01*
X19068Y-23999D01*
G37*
G36*
X19693Y-26457D02*
X19808Y-27036D01*
X19307Y-27136D01*
X19192Y-26557D01*
X19693Y-26457D01*
X19693Y-26457D01*
G37*
G36*
X18959Y-26604D02*
X19075Y-27182D01*
X18574Y-27282D01*
X18458Y-26704D01*
X18959Y-26604D01*
X18959Y-26604D01*
G37*
G36*
X20476Y-28636D02*
X20805Y-29126D01*
X20381Y-29411D01*
X20051Y-28921D01*
X20476Y-28636D01*
X20476Y-28636D01*
G37*
G36*
X19855Y-29053D02*
X20184Y-29543D01*
X19760Y-29828D01*
X19431Y-29338D01*
X19855Y-29053D01*
X19855Y-29053D01*
G37*
G36*
X22030Y-30375D02*
X22522Y-30700D01*
X22240Y-31126D01*
X21748Y-30801D01*
X22030Y-30375D01*
X22030Y-30375D01*
G37*
G36*
X21617Y-30998D02*
X22109Y-31324D01*
X21827Y-31750D01*
X21335Y-31425D01*
X21617Y-30998D01*
X21617Y-30998D01*
G37*
G36*
X24140Y-31373D02*
X24719Y-31484D01*
X24623Y-31986D01*
X24043Y-31875D01*
X24140Y-31373D01*
X24140Y-31373D01*
G37*
G36*
X23998Y-32107D02*
X24578Y-32219D01*
X24481Y-32721D01*
X23902Y-32609D01*
X23998Y-32107D01*
X23998Y-32107D01*
G37*
G36*
X26453Y-31490D02*
X27031Y-31371D01*
X27134Y-31871D01*
X26557Y-31991D01*
X26453Y-31490D01*
X26453Y-31490D01*
G37*
G36*
X26605Y-32223D02*
X27182Y-32103D01*
X27286Y-32603D01*
X26708Y-32723D01*
X26605Y-32223D01*
X26605Y-32223D01*
G37*
G36*
X28673Y-30748D02*
X29160Y-30416D01*
X29448Y-30838D01*
X28961Y-31170D01*
X28673Y-30748D01*
X28673Y-30748D01*
G37*
G36*
X29094Y-31366D02*
X29582Y-31034D01*
X29870Y-31456D01*
X29382Y-31788D01*
X29094Y-31366D01*
X29094Y-31366D01*
G37*
G36*
X30374Y-29135D02*
X30696Y-28641D01*
X31124Y-28920D01*
X30802Y-29414D01*
X30374Y-29135D01*
X30374Y-29135D01*
G37*
G36*
X31001Y-29544D02*
X31323Y-29049D01*
X31751Y-29328D01*
X31429Y-29823D01*
X31001Y-29544D01*
X31001Y-29544D01*
G37*
G36*
X27055Y-19808D02*
X26477Y-19693D01*
X26577Y-19192D01*
X27155Y-19307D01*
X27055Y-19808D01*
X27055Y-19808D01*
G37*
G36*
X27202Y-19075D02*
X26623Y-18959D01*
X26723Y-18458D01*
X27302Y-18574D01*
X27202Y-19075D01*
X27202Y-19075D01*
G37*
G36*
X31487Y-24743D02*
X31372Y-24164D01*
X31873Y-24064D01*
X31988Y-24643D01*
X31487Y-24743D01*
X31487Y-24743D01*
G37*
G36*
X32221Y-24596D02*
X32105Y-24018D01*
X32606Y-23918D01*
X32722Y-24496D01*
X32221Y-24596D01*
X32221Y-24596D01*
G37*
G36*
X29148Y-20805D02*
X28657Y-20478D01*
X28940Y-20053D01*
X29431Y-20380D01*
X29148Y-20805D01*
X29148Y-20805D01*
G37*
G36*
X29563Y-20183D02*
X29072Y-19855D01*
X29355Y-19430D01*
X29846Y-19758D01*
X29563Y-20183D01*
X29563Y-20183D01*
G37*
G36*
X30702Y-22523D02*
X30375Y-22032D01*
X30800Y-21749D01*
X31128Y-22240D01*
X30702Y-22523D01*
X30702Y-22523D01*
G37*
G36*
X31325Y-22108D02*
X30997Y-21617D01*
X31423Y-21334D01*
X31750Y-21825D01*
X31325Y-22108D01*
X31325Y-22108D01*
G37*
G36*
X31372Y-27036D02*
X31487Y-26457D01*
X31988Y-26557D01*
X31873Y-27136D01*
X31372Y-27036D01*
X31372Y-27036D01*
G37*
G36*
X32105Y-27182D02*
X32221Y-26604D01*
X32722Y-26704D01*
X32606Y-27282D01*
X32105Y-27182D01*
X32105Y-27182D01*
G37*
G54D17*
X23031Y-26791D03*
X23031Y-26043D03*
G54D18*
X25216Y-23905D03*
X25964Y-23905D03*
G54D10*
G36*
X30672Y-28333D02*
X31124Y-27242D01*
X31670Y-27468D01*
X31218Y-28559D01*
X30672Y-28333D01*
X30672Y-28333D01*
G37*
G36*
X31873Y-28830D02*
X32325Y-27739D01*
X32870Y-27965D01*
X32418Y-29056D01*
X31873Y-28830D01*
X31873Y-28830D01*
G37*
G36*
X31124Y-23938D02*
X30672Y-22847D01*
X31218Y-22621D01*
X31670Y-23712D01*
X31124Y-23938D01*
X31124Y-23938D01*
G37*
G36*
X32325Y-23441D02*
X31873Y-22350D01*
X32418Y-22124D01*
X32870Y-23215D01*
X32325Y-23441D01*
X32325Y-23441D01*
G37*
G54D15*
X25590Y-19547D03*
X25590Y-18248D03*
G54D16*
X31633Y-25590D03*
X32933Y-25590D03*
G54D10*
G36*
X30064Y-21932D02*
X29229Y-21097D01*
X29646Y-20679D01*
X30481Y-21514D01*
X30064Y-21932D01*
X30064Y-21932D01*
G37*
G36*
X30983Y-21013D02*
X30147Y-20178D01*
X30565Y-19760D01*
X31400Y-20595D01*
X30983Y-21013D01*
X30983Y-21013D01*
G37*
G36*
X29229Y-30084D02*
X30064Y-29248D01*
X30481Y-29666D01*
X29646Y-30501D01*
X29229Y-30084D01*
X29229Y-30084D01*
G37*
G36*
X30147Y-31002D02*
X30983Y-30167D01*
X31400Y-30585D01*
X30565Y-31420D01*
X30147Y-31002D01*
X30147Y-31002D01*
G37*
G36*
X28353Y-20508D02*
X27262Y-20056D01*
X27488Y-19510D01*
X28579Y-19962D01*
X28353Y-20508D01*
X28353Y-20508D01*
G37*
G36*
X28850Y-19308D02*
X27759Y-18856D01*
X27985Y-18310D01*
X29076Y-18762D01*
X28850Y-19308D01*
X28850Y-19308D01*
G37*
G54D19*
X29291Y-25090D03*
G54D20*
X29291Y-26090D03*
G54D19*
X21889Y-26090D03*
G54D20*
X21889Y-25090D03*
G54D18*
X25216Y-24763D03*
X25964Y-24763D03*
G54D10*
G36*
X25776Y-21263D02*
X26061Y-21396D01*
X25928Y-21680D01*
X25643Y-21548D01*
X25776Y-21263D01*
X25776Y-21263D01*
G37*
G36*
X26311Y-21512D02*
X26595Y-21645D01*
X26463Y-21930D01*
X26178Y-21797D01*
X26311Y-21512D01*
X26311Y-21512D01*
G37*
G36*
X25534Y-21542D02*
X25250Y-21675D01*
X25117Y-21390D01*
X25401Y-21258D01*
X25534Y-21542D01*
X25534Y-21542D01*
G37*
G36*
X24999Y-21792D02*
X24715Y-21924D01*
X24582Y-21640D01*
X24867Y-21507D01*
X24999Y-21792D01*
X24999Y-21792D01*
G37*
G36*
X25319Y-21846D02*
X25518Y-22275D01*
X24983Y-22524D01*
X24783Y-22096D01*
X25319Y-21846D01*
X25319Y-21846D01*
G37*
G36*
X22511Y-23091D02*
X22760Y-23626D01*
X22225Y-23875D01*
X21975Y-23340D01*
X22511Y-23091D01*
X22511Y-23091D01*
G37*
G36*
X25662Y-22275D02*
X25861Y-21846D01*
X26397Y-22096D01*
X26197Y-22524D01*
X25662Y-22275D01*
X25662Y-22275D01*
G37*
G36*
X28420Y-23626D02*
X28670Y-23091D01*
X29205Y-23340D01*
X28955Y-23875D01*
X28420Y-23626D01*
X28420Y-23626D01*
G37*
G54D21*
X28216Y-26681D03*
X28216Y-26484D03*
X28216Y-26287D03*
X28216Y-26090D03*
X28216Y-25893D03*
X27035Y-25893D03*
X27035Y-26090D03*
X27035Y-26287D03*
X27035Y-26484D03*
X27035Y-26681D03*
G54D22*
X27625Y-26090D03*
M02*
