G04 (created by PCBNEW (2013-04-07 BZR 4075)-testing) date Mon 08 Apr 2013 07:04:17 PM CEST*
%MOIN*%
G04 Gerber Fmt 3.4, Leading zero omitted, Abs format*
%FSLAX34Y34*%
G01*
G70*
G90*
G04 APERTURE LIST*
%ADD10C,0.006*%
%ADD11C,0.00787402*%
%ADD12C,0.0026*%
%ADD13C,0.002*%
G04 APERTURE END LIST*
G54D10*
G54D11*
X31739Y-28072D02*
X31694Y-28181D01*
X31694Y-28181D02*
X31803Y-28226D01*
X31803Y-28226D02*
X31848Y-28117D01*
X31848Y-28117D02*
X31739Y-28072D01*
X32263Y-28608D02*
X31851Y-28779D01*
X32204Y-28149D02*
G75*
G03X32204Y-28149I-433J0D01*
G74*
G01*
X32534Y-27954D02*
X32588Y-27976D01*
X32588Y-27976D02*
X32227Y-28849D01*
X32227Y-28849D02*
X32172Y-28827D01*
X31370Y-27472D02*
X31315Y-27449D01*
X31315Y-27449D02*
X30954Y-28322D01*
X30954Y-28322D02*
X31008Y-28345D01*
X31400Y-27399D02*
X32564Y-27881D01*
X32564Y-27881D02*
X32142Y-28899D01*
X32142Y-28899D02*
X30978Y-28417D01*
X30978Y-28417D02*
X31400Y-27399D01*
X19441Y-23108D02*
X19486Y-22999D01*
X19486Y-22999D02*
X19377Y-22954D01*
X19377Y-22954D02*
X19332Y-23063D01*
X19332Y-23063D02*
X19441Y-23108D01*
X18917Y-22572D02*
X19329Y-22401D01*
X19842Y-23031D02*
G75*
G03X19842Y-23031I-433J0D01*
G74*
G01*
X18646Y-23226D02*
X18592Y-23204D01*
X18592Y-23204D02*
X18953Y-22331D01*
X18953Y-22331D02*
X19008Y-22353D01*
X19810Y-23709D02*
X19865Y-23731D01*
X19865Y-23731D02*
X20226Y-22858D01*
X20226Y-22858D02*
X20172Y-22836D01*
X19780Y-23781D02*
X18616Y-23299D01*
X18616Y-23299D02*
X19038Y-22281D01*
X19038Y-22281D02*
X20202Y-22763D01*
X20202Y-22763D02*
X19780Y-23781D01*
X19486Y-28181D02*
X19441Y-28072D01*
X19441Y-28072D02*
X19332Y-28117D01*
X19332Y-28117D02*
X19377Y-28226D01*
X19377Y-28226D02*
X19486Y-28181D01*
X18737Y-28172D02*
X18907Y-27760D01*
X19842Y-28149D02*
G75*
G03X19842Y-28149I-433J0D01*
G74*
G01*
X19008Y-28827D02*
X18953Y-28849D01*
X18953Y-28849D02*
X18592Y-27976D01*
X18592Y-27976D02*
X18646Y-27954D01*
X20172Y-28345D02*
X20226Y-28322D01*
X20226Y-28322D02*
X19865Y-27449D01*
X19865Y-27449D02*
X19810Y-27472D01*
X20202Y-28417D02*
X19038Y-28899D01*
X19038Y-28899D02*
X18616Y-27881D01*
X18616Y-27881D02*
X19780Y-27399D01*
X19780Y-27399D02*
X20202Y-28417D01*
X31694Y-22999D02*
X31739Y-23108D01*
X31739Y-23108D02*
X31848Y-23063D01*
X31848Y-23063D02*
X31803Y-22954D01*
X31803Y-22954D02*
X31694Y-22999D01*
X32444Y-23008D02*
X32273Y-23420D01*
X32204Y-23031D02*
G75*
G03X32204Y-23031I-433J0D01*
G74*
G01*
X32172Y-22353D02*
X32227Y-22331D01*
X32227Y-22331D02*
X32588Y-23204D01*
X32588Y-23204D02*
X32534Y-23226D01*
X31008Y-22836D02*
X30954Y-22858D01*
X30954Y-22858D02*
X31315Y-23731D01*
X31315Y-23731D02*
X31370Y-23709D01*
X30978Y-22763D02*
X32142Y-22281D01*
X32142Y-22281D02*
X32564Y-23299D01*
X32564Y-23299D02*
X31400Y-23781D01*
X31400Y-23781D02*
X30978Y-22763D01*
X28181Y-31714D02*
X28072Y-31759D01*
X28072Y-31759D02*
X28117Y-31868D01*
X28117Y-31868D02*
X28226Y-31823D01*
X28226Y-31823D02*
X28181Y-31714D01*
X28172Y-32463D02*
X27760Y-32293D01*
X28582Y-31791D02*
G75*
G03X28582Y-31791I-433J0D01*
G74*
G01*
X28827Y-32192D02*
X28849Y-32247D01*
X28849Y-32247D02*
X27976Y-32608D01*
X27976Y-32608D02*
X27954Y-32554D01*
X28345Y-31028D02*
X28322Y-30974D01*
X28322Y-30974D02*
X27449Y-31335D01*
X27449Y-31335D02*
X27472Y-31390D01*
X28417Y-30998D02*
X28899Y-32162D01*
X28899Y-32162D02*
X27881Y-32584D01*
X27881Y-32584D02*
X27399Y-31420D01*
X27399Y-31420D02*
X28417Y-30998D01*
X22999Y-19486D02*
X23108Y-19441D01*
X23108Y-19441D02*
X23063Y-19332D01*
X23063Y-19332D02*
X22954Y-19377D01*
X22954Y-19377D02*
X22999Y-19486D01*
X23008Y-18737D02*
X23420Y-18907D01*
X23464Y-19409D02*
G75*
G03X23464Y-19409I-433J0D01*
G74*
G01*
X22353Y-19008D02*
X22331Y-18953D01*
X22331Y-18953D02*
X23204Y-18592D01*
X23204Y-18592D02*
X23226Y-18646D01*
X22836Y-20172D02*
X22858Y-20226D01*
X22858Y-20226D02*
X23731Y-19865D01*
X23731Y-19865D02*
X23709Y-19810D01*
X22763Y-20202D02*
X22281Y-19038D01*
X22281Y-19038D02*
X23299Y-18616D01*
X23299Y-18616D02*
X23781Y-19780D01*
X23781Y-19780D02*
X22763Y-20202D01*
X23108Y-31739D02*
X22999Y-31694D01*
X22999Y-31694D02*
X22954Y-31803D01*
X22954Y-31803D02*
X23063Y-31848D01*
X23063Y-31848D02*
X23108Y-31739D01*
X22572Y-32263D02*
X22401Y-31851D01*
X23464Y-31771D02*
G75*
G03X23464Y-31771I-433J0D01*
G74*
G01*
X23226Y-32534D02*
X23204Y-32588D01*
X23204Y-32588D02*
X22331Y-32227D01*
X22331Y-32227D02*
X22353Y-32172D01*
X23709Y-31370D02*
X23731Y-31315D01*
X23731Y-31315D02*
X22858Y-30954D01*
X22858Y-30954D02*
X22836Y-31008D01*
X23781Y-31400D02*
X23299Y-32564D01*
X23299Y-32564D02*
X22281Y-32142D01*
X22281Y-32142D02*
X22763Y-30978D01*
X22763Y-30978D02*
X23781Y-31400D01*
X25531Y-18956D02*
X25649Y-18956D01*
X25649Y-18956D02*
X25649Y-18838D01*
X25649Y-18838D02*
X25531Y-18838D01*
X25531Y-18838D02*
X25531Y-18956D01*
X25826Y-18267D02*
X26141Y-18582D01*
X26023Y-18897D02*
G75*
G03X26023Y-18897I-433J0D01*
G74*
G01*
X25118Y-18267D02*
X25118Y-18208D01*
X25118Y-18208D02*
X26062Y-18208D01*
X26062Y-18208D02*
X26062Y-18267D01*
X25118Y-19527D02*
X25118Y-19586D01*
X25118Y-19586D02*
X26062Y-19586D01*
X26062Y-19586D02*
X26062Y-19527D01*
X25039Y-19527D02*
X25039Y-18267D01*
X25039Y-18267D02*
X26141Y-18267D01*
X26141Y-18267D02*
X26141Y-19527D01*
X26141Y-19527D02*
X25039Y-19527D01*
X25649Y-32224D02*
X25531Y-32224D01*
X25531Y-32224D02*
X25531Y-32342D01*
X25531Y-32342D02*
X25649Y-32342D01*
X25649Y-32342D02*
X25649Y-32224D01*
X25354Y-32913D02*
X25039Y-32598D01*
X26023Y-32283D02*
G75*
G03X26023Y-32283I-433J0D01*
G74*
G01*
X26062Y-32913D02*
X26062Y-32972D01*
X26062Y-32972D02*
X25118Y-32972D01*
X25118Y-32972D02*
X25118Y-32913D01*
X26062Y-31653D02*
X26062Y-31594D01*
X26062Y-31594D02*
X25118Y-31594D01*
X25118Y-31594D02*
X25118Y-31653D01*
X26141Y-31653D02*
X26141Y-32913D01*
X26141Y-32913D02*
X25039Y-32913D01*
X25039Y-32913D02*
X25039Y-31653D01*
X25039Y-31653D02*
X26141Y-31653D01*
X32224Y-25531D02*
X32224Y-25649D01*
X32224Y-25649D02*
X32342Y-25649D01*
X32342Y-25649D02*
X32342Y-25531D01*
X32342Y-25531D02*
X32224Y-25531D01*
X32913Y-25826D02*
X32598Y-26141D01*
X32716Y-25590D02*
G75*
G03X32716Y-25590I-433J0D01*
G74*
G01*
X32913Y-25118D02*
X32972Y-25118D01*
X32972Y-25118D02*
X32972Y-26062D01*
X32972Y-26062D02*
X32913Y-26062D01*
X31653Y-25118D02*
X31594Y-25118D01*
X31594Y-25118D02*
X31594Y-26062D01*
X31594Y-26062D02*
X31653Y-26062D01*
X31653Y-25039D02*
X32913Y-25039D01*
X32913Y-25039D02*
X32913Y-26141D01*
X32913Y-26141D02*
X31653Y-26141D01*
X31653Y-26141D02*
X31653Y-25039D01*
X18956Y-25649D02*
X18956Y-25531D01*
X18956Y-25531D02*
X18838Y-25531D01*
X18838Y-25531D02*
X18838Y-25649D01*
X18838Y-25649D02*
X18956Y-25649D01*
X18267Y-25354D02*
X18582Y-25039D01*
X19330Y-25590D02*
G75*
G03X19330Y-25590I-433J0D01*
G74*
G01*
X18267Y-26062D02*
X18208Y-26062D01*
X18208Y-26062D02*
X18208Y-25118D01*
X18208Y-25118D02*
X18267Y-25118D01*
X19527Y-26062D02*
X19586Y-26062D01*
X19586Y-26062D02*
X19586Y-25118D01*
X19586Y-25118D02*
X19527Y-25118D01*
X19527Y-26141D02*
X18267Y-26141D01*
X18267Y-26141D02*
X18267Y-25039D01*
X18267Y-25039D02*
X19527Y-25039D01*
X19527Y-25039D02*
X19527Y-26141D01*
X30231Y-20846D02*
X30314Y-20929D01*
X30314Y-20929D02*
X30398Y-20846D01*
X30398Y-20846D02*
X30314Y-20762D01*
X30314Y-20762D02*
X30231Y-20846D01*
X30927Y-20568D02*
X30927Y-21013D01*
X30748Y-20846D02*
G75*
G03X30748Y-20846I-433J0D01*
G74*
G01*
X30426Y-20066D02*
X30468Y-20025D01*
X30468Y-20025D02*
X31136Y-20693D01*
X31136Y-20693D02*
X31094Y-20735D01*
X29535Y-20957D02*
X29493Y-20999D01*
X29493Y-20999D02*
X30161Y-21667D01*
X30161Y-21667D02*
X30203Y-21625D01*
X29479Y-20902D02*
X30370Y-20011D01*
X30370Y-20011D02*
X31150Y-20790D01*
X31150Y-20790D02*
X30259Y-21681D01*
X30259Y-21681D02*
X29479Y-20902D01*
X20846Y-20949D02*
X20929Y-20866D01*
X20929Y-20866D02*
X20846Y-20782D01*
X20846Y-20782D02*
X20762Y-20866D01*
X20762Y-20866D02*
X20846Y-20949D01*
X20568Y-20253D02*
X21013Y-20253D01*
X21279Y-20866D02*
G75*
G03X21279Y-20866I-433J0D01*
G74*
G01*
X20066Y-20754D02*
X20025Y-20713D01*
X20025Y-20713D02*
X20693Y-20044D01*
X20693Y-20044D02*
X20735Y-20086D01*
X20957Y-21645D02*
X20999Y-21687D01*
X20999Y-21687D02*
X21667Y-21019D01*
X21667Y-21019D02*
X21625Y-20977D01*
X20902Y-21701D02*
X20011Y-20810D01*
X20011Y-20810D02*
X20790Y-20030D01*
X20790Y-20030D02*
X21681Y-20921D01*
X21681Y-20921D02*
X20902Y-21701D01*
X20929Y-30295D02*
X20846Y-30211D01*
X20846Y-30211D02*
X20762Y-30295D01*
X20762Y-30295D02*
X20846Y-30378D01*
X20846Y-30378D02*
X20929Y-30295D01*
X20234Y-30573D02*
X20234Y-30128D01*
X21279Y-30295D02*
G75*
G03X21279Y-30295I-433J0D01*
G74*
G01*
X20735Y-31074D02*
X20693Y-31116D01*
X20693Y-31116D02*
X20025Y-30448D01*
X20025Y-30448D02*
X20066Y-30406D01*
X21625Y-30183D02*
X21667Y-30142D01*
X21667Y-30142D02*
X20999Y-29474D01*
X20999Y-29474D02*
X20957Y-29515D01*
X21681Y-30239D02*
X20790Y-31130D01*
X20790Y-31130D02*
X20011Y-30350D01*
X20011Y-30350D02*
X20902Y-29460D01*
X20902Y-29460D02*
X21681Y-30239D01*
X30314Y-30251D02*
X30231Y-30334D01*
X30231Y-30334D02*
X30314Y-30418D01*
X30314Y-30418D02*
X30398Y-30334D01*
X30398Y-30334D02*
X30314Y-30251D01*
X30593Y-30947D02*
X30147Y-30947D01*
X30748Y-30334D02*
G75*
G03X30748Y-30334I-433J0D01*
G74*
G01*
X31094Y-30446D02*
X31136Y-30487D01*
X31136Y-30487D02*
X30468Y-31155D01*
X30468Y-31155D02*
X30426Y-31114D01*
X30203Y-29555D02*
X30161Y-29513D01*
X30161Y-29513D02*
X29493Y-30181D01*
X29493Y-30181D02*
X29535Y-30223D01*
X30259Y-29499D02*
X31150Y-30390D01*
X31150Y-30390D02*
X30370Y-31169D01*
X30370Y-31169D02*
X29479Y-30278D01*
X29479Y-30278D02*
X30259Y-29499D01*
X28092Y-19441D02*
X28201Y-19486D01*
X28201Y-19486D02*
X28246Y-19377D01*
X28246Y-19377D02*
X28137Y-19332D01*
X28137Y-19332D02*
X28092Y-19441D01*
X28628Y-18917D02*
X28799Y-19329D01*
X28602Y-19409D02*
G75*
G03X28602Y-19409I-433J0D01*
G74*
G01*
X27973Y-18646D02*
X27996Y-18592D01*
X27996Y-18592D02*
X28869Y-18953D01*
X28869Y-18953D02*
X28846Y-19008D01*
X27491Y-19810D02*
X27469Y-19865D01*
X27469Y-19865D02*
X28342Y-20226D01*
X28342Y-20226D02*
X28364Y-20172D01*
X27419Y-19780D02*
X27901Y-18616D01*
X27901Y-18616D02*
X28919Y-19038D01*
X28919Y-19038D02*
X28437Y-20202D01*
X28437Y-20202D02*
X27419Y-19780D01*
G54D12*
X32258Y-24569D02*
X32508Y-24519D01*
X32508Y-24519D02*
X32400Y-23978D01*
X32150Y-24028D02*
X32400Y-23978D01*
X32258Y-24569D02*
X32150Y-24028D01*
X31689Y-24682D02*
X31940Y-24632D01*
X31940Y-24632D02*
X31832Y-24092D01*
X31581Y-24142D02*
X31832Y-24092D01*
X31689Y-24682D02*
X31581Y-24142D01*
X32009Y-24538D02*
X32162Y-24507D01*
X32162Y-24507D02*
X32085Y-24123D01*
X31932Y-24153D02*
X32085Y-24123D01*
X32009Y-24538D02*
X31932Y-24153D01*
G54D10*
X31840Y-24117D02*
X32156Y-24054D01*
X31938Y-24607D02*
X32254Y-24544D01*
G54D13*
X31210Y-24103D02*
X32732Y-23799D01*
X32732Y-23799D02*
X32884Y-24558D01*
X32884Y-24558D02*
X31362Y-24862D01*
X31362Y-24862D02*
X31210Y-24103D01*
M02*
