M48
METRIC,TZ
T1C0.400
T2C0.500
T3C0.610
T4C1.016
%
G90
G05
T1
X046200Y-061200
X046200Y-068800
X048150Y-065650
X049000Y-054400
X049100Y-075700
X049300Y-059200
X049750Y-072000
X052600Y-053650
X053550Y-077250
X054300Y-049000
X054300Y-080900
X056900Y-069200
X057200Y-064600
X057250Y-061350
X058150Y-049800
X059100Y-080900
X061200Y-046200
X061300Y-083800
X064030Y-063990
X064450Y-048250
X065550Y-081850
X066430Y-067110
X067240Y-068080
X067770Y-065230
X068760Y-063810
X068800Y-046200
X068800Y-083800
X069700Y-061940
X070950Y-049300
X071950Y-080400
X073610Y-068670
X075700Y-049100
X075700Y-081100
X076300Y-052500
X077250Y-076450
X080200Y-058050
X080850Y-070850
X080900Y-054300
X081000Y-075500
X081900Y-064300
X083800Y-061200
X083800Y-068700
T2
X051300Y-064100
X051300Y-065000
X051300Y-065900
X053500Y-064100
X053500Y-065000
X053500Y-065900
X076500Y-064100
X076500Y-065000
X076500Y-065900
X078700Y-064100
X078700Y-065000
X078700Y-065900
T3
X062530Y-066465
X062530Y-067735
X063800Y-066465
X063800Y-067735
X065070Y-066465
X065070Y-067735
T4
X055600Y-063730
X055600Y-066270
X074400Y-063730
X074400Y-066270
T0
M30
