G04 #@! TF.FileFunction,Copper,L2,Bot,Signal*
%FSLAX46Y46*%
G04 Gerber Fmt 4.6, Leading zero omitted, Abs format (unit mm)*
G04 Created by KiCad (PCBNEW (2015-04-10 BZR 5591)-product) date Sat 11 Apr 2015 12:57:23 AM CEST*
%MOMM*%
G01*
G04 APERTURE LIST*
%ADD10C,0.150000*%
%ADD11R,1.016000X1.016000*%
%ADD12C,1.016000*%
%ADD13R,1.650000X2.500000*%
%ADD14O,1.650000X2.500000*%
%ADD15C,0.500000*%
%ADD16R,2.500000X1.500000*%
%ADD17C,0.800000*%
%ADD18C,0.400000*%
%ADD19C,0.250000*%
%ADD20C,1.500000*%
%ADD21C,0.500000*%
G04 APERTURE END LIST*
D10*
D11*
X62530000Y-67735000D03*
D12*
X62530000Y-66465000D03*
X63800000Y-67735000D03*
X63800000Y-66465000D03*
X65070000Y-67735000D03*
X65070000Y-66465000D03*
D13*
X74400000Y-63280000D03*
D14*
X74400000Y-66720000D03*
D13*
X55600000Y-66720000D03*
D14*
X55600000Y-63280000D03*
D15*
X76500000Y-65000000D03*
X78700000Y-65000000D03*
X76500000Y-64100000D03*
X76500000Y-65900000D03*
X78700000Y-65900000D03*
X78700000Y-64100000D03*
X53500000Y-65000000D03*
X51300000Y-65000000D03*
X53500000Y-65900000D03*
X53500000Y-64100000D03*
X51300000Y-64100000D03*
X51300000Y-65900000D03*
D16*
X49450000Y-67450000D03*
X47450000Y-62950000D03*
D17*
X67240000Y-68080000D03*
X64030000Y-63990000D03*
X69700000Y-61940000D03*
X68760000Y-63810000D03*
X72910000Y-68750000D03*
X67770000Y-65230000D03*
X66430000Y-67110000D03*
X57200000Y-64600000D03*
X57250000Y-61350000D03*
X57560000Y-67530000D03*
X49750000Y-72000000D03*
X71950000Y-80400000D03*
X80200000Y-58050000D03*
X52600000Y-53650000D03*
X58150000Y-49800000D03*
X49300000Y-59200000D03*
X48150000Y-65650000D03*
X70950000Y-49300000D03*
X64450000Y-48250000D03*
X59100000Y-80900000D03*
X65550000Y-81850000D03*
X77250000Y-76450000D03*
X80850000Y-70850000D03*
X81900000Y-64300000D03*
X76300000Y-52500000D03*
X53550000Y-77250000D03*
X75700000Y-81100000D03*
X81000000Y-75500000D03*
X80900000Y-54300000D03*
X75700000Y-49100000D03*
X54300000Y-49000000D03*
X49000000Y-54400000D03*
X46200000Y-61200000D03*
X46200000Y-68800000D03*
X49100000Y-75700000D03*
X54300000Y-80900000D03*
X61300000Y-83800000D03*
X68800000Y-46200000D03*
X61200000Y-46200000D03*
X68800000Y-83800000D03*
X83800000Y-68700000D03*
X83800000Y-61200000D03*
D18*
X74400000Y-62505000D02*
X72875000Y-60980000D01*
X74400000Y-63730000D02*
X74400000Y-62505000D01*
X72875000Y-60980000D02*
X67430000Y-60980000D01*
X68720000Y-64960000D02*
X68720000Y-66600000D01*
X68720000Y-64960000D02*
X67430000Y-63670000D01*
X67430000Y-60980000D02*
X67430000Y-63670000D01*
X68720000Y-66600000D02*
X67240000Y-68080000D01*
X64260000Y-60980000D02*
X67430000Y-60980000D01*
X62745000Y-62495000D02*
X64260000Y-60980000D01*
X61700000Y-63540000D02*
X62745000Y-62495000D01*
X55600000Y-66270000D02*
X58970000Y-66270000D01*
X58970000Y-66270000D02*
X61700000Y-63540000D01*
X62530000Y-64380000D02*
X62530000Y-66465000D01*
X61695000Y-63545000D02*
X61700000Y-63540000D01*
X62530000Y-64380000D02*
X61695000Y-63545000D01*
X64030000Y-63770000D02*
X64030000Y-63990000D01*
X62745000Y-62495000D02*
X62755000Y-62495000D01*
X62755000Y-62495000D02*
X64030000Y-63770000D01*
X69720000Y-61960000D02*
X69720000Y-63810000D01*
X69700000Y-61940000D02*
X69720000Y-61960000D01*
D19*
X68760000Y-63810000D02*
X69720000Y-63810000D01*
D18*
X69720000Y-65560000D02*
X69720000Y-64780000D01*
X69720000Y-63810000D02*
X69720000Y-64780000D01*
X72910000Y-68750000D02*
X69720000Y-65560000D01*
X63800000Y-65890000D02*
X64460000Y-65230000D01*
X64460000Y-65230000D02*
X67770000Y-65230000D01*
X63800000Y-66465000D02*
X63800000Y-65890000D01*
D19*
X63800000Y-69390000D02*
X63860000Y-69450000D01*
X63800000Y-67735000D02*
X63800000Y-69390000D01*
X66000000Y-69450000D02*
X66430000Y-69020000D01*
X63860000Y-69450000D02*
X66000000Y-69450000D01*
X66430000Y-69020000D02*
X66430000Y-67110000D01*
D18*
X57250000Y-64550000D02*
X57200000Y-64600000D01*
X57250000Y-61350000D02*
X57250000Y-64550000D01*
D19*
X58030000Y-69450000D02*
X57560000Y-68980000D01*
X57560000Y-68980000D02*
X57560000Y-67530000D01*
X58440000Y-69450000D02*
X63830000Y-69450000D01*
X63800000Y-69450000D02*
X63830000Y-69420000D01*
X63830000Y-69420000D02*
X63830000Y-69450000D01*
X63860000Y-69450000D02*
X63800000Y-69450000D01*
X58440000Y-69450000D02*
X58030000Y-69450000D01*
D20*
X59131428Y-50824401D02*
X65000000Y-49650000D01*
X54116726Y-54166726D02*
X59131428Y-50824401D01*
X53678888Y-54826969D02*
X54116726Y-54166726D01*
X50824401Y-59131428D02*
X53678888Y-54826969D01*
X50810679Y-59199998D02*
X50824401Y-59131428D01*
X49650000Y-65000000D02*
X50810679Y-59199998D01*
X49721124Y-65355412D02*
X49650000Y-65000000D01*
X50824401Y-70868572D02*
X49721124Y-65355412D01*
X54116726Y-75783274D02*
X50824401Y-70868572D01*
X54353877Y-75943701D02*
X54116726Y-75783274D01*
X59131428Y-79175599D02*
X54353877Y-75943701D01*
X59686651Y-79286709D02*
X59131428Y-79175599D01*
X65000000Y-80350000D02*
X59686651Y-79286709D01*
X65073925Y-80335836D02*
X65000000Y-80350000D01*
X65862225Y-80184800D02*
X65073925Y-80335836D01*
X70868572Y-79225599D02*
X65862225Y-80184800D01*
X75833274Y-75883274D02*
X70868572Y-79225599D01*
X75853774Y-75852517D02*
X75833274Y-75883274D01*
X79175599Y-70868572D02*
X75853774Y-75852517D01*
X79283791Y-70327928D02*
X79175599Y-70868572D01*
X80350000Y-65000000D02*
X79283791Y-70327928D01*
X80284522Y-64672801D02*
X80350000Y-65000000D01*
X79175599Y-59131428D02*
X80284522Y-64672801D01*
X79160917Y-59109400D02*
X79175599Y-59131428D01*
X75833274Y-54116726D02*
X79160917Y-59109400D01*
X75541861Y-53921510D02*
X75833274Y-54116726D01*
X70918572Y-50824401D02*
X75541861Y-53921510D01*
X70585426Y-50758296D02*
X70918572Y-50824401D01*
X65000000Y-49650000D02*
X70585426Y-50758296D01*
D21*
X79160917Y-58943946D02*
X79160917Y-59109400D01*
X50824401Y-71103945D02*
X50824401Y-70868572D01*
X50982076Y-71103945D02*
X50824401Y-71103945D01*
X49750000Y-72000000D02*
X50982076Y-71103945D01*
X70868572Y-79225599D02*
X71950000Y-80400000D01*
X79050641Y-58943946D02*
X79160917Y-58943946D01*
X80200000Y-58050000D02*
X79050641Y-58943946D01*
X53678888Y-54826969D02*
X52600000Y-53650000D01*
X50810679Y-59199998D02*
X50810679Y-59200000D01*
X49300000Y-59200000D02*
X50810679Y-59200000D01*
X49721124Y-65355412D02*
X48150000Y-65650000D01*
X70585426Y-50758296D02*
X70950000Y-49300000D01*
X65000000Y-49650000D02*
X64450000Y-48250000D01*
X58150000Y-49800000D02*
X59131428Y-50824401D01*
X59686651Y-79286709D02*
X59100000Y-80900000D01*
X65073925Y-80335836D02*
X65550000Y-81850000D01*
X75853774Y-75852517D02*
X75853774Y-75852516D01*
X77250000Y-76450000D02*
X75853774Y-75852516D01*
X79283791Y-70327928D02*
X80850000Y-70850000D01*
X80284522Y-64672801D02*
X81900000Y-64300000D01*
X75541861Y-53921510D02*
X76300000Y-52500000D01*
X54353877Y-75943701D02*
X53550000Y-77250000D01*
X50496204Y-69228547D02*
X50824401Y-70925599D01*
X50824401Y-70925599D02*
X50824401Y-71103945D01*
X49450000Y-67450000D02*
X50496204Y-69228547D01*
D20*
X47775599Y-57868572D02*
X49732512Y-54921588D01*
X47057361Y-61461492D02*
X47775599Y-57868572D01*
X46350000Y-65000000D02*
X47057361Y-61461492D01*
X47049676Y-68500065D02*
X46350000Y-65000000D01*
X47079649Y-68650002D02*
X47049676Y-68500065D01*
X47775599Y-72131428D02*
X47079649Y-68650002D01*
X49766831Y-75105251D02*
X47775599Y-72131428D01*
X49952336Y-75382295D02*
X49766831Y-75105251D01*
X51783274Y-78116726D02*
X49952336Y-75382295D01*
X54763369Y-80128339D02*
X51783274Y-78116726D01*
X57868572Y-82224401D02*
X54763369Y-80128339D01*
X61403778Y-82931102D02*
X57868572Y-82224401D01*
X61514056Y-82953147D02*
X61403778Y-82931102D01*
X65000000Y-83650000D02*
X61514056Y-82953147D01*
X68590027Y-82957511D02*
X65000000Y-83650000D01*
X68675771Y-82940972D02*
X68590027Y-82957511D01*
X68771562Y-82922495D02*
X68675771Y-82940972D01*
X72131428Y-82274401D02*
X68771562Y-82922495D01*
X75182678Y-80222973D02*
X72131428Y-82274401D01*
X78166726Y-78216726D02*
X75182678Y-80222973D01*
X80277269Y-75051543D02*
X78166726Y-78216726D01*
X82224401Y-72131428D02*
X80277269Y-75051543D01*
X82942634Y-68538533D02*
X82224401Y-72131428D01*
X83650000Y-65000000D02*
X82942634Y-68538533D01*
X82944556Y-61471081D02*
X83650000Y-65000000D01*
X82917417Y-61335321D02*
X82944556Y-61471081D01*
X82224401Y-57868572D02*
X82917417Y-61335321D01*
X80246510Y-54902328D02*
X82224401Y-57868572D01*
X78166726Y-51783274D02*
X80246510Y-54902328D01*
X75201180Y-49797584D02*
X78166726Y-51783274D01*
X72181428Y-47775599D02*
X75201180Y-49797584D01*
X68597203Y-47064088D02*
X72181428Y-47775599D01*
X65000000Y-46350000D02*
X68597203Y-47064088D01*
X61432634Y-47063130D02*
X65000000Y-46350000D01*
X61331483Y-47083350D02*
X61432634Y-47063130D01*
X57868572Y-47775599D02*
X61331483Y-47083350D01*
X54775401Y-49838125D02*
X57868572Y-47775599D01*
X49732512Y-54921588D02*
X51783274Y-51833274D01*
X51783274Y-51833274D02*
X54775401Y-49838125D01*
D21*
X54763369Y-80326069D02*
X54763369Y-80128339D01*
X75182678Y-80432678D02*
X75182678Y-80222973D01*
X75182678Y-80432678D02*
X75700000Y-81100000D01*
X80651543Y-75051543D02*
X80277269Y-75051543D01*
X80651543Y-75051543D02*
X81000000Y-75500000D01*
X80497672Y-54902328D02*
X80246510Y-54902328D01*
X80497672Y-54902328D02*
X80900000Y-54300000D01*
X75201180Y-49398820D02*
X75201180Y-49797584D01*
X75201180Y-49398820D02*
X75700000Y-49100000D01*
X54775401Y-49625401D02*
X54775401Y-49838125D01*
X54775401Y-49625401D02*
X54300000Y-49000000D01*
X49421588Y-54921588D02*
X49732512Y-54921588D01*
X49421588Y-54921588D02*
X49000000Y-54400000D01*
X47057361Y-61461492D02*
X46200000Y-61200000D01*
X47079649Y-68650000D02*
X47079649Y-68650002D01*
X46200000Y-68800000D02*
X47079649Y-68650000D01*
X49952336Y-75382295D02*
X49100000Y-75700000D01*
X54763369Y-80326069D02*
X54300000Y-80900000D01*
X61514056Y-82953147D02*
X61300000Y-83800000D01*
X68597203Y-47064088D02*
X68800000Y-46200000D01*
X61331483Y-47083350D02*
X61200000Y-46200000D01*
X68771562Y-82922495D02*
X68800000Y-83800000D01*
X82942634Y-68538533D02*
X83800000Y-68700000D01*
X82917417Y-61335321D02*
X83800000Y-61200000D01*
X46366984Y-65084961D02*
X47049676Y-68500065D01*
X46366984Y-65084961D02*
X47079649Y-68650002D01*
X47450000Y-62950000D02*
X46366984Y-65084961D01*
M02*
