M48
METRIC,TZ
T1C0.400
T2C0.850
T3C1.016
%
G90
G05
T1
X046200Y-061200
X046200Y-068800
X048150Y-065650
X049000Y-054400
X049100Y-075700
X049300Y-059200
X049750Y-072000
X052600Y-053650
X053550Y-077250
X054300Y-049000
X054300Y-080900
X056900Y-069200
X057200Y-064600
X057250Y-061350
X058150Y-049800
X059100Y-080900
X061200Y-046200
X061300Y-083800
X062680Y-062910
X064450Y-048250
X065000Y-055400
X065000Y-057500
X065030Y-064560
X065550Y-081850
X067240Y-067140
X067800Y-065330
X067990Y-068270
X068760Y-063810
X068800Y-046200
X068800Y-083800
X069700Y-061940
X070950Y-049300
X071950Y-080400
X073610Y-068670
X075700Y-049100
X075700Y-081100
X076300Y-052500
X077250Y-076450
X080200Y-058050
X080850Y-070850
X080900Y-054300
X081000Y-075500
X081900Y-064300
X083800Y-061200
X083800Y-068700
T2
X061800Y-066100
X061800Y-068100
X063800Y-066100
X063800Y-068100
X065800Y-066100
X065800Y-068100
T3
X055600Y-063730
X055600Y-066270
X074400Y-063730
X074400Y-066270
T0
M30
