G04 #@! TF.FileFunction,Legend,Bot*
%FSLAX46Y46*%
G04 Gerber Fmt 4.6, Leading zero omitted, Abs format (unit mm)*
G04 Created by KiCad (PCBNEW (2015-04-10 BZR 5591)-product) date Sat 11 Apr 2015 12:57:23 AM CEST*
%MOMM*%
G01*
G04 APERTURE LIST*
%ADD10C,0.150000*%
%ADD11C,0.250000*%
%ADD12C,0.300000*%
%ADD13C,0.002540*%
%ADD14C,0.200000*%
%ADD15R,1.016000X1.016000*%
%ADD16C,1.016000*%
%ADD17R,1.650000X2.500000*%
%ADD18O,1.650000X2.500000*%
%ADD19C,0.500000*%
%ADD20R,2.500000X1.500000*%
G04 APERTURE END LIST*
D10*
D11*
X57030000Y-68522381D02*
X56839523Y-68522381D01*
X56744285Y-68570000D01*
X56649047Y-68665238D01*
X56601428Y-68855714D01*
X56601428Y-69189048D01*
X56649047Y-69379524D01*
X56744285Y-69474762D01*
X56839523Y-69522381D01*
X57030000Y-69522381D01*
X57125238Y-69474762D01*
X57220476Y-69379524D01*
X57268095Y-69189048D01*
X57268095Y-68855714D01*
X57220476Y-68665238D01*
X57125238Y-68570000D01*
X57030000Y-68522381D01*
X56172857Y-68522381D02*
X56172857Y-69331905D01*
X56125238Y-69427143D01*
X56077619Y-69474762D01*
X55982381Y-69522381D01*
X55791904Y-69522381D01*
X55696666Y-69474762D01*
X55649047Y-69427143D01*
X55601428Y-69331905D01*
X55601428Y-68522381D01*
X55268095Y-68522381D02*
X54696666Y-68522381D01*
X54982381Y-69522381D02*
X54982381Y-68522381D01*
X74933809Y-69452381D02*
X74933809Y-68452381D01*
X74457619Y-69452381D02*
X74457619Y-68452381D01*
X73886190Y-69452381D01*
X73886190Y-68452381D01*
X74580476Y-60492381D02*
X75056667Y-60492381D01*
X75104286Y-60968571D01*
X75056667Y-60920952D01*
X74961429Y-60873333D01*
X74723333Y-60873333D01*
X74628095Y-60920952D01*
X74580476Y-60968571D01*
X74532857Y-61063810D01*
X74532857Y-61301905D01*
X74580476Y-61397143D01*
X74628095Y-61444762D01*
X74723333Y-61492381D01*
X74961429Y-61492381D01*
X75056667Y-61444762D01*
X75104286Y-61397143D01*
X74247143Y-60492381D02*
X73913810Y-61492381D01*
X73580476Y-60492381D01*
D12*
X47157143Y-67700000D02*
X46442857Y-67700000D01*
X47300000Y-68128571D02*
X46800000Y-66628571D01*
X46300000Y-68128571D01*
X49842857Y-62842857D02*
X49628571Y-62914286D01*
X49557143Y-62985714D01*
X49485714Y-63128571D01*
X49485714Y-63342857D01*
X49557143Y-63485714D01*
X49628571Y-63557143D01*
X49771429Y-63628571D01*
X50342857Y-63628571D01*
X50342857Y-62128571D01*
X49842857Y-62128571D01*
X49700000Y-62200000D01*
X49628571Y-62271429D01*
X49557143Y-62414286D01*
X49557143Y-62557143D01*
X49628571Y-62700000D01*
X49700000Y-62771429D01*
X49842857Y-62842857D01*
X50342857Y-62842857D01*
X68780000Y-61415714D02*
X68330000Y-62765714D01*
X67880000Y-61415714D01*
X66722857Y-62765714D02*
X67494285Y-62765714D01*
X67108571Y-62765714D02*
X67108571Y-61415714D01*
X67237142Y-61608571D01*
X67365714Y-61737143D01*
X67494285Y-61801429D01*
X66144285Y-62637143D02*
X66080000Y-62701429D01*
X66144285Y-62765714D01*
X66208571Y-62701429D01*
X66144285Y-62637143D01*
X66144285Y-62765714D01*
X65244286Y-61415714D02*
X65115714Y-61415714D01*
X64987143Y-61480000D01*
X64922857Y-61544286D01*
X64858571Y-61672857D01*
X64794286Y-61930000D01*
X64794286Y-62251429D01*
X64858571Y-62508571D01*
X64922857Y-62637143D01*
X64987143Y-62701429D01*
X65115714Y-62765714D01*
X65244286Y-62765714D01*
X65372857Y-62701429D01*
X65437143Y-62637143D01*
X65501428Y-62508571D01*
X65565714Y-62251429D01*
X65565714Y-61930000D01*
X65501428Y-61672857D01*
X65437143Y-61544286D01*
X65372857Y-61480000D01*
X65244286Y-61415714D01*
X63508572Y-62765714D02*
X64280000Y-62765714D01*
X63894286Y-62765714D02*
X63894286Y-61415714D01*
X64022857Y-61608571D01*
X64151429Y-61737143D01*
X64280000Y-61801429D01*
X62930000Y-62637143D02*
X62865715Y-62701429D01*
X62930000Y-62765714D01*
X62994286Y-62701429D01*
X62930000Y-62637143D01*
X62930000Y-62765714D01*
X61772858Y-62701429D02*
X61901429Y-62765714D01*
X62158572Y-62765714D01*
X62287143Y-62701429D01*
X62351429Y-62572857D01*
X62351429Y-62058571D01*
X62287143Y-61930000D01*
X62158572Y-61865714D01*
X61901429Y-61865714D01*
X61772858Y-61930000D01*
X61708572Y-62058571D01*
X61708572Y-62187143D01*
X62351429Y-62315714D01*
X67494285Y-63734286D02*
X67429999Y-63670000D01*
X67301428Y-63605714D01*
X66979999Y-63605714D01*
X66851428Y-63670000D01*
X66787142Y-63734286D01*
X66722857Y-63862857D01*
X66722857Y-63991429D01*
X66787142Y-64184286D01*
X67558571Y-64955714D01*
X66722857Y-64955714D01*
X65887143Y-63605714D02*
X65758571Y-63605714D01*
X65630000Y-63670000D01*
X65565714Y-63734286D01*
X65501428Y-63862857D01*
X65437143Y-64120000D01*
X65437143Y-64441429D01*
X65501428Y-64698571D01*
X65565714Y-64827143D01*
X65630000Y-64891429D01*
X65758571Y-64955714D01*
X65887143Y-64955714D01*
X66015714Y-64891429D01*
X66080000Y-64827143D01*
X66144285Y-64698571D01*
X66208571Y-64441429D01*
X66208571Y-64120000D01*
X66144285Y-63862857D01*
X66080000Y-63734286D01*
X66015714Y-63670000D01*
X65887143Y-63605714D01*
X64151429Y-64955714D02*
X64922857Y-64955714D01*
X64537143Y-64955714D02*
X64537143Y-63605714D01*
X64665714Y-63798571D01*
X64794286Y-63927143D01*
X64922857Y-63991429D01*
X62930000Y-63605714D02*
X63572857Y-63605714D01*
X63637143Y-64248571D01*
X63572857Y-64184286D01*
X63444286Y-64120000D01*
X63122857Y-64120000D01*
X62994286Y-64184286D01*
X62930000Y-64248571D01*
X62865715Y-64377143D01*
X62865715Y-64698571D01*
X62930000Y-64827143D01*
X62994286Y-64891429D01*
X63122857Y-64955714D01*
X63444286Y-64955714D01*
X63572857Y-64891429D01*
X63637143Y-64827143D01*
X67155714Y-56895714D02*
X67155714Y-55545714D01*
X67155714Y-56060000D02*
X67027143Y-55995714D01*
X66770000Y-55995714D01*
X66641429Y-56060000D01*
X66577143Y-56124286D01*
X66512857Y-56252857D01*
X66512857Y-56638571D01*
X66577143Y-56767143D01*
X66641429Y-56831429D01*
X66770000Y-56895714D01*
X67027143Y-56895714D01*
X67155714Y-56831429D01*
X65741428Y-56895714D02*
X65870000Y-56831429D01*
X65934285Y-56702857D01*
X65934285Y-55545714D01*
X65034285Y-56895714D02*
X65162857Y-56831429D01*
X65227142Y-56767143D01*
X65291428Y-56638571D01*
X65291428Y-56252857D01*
X65227142Y-56124286D01*
X65162857Y-56060000D01*
X65034285Y-55995714D01*
X64841428Y-55995714D01*
X64712857Y-56060000D01*
X64648571Y-56124286D01*
X64584285Y-56252857D01*
X64584285Y-56638571D01*
X64648571Y-56767143D01*
X64712857Y-56831429D01*
X64841428Y-56895714D01*
X65034285Y-56895714D01*
X63427142Y-55995714D02*
X63427142Y-57088571D01*
X63491428Y-57217143D01*
X63555713Y-57281429D01*
X63684285Y-57345714D01*
X63877142Y-57345714D01*
X64005713Y-57281429D01*
X63427142Y-56831429D02*
X63555713Y-56895714D01*
X63812856Y-56895714D01*
X63941428Y-56831429D01*
X64005713Y-56767143D01*
X64069999Y-56638571D01*
X64069999Y-56252857D01*
X64005713Y-56124286D01*
X63941428Y-56060000D01*
X63812856Y-55995714D01*
X63555713Y-55995714D01*
X63427142Y-56060000D01*
X62784284Y-56767143D02*
X62719999Y-56831429D01*
X62784284Y-56895714D01*
X62848570Y-56831429D01*
X62784284Y-56767143D01*
X62784284Y-56895714D01*
X72523572Y-59021429D02*
X72395001Y-59085714D01*
X72137858Y-59085714D01*
X72009286Y-59021429D01*
X71945001Y-58892857D01*
X71945001Y-58828571D01*
X72009286Y-58700000D01*
X72137858Y-58635714D01*
X72330715Y-58635714D01*
X72459286Y-58571429D01*
X72523572Y-58442857D01*
X72523572Y-58378571D01*
X72459286Y-58250000D01*
X72330715Y-58185714D01*
X72137858Y-58185714D01*
X72009286Y-58250000D01*
X71366429Y-58185714D02*
X71366429Y-59535714D01*
X71366429Y-58250000D02*
X71237858Y-58185714D01*
X70980715Y-58185714D01*
X70852144Y-58250000D01*
X70787858Y-58314286D01*
X70723572Y-58442857D01*
X70723572Y-58828571D01*
X70787858Y-58957143D01*
X70852144Y-59021429D01*
X70980715Y-59085714D01*
X71237858Y-59085714D01*
X71366429Y-59021429D01*
X70145000Y-59085714D02*
X70145000Y-58185714D01*
X70145000Y-57735714D02*
X70209286Y-57800000D01*
X70145000Y-57864286D01*
X70080715Y-57800000D01*
X70145000Y-57735714D01*
X70145000Y-57864286D01*
X69695001Y-58185714D02*
X69180715Y-58185714D01*
X69502143Y-57735714D02*
X69502143Y-58892857D01*
X69437858Y-59021429D01*
X69309286Y-59085714D01*
X69180715Y-59085714D01*
X68859286Y-58185714D02*
X68152143Y-58185714D01*
X68859286Y-59085714D01*
X68152143Y-59085714D01*
X67123572Y-59021429D02*
X67252143Y-59085714D01*
X67509286Y-59085714D01*
X67637857Y-59021429D01*
X67702143Y-58892857D01*
X67702143Y-58378571D01*
X67637857Y-58250000D01*
X67509286Y-58185714D01*
X67252143Y-58185714D01*
X67123572Y-58250000D01*
X67059286Y-58378571D01*
X67059286Y-58507143D01*
X67702143Y-58635714D01*
X66480714Y-58185714D02*
X66480714Y-59085714D01*
X66480714Y-58314286D02*
X66416429Y-58250000D01*
X66287857Y-58185714D01*
X66095000Y-58185714D01*
X65966429Y-58250000D01*
X65902143Y-58378571D01*
X65902143Y-59085714D01*
X65259285Y-58185714D02*
X65259285Y-59535714D01*
X65259285Y-58250000D02*
X65130714Y-58185714D01*
X64873571Y-58185714D01*
X64745000Y-58250000D01*
X64680714Y-58314286D01*
X64616428Y-58442857D01*
X64616428Y-58828571D01*
X64680714Y-58957143D01*
X64745000Y-59021429D01*
X64873571Y-59085714D01*
X65130714Y-59085714D01*
X65259285Y-59021429D01*
X64230714Y-58185714D02*
X63716428Y-58185714D01*
X64037856Y-59085714D02*
X64037856Y-57928571D01*
X63973571Y-57800000D01*
X63844999Y-57735714D01*
X63716428Y-57735714D01*
X62752142Y-59021429D02*
X62880713Y-59085714D01*
X63137856Y-59085714D01*
X63266427Y-59021429D01*
X63330713Y-58892857D01*
X63330713Y-58378571D01*
X63266427Y-58250000D01*
X63137856Y-58185714D01*
X62880713Y-58185714D01*
X62752142Y-58250000D01*
X62687856Y-58378571D01*
X62687856Y-58507143D01*
X63330713Y-58635714D01*
X62109284Y-59085714D02*
X62109284Y-58185714D01*
X62109284Y-57735714D02*
X62173570Y-57800000D01*
X62109284Y-57864286D01*
X62044999Y-57800000D01*
X62109284Y-57735714D01*
X62109284Y-57864286D01*
X61273570Y-59085714D02*
X61402142Y-59021429D01*
X61466427Y-58892857D01*
X61466427Y-57735714D01*
X60759284Y-58957143D02*
X60694999Y-59021429D01*
X60759284Y-59085714D01*
X60823570Y-59021429D01*
X60759284Y-58957143D01*
X60759284Y-59085714D01*
X59923570Y-59085714D02*
X60052142Y-59021429D01*
X60116427Y-58957143D01*
X60180713Y-58828571D01*
X60180713Y-58442857D01*
X60116427Y-58314286D01*
X60052142Y-58250000D01*
X59923570Y-58185714D01*
X59730713Y-58185714D01*
X59602142Y-58250000D01*
X59537856Y-58314286D01*
X59473570Y-58442857D01*
X59473570Y-58828571D01*
X59537856Y-58957143D01*
X59602142Y-59021429D01*
X59730713Y-59085714D01*
X59923570Y-59085714D01*
X58894998Y-59085714D02*
X58894998Y-58185714D01*
X58894998Y-58442857D02*
X58830713Y-58314286D01*
X58766427Y-58250000D01*
X58637856Y-58185714D01*
X58509284Y-58185714D01*
X57480713Y-58185714D02*
X57480713Y-59278571D01*
X57544999Y-59407143D01*
X57609284Y-59471429D01*
X57737856Y-59535714D01*
X57930713Y-59535714D01*
X58059284Y-59471429D01*
X57480713Y-59021429D02*
X57609284Y-59085714D01*
X57866427Y-59085714D01*
X57994999Y-59021429D01*
X58059284Y-58957143D01*
X58123570Y-58828571D01*
X58123570Y-58442857D01*
X58059284Y-58314286D01*
X57994999Y-58250000D01*
X57866427Y-58185714D01*
X57609284Y-58185714D01*
X57480713Y-58250000D01*
X68600000Y-79760714D02*
X68150000Y-81110714D01*
X67700000Y-79760714D01*
X66542857Y-81110714D02*
X67314285Y-81110714D01*
X66928571Y-81110714D02*
X66928571Y-79760714D01*
X67057142Y-79953571D01*
X67185714Y-80082143D01*
X67314285Y-80146429D01*
X65964285Y-80982143D02*
X65900000Y-81046429D01*
X65964285Y-81110714D01*
X66028571Y-81046429D01*
X65964285Y-80982143D01*
X65964285Y-81110714D01*
X65064286Y-79760714D02*
X64935714Y-79760714D01*
X64807143Y-79825000D01*
X64742857Y-79889286D01*
X64678571Y-80017857D01*
X64614286Y-80275000D01*
X64614286Y-80596429D01*
X64678571Y-80853571D01*
X64742857Y-80982143D01*
X64807143Y-81046429D01*
X64935714Y-81110714D01*
X65064286Y-81110714D01*
X65192857Y-81046429D01*
X65257143Y-80982143D01*
X65321428Y-80853571D01*
X65385714Y-80596429D01*
X65385714Y-80275000D01*
X65321428Y-80017857D01*
X65257143Y-79889286D01*
X65192857Y-79825000D01*
X65064286Y-79760714D01*
X63328572Y-81110714D02*
X64100000Y-81110714D01*
X63714286Y-81110714D02*
X63714286Y-79760714D01*
X63842857Y-79953571D01*
X63971429Y-80082143D01*
X64100000Y-80146429D01*
X62750000Y-80982143D02*
X62685715Y-81046429D01*
X62750000Y-81110714D01*
X62814286Y-81046429D01*
X62750000Y-80982143D01*
X62750000Y-81110714D01*
X61592858Y-81046429D02*
X61721429Y-81110714D01*
X61978572Y-81110714D01*
X62107143Y-81046429D01*
X62171429Y-80917857D01*
X62171429Y-80403571D01*
X62107143Y-80275000D01*
X61978572Y-80210714D01*
X61721429Y-80210714D01*
X61592858Y-80275000D01*
X61528572Y-80403571D01*
X61528572Y-80532143D01*
X62171429Y-80660714D01*
X74996430Y-50410714D02*
X74996430Y-49060714D01*
X74996430Y-49575000D02*
X74867859Y-49510714D01*
X74610716Y-49510714D01*
X74482145Y-49575000D01*
X74417859Y-49639286D01*
X74353573Y-49767857D01*
X74353573Y-50153571D01*
X74417859Y-50282143D01*
X74482145Y-50346429D01*
X74610716Y-50410714D01*
X74867859Y-50410714D01*
X74996430Y-50346429D01*
X73582144Y-50410714D02*
X73710716Y-50346429D01*
X73775001Y-50217857D01*
X73775001Y-49060714D01*
X72875001Y-50410714D02*
X73003573Y-50346429D01*
X73067858Y-50282143D01*
X73132144Y-50153571D01*
X73132144Y-49767857D01*
X73067858Y-49639286D01*
X73003573Y-49575000D01*
X72875001Y-49510714D01*
X72682144Y-49510714D01*
X72553573Y-49575000D01*
X72489287Y-49639286D01*
X72425001Y-49767857D01*
X72425001Y-50153571D01*
X72489287Y-50282143D01*
X72553573Y-50346429D01*
X72682144Y-50410714D01*
X72875001Y-50410714D01*
X71267858Y-49510714D02*
X71267858Y-50603571D01*
X71332144Y-50732143D01*
X71396429Y-50796429D01*
X71525001Y-50860714D01*
X71717858Y-50860714D01*
X71846429Y-50796429D01*
X71267858Y-50346429D02*
X71396429Y-50410714D01*
X71653572Y-50410714D01*
X71782144Y-50346429D01*
X71846429Y-50282143D01*
X71910715Y-50153571D01*
X71910715Y-49767857D01*
X71846429Y-49639286D01*
X71782144Y-49575000D01*
X71653572Y-49510714D01*
X71396429Y-49510714D01*
X71267858Y-49575000D01*
X70625000Y-50282143D02*
X70560715Y-50346429D01*
X70625000Y-50410714D01*
X70689286Y-50346429D01*
X70625000Y-50282143D01*
X70625000Y-50410714D01*
X70046429Y-50346429D02*
X69917858Y-50410714D01*
X69660715Y-50410714D01*
X69532143Y-50346429D01*
X69467858Y-50217857D01*
X69467858Y-50153571D01*
X69532143Y-50025000D01*
X69660715Y-49960714D01*
X69853572Y-49960714D01*
X69982143Y-49896429D01*
X70046429Y-49767857D01*
X70046429Y-49703571D01*
X69982143Y-49575000D01*
X69853572Y-49510714D01*
X69660715Y-49510714D01*
X69532143Y-49575000D01*
X68889286Y-49510714D02*
X68889286Y-50860714D01*
X68889286Y-49575000D02*
X68760715Y-49510714D01*
X68503572Y-49510714D01*
X68375001Y-49575000D01*
X68310715Y-49639286D01*
X68246429Y-49767857D01*
X68246429Y-50153571D01*
X68310715Y-50282143D01*
X68375001Y-50346429D01*
X68503572Y-50410714D01*
X68760715Y-50410714D01*
X68889286Y-50346429D01*
X67667857Y-50410714D02*
X67667857Y-49510714D01*
X67667857Y-49060714D02*
X67732143Y-49125000D01*
X67667857Y-49189286D01*
X67603572Y-49125000D01*
X67667857Y-49060714D01*
X67667857Y-49189286D01*
X67217858Y-49510714D02*
X66703572Y-49510714D01*
X67025000Y-49060714D02*
X67025000Y-50217857D01*
X66960715Y-50346429D01*
X66832143Y-50410714D01*
X66703572Y-50410714D01*
X66382143Y-49510714D02*
X65675000Y-49510714D01*
X66382143Y-50410714D01*
X65675000Y-50410714D01*
X64646429Y-50346429D02*
X64775000Y-50410714D01*
X65032143Y-50410714D01*
X65160714Y-50346429D01*
X65225000Y-50217857D01*
X65225000Y-49703571D01*
X65160714Y-49575000D01*
X65032143Y-49510714D01*
X64775000Y-49510714D01*
X64646429Y-49575000D01*
X64582143Y-49703571D01*
X64582143Y-49832143D01*
X65225000Y-49960714D01*
X64003571Y-49510714D02*
X64003571Y-50410714D01*
X64003571Y-49639286D02*
X63939286Y-49575000D01*
X63810714Y-49510714D01*
X63617857Y-49510714D01*
X63489286Y-49575000D01*
X63425000Y-49703571D01*
X63425000Y-50410714D01*
X62782142Y-49510714D02*
X62782142Y-50860714D01*
X62782142Y-49575000D02*
X62653571Y-49510714D01*
X62396428Y-49510714D01*
X62267857Y-49575000D01*
X62203571Y-49639286D01*
X62139285Y-49767857D01*
X62139285Y-50153571D01*
X62203571Y-50282143D01*
X62267857Y-50346429D01*
X62396428Y-50410714D01*
X62653571Y-50410714D01*
X62782142Y-50346429D01*
X61753571Y-49510714D02*
X61239285Y-49510714D01*
X61560713Y-50410714D02*
X61560713Y-49253571D01*
X61496428Y-49125000D01*
X61367856Y-49060714D01*
X61239285Y-49060714D01*
X60274999Y-50346429D02*
X60403570Y-50410714D01*
X60660713Y-50410714D01*
X60789284Y-50346429D01*
X60853570Y-50217857D01*
X60853570Y-49703571D01*
X60789284Y-49575000D01*
X60660713Y-49510714D01*
X60403570Y-49510714D01*
X60274999Y-49575000D01*
X60210713Y-49703571D01*
X60210713Y-49832143D01*
X60853570Y-49960714D01*
X59632141Y-50410714D02*
X59632141Y-49510714D01*
X59632141Y-49060714D02*
X59696427Y-49125000D01*
X59632141Y-49189286D01*
X59567856Y-49125000D01*
X59632141Y-49060714D01*
X59632141Y-49189286D01*
X58796427Y-50410714D02*
X58924999Y-50346429D01*
X58989284Y-50217857D01*
X58989284Y-49060714D01*
X58282141Y-50282143D02*
X58217856Y-50346429D01*
X58282141Y-50410714D01*
X58346427Y-50346429D01*
X58282141Y-50282143D01*
X58282141Y-50410714D01*
X57446427Y-50410714D02*
X57574999Y-50346429D01*
X57639284Y-50282143D01*
X57703570Y-50153571D01*
X57703570Y-49767857D01*
X57639284Y-49639286D01*
X57574999Y-49575000D01*
X57446427Y-49510714D01*
X57253570Y-49510714D01*
X57124999Y-49575000D01*
X57060713Y-49639286D01*
X56996427Y-49767857D01*
X56996427Y-50153571D01*
X57060713Y-50282143D01*
X57124999Y-50346429D01*
X57253570Y-50410714D01*
X57446427Y-50410714D01*
X56417855Y-50410714D02*
X56417855Y-49510714D01*
X56417855Y-49767857D02*
X56353570Y-49639286D01*
X56289284Y-49575000D01*
X56160713Y-49510714D01*
X56032141Y-49510714D01*
X55003570Y-49510714D02*
X55003570Y-50603571D01*
X55067856Y-50732143D01*
X55132141Y-50796429D01*
X55260713Y-50860714D01*
X55453570Y-50860714D01*
X55582141Y-50796429D01*
X55003570Y-50346429D02*
X55132141Y-50410714D01*
X55389284Y-50410714D01*
X55517856Y-50346429D01*
X55582141Y-50282143D01*
X55646427Y-50153571D01*
X55646427Y-49767857D01*
X55582141Y-49639286D01*
X55517856Y-49575000D01*
X55389284Y-49510714D01*
X55132141Y-49510714D01*
X55003570Y-49575000D01*
X67314285Y-46189286D02*
X67249999Y-46125000D01*
X67121428Y-46060714D01*
X66799999Y-46060714D01*
X66671428Y-46125000D01*
X66607142Y-46189286D01*
X66542857Y-46317857D01*
X66542857Y-46446429D01*
X66607142Y-46639286D01*
X67378571Y-47410714D01*
X66542857Y-47410714D01*
X65707143Y-46060714D02*
X65578571Y-46060714D01*
X65450000Y-46125000D01*
X65385714Y-46189286D01*
X65321428Y-46317857D01*
X65257143Y-46575000D01*
X65257143Y-46896429D01*
X65321428Y-47153571D01*
X65385714Y-47282143D01*
X65450000Y-47346429D01*
X65578571Y-47410714D01*
X65707143Y-47410714D01*
X65835714Y-47346429D01*
X65900000Y-47282143D01*
X65964285Y-47153571D01*
X66028571Y-46896429D01*
X66028571Y-46575000D01*
X65964285Y-46317857D01*
X65900000Y-46189286D01*
X65835714Y-46125000D01*
X65707143Y-46060714D01*
X63971429Y-47410714D02*
X64742857Y-47410714D01*
X64357143Y-47410714D02*
X64357143Y-46060714D01*
X64485714Y-46253571D01*
X64614286Y-46382143D01*
X64742857Y-46446429D01*
X62750000Y-46060714D02*
X63392857Y-46060714D01*
X63457143Y-46703571D01*
X63392857Y-46639286D01*
X63264286Y-46575000D01*
X62942857Y-46575000D01*
X62814286Y-46639286D01*
X62750000Y-46703571D01*
X62685715Y-46832143D01*
X62685715Y-47153571D01*
X62750000Y-47282143D01*
X62814286Y-47346429D01*
X62942857Y-47410714D01*
X63264286Y-47410714D01*
X63392857Y-47346429D01*
X63457143Y-47282143D01*
D13*
G36*
X57848420Y-64965780D02*
X57868740Y-64955620D01*
X57917000Y-64925140D01*
X57983040Y-64881960D01*
X58061780Y-64828620D01*
X58140520Y-64775280D01*
X58206560Y-64732100D01*
X58252280Y-64701620D01*
X58270060Y-64691460D01*
X58280220Y-64694000D01*
X58318320Y-64714320D01*
X58374200Y-64742260D01*
X58404680Y-64757500D01*
X58455480Y-64780360D01*
X58480880Y-64785440D01*
X58483420Y-64777820D01*
X58503740Y-64739720D01*
X58531680Y-64673680D01*
X58569780Y-64587320D01*
X58612960Y-64485720D01*
X58658680Y-64376500D01*
X58704400Y-64264740D01*
X58750120Y-64158060D01*
X58788220Y-64061540D01*
X58821240Y-63985340D01*
X58841560Y-63929460D01*
X58849180Y-63906600D01*
X58846640Y-63901520D01*
X58821240Y-63878660D01*
X58778060Y-63845640D01*
X58681540Y-63766900D01*
X58590100Y-63650060D01*
X58531680Y-63517980D01*
X58513900Y-63370660D01*
X58529140Y-63236040D01*
X58582480Y-63106500D01*
X58673920Y-62987120D01*
X58785680Y-62900760D01*
X58915220Y-62844880D01*
X59060000Y-62827100D01*
X59199700Y-62842340D01*
X59331780Y-62895680D01*
X59451160Y-62984580D01*
X59499420Y-63043000D01*
X59568000Y-63162380D01*
X59608640Y-63289380D01*
X59611180Y-63319860D01*
X59606100Y-63462100D01*
X59565460Y-63596720D01*
X59491800Y-63716100D01*
X59387660Y-63815160D01*
X59374960Y-63825320D01*
X59326700Y-63860880D01*
X59296220Y-63883740D01*
X59270820Y-63904060D01*
X59448620Y-64335860D01*
X59476560Y-64404440D01*
X59527360Y-64521280D01*
X59570540Y-64622880D01*
X59603560Y-64704160D01*
X59628960Y-64757500D01*
X59639120Y-64780360D01*
X59639120Y-64780360D01*
X59654360Y-64782900D01*
X59687380Y-64770200D01*
X59748340Y-64742260D01*
X59788980Y-64721940D01*
X59834700Y-64699080D01*
X59855020Y-64691460D01*
X59872800Y-64701620D01*
X59915980Y-64729560D01*
X59979480Y-64772740D01*
X60055680Y-64823540D01*
X60129340Y-64874340D01*
X60197920Y-64920060D01*
X60246180Y-64950540D01*
X60271580Y-64963240D01*
X60274120Y-64963240D01*
X60294440Y-64950540D01*
X60335080Y-64920060D01*
X60393500Y-64864180D01*
X60474780Y-64782900D01*
X60487480Y-64770200D01*
X60556060Y-64699080D01*
X60611940Y-64640660D01*
X60650040Y-64600020D01*
X60662740Y-64582240D01*
X60662740Y-64582240D01*
X60650040Y-64556840D01*
X60619560Y-64508580D01*
X60573840Y-64440000D01*
X60520500Y-64361260D01*
X60378260Y-64152980D01*
X60457000Y-63957400D01*
X60479860Y-63898980D01*
X60510340Y-63825320D01*
X60533200Y-63774520D01*
X60545900Y-63751660D01*
X60566220Y-63744040D01*
X60619560Y-63731340D01*
X60698300Y-63713560D01*
X60789740Y-63698320D01*
X60878640Y-63680540D01*
X60957380Y-63665300D01*
X61015800Y-63655140D01*
X61041200Y-63650060D01*
X61046280Y-63644980D01*
X61051360Y-63632280D01*
X61056440Y-63606880D01*
X61056440Y-63558620D01*
X61058980Y-63482420D01*
X61058980Y-63370660D01*
X61058980Y-63360500D01*
X61056440Y-63253820D01*
X61056440Y-63170000D01*
X61053900Y-63116660D01*
X61048820Y-63096340D01*
X61048820Y-63096340D01*
X61023420Y-63088720D01*
X60967540Y-63078560D01*
X60888800Y-63060780D01*
X60792280Y-63043000D01*
X60787200Y-63043000D01*
X60693220Y-63025220D01*
X60614480Y-63007440D01*
X60558600Y-62994740D01*
X60535740Y-62987120D01*
X60530660Y-62982040D01*
X60510340Y-62943940D01*
X60482400Y-62885520D01*
X60451920Y-62814400D01*
X60421440Y-62740740D01*
X60393500Y-62672160D01*
X60375720Y-62623900D01*
X60370640Y-62601040D01*
X60370640Y-62601040D01*
X60385880Y-62578180D01*
X60418900Y-62527380D01*
X60464620Y-62461340D01*
X60520500Y-62380060D01*
X60523040Y-62372440D01*
X60578920Y-62293700D01*
X60622100Y-62225120D01*
X60652580Y-62176860D01*
X60662740Y-62156540D01*
X60662740Y-62154000D01*
X60644960Y-62131140D01*
X60604320Y-62085420D01*
X60545900Y-62024460D01*
X60474780Y-61953340D01*
X60451920Y-61933020D01*
X60375720Y-61856820D01*
X60322380Y-61806020D01*
X60286820Y-61780620D01*
X60271580Y-61773000D01*
X60271580Y-61775540D01*
X60246180Y-61788240D01*
X60195380Y-61821260D01*
X60126800Y-61869520D01*
X60045520Y-61922860D01*
X60040440Y-61927940D01*
X59961700Y-61981280D01*
X59895660Y-62027000D01*
X59847400Y-62057480D01*
X59827080Y-62070180D01*
X59822000Y-62070180D01*
X59791520Y-62060020D01*
X59733100Y-62042240D01*
X59664520Y-62014300D01*
X59590860Y-61983820D01*
X59522280Y-61955880D01*
X59471480Y-61933020D01*
X59448620Y-61920320D01*
X59448620Y-61917780D01*
X59438460Y-61889840D01*
X59425760Y-61828880D01*
X59407980Y-61747600D01*
X59390200Y-61648540D01*
X59387660Y-61633300D01*
X59369880Y-61539320D01*
X59354640Y-61460580D01*
X59341940Y-61404700D01*
X59336860Y-61381840D01*
X59324160Y-61379300D01*
X59275900Y-61376760D01*
X59204780Y-61374220D01*
X59118420Y-61374220D01*
X59029520Y-61374220D01*
X58943160Y-61376760D01*
X58866960Y-61379300D01*
X58813620Y-61381840D01*
X58790760Y-61386920D01*
X58788220Y-61389460D01*
X58780600Y-61417400D01*
X58767900Y-61478360D01*
X58750120Y-61559640D01*
X58732340Y-61658700D01*
X58729800Y-61676480D01*
X58712020Y-61770460D01*
X58694240Y-61849200D01*
X58684080Y-61902540D01*
X58676460Y-61922860D01*
X58668840Y-61927940D01*
X58630740Y-61945720D01*
X58567240Y-61971120D01*
X58485960Y-62004140D01*
X58303080Y-62077800D01*
X58079560Y-61922860D01*
X58059240Y-61910160D01*
X57977960Y-61854280D01*
X57911920Y-61811100D01*
X57866200Y-61780620D01*
X57845880Y-61770460D01*
X57845880Y-61770460D01*
X57823020Y-61790780D01*
X57777300Y-61831420D01*
X57716340Y-61892380D01*
X57647760Y-61960960D01*
X57594420Y-62014300D01*
X57533460Y-62077800D01*
X57492820Y-62118440D01*
X57472500Y-62146380D01*
X57464880Y-62164160D01*
X57467420Y-62174320D01*
X57480120Y-62197180D01*
X57513140Y-62245440D01*
X57558860Y-62314020D01*
X57614740Y-62392760D01*
X57660460Y-62461340D01*
X57708720Y-62535000D01*
X57739200Y-62588340D01*
X57751900Y-62616280D01*
X57749360Y-62626440D01*
X57731580Y-62669620D01*
X57706180Y-62738200D01*
X57673160Y-62816940D01*
X57594420Y-62994740D01*
X57477580Y-63015060D01*
X57406460Y-63030300D01*
X57307400Y-63048080D01*
X57213420Y-63065860D01*
X57066100Y-63096340D01*
X57061020Y-63634820D01*
X57083880Y-63644980D01*
X57106740Y-63652600D01*
X57160080Y-63662760D01*
X57238820Y-63678000D01*
X57330260Y-63695780D01*
X57409000Y-63711020D01*
X57487740Y-63726260D01*
X57543620Y-63736420D01*
X57569020Y-63741500D01*
X57576640Y-63751660D01*
X57596960Y-63789760D01*
X57624900Y-63850720D01*
X57655380Y-63924380D01*
X57685860Y-63998040D01*
X57713800Y-64069160D01*
X57734120Y-64122500D01*
X57741740Y-64150440D01*
X57731580Y-64170760D01*
X57701100Y-64216480D01*
X57657920Y-64282520D01*
X57604580Y-64361260D01*
X57548700Y-64440000D01*
X57505520Y-64508580D01*
X57472500Y-64556840D01*
X57459800Y-64577160D01*
X57467420Y-64592400D01*
X57497900Y-64630500D01*
X57556320Y-64691460D01*
X57645220Y-64780360D01*
X57660460Y-64793060D01*
X57729040Y-64861640D01*
X57790000Y-64914980D01*
X57830640Y-64953080D01*
X57848420Y-64965780D01*
X57848420Y-64965780D01*
G37*
X57848420Y-64965780D02*
X57868740Y-64955620D01*
X57917000Y-64925140D01*
X57983040Y-64881960D01*
X58061780Y-64828620D01*
X58140520Y-64775280D01*
X58206560Y-64732100D01*
X58252280Y-64701620D01*
X58270060Y-64691460D01*
X58280220Y-64694000D01*
X58318320Y-64714320D01*
X58374200Y-64742260D01*
X58404680Y-64757500D01*
X58455480Y-64780360D01*
X58480880Y-64785440D01*
X58483420Y-64777820D01*
X58503740Y-64739720D01*
X58531680Y-64673680D01*
X58569780Y-64587320D01*
X58612960Y-64485720D01*
X58658680Y-64376500D01*
X58704400Y-64264740D01*
X58750120Y-64158060D01*
X58788220Y-64061540D01*
X58821240Y-63985340D01*
X58841560Y-63929460D01*
X58849180Y-63906600D01*
X58846640Y-63901520D01*
X58821240Y-63878660D01*
X58778060Y-63845640D01*
X58681540Y-63766900D01*
X58590100Y-63650060D01*
X58531680Y-63517980D01*
X58513900Y-63370660D01*
X58529140Y-63236040D01*
X58582480Y-63106500D01*
X58673920Y-62987120D01*
X58785680Y-62900760D01*
X58915220Y-62844880D01*
X59060000Y-62827100D01*
X59199700Y-62842340D01*
X59331780Y-62895680D01*
X59451160Y-62984580D01*
X59499420Y-63043000D01*
X59568000Y-63162380D01*
X59608640Y-63289380D01*
X59611180Y-63319860D01*
X59606100Y-63462100D01*
X59565460Y-63596720D01*
X59491800Y-63716100D01*
X59387660Y-63815160D01*
X59374960Y-63825320D01*
X59326700Y-63860880D01*
X59296220Y-63883740D01*
X59270820Y-63904060D01*
X59448620Y-64335860D01*
X59476560Y-64404440D01*
X59527360Y-64521280D01*
X59570540Y-64622880D01*
X59603560Y-64704160D01*
X59628960Y-64757500D01*
X59639120Y-64780360D01*
X59639120Y-64780360D01*
X59654360Y-64782900D01*
X59687380Y-64770200D01*
X59748340Y-64742260D01*
X59788980Y-64721940D01*
X59834700Y-64699080D01*
X59855020Y-64691460D01*
X59872800Y-64701620D01*
X59915980Y-64729560D01*
X59979480Y-64772740D01*
X60055680Y-64823540D01*
X60129340Y-64874340D01*
X60197920Y-64920060D01*
X60246180Y-64950540D01*
X60271580Y-64963240D01*
X60274120Y-64963240D01*
X60294440Y-64950540D01*
X60335080Y-64920060D01*
X60393500Y-64864180D01*
X60474780Y-64782900D01*
X60487480Y-64770200D01*
X60556060Y-64699080D01*
X60611940Y-64640660D01*
X60650040Y-64600020D01*
X60662740Y-64582240D01*
X60662740Y-64582240D01*
X60650040Y-64556840D01*
X60619560Y-64508580D01*
X60573840Y-64440000D01*
X60520500Y-64361260D01*
X60378260Y-64152980D01*
X60457000Y-63957400D01*
X60479860Y-63898980D01*
X60510340Y-63825320D01*
X60533200Y-63774520D01*
X60545900Y-63751660D01*
X60566220Y-63744040D01*
X60619560Y-63731340D01*
X60698300Y-63713560D01*
X60789740Y-63698320D01*
X60878640Y-63680540D01*
X60957380Y-63665300D01*
X61015800Y-63655140D01*
X61041200Y-63650060D01*
X61046280Y-63644980D01*
X61051360Y-63632280D01*
X61056440Y-63606880D01*
X61056440Y-63558620D01*
X61058980Y-63482420D01*
X61058980Y-63370660D01*
X61058980Y-63360500D01*
X61056440Y-63253820D01*
X61056440Y-63170000D01*
X61053900Y-63116660D01*
X61048820Y-63096340D01*
X61048820Y-63096340D01*
X61023420Y-63088720D01*
X60967540Y-63078560D01*
X60888800Y-63060780D01*
X60792280Y-63043000D01*
X60787200Y-63043000D01*
X60693220Y-63025220D01*
X60614480Y-63007440D01*
X60558600Y-62994740D01*
X60535740Y-62987120D01*
X60530660Y-62982040D01*
X60510340Y-62943940D01*
X60482400Y-62885520D01*
X60451920Y-62814400D01*
X60421440Y-62740740D01*
X60393500Y-62672160D01*
X60375720Y-62623900D01*
X60370640Y-62601040D01*
X60370640Y-62601040D01*
X60385880Y-62578180D01*
X60418900Y-62527380D01*
X60464620Y-62461340D01*
X60520500Y-62380060D01*
X60523040Y-62372440D01*
X60578920Y-62293700D01*
X60622100Y-62225120D01*
X60652580Y-62176860D01*
X60662740Y-62156540D01*
X60662740Y-62154000D01*
X60644960Y-62131140D01*
X60604320Y-62085420D01*
X60545900Y-62024460D01*
X60474780Y-61953340D01*
X60451920Y-61933020D01*
X60375720Y-61856820D01*
X60322380Y-61806020D01*
X60286820Y-61780620D01*
X60271580Y-61773000D01*
X60271580Y-61775540D01*
X60246180Y-61788240D01*
X60195380Y-61821260D01*
X60126800Y-61869520D01*
X60045520Y-61922860D01*
X60040440Y-61927940D01*
X59961700Y-61981280D01*
X59895660Y-62027000D01*
X59847400Y-62057480D01*
X59827080Y-62070180D01*
X59822000Y-62070180D01*
X59791520Y-62060020D01*
X59733100Y-62042240D01*
X59664520Y-62014300D01*
X59590860Y-61983820D01*
X59522280Y-61955880D01*
X59471480Y-61933020D01*
X59448620Y-61920320D01*
X59448620Y-61917780D01*
X59438460Y-61889840D01*
X59425760Y-61828880D01*
X59407980Y-61747600D01*
X59390200Y-61648540D01*
X59387660Y-61633300D01*
X59369880Y-61539320D01*
X59354640Y-61460580D01*
X59341940Y-61404700D01*
X59336860Y-61381840D01*
X59324160Y-61379300D01*
X59275900Y-61376760D01*
X59204780Y-61374220D01*
X59118420Y-61374220D01*
X59029520Y-61374220D01*
X58943160Y-61376760D01*
X58866960Y-61379300D01*
X58813620Y-61381840D01*
X58790760Y-61386920D01*
X58788220Y-61389460D01*
X58780600Y-61417400D01*
X58767900Y-61478360D01*
X58750120Y-61559640D01*
X58732340Y-61658700D01*
X58729800Y-61676480D01*
X58712020Y-61770460D01*
X58694240Y-61849200D01*
X58684080Y-61902540D01*
X58676460Y-61922860D01*
X58668840Y-61927940D01*
X58630740Y-61945720D01*
X58567240Y-61971120D01*
X58485960Y-62004140D01*
X58303080Y-62077800D01*
X58079560Y-61922860D01*
X58059240Y-61910160D01*
X57977960Y-61854280D01*
X57911920Y-61811100D01*
X57866200Y-61780620D01*
X57845880Y-61770460D01*
X57845880Y-61770460D01*
X57823020Y-61790780D01*
X57777300Y-61831420D01*
X57716340Y-61892380D01*
X57647760Y-61960960D01*
X57594420Y-62014300D01*
X57533460Y-62077800D01*
X57492820Y-62118440D01*
X57472500Y-62146380D01*
X57464880Y-62164160D01*
X57467420Y-62174320D01*
X57480120Y-62197180D01*
X57513140Y-62245440D01*
X57558860Y-62314020D01*
X57614740Y-62392760D01*
X57660460Y-62461340D01*
X57708720Y-62535000D01*
X57739200Y-62588340D01*
X57751900Y-62616280D01*
X57749360Y-62626440D01*
X57731580Y-62669620D01*
X57706180Y-62738200D01*
X57673160Y-62816940D01*
X57594420Y-62994740D01*
X57477580Y-63015060D01*
X57406460Y-63030300D01*
X57307400Y-63048080D01*
X57213420Y-63065860D01*
X57066100Y-63096340D01*
X57061020Y-63634820D01*
X57083880Y-63644980D01*
X57106740Y-63652600D01*
X57160080Y-63662760D01*
X57238820Y-63678000D01*
X57330260Y-63695780D01*
X57409000Y-63711020D01*
X57487740Y-63726260D01*
X57543620Y-63736420D01*
X57569020Y-63741500D01*
X57576640Y-63751660D01*
X57596960Y-63789760D01*
X57624900Y-63850720D01*
X57655380Y-63924380D01*
X57685860Y-63998040D01*
X57713800Y-64069160D01*
X57734120Y-64122500D01*
X57741740Y-64150440D01*
X57731580Y-64170760D01*
X57701100Y-64216480D01*
X57657920Y-64282520D01*
X57604580Y-64361260D01*
X57548700Y-64440000D01*
X57505520Y-64508580D01*
X57472500Y-64556840D01*
X57459800Y-64577160D01*
X57467420Y-64592400D01*
X57497900Y-64630500D01*
X57556320Y-64691460D01*
X57645220Y-64780360D01*
X57660460Y-64793060D01*
X57729040Y-64861640D01*
X57790000Y-64914980D01*
X57830640Y-64953080D01*
X57848420Y-64965780D01*
G36*
X71854380Y-64867520D02*
X71905180Y-64862440D01*
X71950900Y-64847200D01*
X71971220Y-64837040D01*
X72014400Y-64806560D01*
X72047420Y-64771000D01*
X72072820Y-64727820D01*
X72090600Y-64682100D01*
X72098220Y-64633840D01*
X72095680Y-64583040D01*
X72085520Y-64534780D01*
X72062660Y-64489060D01*
X72047420Y-64468740D01*
X72027100Y-64445880D01*
X72004240Y-64423020D01*
X71983920Y-64407780D01*
X71976300Y-64402700D01*
X71933120Y-64382380D01*
X71887400Y-64372220D01*
X71839140Y-64369680D01*
X71821360Y-64372220D01*
X71793420Y-64374760D01*
X71770560Y-64382380D01*
X71742620Y-64392540D01*
X71714680Y-64407780D01*
X71674040Y-64440800D01*
X71641020Y-64481440D01*
X71615620Y-64527160D01*
X71608000Y-64547480D01*
X71602920Y-64572880D01*
X71600380Y-64590660D01*
X71600380Y-64593200D01*
X71597840Y-64595740D01*
X71597840Y-64585580D01*
X71597840Y-64583040D01*
X71590220Y-64550020D01*
X71577520Y-64517000D01*
X71562280Y-64489060D01*
X71534340Y-64450960D01*
X71496240Y-64417940D01*
X71453060Y-64390000D01*
X71402260Y-64374760D01*
X71351460Y-64369680D01*
X71336220Y-64369680D01*
X71298120Y-64374760D01*
X71260020Y-64384920D01*
X71252400Y-64387460D01*
X71209220Y-64410320D01*
X71171120Y-64443340D01*
X71140640Y-64481440D01*
X71117780Y-64522080D01*
X71105080Y-64567800D01*
X71102540Y-64567800D01*
X71100000Y-64580500D01*
X71100000Y-64585580D01*
X71100000Y-64585580D01*
X71100000Y-64580500D01*
X71094920Y-64567800D01*
X71094920Y-64562720D01*
X71079680Y-64519540D01*
X71056820Y-64476360D01*
X71023800Y-64438260D01*
X70993320Y-64412860D01*
X70950140Y-64390000D01*
X70901880Y-64374760D01*
X70848540Y-64369680D01*
X70812980Y-64372220D01*
X70762180Y-64384920D01*
X70716460Y-64407780D01*
X70675820Y-64438260D01*
X70645340Y-64478900D01*
X70640260Y-64483980D01*
X70630100Y-64504300D01*
X70622480Y-64519540D01*
X70617400Y-64529700D01*
X70609780Y-64552560D01*
X70604700Y-64575420D01*
X70602160Y-64590660D01*
X70602160Y-64593200D01*
X70602160Y-64593200D01*
X70599620Y-64583040D01*
X70594540Y-64555100D01*
X70581840Y-64522080D01*
X70566600Y-64491600D01*
X70536120Y-64450960D01*
X70498020Y-64417940D01*
X70454840Y-64390000D01*
X70404040Y-64374760D01*
X70353240Y-64369680D01*
X70304980Y-64372220D01*
X70256720Y-64387460D01*
X70213540Y-64410320D01*
X70172900Y-64445880D01*
X70152580Y-64466200D01*
X70134800Y-64494140D01*
X70119560Y-64527160D01*
X70109400Y-64552560D01*
X70101780Y-64603360D01*
X70104320Y-64651620D01*
X70114480Y-64697340D01*
X70132260Y-64743060D01*
X70160200Y-64781160D01*
X70195760Y-64814180D01*
X70236400Y-64842120D01*
X70282120Y-64859900D01*
X70332920Y-64867520D01*
X70335460Y-64867520D01*
X70388800Y-64867520D01*
X70434520Y-64854820D01*
X70480240Y-64831960D01*
X70498020Y-64821800D01*
X70531040Y-64791320D01*
X70558980Y-64758300D01*
X70581840Y-64720200D01*
X70586920Y-64704960D01*
X70592000Y-64684640D01*
X70597080Y-64661780D01*
X70599620Y-64646540D01*
X70599620Y-64636380D01*
X70602160Y-64646540D01*
X70602160Y-64654160D01*
X70607240Y-64677020D01*
X70614860Y-64702420D01*
X70622480Y-64722740D01*
X70635180Y-64745600D01*
X70665660Y-64786240D01*
X70703760Y-64819260D01*
X70746940Y-64847200D01*
X70797740Y-64862440D01*
X70805360Y-64864980D01*
X70840920Y-64867520D01*
X70876480Y-64867520D01*
X70909500Y-64862440D01*
X70942520Y-64852280D01*
X70988240Y-64826880D01*
X71031420Y-64793860D01*
X71033960Y-64791320D01*
X71061900Y-64755760D01*
X71082220Y-64712580D01*
X71094920Y-64669400D01*
X71097460Y-64669400D01*
X71100000Y-64656700D01*
X71100000Y-64651620D01*
X71100000Y-64654160D01*
X71102540Y-64666860D01*
X71102540Y-64669400D01*
X71110160Y-64694800D01*
X71122860Y-64722740D01*
X71135560Y-64750680D01*
X71158420Y-64781160D01*
X71196520Y-64816720D01*
X71239700Y-64844660D01*
X71290500Y-64862440D01*
X71298120Y-64864980D01*
X71331140Y-64867520D01*
X71369240Y-64867520D01*
X71399720Y-64864980D01*
X71427660Y-64854820D01*
X71475920Y-64834500D01*
X71516560Y-64804020D01*
X71552120Y-64765920D01*
X71577520Y-64722740D01*
X71582600Y-64707500D01*
X71590220Y-64684640D01*
X71595300Y-64661780D01*
X71597840Y-64646540D01*
X71597840Y-64644000D01*
X71597840Y-64644000D01*
X71600380Y-64654160D01*
X71600380Y-64654160D01*
X71608000Y-64687180D01*
X71620700Y-64720200D01*
X71635940Y-64748140D01*
X71641020Y-64758300D01*
X71674040Y-64796400D01*
X71714680Y-64829420D01*
X71757860Y-64852280D01*
X71803580Y-64864980D01*
X71854380Y-64867520D01*
X71854380Y-64867520D01*
G37*
X71854380Y-64867520D02*
X71905180Y-64862440D01*
X71950900Y-64847200D01*
X71971220Y-64837040D01*
X72014400Y-64806560D01*
X72047420Y-64771000D01*
X72072820Y-64727820D01*
X72090600Y-64682100D01*
X72098220Y-64633840D01*
X72095680Y-64583040D01*
X72085520Y-64534780D01*
X72062660Y-64489060D01*
X72047420Y-64468740D01*
X72027100Y-64445880D01*
X72004240Y-64423020D01*
X71983920Y-64407780D01*
X71976300Y-64402700D01*
X71933120Y-64382380D01*
X71887400Y-64372220D01*
X71839140Y-64369680D01*
X71821360Y-64372220D01*
X71793420Y-64374760D01*
X71770560Y-64382380D01*
X71742620Y-64392540D01*
X71714680Y-64407780D01*
X71674040Y-64440800D01*
X71641020Y-64481440D01*
X71615620Y-64527160D01*
X71608000Y-64547480D01*
X71602920Y-64572880D01*
X71600380Y-64590660D01*
X71600380Y-64593200D01*
X71597840Y-64595740D01*
X71597840Y-64585580D01*
X71597840Y-64583040D01*
X71590220Y-64550020D01*
X71577520Y-64517000D01*
X71562280Y-64489060D01*
X71534340Y-64450960D01*
X71496240Y-64417940D01*
X71453060Y-64390000D01*
X71402260Y-64374760D01*
X71351460Y-64369680D01*
X71336220Y-64369680D01*
X71298120Y-64374760D01*
X71260020Y-64384920D01*
X71252400Y-64387460D01*
X71209220Y-64410320D01*
X71171120Y-64443340D01*
X71140640Y-64481440D01*
X71117780Y-64522080D01*
X71105080Y-64567800D01*
X71102540Y-64567800D01*
X71100000Y-64580500D01*
X71100000Y-64585580D01*
X71100000Y-64585580D01*
X71100000Y-64580500D01*
X71094920Y-64567800D01*
X71094920Y-64562720D01*
X71079680Y-64519540D01*
X71056820Y-64476360D01*
X71023800Y-64438260D01*
X70993320Y-64412860D01*
X70950140Y-64390000D01*
X70901880Y-64374760D01*
X70848540Y-64369680D01*
X70812980Y-64372220D01*
X70762180Y-64384920D01*
X70716460Y-64407780D01*
X70675820Y-64438260D01*
X70645340Y-64478900D01*
X70640260Y-64483980D01*
X70630100Y-64504300D01*
X70622480Y-64519540D01*
X70617400Y-64529700D01*
X70609780Y-64552560D01*
X70604700Y-64575420D01*
X70602160Y-64590660D01*
X70602160Y-64593200D01*
X70602160Y-64593200D01*
X70599620Y-64583040D01*
X70594540Y-64555100D01*
X70581840Y-64522080D01*
X70566600Y-64491600D01*
X70536120Y-64450960D01*
X70498020Y-64417940D01*
X70454840Y-64390000D01*
X70404040Y-64374760D01*
X70353240Y-64369680D01*
X70304980Y-64372220D01*
X70256720Y-64387460D01*
X70213540Y-64410320D01*
X70172900Y-64445880D01*
X70152580Y-64466200D01*
X70134800Y-64494140D01*
X70119560Y-64527160D01*
X70109400Y-64552560D01*
X70101780Y-64603360D01*
X70104320Y-64651620D01*
X70114480Y-64697340D01*
X70132260Y-64743060D01*
X70160200Y-64781160D01*
X70195760Y-64814180D01*
X70236400Y-64842120D01*
X70282120Y-64859900D01*
X70332920Y-64867520D01*
X70335460Y-64867520D01*
X70388800Y-64867520D01*
X70434520Y-64854820D01*
X70480240Y-64831960D01*
X70498020Y-64821800D01*
X70531040Y-64791320D01*
X70558980Y-64758300D01*
X70581840Y-64720200D01*
X70586920Y-64704960D01*
X70592000Y-64684640D01*
X70597080Y-64661780D01*
X70599620Y-64646540D01*
X70599620Y-64636380D01*
X70602160Y-64646540D01*
X70602160Y-64654160D01*
X70607240Y-64677020D01*
X70614860Y-64702420D01*
X70622480Y-64722740D01*
X70635180Y-64745600D01*
X70665660Y-64786240D01*
X70703760Y-64819260D01*
X70746940Y-64847200D01*
X70797740Y-64862440D01*
X70805360Y-64864980D01*
X70840920Y-64867520D01*
X70876480Y-64867520D01*
X70909500Y-64862440D01*
X70942520Y-64852280D01*
X70988240Y-64826880D01*
X71031420Y-64793860D01*
X71033960Y-64791320D01*
X71061900Y-64755760D01*
X71082220Y-64712580D01*
X71094920Y-64669400D01*
X71097460Y-64669400D01*
X71100000Y-64656700D01*
X71100000Y-64651620D01*
X71100000Y-64654160D01*
X71102540Y-64666860D01*
X71102540Y-64669400D01*
X71110160Y-64694800D01*
X71122860Y-64722740D01*
X71135560Y-64750680D01*
X71158420Y-64781160D01*
X71196520Y-64816720D01*
X71239700Y-64844660D01*
X71290500Y-64862440D01*
X71298120Y-64864980D01*
X71331140Y-64867520D01*
X71369240Y-64867520D01*
X71399720Y-64864980D01*
X71427660Y-64854820D01*
X71475920Y-64834500D01*
X71516560Y-64804020D01*
X71552120Y-64765920D01*
X71577520Y-64722740D01*
X71582600Y-64707500D01*
X71590220Y-64684640D01*
X71595300Y-64661780D01*
X71597840Y-64646540D01*
X71597840Y-64644000D01*
X71597840Y-64644000D01*
X71600380Y-64654160D01*
X71600380Y-64654160D01*
X71608000Y-64687180D01*
X71620700Y-64720200D01*
X71635940Y-64748140D01*
X71641020Y-64758300D01*
X71674040Y-64796400D01*
X71714680Y-64829420D01*
X71757860Y-64852280D01*
X71803580Y-64864980D01*
X71854380Y-64867520D01*
G36*
X69835080Y-64369680D02*
X69865560Y-64367140D01*
X69893500Y-64364600D01*
X69929060Y-64356980D01*
X69974780Y-64336660D01*
X70015420Y-64306180D01*
X70050980Y-64268080D01*
X70076380Y-64224900D01*
X70094160Y-64179180D01*
X70101780Y-64128380D01*
X70096700Y-64077580D01*
X70084000Y-64029320D01*
X70061140Y-63983600D01*
X70030660Y-63945500D01*
X69990020Y-63909940D01*
X69977320Y-63902320D01*
X69929060Y-63882000D01*
X69878260Y-63869300D01*
X69827460Y-63869300D01*
X69776660Y-63879460D01*
X69736020Y-63897240D01*
X69692840Y-63925180D01*
X69654740Y-63963280D01*
X69626800Y-64006460D01*
X69609020Y-64057260D01*
X69603940Y-64082660D01*
X69601400Y-64115680D01*
X69601400Y-64146160D01*
X69606480Y-64174100D01*
X69609020Y-64184260D01*
X69629340Y-64235060D01*
X69657280Y-64278240D01*
X69695380Y-64313800D01*
X69741100Y-64344280D01*
X69763960Y-64351900D01*
X69791900Y-64362060D01*
X69817300Y-64367140D01*
X69835080Y-64369680D01*
X69835080Y-64369680D01*
G37*
X69835080Y-64369680D02*
X69865560Y-64367140D01*
X69893500Y-64364600D01*
X69929060Y-64356980D01*
X69974780Y-64336660D01*
X70015420Y-64306180D01*
X70050980Y-64268080D01*
X70076380Y-64224900D01*
X70094160Y-64179180D01*
X70101780Y-64128380D01*
X70096700Y-64077580D01*
X70084000Y-64029320D01*
X70061140Y-63983600D01*
X70030660Y-63945500D01*
X69990020Y-63909940D01*
X69977320Y-63902320D01*
X69929060Y-63882000D01*
X69878260Y-63869300D01*
X69827460Y-63869300D01*
X69776660Y-63879460D01*
X69736020Y-63897240D01*
X69692840Y-63925180D01*
X69654740Y-63963280D01*
X69626800Y-64006460D01*
X69609020Y-64057260D01*
X69603940Y-64082660D01*
X69601400Y-64115680D01*
X69601400Y-64146160D01*
X69606480Y-64174100D01*
X69609020Y-64184260D01*
X69629340Y-64235060D01*
X69657280Y-64278240D01*
X69695380Y-64313800D01*
X69741100Y-64344280D01*
X69763960Y-64351900D01*
X69791900Y-64362060D01*
X69817300Y-64367140D01*
X69835080Y-64369680D01*
G36*
X72354760Y-64369680D02*
X72405560Y-64362060D01*
X72456360Y-64344280D01*
X72502080Y-64316340D01*
X72512240Y-64308720D01*
X72545260Y-64273160D01*
X72573200Y-64229980D01*
X72590980Y-64179180D01*
X72596060Y-64153780D01*
X72598600Y-64123300D01*
X72598600Y-64090280D01*
X72593520Y-64064880D01*
X72590980Y-64052180D01*
X72570660Y-64001380D01*
X72542720Y-63960740D01*
X72504620Y-63922640D01*
X72461440Y-63897240D01*
X72415720Y-63876920D01*
X72362380Y-63869300D01*
X72344600Y-63869300D01*
X72293800Y-63874380D01*
X72245540Y-63889620D01*
X72204900Y-63915020D01*
X72166800Y-63948040D01*
X72136320Y-63986140D01*
X72116000Y-64029320D01*
X72103300Y-64077580D01*
X72100760Y-64130920D01*
X72103300Y-64161400D01*
X72108380Y-64186800D01*
X72118540Y-64217280D01*
X72138860Y-64255380D01*
X72171880Y-64293480D01*
X72209980Y-64326500D01*
X72255700Y-64351900D01*
X72303960Y-64364600D01*
X72354760Y-64369680D01*
X72354760Y-64369680D01*
G37*
X72354760Y-64369680D02*
X72405560Y-64362060D01*
X72456360Y-64344280D01*
X72502080Y-64316340D01*
X72512240Y-64308720D01*
X72545260Y-64273160D01*
X72573200Y-64229980D01*
X72590980Y-64179180D01*
X72596060Y-64153780D01*
X72598600Y-64123300D01*
X72598600Y-64090280D01*
X72593520Y-64064880D01*
X72590980Y-64052180D01*
X72570660Y-64001380D01*
X72542720Y-63960740D01*
X72504620Y-63922640D01*
X72461440Y-63897240D01*
X72415720Y-63876920D01*
X72362380Y-63869300D01*
X72344600Y-63869300D01*
X72293800Y-63874380D01*
X72245540Y-63889620D01*
X72204900Y-63915020D01*
X72166800Y-63948040D01*
X72136320Y-63986140D01*
X72116000Y-64029320D01*
X72103300Y-64077580D01*
X72100760Y-64130920D01*
X72103300Y-64161400D01*
X72108380Y-64186800D01*
X72118540Y-64217280D01*
X72138860Y-64255380D01*
X72171880Y-64293480D01*
X72209980Y-64326500D01*
X72255700Y-64351900D01*
X72303960Y-64364600D01*
X72354760Y-64369680D01*
G36*
X69337240Y-63866760D02*
X69372800Y-63866760D01*
X69403280Y-63864220D01*
X69438840Y-63854060D01*
X69484560Y-63828660D01*
X69527740Y-63795640D01*
X69553140Y-63765160D01*
X69578540Y-63721980D01*
X69596320Y-63671180D01*
X69598860Y-63653400D01*
X69601400Y-63622920D01*
X69598860Y-63592440D01*
X69596320Y-63567040D01*
X69591240Y-63551800D01*
X69573460Y-63503540D01*
X69542980Y-63460360D01*
X69507420Y-63422260D01*
X69461700Y-63394320D01*
X69443920Y-63386700D01*
X69413440Y-63376540D01*
X69380420Y-63371460D01*
X69342320Y-63371460D01*
X69319460Y-63371460D01*
X69291520Y-63376540D01*
X69266120Y-63381620D01*
X69240720Y-63394320D01*
X69222940Y-63404480D01*
X69182300Y-63434960D01*
X69146740Y-63473060D01*
X69121340Y-63518780D01*
X69106100Y-63569580D01*
X69103560Y-63582280D01*
X69101020Y-63610220D01*
X69101020Y-63640700D01*
X69106100Y-63668640D01*
X69108640Y-63686420D01*
X69128960Y-63734680D01*
X69156900Y-63777860D01*
X69195000Y-63813420D01*
X69238180Y-63841360D01*
X69288980Y-63861680D01*
X69304220Y-63864220D01*
X69337240Y-63866760D01*
X69337240Y-63866760D01*
G37*
X69337240Y-63866760D02*
X69372800Y-63866760D01*
X69403280Y-63864220D01*
X69438840Y-63854060D01*
X69484560Y-63828660D01*
X69527740Y-63795640D01*
X69553140Y-63765160D01*
X69578540Y-63721980D01*
X69596320Y-63671180D01*
X69598860Y-63653400D01*
X69601400Y-63622920D01*
X69598860Y-63592440D01*
X69596320Y-63567040D01*
X69591240Y-63551800D01*
X69573460Y-63503540D01*
X69542980Y-63460360D01*
X69507420Y-63422260D01*
X69461700Y-63394320D01*
X69443920Y-63386700D01*
X69413440Y-63376540D01*
X69380420Y-63371460D01*
X69342320Y-63371460D01*
X69319460Y-63371460D01*
X69291520Y-63376540D01*
X69266120Y-63381620D01*
X69240720Y-63394320D01*
X69222940Y-63404480D01*
X69182300Y-63434960D01*
X69146740Y-63473060D01*
X69121340Y-63518780D01*
X69106100Y-63569580D01*
X69103560Y-63582280D01*
X69101020Y-63610220D01*
X69101020Y-63640700D01*
X69106100Y-63668640D01*
X69108640Y-63686420D01*
X69128960Y-63734680D01*
X69156900Y-63777860D01*
X69195000Y-63813420D01*
X69238180Y-63841360D01*
X69288980Y-63861680D01*
X69304220Y-63864220D01*
X69337240Y-63866760D01*
G36*
X71343840Y-63869300D02*
X71392100Y-63864220D01*
X71440360Y-63851520D01*
X71468300Y-63838820D01*
X71511480Y-63808340D01*
X71547040Y-63772780D01*
X71572440Y-63727060D01*
X71590220Y-63678800D01*
X71592760Y-63668640D01*
X71600380Y-63628000D01*
X71597840Y-63589900D01*
X71587680Y-63546720D01*
X71567360Y-63498460D01*
X71539420Y-63455280D01*
X71501320Y-63419720D01*
X71455600Y-63394320D01*
X71404800Y-63374000D01*
X71374320Y-63366380D01*
X71389560Y-63366380D01*
X71394640Y-63363840D01*
X71430200Y-63356220D01*
X71468300Y-63338440D01*
X71501320Y-63315580D01*
X71508940Y-63310500D01*
X71544500Y-63274940D01*
X71572440Y-63231760D01*
X71590220Y-63186040D01*
X71597840Y-63137780D01*
X71597840Y-63089520D01*
X71585140Y-63041260D01*
X71564820Y-62993000D01*
X71562280Y-62993000D01*
X71531800Y-62949820D01*
X71493700Y-62916800D01*
X71453060Y-62893940D01*
X71407340Y-62878700D01*
X71359080Y-62871080D01*
X71310820Y-62873620D01*
X71262560Y-62886320D01*
X71216840Y-62909180D01*
X71176200Y-62939660D01*
X71155880Y-62962520D01*
X71130480Y-63000620D01*
X71112700Y-63038720D01*
X71102540Y-63076820D01*
X71100000Y-63084440D01*
X71100000Y-63089520D01*
X71100000Y-63086980D01*
X71097460Y-63076820D01*
X71089840Y-63041260D01*
X71074600Y-63005700D01*
X71051740Y-62972680D01*
X71039040Y-62957440D01*
X71003480Y-62921880D01*
X70957760Y-62896480D01*
X70912040Y-62878700D01*
X70861240Y-62871080D01*
X70810440Y-62873620D01*
X70777420Y-62881240D01*
X70729160Y-62901560D01*
X70688520Y-62932040D01*
X70652960Y-62967600D01*
X70625020Y-63010780D01*
X70607240Y-63061580D01*
X70604700Y-63086980D01*
X70602160Y-63135240D01*
X70609780Y-63186040D01*
X70627560Y-63231760D01*
X70655500Y-63274940D01*
X70693600Y-63310500D01*
X70736780Y-63340980D01*
X70757100Y-63348600D01*
X70779960Y-63358760D01*
X70800280Y-63363840D01*
X70818060Y-63366380D01*
X70820600Y-63366380D01*
X70818060Y-63368920D01*
X70807900Y-63371460D01*
X70782500Y-63379080D01*
X70749480Y-63389240D01*
X70721540Y-63404480D01*
X70706300Y-63414640D01*
X70673280Y-63445120D01*
X70642800Y-63480680D01*
X70622480Y-63518780D01*
X70607240Y-63559420D01*
X70602160Y-63605140D01*
X70602160Y-63648320D01*
X70604700Y-63655940D01*
X70617400Y-63709280D01*
X70640260Y-63755000D01*
X70675820Y-63795640D01*
X70703760Y-63821040D01*
X70746940Y-63846440D01*
X70797740Y-63864220D01*
X70815520Y-63866760D01*
X70843460Y-63866760D01*
X70871400Y-63866760D01*
X70899340Y-63864220D01*
X70919660Y-63859140D01*
X70934900Y-63854060D01*
X70983160Y-63831200D01*
X71026340Y-63798180D01*
X71059360Y-63757540D01*
X71072060Y-63737220D01*
X71087300Y-63704200D01*
X71094920Y-63671180D01*
X71097460Y-63668640D01*
X71100000Y-63655940D01*
X71100000Y-63650860D01*
X71100000Y-63650860D01*
X71100000Y-63584820D01*
X71100000Y-63584820D01*
X71100000Y-63579740D01*
X71094920Y-63567040D01*
X71094920Y-63564500D01*
X71079680Y-63518780D01*
X71056820Y-63478140D01*
X71023800Y-63440040D01*
X70985700Y-63409560D01*
X70945060Y-63386700D01*
X70942520Y-63386700D01*
X70919660Y-63379080D01*
X70899340Y-63374000D01*
X70876480Y-63368920D01*
X70896800Y-63363840D01*
X70927280Y-63356220D01*
X70973000Y-63338440D01*
X71013640Y-63307960D01*
X71046660Y-63272400D01*
X71074600Y-63231760D01*
X71084760Y-63211440D01*
X71092380Y-63186040D01*
X71097460Y-63163180D01*
X71100000Y-63155560D01*
X71100000Y-63150480D01*
X71100000Y-63153020D01*
X71102540Y-63163180D01*
X71107620Y-63183500D01*
X71115240Y-63208900D01*
X71125400Y-63231760D01*
X71140640Y-63259700D01*
X71173660Y-63297800D01*
X71211760Y-63328280D01*
X71257480Y-63351140D01*
X71303200Y-63363840D01*
X71326060Y-63368920D01*
X71303200Y-63374000D01*
X71298120Y-63374000D01*
X71277800Y-63379080D01*
X71254940Y-63386700D01*
X71252400Y-63389240D01*
X71209220Y-63412100D01*
X71171120Y-63442580D01*
X71140640Y-63480680D01*
X71117780Y-63521320D01*
X71105080Y-63567040D01*
X71102540Y-63569580D01*
X71100000Y-63579740D01*
X71100000Y-63584820D01*
X71100000Y-63650860D01*
X71100000Y-63650860D01*
X71100000Y-63658480D01*
X71105080Y-63671180D01*
X71112700Y-63704200D01*
X71133020Y-63747380D01*
X71163500Y-63788020D01*
X71201600Y-63821040D01*
X71244780Y-63846440D01*
X71244780Y-63846440D01*
X71293040Y-63861680D01*
X71343840Y-63869300D01*
X71343840Y-63869300D01*
G37*
X71343840Y-63869300D02*
X71392100Y-63864220D01*
X71440360Y-63851520D01*
X71468300Y-63838820D01*
X71511480Y-63808340D01*
X71547040Y-63772780D01*
X71572440Y-63727060D01*
X71590220Y-63678800D01*
X71592760Y-63668640D01*
X71600380Y-63628000D01*
X71597840Y-63589900D01*
X71587680Y-63546720D01*
X71567360Y-63498460D01*
X71539420Y-63455280D01*
X71501320Y-63419720D01*
X71455600Y-63394320D01*
X71404800Y-63374000D01*
X71374320Y-63366380D01*
X71389560Y-63366380D01*
X71394640Y-63363840D01*
X71430200Y-63356220D01*
X71468300Y-63338440D01*
X71501320Y-63315580D01*
X71508940Y-63310500D01*
X71544500Y-63274940D01*
X71572440Y-63231760D01*
X71590220Y-63186040D01*
X71597840Y-63137780D01*
X71597840Y-63089520D01*
X71585140Y-63041260D01*
X71564820Y-62993000D01*
X71562280Y-62993000D01*
X71531800Y-62949820D01*
X71493700Y-62916800D01*
X71453060Y-62893940D01*
X71407340Y-62878700D01*
X71359080Y-62871080D01*
X71310820Y-62873620D01*
X71262560Y-62886320D01*
X71216840Y-62909180D01*
X71176200Y-62939660D01*
X71155880Y-62962520D01*
X71130480Y-63000620D01*
X71112700Y-63038720D01*
X71102540Y-63076820D01*
X71100000Y-63084440D01*
X71100000Y-63089520D01*
X71100000Y-63086980D01*
X71097460Y-63076820D01*
X71089840Y-63041260D01*
X71074600Y-63005700D01*
X71051740Y-62972680D01*
X71039040Y-62957440D01*
X71003480Y-62921880D01*
X70957760Y-62896480D01*
X70912040Y-62878700D01*
X70861240Y-62871080D01*
X70810440Y-62873620D01*
X70777420Y-62881240D01*
X70729160Y-62901560D01*
X70688520Y-62932040D01*
X70652960Y-62967600D01*
X70625020Y-63010780D01*
X70607240Y-63061580D01*
X70604700Y-63086980D01*
X70602160Y-63135240D01*
X70609780Y-63186040D01*
X70627560Y-63231760D01*
X70655500Y-63274940D01*
X70693600Y-63310500D01*
X70736780Y-63340980D01*
X70757100Y-63348600D01*
X70779960Y-63358760D01*
X70800280Y-63363840D01*
X70818060Y-63366380D01*
X70820600Y-63366380D01*
X70818060Y-63368920D01*
X70807900Y-63371460D01*
X70782500Y-63379080D01*
X70749480Y-63389240D01*
X70721540Y-63404480D01*
X70706300Y-63414640D01*
X70673280Y-63445120D01*
X70642800Y-63480680D01*
X70622480Y-63518780D01*
X70607240Y-63559420D01*
X70602160Y-63605140D01*
X70602160Y-63648320D01*
X70604700Y-63655940D01*
X70617400Y-63709280D01*
X70640260Y-63755000D01*
X70675820Y-63795640D01*
X70703760Y-63821040D01*
X70746940Y-63846440D01*
X70797740Y-63864220D01*
X70815520Y-63866760D01*
X70843460Y-63866760D01*
X70871400Y-63866760D01*
X70899340Y-63864220D01*
X70919660Y-63859140D01*
X70934900Y-63854060D01*
X70983160Y-63831200D01*
X71026340Y-63798180D01*
X71059360Y-63757540D01*
X71072060Y-63737220D01*
X71087300Y-63704200D01*
X71094920Y-63671180D01*
X71097460Y-63668640D01*
X71100000Y-63655940D01*
X71100000Y-63650860D01*
X71100000Y-63650860D01*
X71100000Y-63584820D01*
X71100000Y-63584820D01*
X71100000Y-63579740D01*
X71094920Y-63567040D01*
X71094920Y-63564500D01*
X71079680Y-63518780D01*
X71056820Y-63478140D01*
X71023800Y-63440040D01*
X70985700Y-63409560D01*
X70945060Y-63386700D01*
X70942520Y-63386700D01*
X70919660Y-63379080D01*
X70899340Y-63374000D01*
X70876480Y-63368920D01*
X70896800Y-63363840D01*
X70927280Y-63356220D01*
X70973000Y-63338440D01*
X71013640Y-63307960D01*
X71046660Y-63272400D01*
X71074600Y-63231760D01*
X71084760Y-63211440D01*
X71092380Y-63186040D01*
X71097460Y-63163180D01*
X71100000Y-63155560D01*
X71100000Y-63150480D01*
X71100000Y-63153020D01*
X71102540Y-63163180D01*
X71107620Y-63183500D01*
X71115240Y-63208900D01*
X71125400Y-63231760D01*
X71140640Y-63259700D01*
X71173660Y-63297800D01*
X71211760Y-63328280D01*
X71257480Y-63351140D01*
X71303200Y-63363840D01*
X71326060Y-63368920D01*
X71303200Y-63374000D01*
X71298120Y-63374000D01*
X71277800Y-63379080D01*
X71254940Y-63386700D01*
X71252400Y-63389240D01*
X71209220Y-63412100D01*
X71171120Y-63442580D01*
X71140640Y-63480680D01*
X71117780Y-63521320D01*
X71105080Y-63567040D01*
X71102540Y-63569580D01*
X71100000Y-63579740D01*
X71100000Y-63584820D01*
X71100000Y-63650860D01*
X71100000Y-63650860D01*
X71100000Y-63658480D01*
X71105080Y-63671180D01*
X71112700Y-63704200D01*
X71133020Y-63747380D01*
X71163500Y-63788020D01*
X71201600Y-63821040D01*
X71244780Y-63846440D01*
X71244780Y-63846440D01*
X71293040Y-63861680D01*
X71343840Y-63869300D01*
G36*
X72829740Y-63866760D02*
X72870380Y-63866760D01*
X72908480Y-63861680D01*
X72931340Y-63854060D01*
X72979600Y-63833740D01*
X73020240Y-63800720D01*
X73053260Y-63765160D01*
X73078660Y-63719440D01*
X73093900Y-63671180D01*
X73098980Y-63617840D01*
X73098980Y-63597520D01*
X73088820Y-63546720D01*
X73068500Y-63498460D01*
X73038020Y-63452740D01*
X73027860Y-63445120D01*
X72992300Y-63414640D01*
X72951660Y-63391780D01*
X72908480Y-63376540D01*
X72905940Y-63374000D01*
X72867840Y-63368920D01*
X72827200Y-63368920D01*
X72791640Y-63374000D01*
X72776400Y-63379080D01*
X72730680Y-63399400D01*
X72687500Y-63427340D01*
X72654480Y-63462900D01*
X72626540Y-63503540D01*
X72608760Y-63549260D01*
X72598600Y-63597520D01*
X72601140Y-63648320D01*
X72611300Y-63699120D01*
X72629080Y-63737220D01*
X72657020Y-63777860D01*
X72695120Y-63815960D01*
X72738300Y-63841360D01*
X72786560Y-63861680D01*
X72791640Y-63861680D01*
X72829740Y-63866760D01*
X72829740Y-63866760D01*
G37*
X72829740Y-63866760D02*
X72870380Y-63866760D01*
X72908480Y-63861680D01*
X72931340Y-63854060D01*
X72979600Y-63833740D01*
X73020240Y-63800720D01*
X73053260Y-63765160D01*
X73078660Y-63719440D01*
X73093900Y-63671180D01*
X73098980Y-63617840D01*
X73098980Y-63597520D01*
X73088820Y-63546720D01*
X73068500Y-63498460D01*
X73038020Y-63452740D01*
X73027860Y-63445120D01*
X72992300Y-63414640D01*
X72951660Y-63391780D01*
X72908480Y-63376540D01*
X72905940Y-63374000D01*
X72867840Y-63368920D01*
X72827200Y-63368920D01*
X72791640Y-63374000D01*
X72776400Y-63379080D01*
X72730680Y-63399400D01*
X72687500Y-63427340D01*
X72654480Y-63462900D01*
X72626540Y-63503540D01*
X72608760Y-63549260D01*
X72598600Y-63597520D01*
X72601140Y-63648320D01*
X72611300Y-63699120D01*
X72629080Y-63737220D01*
X72657020Y-63777860D01*
X72695120Y-63815960D01*
X72738300Y-63841360D01*
X72786560Y-63861680D01*
X72791640Y-63861680D01*
X72829740Y-63866760D01*
G36*
X70358320Y-62370700D02*
X70409120Y-62365620D01*
X70457380Y-62347840D01*
X70480240Y-62335140D01*
X70500560Y-62319900D01*
X70525960Y-62299580D01*
X70551360Y-62271640D01*
X70576760Y-62228460D01*
X70594540Y-62180200D01*
X70597080Y-62167500D01*
X70599620Y-62134480D01*
X70599620Y-62098920D01*
X70597080Y-62068440D01*
X70581840Y-62027800D01*
X70558980Y-61982080D01*
X70528500Y-61946520D01*
X70523420Y-61938900D01*
X70500560Y-61921120D01*
X70475160Y-61903340D01*
X70449760Y-61890640D01*
X70439600Y-61888100D01*
X70419280Y-61880480D01*
X70398960Y-61875400D01*
X70383720Y-61872860D01*
X70376100Y-61872860D01*
X70386260Y-61870320D01*
X70396420Y-61867780D01*
X70414200Y-61862700D01*
X70431980Y-61857620D01*
X70470080Y-61839840D01*
X70505640Y-61816980D01*
X70536120Y-61791580D01*
X70541200Y-61783960D01*
X70569140Y-61740780D01*
X70589460Y-61695060D01*
X70599620Y-61644260D01*
X70599620Y-61593460D01*
X70599620Y-61583300D01*
X70584380Y-61532500D01*
X70561520Y-61486780D01*
X70525960Y-61443600D01*
X70495480Y-61418200D01*
X70452300Y-61392800D01*
X70404040Y-61375020D01*
X70393880Y-61375020D01*
X70360860Y-61372480D01*
X70325300Y-61372480D01*
X70294820Y-61377560D01*
X70264340Y-61385180D01*
X70218620Y-61408040D01*
X70180520Y-61438520D01*
X70147500Y-61476620D01*
X70122100Y-61519800D01*
X70106860Y-61568060D01*
X70104320Y-61573140D01*
X70101780Y-61585840D01*
X70099240Y-61590920D01*
X70099240Y-61585840D01*
X70096700Y-61575680D01*
X70091620Y-61555360D01*
X70084000Y-61532500D01*
X70076380Y-61512180D01*
X70068760Y-61496940D01*
X70038280Y-61453760D01*
X70000180Y-61418200D01*
X69954460Y-61392800D01*
X69906200Y-61377560D01*
X69852860Y-61372480D01*
X69812220Y-61375020D01*
X69763960Y-61385180D01*
X69720780Y-61408040D01*
X69695380Y-61425820D01*
X69657280Y-61461380D01*
X69629340Y-61504560D01*
X69611560Y-61550280D01*
X69601400Y-61598540D01*
X69601400Y-61649340D01*
X69614100Y-61697600D01*
X69634420Y-61745860D01*
X69664900Y-61786500D01*
X69703000Y-61822060D01*
X69746180Y-61847460D01*
X69796980Y-61865240D01*
X69827460Y-61872860D01*
X69809680Y-61875400D01*
X69799520Y-61875400D01*
X69758880Y-61888100D01*
X69720780Y-61908420D01*
X69682680Y-61936360D01*
X69654740Y-61966840D01*
X69636960Y-61992240D01*
X69619180Y-62027800D01*
X69609020Y-62060820D01*
X69603940Y-62086220D01*
X69601400Y-62116700D01*
X69601400Y-62149720D01*
X69606480Y-62175120D01*
X69614100Y-62205600D01*
X69639500Y-62253860D01*
X69669980Y-62294500D01*
X69710620Y-62327520D01*
X69756340Y-62352920D01*
X69809680Y-62368160D01*
X69822380Y-62370700D01*
X69852860Y-62370700D01*
X69885880Y-62368160D01*
X69913820Y-62363080D01*
X69934140Y-62358000D01*
X69979860Y-62335140D01*
X70023040Y-62304660D01*
X70056060Y-62266560D01*
X70081460Y-62220840D01*
X70096700Y-62170040D01*
X70096700Y-62167500D01*
X70099240Y-62154800D01*
X70101780Y-62157340D01*
X70101780Y-62088760D01*
X70099240Y-62086220D01*
X70096700Y-62076060D01*
X70096700Y-62073520D01*
X70089080Y-62040500D01*
X70071300Y-62004940D01*
X70050980Y-61971920D01*
X70035740Y-61954140D01*
X69997640Y-61918580D01*
X69951920Y-61893180D01*
X69901120Y-61875400D01*
X69878260Y-61870320D01*
X69893500Y-61867780D01*
X69908740Y-61865240D01*
X69926520Y-61860160D01*
X69936680Y-61857620D01*
X69982400Y-61834760D01*
X70020500Y-61804280D01*
X70056060Y-61766180D01*
X70078920Y-61723000D01*
X70096700Y-61674740D01*
X70099240Y-61662040D01*
X70101780Y-61654420D01*
X70104320Y-61659500D01*
X70106860Y-61674740D01*
X70106860Y-61674740D01*
X70114480Y-61702680D01*
X70127180Y-61733160D01*
X70142420Y-61758560D01*
X70155120Y-61776340D01*
X70177980Y-61799200D01*
X70203380Y-61822060D01*
X70226240Y-61837300D01*
X70228780Y-61839840D01*
X70266880Y-61855080D01*
X70307520Y-61867780D01*
X70325300Y-61870320D01*
X70304980Y-61875400D01*
X70261800Y-61888100D01*
X70216080Y-61910960D01*
X70175440Y-61941440D01*
X70144960Y-61979540D01*
X70137340Y-61992240D01*
X70124640Y-62017640D01*
X70114480Y-62043040D01*
X70106860Y-62065900D01*
X70104320Y-62081140D01*
X70104320Y-62081140D01*
X70101780Y-62088760D01*
X70101780Y-62157340D01*
X70101780Y-62157340D01*
X70104320Y-62167500D01*
X70109400Y-62182740D01*
X70111940Y-62197980D01*
X70122100Y-62223380D01*
X70147500Y-62266560D01*
X70180520Y-62304660D01*
X70218620Y-62332600D01*
X70264340Y-62355460D01*
X70310060Y-62368160D01*
X70358320Y-62370700D01*
X70358320Y-62370700D01*
G37*
X70358320Y-62370700D02*
X70409120Y-62365620D01*
X70457380Y-62347840D01*
X70480240Y-62335140D01*
X70500560Y-62319900D01*
X70525960Y-62299580D01*
X70551360Y-62271640D01*
X70576760Y-62228460D01*
X70594540Y-62180200D01*
X70597080Y-62167500D01*
X70599620Y-62134480D01*
X70599620Y-62098920D01*
X70597080Y-62068440D01*
X70581840Y-62027800D01*
X70558980Y-61982080D01*
X70528500Y-61946520D01*
X70523420Y-61938900D01*
X70500560Y-61921120D01*
X70475160Y-61903340D01*
X70449760Y-61890640D01*
X70439600Y-61888100D01*
X70419280Y-61880480D01*
X70398960Y-61875400D01*
X70383720Y-61872860D01*
X70376100Y-61872860D01*
X70386260Y-61870320D01*
X70396420Y-61867780D01*
X70414200Y-61862700D01*
X70431980Y-61857620D01*
X70470080Y-61839840D01*
X70505640Y-61816980D01*
X70536120Y-61791580D01*
X70541200Y-61783960D01*
X70569140Y-61740780D01*
X70589460Y-61695060D01*
X70599620Y-61644260D01*
X70599620Y-61593460D01*
X70599620Y-61583300D01*
X70584380Y-61532500D01*
X70561520Y-61486780D01*
X70525960Y-61443600D01*
X70495480Y-61418200D01*
X70452300Y-61392800D01*
X70404040Y-61375020D01*
X70393880Y-61375020D01*
X70360860Y-61372480D01*
X70325300Y-61372480D01*
X70294820Y-61377560D01*
X70264340Y-61385180D01*
X70218620Y-61408040D01*
X70180520Y-61438520D01*
X70147500Y-61476620D01*
X70122100Y-61519800D01*
X70106860Y-61568060D01*
X70104320Y-61573140D01*
X70101780Y-61585840D01*
X70099240Y-61590920D01*
X70099240Y-61585840D01*
X70096700Y-61575680D01*
X70091620Y-61555360D01*
X70084000Y-61532500D01*
X70076380Y-61512180D01*
X70068760Y-61496940D01*
X70038280Y-61453760D01*
X70000180Y-61418200D01*
X69954460Y-61392800D01*
X69906200Y-61377560D01*
X69852860Y-61372480D01*
X69812220Y-61375020D01*
X69763960Y-61385180D01*
X69720780Y-61408040D01*
X69695380Y-61425820D01*
X69657280Y-61461380D01*
X69629340Y-61504560D01*
X69611560Y-61550280D01*
X69601400Y-61598540D01*
X69601400Y-61649340D01*
X69614100Y-61697600D01*
X69634420Y-61745860D01*
X69664900Y-61786500D01*
X69703000Y-61822060D01*
X69746180Y-61847460D01*
X69796980Y-61865240D01*
X69827460Y-61872860D01*
X69809680Y-61875400D01*
X69799520Y-61875400D01*
X69758880Y-61888100D01*
X69720780Y-61908420D01*
X69682680Y-61936360D01*
X69654740Y-61966840D01*
X69636960Y-61992240D01*
X69619180Y-62027800D01*
X69609020Y-62060820D01*
X69603940Y-62086220D01*
X69601400Y-62116700D01*
X69601400Y-62149720D01*
X69606480Y-62175120D01*
X69614100Y-62205600D01*
X69639500Y-62253860D01*
X69669980Y-62294500D01*
X69710620Y-62327520D01*
X69756340Y-62352920D01*
X69809680Y-62368160D01*
X69822380Y-62370700D01*
X69852860Y-62370700D01*
X69885880Y-62368160D01*
X69913820Y-62363080D01*
X69934140Y-62358000D01*
X69979860Y-62335140D01*
X70023040Y-62304660D01*
X70056060Y-62266560D01*
X70081460Y-62220840D01*
X70096700Y-62170040D01*
X70096700Y-62167500D01*
X70099240Y-62154800D01*
X70101780Y-62157340D01*
X70101780Y-62088760D01*
X70099240Y-62086220D01*
X70096700Y-62076060D01*
X70096700Y-62073520D01*
X70089080Y-62040500D01*
X70071300Y-62004940D01*
X70050980Y-61971920D01*
X70035740Y-61954140D01*
X69997640Y-61918580D01*
X69951920Y-61893180D01*
X69901120Y-61875400D01*
X69878260Y-61870320D01*
X69893500Y-61867780D01*
X69908740Y-61865240D01*
X69926520Y-61860160D01*
X69936680Y-61857620D01*
X69982400Y-61834760D01*
X70020500Y-61804280D01*
X70056060Y-61766180D01*
X70078920Y-61723000D01*
X70096700Y-61674740D01*
X70099240Y-61662040D01*
X70101780Y-61654420D01*
X70104320Y-61659500D01*
X70106860Y-61674740D01*
X70106860Y-61674740D01*
X70114480Y-61702680D01*
X70127180Y-61733160D01*
X70142420Y-61758560D01*
X70155120Y-61776340D01*
X70177980Y-61799200D01*
X70203380Y-61822060D01*
X70226240Y-61837300D01*
X70228780Y-61839840D01*
X70266880Y-61855080D01*
X70307520Y-61867780D01*
X70325300Y-61870320D01*
X70304980Y-61875400D01*
X70261800Y-61888100D01*
X70216080Y-61910960D01*
X70175440Y-61941440D01*
X70144960Y-61979540D01*
X70137340Y-61992240D01*
X70124640Y-62017640D01*
X70114480Y-62043040D01*
X70106860Y-62065900D01*
X70104320Y-62081140D01*
X70104320Y-62081140D01*
X70101780Y-62088760D01*
X70101780Y-62157340D01*
X70101780Y-62157340D01*
X70104320Y-62167500D01*
X70109400Y-62182740D01*
X70111940Y-62197980D01*
X70122100Y-62223380D01*
X70147500Y-62266560D01*
X70180520Y-62304660D01*
X70218620Y-62332600D01*
X70264340Y-62355460D01*
X70310060Y-62368160D01*
X70358320Y-62370700D01*
G36*
X71862000Y-62370700D02*
X71910260Y-62363080D01*
X71958520Y-62345300D01*
X71999160Y-62319900D01*
X72037260Y-62286880D01*
X72065200Y-62246240D01*
X72088060Y-62197980D01*
X72090600Y-62182740D01*
X72095680Y-62167500D01*
X72095680Y-62164960D01*
X72098220Y-62154800D01*
X72098220Y-62154800D01*
X72098220Y-62086220D01*
X72095680Y-62078600D01*
X72090600Y-62060820D01*
X72082980Y-62032880D01*
X72060120Y-61987160D01*
X72029640Y-61949060D01*
X71991540Y-61916040D01*
X71948360Y-61890640D01*
X71900100Y-61875400D01*
X71874700Y-61870320D01*
X71892480Y-61867780D01*
X71895020Y-61867780D01*
X71935660Y-61855080D01*
X71973760Y-61837300D01*
X71989000Y-61827140D01*
X72014400Y-61806820D01*
X72039800Y-61783960D01*
X72057580Y-61758560D01*
X72070280Y-61735700D01*
X72085520Y-61705220D01*
X72093140Y-61674740D01*
X72095680Y-61662040D01*
X72098220Y-61654420D01*
X72100760Y-61659500D01*
X72103300Y-61674740D01*
X72113460Y-61707760D01*
X72136320Y-61753480D01*
X72169340Y-61794120D01*
X72207440Y-61827140D01*
X72253160Y-61852540D01*
X72306500Y-61867780D01*
X72321740Y-61870320D01*
X72298880Y-61875400D01*
X72276020Y-61883020D01*
X72227760Y-61903340D01*
X72184580Y-61933820D01*
X72149020Y-61971920D01*
X72138860Y-61987160D01*
X72126160Y-62010020D01*
X72113460Y-62035420D01*
X72108380Y-62053200D01*
X72103300Y-62073520D01*
X72103300Y-62073520D01*
X72100760Y-62083680D01*
X72098220Y-62086220D01*
X72098220Y-62154800D01*
X72100760Y-62157340D01*
X72103300Y-62170040D01*
X72108380Y-62187820D01*
X72121080Y-62225920D01*
X72141400Y-62261480D01*
X72156640Y-62279260D01*
X72192200Y-62317360D01*
X72237920Y-62345300D01*
X72288720Y-62363080D01*
X72309040Y-62368160D01*
X72344600Y-62370700D01*
X72380160Y-62368160D01*
X72410640Y-62363080D01*
X72413180Y-62363080D01*
X72463980Y-62342760D01*
X72507160Y-62314820D01*
X72545260Y-62276720D01*
X72573200Y-62233540D01*
X72590980Y-62182740D01*
X72596060Y-62159880D01*
X72598600Y-62124320D01*
X72596060Y-62091300D01*
X72590980Y-62060820D01*
X72583360Y-62032880D01*
X72565580Y-61997320D01*
X72545260Y-61966840D01*
X72522400Y-61941440D01*
X72491920Y-61916040D01*
X72458900Y-61895720D01*
X72448740Y-61890640D01*
X72423340Y-61883020D01*
X72400480Y-61875400D01*
X72382700Y-61872860D01*
X72380160Y-61872860D01*
X72387780Y-61870320D01*
X72400480Y-61865240D01*
X72430960Y-61857620D01*
X72463980Y-61842380D01*
X72489380Y-61827140D01*
X72497000Y-61824600D01*
X72527480Y-61794120D01*
X72557960Y-61758560D01*
X72578280Y-61723000D01*
X72585900Y-61702680D01*
X72596060Y-61654420D01*
X72598600Y-61601080D01*
X72588440Y-61552820D01*
X72585900Y-61540120D01*
X72565580Y-61494400D01*
X72535100Y-61453760D01*
X72497000Y-61418200D01*
X72451280Y-61392800D01*
X72403020Y-61375020D01*
X72395400Y-61375020D01*
X72359840Y-61372480D01*
X72324280Y-61372480D01*
X72291260Y-61377560D01*
X72283640Y-61380100D01*
X72232840Y-61397880D01*
X72189660Y-61428360D01*
X72154100Y-61466460D01*
X72123620Y-61512180D01*
X72118540Y-61524880D01*
X72110920Y-61547740D01*
X72103300Y-61570600D01*
X72100760Y-61585840D01*
X72100760Y-61588380D01*
X72100760Y-61590920D01*
X72095680Y-61583300D01*
X72093140Y-61570600D01*
X72085520Y-61535040D01*
X72062660Y-61491860D01*
X72032180Y-61451220D01*
X71996620Y-61418200D01*
X71950900Y-61392800D01*
X71950900Y-61392800D01*
X71905180Y-61377560D01*
X71854380Y-61372480D01*
X71803580Y-61375020D01*
X71757860Y-61387720D01*
X71729920Y-61400420D01*
X71686740Y-61430900D01*
X71651180Y-61469000D01*
X71623240Y-61512180D01*
X71605460Y-61560440D01*
X71602920Y-61570600D01*
X71597840Y-61611240D01*
X71600380Y-61649340D01*
X71610540Y-61695060D01*
X71630860Y-61743320D01*
X71661340Y-61786500D01*
X71699440Y-61822060D01*
X71745160Y-61847460D01*
X71795960Y-61865240D01*
X71806120Y-61867780D01*
X71816280Y-61872860D01*
X71816280Y-61872860D01*
X71801040Y-61875400D01*
X71770560Y-61883020D01*
X71740080Y-61895720D01*
X71712140Y-61913500D01*
X71684200Y-61933820D01*
X71648640Y-61971920D01*
X71620700Y-62017640D01*
X71618160Y-62025260D01*
X71602920Y-62073520D01*
X71597840Y-62124320D01*
X71605460Y-62177660D01*
X71620700Y-62225920D01*
X71633400Y-62248780D01*
X71648640Y-62271640D01*
X71668960Y-62294500D01*
X71671500Y-62297040D01*
X71712140Y-62330060D01*
X71755320Y-62352920D01*
X71806120Y-62368160D01*
X71811200Y-62368160D01*
X71862000Y-62370700D01*
X71862000Y-62370700D01*
G37*
X71862000Y-62370700D02*
X71910260Y-62363080D01*
X71958520Y-62345300D01*
X71999160Y-62319900D01*
X72037260Y-62286880D01*
X72065200Y-62246240D01*
X72088060Y-62197980D01*
X72090600Y-62182740D01*
X72095680Y-62167500D01*
X72095680Y-62164960D01*
X72098220Y-62154800D01*
X72098220Y-62154800D01*
X72098220Y-62086220D01*
X72095680Y-62078600D01*
X72090600Y-62060820D01*
X72082980Y-62032880D01*
X72060120Y-61987160D01*
X72029640Y-61949060D01*
X71991540Y-61916040D01*
X71948360Y-61890640D01*
X71900100Y-61875400D01*
X71874700Y-61870320D01*
X71892480Y-61867780D01*
X71895020Y-61867780D01*
X71935660Y-61855080D01*
X71973760Y-61837300D01*
X71989000Y-61827140D01*
X72014400Y-61806820D01*
X72039800Y-61783960D01*
X72057580Y-61758560D01*
X72070280Y-61735700D01*
X72085520Y-61705220D01*
X72093140Y-61674740D01*
X72095680Y-61662040D01*
X72098220Y-61654420D01*
X72100760Y-61659500D01*
X72103300Y-61674740D01*
X72113460Y-61707760D01*
X72136320Y-61753480D01*
X72169340Y-61794120D01*
X72207440Y-61827140D01*
X72253160Y-61852540D01*
X72306500Y-61867780D01*
X72321740Y-61870320D01*
X72298880Y-61875400D01*
X72276020Y-61883020D01*
X72227760Y-61903340D01*
X72184580Y-61933820D01*
X72149020Y-61971920D01*
X72138860Y-61987160D01*
X72126160Y-62010020D01*
X72113460Y-62035420D01*
X72108380Y-62053200D01*
X72103300Y-62073520D01*
X72103300Y-62073520D01*
X72100760Y-62083680D01*
X72098220Y-62086220D01*
X72098220Y-62154800D01*
X72100760Y-62157340D01*
X72103300Y-62170040D01*
X72108380Y-62187820D01*
X72121080Y-62225920D01*
X72141400Y-62261480D01*
X72156640Y-62279260D01*
X72192200Y-62317360D01*
X72237920Y-62345300D01*
X72288720Y-62363080D01*
X72309040Y-62368160D01*
X72344600Y-62370700D01*
X72380160Y-62368160D01*
X72410640Y-62363080D01*
X72413180Y-62363080D01*
X72463980Y-62342760D01*
X72507160Y-62314820D01*
X72545260Y-62276720D01*
X72573200Y-62233540D01*
X72590980Y-62182740D01*
X72596060Y-62159880D01*
X72598600Y-62124320D01*
X72596060Y-62091300D01*
X72590980Y-62060820D01*
X72583360Y-62032880D01*
X72565580Y-61997320D01*
X72545260Y-61966840D01*
X72522400Y-61941440D01*
X72491920Y-61916040D01*
X72458900Y-61895720D01*
X72448740Y-61890640D01*
X72423340Y-61883020D01*
X72400480Y-61875400D01*
X72382700Y-61872860D01*
X72380160Y-61872860D01*
X72387780Y-61870320D01*
X72400480Y-61865240D01*
X72430960Y-61857620D01*
X72463980Y-61842380D01*
X72489380Y-61827140D01*
X72497000Y-61824600D01*
X72527480Y-61794120D01*
X72557960Y-61758560D01*
X72578280Y-61723000D01*
X72585900Y-61702680D01*
X72596060Y-61654420D01*
X72598600Y-61601080D01*
X72588440Y-61552820D01*
X72585900Y-61540120D01*
X72565580Y-61494400D01*
X72535100Y-61453760D01*
X72497000Y-61418200D01*
X72451280Y-61392800D01*
X72403020Y-61375020D01*
X72395400Y-61375020D01*
X72359840Y-61372480D01*
X72324280Y-61372480D01*
X72291260Y-61377560D01*
X72283640Y-61380100D01*
X72232840Y-61397880D01*
X72189660Y-61428360D01*
X72154100Y-61466460D01*
X72123620Y-61512180D01*
X72118540Y-61524880D01*
X72110920Y-61547740D01*
X72103300Y-61570600D01*
X72100760Y-61585840D01*
X72100760Y-61588380D01*
X72100760Y-61590920D01*
X72095680Y-61583300D01*
X72093140Y-61570600D01*
X72085520Y-61535040D01*
X72062660Y-61491860D01*
X72032180Y-61451220D01*
X71996620Y-61418200D01*
X71950900Y-61392800D01*
X71950900Y-61392800D01*
X71905180Y-61377560D01*
X71854380Y-61372480D01*
X71803580Y-61375020D01*
X71757860Y-61387720D01*
X71729920Y-61400420D01*
X71686740Y-61430900D01*
X71651180Y-61469000D01*
X71623240Y-61512180D01*
X71605460Y-61560440D01*
X71602920Y-61570600D01*
X71597840Y-61611240D01*
X71600380Y-61649340D01*
X71610540Y-61695060D01*
X71630860Y-61743320D01*
X71661340Y-61786500D01*
X71699440Y-61822060D01*
X71745160Y-61847460D01*
X71795960Y-61865240D01*
X71806120Y-61867780D01*
X71816280Y-61872860D01*
X71816280Y-61872860D01*
X71801040Y-61875400D01*
X71770560Y-61883020D01*
X71740080Y-61895720D01*
X71712140Y-61913500D01*
X71684200Y-61933820D01*
X71648640Y-61971920D01*
X71620700Y-62017640D01*
X71618160Y-62025260D01*
X71602920Y-62073520D01*
X71597840Y-62124320D01*
X71605460Y-62177660D01*
X71620700Y-62225920D01*
X71633400Y-62248780D01*
X71648640Y-62271640D01*
X71668960Y-62294500D01*
X71671500Y-62297040D01*
X71712140Y-62330060D01*
X71755320Y-62352920D01*
X71806120Y-62368160D01*
X71811200Y-62368160D01*
X71862000Y-62370700D01*
D14*
X48180000Y-66180000D02*
X50720000Y-66180000D01*
X48180000Y-68720000D02*
X50720000Y-68720000D01*
X50720000Y-68720000D02*
X50720000Y-66180000D01*
X48180000Y-66180000D02*
X48180000Y-68720000D01*
X46180000Y-61680000D02*
X48720000Y-61680000D01*
X46180000Y-64220000D02*
X48720000Y-64220000D01*
X48720000Y-64220000D02*
X48720000Y-61680000D01*
X46180000Y-61680000D02*
X46180000Y-64220000D01*
D13*
G36*
X79554380Y-57797520D02*
X79605180Y-57792440D01*
X79650900Y-57777200D01*
X79671220Y-57767040D01*
X79714400Y-57736560D01*
X79747420Y-57701000D01*
X79772820Y-57657820D01*
X79790600Y-57612100D01*
X79798220Y-57563840D01*
X79795680Y-57513040D01*
X79785520Y-57464780D01*
X79762660Y-57419060D01*
X79747420Y-57398740D01*
X79727100Y-57375880D01*
X79704240Y-57353020D01*
X79683920Y-57337780D01*
X79676300Y-57332700D01*
X79633120Y-57312380D01*
X79587400Y-57302220D01*
X79539140Y-57299680D01*
X79521360Y-57302220D01*
X79493420Y-57304760D01*
X79470560Y-57312380D01*
X79442620Y-57322540D01*
X79414680Y-57337780D01*
X79374040Y-57370800D01*
X79341020Y-57411440D01*
X79315620Y-57457160D01*
X79308000Y-57477480D01*
X79302920Y-57502880D01*
X79300380Y-57520660D01*
X79300380Y-57523200D01*
X79297840Y-57525740D01*
X79297840Y-57515580D01*
X79297840Y-57513040D01*
X79290220Y-57480020D01*
X79277520Y-57447000D01*
X79262280Y-57419060D01*
X79234340Y-57380960D01*
X79196240Y-57347940D01*
X79153060Y-57320000D01*
X79102260Y-57304760D01*
X79051460Y-57299680D01*
X79036220Y-57299680D01*
X78998120Y-57304760D01*
X78960020Y-57314920D01*
X78952400Y-57317460D01*
X78909220Y-57340320D01*
X78871120Y-57373340D01*
X78840640Y-57411440D01*
X78817780Y-57452080D01*
X78805080Y-57497800D01*
X78802540Y-57497800D01*
X78800000Y-57510500D01*
X78800000Y-57515580D01*
X78800000Y-57515580D01*
X78800000Y-57510500D01*
X78794920Y-57497800D01*
X78794920Y-57492720D01*
X78779680Y-57449540D01*
X78756820Y-57406360D01*
X78723800Y-57368260D01*
X78693320Y-57342860D01*
X78650140Y-57320000D01*
X78601880Y-57304760D01*
X78548540Y-57299680D01*
X78512980Y-57302220D01*
X78462180Y-57314920D01*
X78416460Y-57337780D01*
X78375820Y-57368260D01*
X78345340Y-57408900D01*
X78340260Y-57413980D01*
X78330100Y-57434300D01*
X78322480Y-57449540D01*
X78317400Y-57459700D01*
X78309780Y-57482560D01*
X78304700Y-57505420D01*
X78302160Y-57520660D01*
X78302160Y-57523200D01*
X78302160Y-57523200D01*
X78299620Y-57513040D01*
X78294540Y-57485100D01*
X78281840Y-57452080D01*
X78266600Y-57421600D01*
X78236120Y-57380960D01*
X78198020Y-57347940D01*
X78154840Y-57320000D01*
X78104040Y-57304760D01*
X78053240Y-57299680D01*
X78004980Y-57302220D01*
X77956720Y-57317460D01*
X77913540Y-57340320D01*
X77872900Y-57375880D01*
X77852580Y-57396200D01*
X77834800Y-57424140D01*
X77819560Y-57457160D01*
X77809400Y-57482560D01*
X77801780Y-57533360D01*
X77804320Y-57581620D01*
X77814480Y-57627340D01*
X77832260Y-57673060D01*
X77860200Y-57711160D01*
X77895760Y-57744180D01*
X77936400Y-57772120D01*
X77982120Y-57789900D01*
X78032920Y-57797520D01*
X78035460Y-57797520D01*
X78088800Y-57797520D01*
X78134520Y-57784820D01*
X78180240Y-57761960D01*
X78198020Y-57751800D01*
X78231040Y-57721320D01*
X78258980Y-57688300D01*
X78281840Y-57650200D01*
X78286920Y-57634960D01*
X78292000Y-57614640D01*
X78297080Y-57591780D01*
X78299620Y-57576540D01*
X78299620Y-57566380D01*
X78302160Y-57576540D01*
X78302160Y-57584160D01*
X78307240Y-57607020D01*
X78314860Y-57632420D01*
X78322480Y-57652740D01*
X78335180Y-57675600D01*
X78365660Y-57716240D01*
X78403760Y-57749260D01*
X78446940Y-57777200D01*
X78497740Y-57792440D01*
X78505360Y-57794980D01*
X78540920Y-57797520D01*
X78576480Y-57797520D01*
X78609500Y-57792440D01*
X78642520Y-57782280D01*
X78688240Y-57756880D01*
X78731420Y-57723860D01*
X78733960Y-57721320D01*
X78761900Y-57685760D01*
X78782220Y-57642580D01*
X78794920Y-57599400D01*
X78797460Y-57599400D01*
X78800000Y-57586700D01*
X78800000Y-57581620D01*
X78800000Y-57584160D01*
X78802540Y-57596860D01*
X78802540Y-57599400D01*
X78810160Y-57624800D01*
X78822860Y-57652740D01*
X78835560Y-57680680D01*
X78858420Y-57711160D01*
X78896520Y-57746720D01*
X78939700Y-57774660D01*
X78990500Y-57792440D01*
X78998120Y-57794980D01*
X79031140Y-57797520D01*
X79069240Y-57797520D01*
X79099720Y-57794980D01*
X79127660Y-57784820D01*
X79175920Y-57764500D01*
X79216560Y-57734020D01*
X79252120Y-57695920D01*
X79277520Y-57652740D01*
X79282600Y-57637500D01*
X79290220Y-57614640D01*
X79295300Y-57591780D01*
X79297840Y-57576540D01*
X79297840Y-57574000D01*
X79297840Y-57574000D01*
X79300380Y-57584160D01*
X79300380Y-57584160D01*
X79308000Y-57617180D01*
X79320700Y-57650200D01*
X79335940Y-57678140D01*
X79341020Y-57688300D01*
X79374040Y-57726400D01*
X79414680Y-57759420D01*
X79457860Y-57782280D01*
X79503580Y-57794980D01*
X79554380Y-57797520D01*
X79554380Y-57797520D01*
G37*
X79554380Y-57797520D02*
X79605180Y-57792440D01*
X79650900Y-57777200D01*
X79671220Y-57767040D01*
X79714400Y-57736560D01*
X79747420Y-57701000D01*
X79772820Y-57657820D01*
X79790600Y-57612100D01*
X79798220Y-57563840D01*
X79795680Y-57513040D01*
X79785520Y-57464780D01*
X79762660Y-57419060D01*
X79747420Y-57398740D01*
X79727100Y-57375880D01*
X79704240Y-57353020D01*
X79683920Y-57337780D01*
X79676300Y-57332700D01*
X79633120Y-57312380D01*
X79587400Y-57302220D01*
X79539140Y-57299680D01*
X79521360Y-57302220D01*
X79493420Y-57304760D01*
X79470560Y-57312380D01*
X79442620Y-57322540D01*
X79414680Y-57337780D01*
X79374040Y-57370800D01*
X79341020Y-57411440D01*
X79315620Y-57457160D01*
X79308000Y-57477480D01*
X79302920Y-57502880D01*
X79300380Y-57520660D01*
X79300380Y-57523200D01*
X79297840Y-57525740D01*
X79297840Y-57515580D01*
X79297840Y-57513040D01*
X79290220Y-57480020D01*
X79277520Y-57447000D01*
X79262280Y-57419060D01*
X79234340Y-57380960D01*
X79196240Y-57347940D01*
X79153060Y-57320000D01*
X79102260Y-57304760D01*
X79051460Y-57299680D01*
X79036220Y-57299680D01*
X78998120Y-57304760D01*
X78960020Y-57314920D01*
X78952400Y-57317460D01*
X78909220Y-57340320D01*
X78871120Y-57373340D01*
X78840640Y-57411440D01*
X78817780Y-57452080D01*
X78805080Y-57497800D01*
X78802540Y-57497800D01*
X78800000Y-57510500D01*
X78800000Y-57515580D01*
X78800000Y-57515580D01*
X78800000Y-57510500D01*
X78794920Y-57497800D01*
X78794920Y-57492720D01*
X78779680Y-57449540D01*
X78756820Y-57406360D01*
X78723800Y-57368260D01*
X78693320Y-57342860D01*
X78650140Y-57320000D01*
X78601880Y-57304760D01*
X78548540Y-57299680D01*
X78512980Y-57302220D01*
X78462180Y-57314920D01*
X78416460Y-57337780D01*
X78375820Y-57368260D01*
X78345340Y-57408900D01*
X78340260Y-57413980D01*
X78330100Y-57434300D01*
X78322480Y-57449540D01*
X78317400Y-57459700D01*
X78309780Y-57482560D01*
X78304700Y-57505420D01*
X78302160Y-57520660D01*
X78302160Y-57523200D01*
X78302160Y-57523200D01*
X78299620Y-57513040D01*
X78294540Y-57485100D01*
X78281840Y-57452080D01*
X78266600Y-57421600D01*
X78236120Y-57380960D01*
X78198020Y-57347940D01*
X78154840Y-57320000D01*
X78104040Y-57304760D01*
X78053240Y-57299680D01*
X78004980Y-57302220D01*
X77956720Y-57317460D01*
X77913540Y-57340320D01*
X77872900Y-57375880D01*
X77852580Y-57396200D01*
X77834800Y-57424140D01*
X77819560Y-57457160D01*
X77809400Y-57482560D01*
X77801780Y-57533360D01*
X77804320Y-57581620D01*
X77814480Y-57627340D01*
X77832260Y-57673060D01*
X77860200Y-57711160D01*
X77895760Y-57744180D01*
X77936400Y-57772120D01*
X77982120Y-57789900D01*
X78032920Y-57797520D01*
X78035460Y-57797520D01*
X78088800Y-57797520D01*
X78134520Y-57784820D01*
X78180240Y-57761960D01*
X78198020Y-57751800D01*
X78231040Y-57721320D01*
X78258980Y-57688300D01*
X78281840Y-57650200D01*
X78286920Y-57634960D01*
X78292000Y-57614640D01*
X78297080Y-57591780D01*
X78299620Y-57576540D01*
X78299620Y-57566380D01*
X78302160Y-57576540D01*
X78302160Y-57584160D01*
X78307240Y-57607020D01*
X78314860Y-57632420D01*
X78322480Y-57652740D01*
X78335180Y-57675600D01*
X78365660Y-57716240D01*
X78403760Y-57749260D01*
X78446940Y-57777200D01*
X78497740Y-57792440D01*
X78505360Y-57794980D01*
X78540920Y-57797520D01*
X78576480Y-57797520D01*
X78609500Y-57792440D01*
X78642520Y-57782280D01*
X78688240Y-57756880D01*
X78731420Y-57723860D01*
X78733960Y-57721320D01*
X78761900Y-57685760D01*
X78782220Y-57642580D01*
X78794920Y-57599400D01*
X78797460Y-57599400D01*
X78800000Y-57586700D01*
X78800000Y-57581620D01*
X78800000Y-57584160D01*
X78802540Y-57596860D01*
X78802540Y-57599400D01*
X78810160Y-57624800D01*
X78822860Y-57652740D01*
X78835560Y-57680680D01*
X78858420Y-57711160D01*
X78896520Y-57746720D01*
X78939700Y-57774660D01*
X78990500Y-57792440D01*
X78998120Y-57794980D01*
X79031140Y-57797520D01*
X79069240Y-57797520D01*
X79099720Y-57794980D01*
X79127660Y-57784820D01*
X79175920Y-57764500D01*
X79216560Y-57734020D01*
X79252120Y-57695920D01*
X79277520Y-57652740D01*
X79282600Y-57637500D01*
X79290220Y-57614640D01*
X79295300Y-57591780D01*
X79297840Y-57576540D01*
X79297840Y-57574000D01*
X79297840Y-57574000D01*
X79300380Y-57584160D01*
X79300380Y-57584160D01*
X79308000Y-57617180D01*
X79320700Y-57650200D01*
X79335940Y-57678140D01*
X79341020Y-57688300D01*
X79374040Y-57726400D01*
X79414680Y-57759420D01*
X79457860Y-57782280D01*
X79503580Y-57794980D01*
X79554380Y-57797520D01*
G36*
X77535080Y-57299680D02*
X77565560Y-57297140D01*
X77593500Y-57294600D01*
X77629060Y-57286980D01*
X77674780Y-57266660D01*
X77715420Y-57236180D01*
X77750980Y-57198080D01*
X77776380Y-57154900D01*
X77794160Y-57109180D01*
X77801780Y-57058380D01*
X77796700Y-57007580D01*
X77784000Y-56959320D01*
X77761140Y-56913600D01*
X77730660Y-56875500D01*
X77690020Y-56839940D01*
X77677320Y-56832320D01*
X77629060Y-56812000D01*
X77578260Y-56799300D01*
X77527460Y-56799300D01*
X77476660Y-56809460D01*
X77436020Y-56827240D01*
X77392840Y-56855180D01*
X77354740Y-56893280D01*
X77326800Y-56936460D01*
X77309020Y-56987260D01*
X77303940Y-57012660D01*
X77301400Y-57045680D01*
X77301400Y-57076160D01*
X77306480Y-57104100D01*
X77309020Y-57114260D01*
X77329340Y-57165060D01*
X77357280Y-57208240D01*
X77395380Y-57243800D01*
X77441100Y-57274280D01*
X77463960Y-57281900D01*
X77491900Y-57292060D01*
X77517300Y-57297140D01*
X77535080Y-57299680D01*
X77535080Y-57299680D01*
G37*
X77535080Y-57299680D02*
X77565560Y-57297140D01*
X77593500Y-57294600D01*
X77629060Y-57286980D01*
X77674780Y-57266660D01*
X77715420Y-57236180D01*
X77750980Y-57198080D01*
X77776380Y-57154900D01*
X77794160Y-57109180D01*
X77801780Y-57058380D01*
X77796700Y-57007580D01*
X77784000Y-56959320D01*
X77761140Y-56913600D01*
X77730660Y-56875500D01*
X77690020Y-56839940D01*
X77677320Y-56832320D01*
X77629060Y-56812000D01*
X77578260Y-56799300D01*
X77527460Y-56799300D01*
X77476660Y-56809460D01*
X77436020Y-56827240D01*
X77392840Y-56855180D01*
X77354740Y-56893280D01*
X77326800Y-56936460D01*
X77309020Y-56987260D01*
X77303940Y-57012660D01*
X77301400Y-57045680D01*
X77301400Y-57076160D01*
X77306480Y-57104100D01*
X77309020Y-57114260D01*
X77329340Y-57165060D01*
X77357280Y-57208240D01*
X77395380Y-57243800D01*
X77441100Y-57274280D01*
X77463960Y-57281900D01*
X77491900Y-57292060D01*
X77517300Y-57297140D01*
X77535080Y-57299680D01*
G36*
X80054760Y-57299680D02*
X80105560Y-57292060D01*
X80156360Y-57274280D01*
X80202080Y-57246340D01*
X80212240Y-57238720D01*
X80245260Y-57203160D01*
X80273200Y-57159980D01*
X80290980Y-57109180D01*
X80296060Y-57083780D01*
X80298600Y-57053300D01*
X80298600Y-57020280D01*
X80293520Y-56994880D01*
X80290980Y-56982180D01*
X80270660Y-56931380D01*
X80242720Y-56890740D01*
X80204620Y-56852640D01*
X80161440Y-56827240D01*
X80115720Y-56806920D01*
X80062380Y-56799300D01*
X80044600Y-56799300D01*
X79993800Y-56804380D01*
X79945540Y-56819620D01*
X79904900Y-56845020D01*
X79866800Y-56878040D01*
X79836320Y-56916140D01*
X79816000Y-56959320D01*
X79803300Y-57007580D01*
X79800760Y-57060920D01*
X79803300Y-57091400D01*
X79808380Y-57116800D01*
X79818540Y-57147280D01*
X79838860Y-57185380D01*
X79871880Y-57223480D01*
X79909980Y-57256500D01*
X79955700Y-57281900D01*
X80003960Y-57294600D01*
X80054760Y-57299680D01*
X80054760Y-57299680D01*
G37*
X80054760Y-57299680D02*
X80105560Y-57292060D01*
X80156360Y-57274280D01*
X80202080Y-57246340D01*
X80212240Y-57238720D01*
X80245260Y-57203160D01*
X80273200Y-57159980D01*
X80290980Y-57109180D01*
X80296060Y-57083780D01*
X80298600Y-57053300D01*
X80298600Y-57020280D01*
X80293520Y-56994880D01*
X80290980Y-56982180D01*
X80270660Y-56931380D01*
X80242720Y-56890740D01*
X80204620Y-56852640D01*
X80161440Y-56827240D01*
X80115720Y-56806920D01*
X80062380Y-56799300D01*
X80044600Y-56799300D01*
X79993800Y-56804380D01*
X79945540Y-56819620D01*
X79904900Y-56845020D01*
X79866800Y-56878040D01*
X79836320Y-56916140D01*
X79816000Y-56959320D01*
X79803300Y-57007580D01*
X79800760Y-57060920D01*
X79803300Y-57091400D01*
X79808380Y-57116800D01*
X79818540Y-57147280D01*
X79838860Y-57185380D01*
X79871880Y-57223480D01*
X79909980Y-57256500D01*
X79955700Y-57281900D01*
X80003960Y-57294600D01*
X80054760Y-57299680D01*
G36*
X77037240Y-56796760D02*
X77072800Y-56796760D01*
X77103280Y-56794220D01*
X77138840Y-56784060D01*
X77184560Y-56758660D01*
X77227740Y-56725640D01*
X77253140Y-56695160D01*
X77278540Y-56651980D01*
X77296320Y-56601180D01*
X77298860Y-56583400D01*
X77301400Y-56552920D01*
X77298860Y-56522440D01*
X77296320Y-56497040D01*
X77291240Y-56481800D01*
X77273460Y-56433540D01*
X77242980Y-56390360D01*
X77207420Y-56352260D01*
X77161700Y-56324320D01*
X77143920Y-56316700D01*
X77113440Y-56306540D01*
X77080420Y-56301460D01*
X77042320Y-56301460D01*
X77019460Y-56301460D01*
X76991520Y-56306540D01*
X76966120Y-56311620D01*
X76940720Y-56324320D01*
X76922940Y-56334480D01*
X76882300Y-56364960D01*
X76846740Y-56403060D01*
X76821340Y-56448780D01*
X76806100Y-56499580D01*
X76803560Y-56512280D01*
X76801020Y-56540220D01*
X76801020Y-56570700D01*
X76806100Y-56598640D01*
X76808640Y-56616420D01*
X76828960Y-56664680D01*
X76856900Y-56707860D01*
X76895000Y-56743420D01*
X76938180Y-56771360D01*
X76988980Y-56791680D01*
X77004220Y-56794220D01*
X77037240Y-56796760D01*
X77037240Y-56796760D01*
G37*
X77037240Y-56796760D02*
X77072800Y-56796760D01*
X77103280Y-56794220D01*
X77138840Y-56784060D01*
X77184560Y-56758660D01*
X77227740Y-56725640D01*
X77253140Y-56695160D01*
X77278540Y-56651980D01*
X77296320Y-56601180D01*
X77298860Y-56583400D01*
X77301400Y-56552920D01*
X77298860Y-56522440D01*
X77296320Y-56497040D01*
X77291240Y-56481800D01*
X77273460Y-56433540D01*
X77242980Y-56390360D01*
X77207420Y-56352260D01*
X77161700Y-56324320D01*
X77143920Y-56316700D01*
X77113440Y-56306540D01*
X77080420Y-56301460D01*
X77042320Y-56301460D01*
X77019460Y-56301460D01*
X76991520Y-56306540D01*
X76966120Y-56311620D01*
X76940720Y-56324320D01*
X76922940Y-56334480D01*
X76882300Y-56364960D01*
X76846740Y-56403060D01*
X76821340Y-56448780D01*
X76806100Y-56499580D01*
X76803560Y-56512280D01*
X76801020Y-56540220D01*
X76801020Y-56570700D01*
X76806100Y-56598640D01*
X76808640Y-56616420D01*
X76828960Y-56664680D01*
X76856900Y-56707860D01*
X76895000Y-56743420D01*
X76938180Y-56771360D01*
X76988980Y-56791680D01*
X77004220Y-56794220D01*
X77037240Y-56796760D01*
G36*
X79043840Y-56799300D02*
X79092100Y-56794220D01*
X79140360Y-56781520D01*
X79168300Y-56768820D01*
X79211480Y-56738340D01*
X79247040Y-56702780D01*
X79272440Y-56657060D01*
X79290220Y-56608800D01*
X79292760Y-56598640D01*
X79300380Y-56558000D01*
X79297840Y-56519900D01*
X79287680Y-56476720D01*
X79267360Y-56428460D01*
X79239420Y-56385280D01*
X79201320Y-56349720D01*
X79155600Y-56324320D01*
X79104800Y-56304000D01*
X79074320Y-56296380D01*
X79089560Y-56296380D01*
X79094640Y-56293840D01*
X79130200Y-56286220D01*
X79168300Y-56268440D01*
X79201320Y-56245580D01*
X79208940Y-56240500D01*
X79244500Y-56204940D01*
X79272440Y-56161760D01*
X79290220Y-56116040D01*
X79297840Y-56067780D01*
X79297840Y-56019520D01*
X79285140Y-55971260D01*
X79264820Y-55923000D01*
X79262280Y-55923000D01*
X79231800Y-55879820D01*
X79193700Y-55846800D01*
X79153060Y-55823940D01*
X79107340Y-55808700D01*
X79059080Y-55801080D01*
X79010820Y-55803620D01*
X78962560Y-55816320D01*
X78916840Y-55839180D01*
X78876200Y-55869660D01*
X78855880Y-55892520D01*
X78830480Y-55930620D01*
X78812700Y-55968720D01*
X78802540Y-56006820D01*
X78800000Y-56014440D01*
X78800000Y-56019520D01*
X78800000Y-56016980D01*
X78797460Y-56006820D01*
X78789840Y-55971260D01*
X78774600Y-55935700D01*
X78751740Y-55902680D01*
X78739040Y-55887440D01*
X78703480Y-55851880D01*
X78657760Y-55826480D01*
X78612040Y-55808700D01*
X78561240Y-55801080D01*
X78510440Y-55803620D01*
X78477420Y-55811240D01*
X78429160Y-55831560D01*
X78388520Y-55862040D01*
X78352960Y-55897600D01*
X78325020Y-55940780D01*
X78307240Y-55991580D01*
X78304700Y-56016980D01*
X78302160Y-56065240D01*
X78309780Y-56116040D01*
X78327560Y-56161760D01*
X78355500Y-56204940D01*
X78393600Y-56240500D01*
X78436780Y-56270980D01*
X78457100Y-56278600D01*
X78479960Y-56288760D01*
X78500280Y-56293840D01*
X78518060Y-56296380D01*
X78520600Y-56296380D01*
X78518060Y-56298920D01*
X78507900Y-56301460D01*
X78482500Y-56309080D01*
X78449480Y-56319240D01*
X78421540Y-56334480D01*
X78406300Y-56344640D01*
X78373280Y-56375120D01*
X78342800Y-56410680D01*
X78322480Y-56448780D01*
X78307240Y-56489420D01*
X78302160Y-56535140D01*
X78302160Y-56578320D01*
X78304700Y-56585940D01*
X78317400Y-56639280D01*
X78340260Y-56685000D01*
X78375820Y-56725640D01*
X78403760Y-56751040D01*
X78446940Y-56776440D01*
X78497740Y-56794220D01*
X78515520Y-56796760D01*
X78543460Y-56796760D01*
X78571400Y-56796760D01*
X78599340Y-56794220D01*
X78619660Y-56789140D01*
X78634900Y-56784060D01*
X78683160Y-56761200D01*
X78726340Y-56728180D01*
X78759360Y-56687540D01*
X78772060Y-56667220D01*
X78787300Y-56634200D01*
X78794920Y-56601180D01*
X78797460Y-56598640D01*
X78800000Y-56585940D01*
X78800000Y-56580860D01*
X78800000Y-56580860D01*
X78800000Y-56514820D01*
X78800000Y-56514820D01*
X78800000Y-56509740D01*
X78794920Y-56497040D01*
X78794920Y-56494500D01*
X78779680Y-56448780D01*
X78756820Y-56408140D01*
X78723800Y-56370040D01*
X78685700Y-56339560D01*
X78645060Y-56316700D01*
X78642520Y-56316700D01*
X78619660Y-56309080D01*
X78599340Y-56304000D01*
X78576480Y-56298920D01*
X78596800Y-56293840D01*
X78627280Y-56286220D01*
X78673000Y-56268440D01*
X78713640Y-56237960D01*
X78746660Y-56202400D01*
X78774600Y-56161760D01*
X78784760Y-56141440D01*
X78792380Y-56116040D01*
X78797460Y-56093180D01*
X78800000Y-56085560D01*
X78800000Y-56080480D01*
X78800000Y-56083020D01*
X78802540Y-56093180D01*
X78807620Y-56113500D01*
X78815240Y-56138900D01*
X78825400Y-56161760D01*
X78840640Y-56189700D01*
X78873660Y-56227800D01*
X78911760Y-56258280D01*
X78957480Y-56281140D01*
X79003200Y-56293840D01*
X79026060Y-56298920D01*
X79003200Y-56304000D01*
X78998120Y-56304000D01*
X78977800Y-56309080D01*
X78954940Y-56316700D01*
X78952400Y-56319240D01*
X78909220Y-56342100D01*
X78871120Y-56372580D01*
X78840640Y-56410680D01*
X78817780Y-56451320D01*
X78805080Y-56497040D01*
X78802540Y-56499580D01*
X78800000Y-56509740D01*
X78800000Y-56514820D01*
X78800000Y-56580860D01*
X78800000Y-56580860D01*
X78800000Y-56588480D01*
X78805080Y-56601180D01*
X78812700Y-56634200D01*
X78833020Y-56677380D01*
X78863500Y-56718020D01*
X78901600Y-56751040D01*
X78944780Y-56776440D01*
X78944780Y-56776440D01*
X78993040Y-56791680D01*
X79043840Y-56799300D01*
X79043840Y-56799300D01*
G37*
X79043840Y-56799300D02*
X79092100Y-56794220D01*
X79140360Y-56781520D01*
X79168300Y-56768820D01*
X79211480Y-56738340D01*
X79247040Y-56702780D01*
X79272440Y-56657060D01*
X79290220Y-56608800D01*
X79292760Y-56598640D01*
X79300380Y-56558000D01*
X79297840Y-56519900D01*
X79287680Y-56476720D01*
X79267360Y-56428460D01*
X79239420Y-56385280D01*
X79201320Y-56349720D01*
X79155600Y-56324320D01*
X79104800Y-56304000D01*
X79074320Y-56296380D01*
X79089560Y-56296380D01*
X79094640Y-56293840D01*
X79130200Y-56286220D01*
X79168300Y-56268440D01*
X79201320Y-56245580D01*
X79208940Y-56240500D01*
X79244500Y-56204940D01*
X79272440Y-56161760D01*
X79290220Y-56116040D01*
X79297840Y-56067780D01*
X79297840Y-56019520D01*
X79285140Y-55971260D01*
X79264820Y-55923000D01*
X79262280Y-55923000D01*
X79231800Y-55879820D01*
X79193700Y-55846800D01*
X79153060Y-55823940D01*
X79107340Y-55808700D01*
X79059080Y-55801080D01*
X79010820Y-55803620D01*
X78962560Y-55816320D01*
X78916840Y-55839180D01*
X78876200Y-55869660D01*
X78855880Y-55892520D01*
X78830480Y-55930620D01*
X78812700Y-55968720D01*
X78802540Y-56006820D01*
X78800000Y-56014440D01*
X78800000Y-56019520D01*
X78800000Y-56016980D01*
X78797460Y-56006820D01*
X78789840Y-55971260D01*
X78774600Y-55935700D01*
X78751740Y-55902680D01*
X78739040Y-55887440D01*
X78703480Y-55851880D01*
X78657760Y-55826480D01*
X78612040Y-55808700D01*
X78561240Y-55801080D01*
X78510440Y-55803620D01*
X78477420Y-55811240D01*
X78429160Y-55831560D01*
X78388520Y-55862040D01*
X78352960Y-55897600D01*
X78325020Y-55940780D01*
X78307240Y-55991580D01*
X78304700Y-56016980D01*
X78302160Y-56065240D01*
X78309780Y-56116040D01*
X78327560Y-56161760D01*
X78355500Y-56204940D01*
X78393600Y-56240500D01*
X78436780Y-56270980D01*
X78457100Y-56278600D01*
X78479960Y-56288760D01*
X78500280Y-56293840D01*
X78518060Y-56296380D01*
X78520600Y-56296380D01*
X78518060Y-56298920D01*
X78507900Y-56301460D01*
X78482500Y-56309080D01*
X78449480Y-56319240D01*
X78421540Y-56334480D01*
X78406300Y-56344640D01*
X78373280Y-56375120D01*
X78342800Y-56410680D01*
X78322480Y-56448780D01*
X78307240Y-56489420D01*
X78302160Y-56535140D01*
X78302160Y-56578320D01*
X78304700Y-56585940D01*
X78317400Y-56639280D01*
X78340260Y-56685000D01*
X78375820Y-56725640D01*
X78403760Y-56751040D01*
X78446940Y-56776440D01*
X78497740Y-56794220D01*
X78515520Y-56796760D01*
X78543460Y-56796760D01*
X78571400Y-56796760D01*
X78599340Y-56794220D01*
X78619660Y-56789140D01*
X78634900Y-56784060D01*
X78683160Y-56761200D01*
X78726340Y-56728180D01*
X78759360Y-56687540D01*
X78772060Y-56667220D01*
X78787300Y-56634200D01*
X78794920Y-56601180D01*
X78797460Y-56598640D01*
X78800000Y-56585940D01*
X78800000Y-56580860D01*
X78800000Y-56580860D01*
X78800000Y-56514820D01*
X78800000Y-56514820D01*
X78800000Y-56509740D01*
X78794920Y-56497040D01*
X78794920Y-56494500D01*
X78779680Y-56448780D01*
X78756820Y-56408140D01*
X78723800Y-56370040D01*
X78685700Y-56339560D01*
X78645060Y-56316700D01*
X78642520Y-56316700D01*
X78619660Y-56309080D01*
X78599340Y-56304000D01*
X78576480Y-56298920D01*
X78596800Y-56293840D01*
X78627280Y-56286220D01*
X78673000Y-56268440D01*
X78713640Y-56237960D01*
X78746660Y-56202400D01*
X78774600Y-56161760D01*
X78784760Y-56141440D01*
X78792380Y-56116040D01*
X78797460Y-56093180D01*
X78800000Y-56085560D01*
X78800000Y-56080480D01*
X78800000Y-56083020D01*
X78802540Y-56093180D01*
X78807620Y-56113500D01*
X78815240Y-56138900D01*
X78825400Y-56161760D01*
X78840640Y-56189700D01*
X78873660Y-56227800D01*
X78911760Y-56258280D01*
X78957480Y-56281140D01*
X79003200Y-56293840D01*
X79026060Y-56298920D01*
X79003200Y-56304000D01*
X78998120Y-56304000D01*
X78977800Y-56309080D01*
X78954940Y-56316700D01*
X78952400Y-56319240D01*
X78909220Y-56342100D01*
X78871120Y-56372580D01*
X78840640Y-56410680D01*
X78817780Y-56451320D01*
X78805080Y-56497040D01*
X78802540Y-56499580D01*
X78800000Y-56509740D01*
X78800000Y-56514820D01*
X78800000Y-56580860D01*
X78800000Y-56580860D01*
X78800000Y-56588480D01*
X78805080Y-56601180D01*
X78812700Y-56634200D01*
X78833020Y-56677380D01*
X78863500Y-56718020D01*
X78901600Y-56751040D01*
X78944780Y-56776440D01*
X78944780Y-56776440D01*
X78993040Y-56791680D01*
X79043840Y-56799300D01*
G36*
X80529740Y-56796760D02*
X80570380Y-56796760D01*
X80608480Y-56791680D01*
X80631340Y-56784060D01*
X80679600Y-56763740D01*
X80720240Y-56730720D01*
X80753260Y-56695160D01*
X80778660Y-56649440D01*
X80793900Y-56601180D01*
X80798980Y-56547840D01*
X80798980Y-56527520D01*
X80788820Y-56476720D01*
X80768500Y-56428460D01*
X80738020Y-56382740D01*
X80727860Y-56375120D01*
X80692300Y-56344640D01*
X80651660Y-56321780D01*
X80608480Y-56306540D01*
X80605940Y-56304000D01*
X80567840Y-56298920D01*
X80527200Y-56298920D01*
X80491640Y-56304000D01*
X80476400Y-56309080D01*
X80430680Y-56329400D01*
X80387500Y-56357340D01*
X80354480Y-56392900D01*
X80326540Y-56433540D01*
X80308760Y-56479260D01*
X80298600Y-56527520D01*
X80301140Y-56578320D01*
X80311300Y-56629120D01*
X80329080Y-56667220D01*
X80357020Y-56707860D01*
X80395120Y-56745960D01*
X80438300Y-56771360D01*
X80486560Y-56791680D01*
X80491640Y-56791680D01*
X80529740Y-56796760D01*
X80529740Y-56796760D01*
G37*
X80529740Y-56796760D02*
X80570380Y-56796760D01*
X80608480Y-56791680D01*
X80631340Y-56784060D01*
X80679600Y-56763740D01*
X80720240Y-56730720D01*
X80753260Y-56695160D01*
X80778660Y-56649440D01*
X80793900Y-56601180D01*
X80798980Y-56547840D01*
X80798980Y-56527520D01*
X80788820Y-56476720D01*
X80768500Y-56428460D01*
X80738020Y-56382740D01*
X80727860Y-56375120D01*
X80692300Y-56344640D01*
X80651660Y-56321780D01*
X80608480Y-56306540D01*
X80605940Y-56304000D01*
X80567840Y-56298920D01*
X80527200Y-56298920D01*
X80491640Y-56304000D01*
X80476400Y-56309080D01*
X80430680Y-56329400D01*
X80387500Y-56357340D01*
X80354480Y-56392900D01*
X80326540Y-56433540D01*
X80308760Y-56479260D01*
X80298600Y-56527520D01*
X80301140Y-56578320D01*
X80311300Y-56629120D01*
X80329080Y-56667220D01*
X80357020Y-56707860D01*
X80395120Y-56745960D01*
X80438300Y-56771360D01*
X80486560Y-56791680D01*
X80491640Y-56791680D01*
X80529740Y-56796760D01*
G36*
X78058320Y-55300700D02*
X78109120Y-55295620D01*
X78157380Y-55277840D01*
X78180240Y-55265140D01*
X78200560Y-55249900D01*
X78225960Y-55229580D01*
X78251360Y-55201640D01*
X78276760Y-55158460D01*
X78294540Y-55110200D01*
X78297080Y-55097500D01*
X78299620Y-55064480D01*
X78299620Y-55028920D01*
X78297080Y-54998440D01*
X78281840Y-54957800D01*
X78258980Y-54912080D01*
X78228500Y-54876520D01*
X78223420Y-54868900D01*
X78200560Y-54851120D01*
X78175160Y-54833340D01*
X78149760Y-54820640D01*
X78139600Y-54818100D01*
X78119280Y-54810480D01*
X78098960Y-54805400D01*
X78083720Y-54802860D01*
X78076100Y-54802860D01*
X78086260Y-54800320D01*
X78096420Y-54797780D01*
X78114200Y-54792700D01*
X78131980Y-54787620D01*
X78170080Y-54769840D01*
X78205640Y-54746980D01*
X78236120Y-54721580D01*
X78241200Y-54713960D01*
X78269140Y-54670780D01*
X78289460Y-54625060D01*
X78299620Y-54574260D01*
X78299620Y-54523460D01*
X78299620Y-54513300D01*
X78284380Y-54462500D01*
X78261520Y-54416780D01*
X78225960Y-54373600D01*
X78195480Y-54348200D01*
X78152300Y-54322800D01*
X78104040Y-54305020D01*
X78093880Y-54305020D01*
X78060860Y-54302480D01*
X78025300Y-54302480D01*
X77994820Y-54307560D01*
X77964340Y-54315180D01*
X77918620Y-54338040D01*
X77880520Y-54368520D01*
X77847500Y-54406620D01*
X77822100Y-54449800D01*
X77806860Y-54498060D01*
X77804320Y-54503140D01*
X77801780Y-54515840D01*
X77799240Y-54520920D01*
X77799240Y-54515840D01*
X77796700Y-54505680D01*
X77791620Y-54485360D01*
X77784000Y-54462500D01*
X77776380Y-54442180D01*
X77768760Y-54426940D01*
X77738280Y-54383760D01*
X77700180Y-54348200D01*
X77654460Y-54322800D01*
X77606200Y-54307560D01*
X77552860Y-54302480D01*
X77512220Y-54305020D01*
X77463960Y-54315180D01*
X77420780Y-54338040D01*
X77395380Y-54355820D01*
X77357280Y-54391380D01*
X77329340Y-54434560D01*
X77311560Y-54480280D01*
X77301400Y-54528540D01*
X77301400Y-54579340D01*
X77314100Y-54627600D01*
X77334420Y-54675860D01*
X77364900Y-54716500D01*
X77403000Y-54752060D01*
X77446180Y-54777460D01*
X77496980Y-54795240D01*
X77527460Y-54802860D01*
X77509680Y-54805400D01*
X77499520Y-54805400D01*
X77458880Y-54818100D01*
X77420780Y-54838420D01*
X77382680Y-54866360D01*
X77354740Y-54896840D01*
X77336960Y-54922240D01*
X77319180Y-54957800D01*
X77309020Y-54990820D01*
X77303940Y-55016220D01*
X77301400Y-55046700D01*
X77301400Y-55079720D01*
X77306480Y-55105120D01*
X77314100Y-55135600D01*
X77339500Y-55183860D01*
X77369980Y-55224500D01*
X77410620Y-55257520D01*
X77456340Y-55282920D01*
X77509680Y-55298160D01*
X77522380Y-55300700D01*
X77552860Y-55300700D01*
X77585880Y-55298160D01*
X77613820Y-55293080D01*
X77634140Y-55288000D01*
X77679860Y-55265140D01*
X77723040Y-55234660D01*
X77756060Y-55196560D01*
X77781460Y-55150840D01*
X77796700Y-55100040D01*
X77796700Y-55097500D01*
X77799240Y-55084800D01*
X77801780Y-55087340D01*
X77801780Y-55018760D01*
X77799240Y-55016220D01*
X77796700Y-55006060D01*
X77796700Y-55003520D01*
X77789080Y-54970500D01*
X77771300Y-54934940D01*
X77750980Y-54901920D01*
X77735740Y-54884140D01*
X77697640Y-54848580D01*
X77651920Y-54823180D01*
X77601120Y-54805400D01*
X77578260Y-54800320D01*
X77593500Y-54797780D01*
X77608740Y-54795240D01*
X77626520Y-54790160D01*
X77636680Y-54787620D01*
X77682400Y-54764760D01*
X77720500Y-54734280D01*
X77756060Y-54696180D01*
X77778920Y-54653000D01*
X77796700Y-54604740D01*
X77799240Y-54592040D01*
X77801780Y-54584420D01*
X77804320Y-54589500D01*
X77806860Y-54604740D01*
X77806860Y-54604740D01*
X77814480Y-54632680D01*
X77827180Y-54663160D01*
X77842420Y-54688560D01*
X77855120Y-54706340D01*
X77877980Y-54729200D01*
X77903380Y-54752060D01*
X77926240Y-54767300D01*
X77928780Y-54769840D01*
X77966880Y-54785080D01*
X78007520Y-54797780D01*
X78025300Y-54800320D01*
X78004980Y-54805400D01*
X77961800Y-54818100D01*
X77916080Y-54840960D01*
X77875440Y-54871440D01*
X77844960Y-54909540D01*
X77837340Y-54922240D01*
X77824640Y-54947640D01*
X77814480Y-54973040D01*
X77806860Y-54995900D01*
X77804320Y-55011140D01*
X77804320Y-55011140D01*
X77801780Y-55018760D01*
X77801780Y-55087340D01*
X77801780Y-55087340D01*
X77804320Y-55097500D01*
X77809400Y-55112740D01*
X77811940Y-55127980D01*
X77822100Y-55153380D01*
X77847500Y-55196560D01*
X77880520Y-55234660D01*
X77918620Y-55262600D01*
X77964340Y-55285460D01*
X78010060Y-55298160D01*
X78058320Y-55300700D01*
X78058320Y-55300700D01*
G37*
X78058320Y-55300700D02*
X78109120Y-55295620D01*
X78157380Y-55277840D01*
X78180240Y-55265140D01*
X78200560Y-55249900D01*
X78225960Y-55229580D01*
X78251360Y-55201640D01*
X78276760Y-55158460D01*
X78294540Y-55110200D01*
X78297080Y-55097500D01*
X78299620Y-55064480D01*
X78299620Y-55028920D01*
X78297080Y-54998440D01*
X78281840Y-54957800D01*
X78258980Y-54912080D01*
X78228500Y-54876520D01*
X78223420Y-54868900D01*
X78200560Y-54851120D01*
X78175160Y-54833340D01*
X78149760Y-54820640D01*
X78139600Y-54818100D01*
X78119280Y-54810480D01*
X78098960Y-54805400D01*
X78083720Y-54802860D01*
X78076100Y-54802860D01*
X78086260Y-54800320D01*
X78096420Y-54797780D01*
X78114200Y-54792700D01*
X78131980Y-54787620D01*
X78170080Y-54769840D01*
X78205640Y-54746980D01*
X78236120Y-54721580D01*
X78241200Y-54713960D01*
X78269140Y-54670780D01*
X78289460Y-54625060D01*
X78299620Y-54574260D01*
X78299620Y-54523460D01*
X78299620Y-54513300D01*
X78284380Y-54462500D01*
X78261520Y-54416780D01*
X78225960Y-54373600D01*
X78195480Y-54348200D01*
X78152300Y-54322800D01*
X78104040Y-54305020D01*
X78093880Y-54305020D01*
X78060860Y-54302480D01*
X78025300Y-54302480D01*
X77994820Y-54307560D01*
X77964340Y-54315180D01*
X77918620Y-54338040D01*
X77880520Y-54368520D01*
X77847500Y-54406620D01*
X77822100Y-54449800D01*
X77806860Y-54498060D01*
X77804320Y-54503140D01*
X77801780Y-54515840D01*
X77799240Y-54520920D01*
X77799240Y-54515840D01*
X77796700Y-54505680D01*
X77791620Y-54485360D01*
X77784000Y-54462500D01*
X77776380Y-54442180D01*
X77768760Y-54426940D01*
X77738280Y-54383760D01*
X77700180Y-54348200D01*
X77654460Y-54322800D01*
X77606200Y-54307560D01*
X77552860Y-54302480D01*
X77512220Y-54305020D01*
X77463960Y-54315180D01*
X77420780Y-54338040D01*
X77395380Y-54355820D01*
X77357280Y-54391380D01*
X77329340Y-54434560D01*
X77311560Y-54480280D01*
X77301400Y-54528540D01*
X77301400Y-54579340D01*
X77314100Y-54627600D01*
X77334420Y-54675860D01*
X77364900Y-54716500D01*
X77403000Y-54752060D01*
X77446180Y-54777460D01*
X77496980Y-54795240D01*
X77527460Y-54802860D01*
X77509680Y-54805400D01*
X77499520Y-54805400D01*
X77458880Y-54818100D01*
X77420780Y-54838420D01*
X77382680Y-54866360D01*
X77354740Y-54896840D01*
X77336960Y-54922240D01*
X77319180Y-54957800D01*
X77309020Y-54990820D01*
X77303940Y-55016220D01*
X77301400Y-55046700D01*
X77301400Y-55079720D01*
X77306480Y-55105120D01*
X77314100Y-55135600D01*
X77339500Y-55183860D01*
X77369980Y-55224500D01*
X77410620Y-55257520D01*
X77456340Y-55282920D01*
X77509680Y-55298160D01*
X77522380Y-55300700D01*
X77552860Y-55300700D01*
X77585880Y-55298160D01*
X77613820Y-55293080D01*
X77634140Y-55288000D01*
X77679860Y-55265140D01*
X77723040Y-55234660D01*
X77756060Y-55196560D01*
X77781460Y-55150840D01*
X77796700Y-55100040D01*
X77796700Y-55097500D01*
X77799240Y-55084800D01*
X77801780Y-55087340D01*
X77801780Y-55018760D01*
X77799240Y-55016220D01*
X77796700Y-55006060D01*
X77796700Y-55003520D01*
X77789080Y-54970500D01*
X77771300Y-54934940D01*
X77750980Y-54901920D01*
X77735740Y-54884140D01*
X77697640Y-54848580D01*
X77651920Y-54823180D01*
X77601120Y-54805400D01*
X77578260Y-54800320D01*
X77593500Y-54797780D01*
X77608740Y-54795240D01*
X77626520Y-54790160D01*
X77636680Y-54787620D01*
X77682400Y-54764760D01*
X77720500Y-54734280D01*
X77756060Y-54696180D01*
X77778920Y-54653000D01*
X77796700Y-54604740D01*
X77799240Y-54592040D01*
X77801780Y-54584420D01*
X77804320Y-54589500D01*
X77806860Y-54604740D01*
X77806860Y-54604740D01*
X77814480Y-54632680D01*
X77827180Y-54663160D01*
X77842420Y-54688560D01*
X77855120Y-54706340D01*
X77877980Y-54729200D01*
X77903380Y-54752060D01*
X77926240Y-54767300D01*
X77928780Y-54769840D01*
X77966880Y-54785080D01*
X78007520Y-54797780D01*
X78025300Y-54800320D01*
X78004980Y-54805400D01*
X77961800Y-54818100D01*
X77916080Y-54840960D01*
X77875440Y-54871440D01*
X77844960Y-54909540D01*
X77837340Y-54922240D01*
X77824640Y-54947640D01*
X77814480Y-54973040D01*
X77806860Y-54995900D01*
X77804320Y-55011140D01*
X77804320Y-55011140D01*
X77801780Y-55018760D01*
X77801780Y-55087340D01*
X77801780Y-55087340D01*
X77804320Y-55097500D01*
X77809400Y-55112740D01*
X77811940Y-55127980D01*
X77822100Y-55153380D01*
X77847500Y-55196560D01*
X77880520Y-55234660D01*
X77918620Y-55262600D01*
X77964340Y-55285460D01*
X78010060Y-55298160D01*
X78058320Y-55300700D01*
G36*
X79562000Y-55300700D02*
X79610260Y-55293080D01*
X79658520Y-55275300D01*
X79699160Y-55249900D01*
X79737260Y-55216880D01*
X79765200Y-55176240D01*
X79788060Y-55127980D01*
X79790600Y-55112740D01*
X79795680Y-55097500D01*
X79795680Y-55094960D01*
X79798220Y-55084800D01*
X79798220Y-55084800D01*
X79798220Y-55016220D01*
X79795680Y-55008600D01*
X79790600Y-54990820D01*
X79782980Y-54962880D01*
X79760120Y-54917160D01*
X79729640Y-54879060D01*
X79691540Y-54846040D01*
X79648360Y-54820640D01*
X79600100Y-54805400D01*
X79574700Y-54800320D01*
X79592480Y-54797780D01*
X79595020Y-54797780D01*
X79635660Y-54785080D01*
X79673760Y-54767300D01*
X79689000Y-54757140D01*
X79714400Y-54736820D01*
X79739800Y-54713960D01*
X79757580Y-54688560D01*
X79770280Y-54665700D01*
X79785520Y-54635220D01*
X79793140Y-54604740D01*
X79795680Y-54592040D01*
X79798220Y-54584420D01*
X79800760Y-54589500D01*
X79803300Y-54604740D01*
X79813460Y-54637760D01*
X79836320Y-54683480D01*
X79869340Y-54724120D01*
X79907440Y-54757140D01*
X79953160Y-54782540D01*
X80006500Y-54797780D01*
X80021740Y-54800320D01*
X79998880Y-54805400D01*
X79976020Y-54813020D01*
X79927760Y-54833340D01*
X79884580Y-54863820D01*
X79849020Y-54901920D01*
X79838860Y-54917160D01*
X79826160Y-54940020D01*
X79813460Y-54965420D01*
X79808380Y-54983200D01*
X79803300Y-55003520D01*
X79803300Y-55003520D01*
X79800760Y-55013680D01*
X79798220Y-55016220D01*
X79798220Y-55084800D01*
X79800760Y-55087340D01*
X79803300Y-55100040D01*
X79808380Y-55117820D01*
X79821080Y-55155920D01*
X79841400Y-55191480D01*
X79856640Y-55209260D01*
X79892200Y-55247360D01*
X79937920Y-55275300D01*
X79988720Y-55293080D01*
X80009040Y-55298160D01*
X80044600Y-55300700D01*
X80080160Y-55298160D01*
X80110640Y-55293080D01*
X80113180Y-55293080D01*
X80163980Y-55272760D01*
X80207160Y-55244820D01*
X80245260Y-55206720D01*
X80273200Y-55163540D01*
X80290980Y-55112740D01*
X80296060Y-55089880D01*
X80298600Y-55054320D01*
X80296060Y-55021300D01*
X80290980Y-54990820D01*
X80283360Y-54962880D01*
X80265580Y-54927320D01*
X80245260Y-54896840D01*
X80222400Y-54871440D01*
X80191920Y-54846040D01*
X80158900Y-54825720D01*
X80148740Y-54820640D01*
X80123340Y-54813020D01*
X80100480Y-54805400D01*
X80082700Y-54802860D01*
X80080160Y-54802860D01*
X80087780Y-54800320D01*
X80100480Y-54795240D01*
X80130960Y-54787620D01*
X80163980Y-54772380D01*
X80189380Y-54757140D01*
X80197000Y-54754600D01*
X80227480Y-54724120D01*
X80257960Y-54688560D01*
X80278280Y-54653000D01*
X80285900Y-54632680D01*
X80296060Y-54584420D01*
X80298600Y-54531080D01*
X80288440Y-54482820D01*
X80285900Y-54470120D01*
X80265580Y-54424400D01*
X80235100Y-54383760D01*
X80197000Y-54348200D01*
X80151280Y-54322800D01*
X80103020Y-54305020D01*
X80095400Y-54305020D01*
X80059840Y-54302480D01*
X80024280Y-54302480D01*
X79991260Y-54307560D01*
X79983640Y-54310100D01*
X79932840Y-54327880D01*
X79889660Y-54358360D01*
X79854100Y-54396460D01*
X79823620Y-54442180D01*
X79818540Y-54454880D01*
X79810920Y-54477740D01*
X79803300Y-54500600D01*
X79800760Y-54515840D01*
X79800760Y-54518380D01*
X79800760Y-54520920D01*
X79795680Y-54513300D01*
X79793140Y-54500600D01*
X79785520Y-54465040D01*
X79762660Y-54421860D01*
X79732180Y-54381220D01*
X79696620Y-54348200D01*
X79650900Y-54322800D01*
X79650900Y-54322800D01*
X79605180Y-54307560D01*
X79554380Y-54302480D01*
X79503580Y-54305020D01*
X79457860Y-54317720D01*
X79429920Y-54330420D01*
X79386740Y-54360900D01*
X79351180Y-54399000D01*
X79323240Y-54442180D01*
X79305460Y-54490440D01*
X79302920Y-54500600D01*
X79297840Y-54541240D01*
X79300380Y-54579340D01*
X79310540Y-54625060D01*
X79330860Y-54673320D01*
X79361340Y-54716500D01*
X79399440Y-54752060D01*
X79445160Y-54777460D01*
X79495960Y-54795240D01*
X79506120Y-54797780D01*
X79516280Y-54802860D01*
X79516280Y-54802860D01*
X79501040Y-54805400D01*
X79470560Y-54813020D01*
X79440080Y-54825720D01*
X79412140Y-54843500D01*
X79384200Y-54863820D01*
X79348640Y-54901920D01*
X79320700Y-54947640D01*
X79318160Y-54955260D01*
X79302920Y-55003520D01*
X79297840Y-55054320D01*
X79305460Y-55107660D01*
X79320700Y-55155920D01*
X79333400Y-55178780D01*
X79348640Y-55201640D01*
X79368960Y-55224500D01*
X79371500Y-55227040D01*
X79412140Y-55260060D01*
X79455320Y-55282920D01*
X79506120Y-55298160D01*
X79511200Y-55298160D01*
X79562000Y-55300700D01*
X79562000Y-55300700D01*
G37*
X79562000Y-55300700D02*
X79610260Y-55293080D01*
X79658520Y-55275300D01*
X79699160Y-55249900D01*
X79737260Y-55216880D01*
X79765200Y-55176240D01*
X79788060Y-55127980D01*
X79790600Y-55112740D01*
X79795680Y-55097500D01*
X79795680Y-55094960D01*
X79798220Y-55084800D01*
X79798220Y-55084800D01*
X79798220Y-55016220D01*
X79795680Y-55008600D01*
X79790600Y-54990820D01*
X79782980Y-54962880D01*
X79760120Y-54917160D01*
X79729640Y-54879060D01*
X79691540Y-54846040D01*
X79648360Y-54820640D01*
X79600100Y-54805400D01*
X79574700Y-54800320D01*
X79592480Y-54797780D01*
X79595020Y-54797780D01*
X79635660Y-54785080D01*
X79673760Y-54767300D01*
X79689000Y-54757140D01*
X79714400Y-54736820D01*
X79739800Y-54713960D01*
X79757580Y-54688560D01*
X79770280Y-54665700D01*
X79785520Y-54635220D01*
X79793140Y-54604740D01*
X79795680Y-54592040D01*
X79798220Y-54584420D01*
X79800760Y-54589500D01*
X79803300Y-54604740D01*
X79813460Y-54637760D01*
X79836320Y-54683480D01*
X79869340Y-54724120D01*
X79907440Y-54757140D01*
X79953160Y-54782540D01*
X80006500Y-54797780D01*
X80021740Y-54800320D01*
X79998880Y-54805400D01*
X79976020Y-54813020D01*
X79927760Y-54833340D01*
X79884580Y-54863820D01*
X79849020Y-54901920D01*
X79838860Y-54917160D01*
X79826160Y-54940020D01*
X79813460Y-54965420D01*
X79808380Y-54983200D01*
X79803300Y-55003520D01*
X79803300Y-55003520D01*
X79800760Y-55013680D01*
X79798220Y-55016220D01*
X79798220Y-55084800D01*
X79800760Y-55087340D01*
X79803300Y-55100040D01*
X79808380Y-55117820D01*
X79821080Y-55155920D01*
X79841400Y-55191480D01*
X79856640Y-55209260D01*
X79892200Y-55247360D01*
X79937920Y-55275300D01*
X79988720Y-55293080D01*
X80009040Y-55298160D01*
X80044600Y-55300700D01*
X80080160Y-55298160D01*
X80110640Y-55293080D01*
X80113180Y-55293080D01*
X80163980Y-55272760D01*
X80207160Y-55244820D01*
X80245260Y-55206720D01*
X80273200Y-55163540D01*
X80290980Y-55112740D01*
X80296060Y-55089880D01*
X80298600Y-55054320D01*
X80296060Y-55021300D01*
X80290980Y-54990820D01*
X80283360Y-54962880D01*
X80265580Y-54927320D01*
X80245260Y-54896840D01*
X80222400Y-54871440D01*
X80191920Y-54846040D01*
X80158900Y-54825720D01*
X80148740Y-54820640D01*
X80123340Y-54813020D01*
X80100480Y-54805400D01*
X80082700Y-54802860D01*
X80080160Y-54802860D01*
X80087780Y-54800320D01*
X80100480Y-54795240D01*
X80130960Y-54787620D01*
X80163980Y-54772380D01*
X80189380Y-54757140D01*
X80197000Y-54754600D01*
X80227480Y-54724120D01*
X80257960Y-54688560D01*
X80278280Y-54653000D01*
X80285900Y-54632680D01*
X80296060Y-54584420D01*
X80298600Y-54531080D01*
X80288440Y-54482820D01*
X80285900Y-54470120D01*
X80265580Y-54424400D01*
X80235100Y-54383760D01*
X80197000Y-54348200D01*
X80151280Y-54322800D01*
X80103020Y-54305020D01*
X80095400Y-54305020D01*
X80059840Y-54302480D01*
X80024280Y-54302480D01*
X79991260Y-54307560D01*
X79983640Y-54310100D01*
X79932840Y-54327880D01*
X79889660Y-54358360D01*
X79854100Y-54396460D01*
X79823620Y-54442180D01*
X79818540Y-54454880D01*
X79810920Y-54477740D01*
X79803300Y-54500600D01*
X79800760Y-54515840D01*
X79800760Y-54518380D01*
X79800760Y-54520920D01*
X79795680Y-54513300D01*
X79793140Y-54500600D01*
X79785520Y-54465040D01*
X79762660Y-54421860D01*
X79732180Y-54381220D01*
X79696620Y-54348200D01*
X79650900Y-54322800D01*
X79650900Y-54322800D01*
X79605180Y-54307560D01*
X79554380Y-54302480D01*
X79503580Y-54305020D01*
X79457860Y-54317720D01*
X79429920Y-54330420D01*
X79386740Y-54360900D01*
X79351180Y-54399000D01*
X79323240Y-54442180D01*
X79305460Y-54490440D01*
X79302920Y-54500600D01*
X79297840Y-54541240D01*
X79300380Y-54579340D01*
X79310540Y-54625060D01*
X79330860Y-54673320D01*
X79361340Y-54716500D01*
X79399440Y-54752060D01*
X79445160Y-54777460D01*
X79495960Y-54795240D01*
X79506120Y-54797780D01*
X79516280Y-54802860D01*
X79516280Y-54802860D01*
X79501040Y-54805400D01*
X79470560Y-54813020D01*
X79440080Y-54825720D01*
X79412140Y-54843500D01*
X79384200Y-54863820D01*
X79348640Y-54901920D01*
X79320700Y-54947640D01*
X79318160Y-54955260D01*
X79302920Y-55003520D01*
X79297840Y-55054320D01*
X79305460Y-55107660D01*
X79320700Y-55155920D01*
X79333400Y-55178780D01*
X79348640Y-55201640D01*
X79368960Y-55224500D01*
X79371500Y-55227040D01*
X79412140Y-55260060D01*
X79455320Y-55282920D01*
X79506120Y-55298160D01*
X79511200Y-55298160D01*
X79562000Y-55300700D01*
G36*
X49538420Y-57845780D02*
X49558740Y-57835620D01*
X49607000Y-57805140D01*
X49673040Y-57761960D01*
X49751780Y-57708620D01*
X49830520Y-57655280D01*
X49896560Y-57612100D01*
X49942280Y-57581620D01*
X49960060Y-57571460D01*
X49970220Y-57574000D01*
X50008320Y-57594320D01*
X50064200Y-57622260D01*
X50094680Y-57637500D01*
X50145480Y-57660360D01*
X50170880Y-57665440D01*
X50173420Y-57657820D01*
X50193740Y-57619720D01*
X50221680Y-57553680D01*
X50259780Y-57467320D01*
X50302960Y-57365720D01*
X50348680Y-57256500D01*
X50394400Y-57144740D01*
X50440120Y-57038060D01*
X50478220Y-56941540D01*
X50511240Y-56865340D01*
X50531560Y-56809460D01*
X50539180Y-56786600D01*
X50536640Y-56781520D01*
X50511240Y-56758660D01*
X50468060Y-56725640D01*
X50371540Y-56646900D01*
X50280100Y-56530060D01*
X50221680Y-56397980D01*
X50203900Y-56250660D01*
X50219140Y-56116040D01*
X50272480Y-55986500D01*
X50363920Y-55867120D01*
X50475680Y-55780760D01*
X50605220Y-55724880D01*
X50750000Y-55707100D01*
X50889700Y-55722340D01*
X51021780Y-55775680D01*
X51141160Y-55864580D01*
X51189420Y-55923000D01*
X51258000Y-56042380D01*
X51298640Y-56169380D01*
X51301180Y-56199860D01*
X51296100Y-56342100D01*
X51255460Y-56476720D01*
X51181800Y-56596100D01*
X51077660Y-56695160D01*
X51064960Y-56705320D01*
X51016700Y-56740880D01*
X50986220Y-56763740D01*
X50960820Y-56784060D01*
X51138620Y-57215860D01*
X51166560Y-57284440D01*
X51217360Y-57401280D01*
X51260540Y-57502880D01*
X51293560Y-57584160D01*
X51318960Y-57637500D01*
X51329120Y-57660360D01*
X51329120Y-57660360D01*
X51344360Y-57662900D01*
X51377380Y-57650200D01*
X51438340Y-57622260D01*
X51478980Y-57601940D01*
X51524700Y-57579080D01*
X51545020Y-57571460D01*
X51562800Y-57581620D01*
X51605980Y-57609560D01*
X51669480Y-57652740D01*
X51745680Y-57703540D01*
X51819340Y-57754340D01*
X51887920Y-57800060D01*
X51936180Y-57830540D01*
X51961580Y-57843240D01*
X51964120Y-57843240D01*
X51984440Y-57830540D01*
X52025080Y-57800060D01*
X52083500Y-57744180D01*
X52164780Y-57662900D01*
X52177480Y-57650200D01*
X52246060Y-57579080D01*
X52301940Y-57520660D01*
X52340040Y-57480020D01*
X52352740Y-57462240D01*
X52352740Y-57462240D01*
X52340040Y-57436840D01*
X52309560Y-57388580D01*
X52263840Y-57320000D01*
X52210500Y-57241260D01*
X52068260Y-57032980D01*
X52147000Y-56837400D01*
X52169860Y-56778980D01*
X52200340Y-56705320D01*
X52223200Y-56654520D01*
X52235900Y-56631660D01*
X52256220Y-56624040D01*
X52309560Y-56611340D01*
X52388300Y-56593560D01*
X52479740Y-56578320D01*
X52568640Y-56560540D01*
X52647380Y-56545300D01*
X52705800Y-56535140D01*
X52731200Y-56530060D01*
X52736280Y-56524980D01*
X52741360Y-56512280D01*
X52746440Y-56486880D01*
X52746440Y-56438620D01*
X52748980Y-56362420D01*
X52748980Y-56250660D01*
X52748980Y-56240500D01*
X52746440Y-56133820D01*
X52746440Y-56050000D01*
X52743900Y-55996660D01*
X52738820Y-55976340D01*
X52738820Y-55976340D01*
X52713420Y-55968720D01*
X52657540Y-55958560D01*
X52578800Y-55940780D01*
X52482280Y-55923000D01*
X52477200Y-55923000D01*
X52383220Y-55905220D01*
X52304480Y-55887440D01*
X52248600Y-55874740D01*
X52225740Y-55867120D01*
X52220660Y-55862040D01*
X52200340Y-55823940D01*
X52172400Y-55765520D01*
X52141920Y-55694400D01*
X52111440Y-55620740D01*
X52083500Y-55552160D01*
X52065720Y-55503900D01*
X52060640Y-55481040D01*
X52060640Y-55481040D01*
X52075880Y-55458180D01*
X52108900Y-55407380D01*
X52154620Y-55341340D01*
X52210500Y-55260060D01*
X52213040Y-55252440D01*
X52268920Y-55173700D01*
X52312100Y-55105120D01*
X52342580Y-55056860D01*
X52352740Y-55036540D01*
X52352740Y-55034000D01*
X52334960Y-55011140D01*
X52294320Y-54965420D01*
X52235900Y-54904460D01*
X52164780Y-54833340D01*
X52141920Y-54813020D01*
X52065720Y-54736820D01*
X52012380Y-54686020D01*
X51976820Y-54660620D01*
X51961580Y-54653000D01*
X51961580Y-54655540D01*
X51936180Y-54668240D01*
X51885380Y-54701260D01*
X51816800Y-54749520D01*
X51735520Y-54802860D01*
X51730440Y-54807940D01*
X51651700Y-54861280D01*
X51585660Y-54907000D01*
X51537400Y-54937480D01*
X51517080Y-54950180D01*
X51512000Y-54950180D01*
X51481520Y-54940020D01*
X51423100Y-54922240D01*
X51354520Y-54894300D01*
X51280860Y-54863820D01*
X51212280Y-54835880D01*
X51161480Y-54813020D01*
X51138620Y-54800320D01*
X51138620Y-54797780D01*
X51128460Y-54769840D01*
X51115760Y-54708880D01*
X51097980Y-54627600D01*
X51080200Y-54528540D01*
X51077660Y-54513300D01*
X51059880Y-54419320D01*
X51044640Y-54340580D01*
X51031940Y-54284700D01*
X51026860Y-54261840D01*
X51014160Y-54259300D01*
X50965900Y-54256760D01*
X50894780Y-54254220D01*
X50808420Y-54254220D01*
X50719520Y-54254220D01*
X50633160Y-54256760D01*
X50556960Y-54259300D01*
X50503620Y-54261840D01*
X50480760Y-54266920D01*
X50478220Y-54269460D01*
X50470600Y-54297400D01*
X50457900Y-54358360D01*
X50440120Y-54439640D01*
X50422340Y-54538700D01*
X50419800Y-54556480D01*
X50402020Y-54650460D01*
X50384240Y-54729200D01*
X50374080Y-54782540D01*
X50366460Y-54802860D01*
X50358840Y-54807940D01*
X50320740Y-54825720D01*
X50257240Y-54851120D01*
X50175960Y-54884140D01*
X49993080Y-54957800D01*
X49769560Y-54802860D01*
X49749240Y-54790160D01*
X49667960Y-54734280D01*
X49601920Y-54691100D01*
X49556200Y-54660620D01*
X49535880Y-54650460D01*
X49535880Y-54650460D01*
X49513020Y-54670780D01*
X49467300Y-54711420D01*
X49406340Y-54772380D01*
X49337760Y-54840960D01*
X49284420Y-54894300D01*
X49223460Y-54957800D01*
X49182820Y-54998440D01*
X49162500Y-55026380D01*
X49154880Y-55044160D01*
X49157420Y-55054320D01*
X49170120Y-55077180D01*
X49203140Y-55125440D01*
X49248860Y-55194020D01*
X49304740Y-55272760D01*
X49350460Y-55341340D01*
X49398720Y-55415000D01*
X49429200Y-55468340D01*
X49441900Y-55496280D01*
X49439360Y-55506440D01*
X49421580Y-55549620D01*
X49396180Y-55618200D01*
X49363160Y-55696940D01*
X49284420Y-55874740D01*
X49167580Y-55895060D01*
X49096460Y-55910300D01*
X48997400Y-55928080D01*
X48903420Y-55945860D01*
X48756100Y-55976340D01*
X48751020Y-56514820D01*
X48773880Y-56524980D01*
X48796740Y-56532600D01*
X48850080Y-56542760D01*
X48928820Y-56558000D01*
X49020260Y-56575780D01*
X49099000Y-56591020D01*
X49177740Y-56606260D01*
X49233620Y-56616420D01*
X49259020Y-56621500D01*
X49266640Y-56631660D01*
X49286960Y-56669760D01*
X49314900Y-56730720D01*
X49345380Y-56804380D01*
X49375860Y-56878040D01*
X49403800Y-56949160D01*
X49424120Y-57002500D01*
X49431740Y-57030440D01*
X49421580Y-57050760D01*
X49391100Y-57096480D01*
X49347920Y-57162520D01*
X49294580Y-57241260D01*
X49238700Y-57320000D01*
X49195520Y-57388580D01*
X49162500Y-57436840D01*
X49149800Y-57457160D01*
X49157420Y-57472400D01*
X49187900Y-57510500D01*
X49246320Y-57571460D01*
X49335220Y-57660360D01*
X49350460Y-57673060D01*
X49419040Y-57741640D01*
X49480000Y-57794980D01*
X49520640Y-57833080D01*
X49538420Y-57845780D01*
X49538420Y-57845780D01*
G37*
X49538420Y-57845780D02*
X49558740Y-57835620D01*
X49607000Y-57805140D01*
X49673040Y-57761960D01*
X49751780Y-57708620D01*
X49830520Y-57655280D01*
X49896560Y-57612100D01*
X49942280Y-57581620D01*
X49960060Y-57571460D01*
X49970220Y-57574000D01*
X50008320Y-57594320D01*
X50064200Y-57622260D01*
X50094680Y-57637500D01*
X50145480Y-57660360D01*
X50170880Y-57665440D01*
X50173420Y-57657820D01*
X50193740Y-57619720D01*
X50221680Y-57553680D01*
X50259780Y-57467320D01*
X50302960Y-57365720D01*
X50348680Y-57256500D01*
X50394400Y-57144740D01*
X50440120Y-57038060D01*
X50478220Y-56941540D01*
X50511240Y-56865340D01*
X50531560Y-56809460D01*
X50539180Y-56786600D01*
X50536640Y-56781520D01*
X50511240Y-56758660D01*
X50468060Y-56725640D01*
X50371540Y-56646900D01*
X50280100Y-56530060D01*
X50221680Y-56397980D01*
X50203900Y-56250660D01*
X50219140Y-56116040D01*
X50272480Y-55986500D01*
X50363920Y-55867120D01*
X50475680Y-55780760D01*
X50605220Y-55724880D01*
X50750000Y-55707100D01*
X50889700Y-55722340D01*
X51021780Y-55775680D01*
X51141160Y-55864580D01*
X51189420Y-55923000D01*
X51258000Y-56042380D01*
X51298640Y-56169380D01*
X51301180Y-56199860D01*
X51296100Y-56342100D01*
X51255460Y-56476720D01*
X51181800Y-56596100D01*
X51077660Y-56695160D01*
X51064960Y-56705320D01*
X51016700Y-56740880D01*
X50986220Y-56763740D01*
X50960820Y-56784060D01*
X51138620Y-57215860D01*
X51166560Y-57284440D01*
X51217360Y-57401280D01*
X51260540Y-57502880D01*
X51293560Y-57584160D01*
X51318960Y-57637500D01*
X51329120Y-57660360D01*
X51329120Y-57660360D01*
X51344360Y-57662900D01*
X51377380Y-57650200D01*
X51438340Y-57622260D01*
X51478980Y-57601940D01*
X51524700Y-57579080D01*
X51545020Y-57571460D01*
X51562800Y-57581620D01*
X51605980Y-57609560D01*
X51669480Y-57652740D01*
X51745680Y-57703540D01*
X51819340Y-57754340D01*
X51887920Y-57800060D01*
X51936180Y-57830540D01*
X51961580Y-57843240D01*
X51964120Y-57843240D01*
X51984440Y-57830540D01*
X52025080Y-57800060D01*
X52083500Y-57744180D01*
X52164780Y-57662900D01*
X52177480Y-57650200D01*
X52246060Y-57579080D01*
X52301940Y-57520660D01*
X52340040Y-57480020D01*
X52352740Y-57462240D01*
X52352740Y-57462240D01*
X52340040Y-57436840D01*
X52309560Y-57388580D01*
X52263840Y-57320000D01*
X52210500Y-57241260D01*
X52068260Y-57032980D01*
X52147000Y-56837400D01*
X52169860Y-56778980D01*
X52200340Y-56705320D01*
X52223200Y-56654520D01*
X52235900Y-56631660D01*
X52256220Y-56624040D01*
X52309560Y-56611340D01*
X52388300Y-56593560D01*
X52479740Y-56578320D01*
X52568640Y-56560540D01*
X52647380Y-56545300D01*
X52705800Y-56535140D01*
X52731200Y-56530060D01*
X52736280Y-56524980D01*
X52741360Y-56512280D01*
X52746440Y-56486880D01*
X52746440Y-56438620D01*
X52748980Y-56362420D01*
X52748980Y-56250660D01*
X52748980Y-56240500D01*
X52746440Y-56133820D01*
X52746440Y-56050000D01*
X52743900Y-55996660D01*
X52738820Y-55976340D01*
X52738820Y-55976340D01*
X52713420Y-55968720D01*
X52657540Y-55958560D01*
X52578800Y-55940780D01*
X52482280Y-55923000D01*
X52477200Y-55923000D01*
X52383220Y-55905220D01*
X52304480Y-55887440D01*
X52248600Y-55874740D01*
X52225740Y-55867120D01*
X52220660Y-55862040D01*
X52200340Y-55823940D01*
X52172400Y-55765520D01*
X52141920Y-55694400D01*
X52111440Y-55620740D01*
X52083500Y-55552160D01*
X52065720Y-55503900D01*
X52060640Y-55481040D01*
X52060640Y-55481040D01*
X52075880Y-55458180D01*
X52108900Y-55407380D01*
X52154620Y-55341340D01*
X52210500Y-55260060D01*
X52213040Y-55252440D01*
X52268920Y-55173700D01*
X52312100Y-55105120D01*
X52342580Y-55056860D01*
X52352740Y-55036540D01*
X52352740Y-55034000D01*
X52334960Y-55011140D01*
X52294320Y-54965420D01*
X52235900Y-54904460D01*
X52164780Y-54833340D01*
X52141920Y-54813020D01*
X52065720Y-54736820D01*
X52012380Y-54686020D01*
X51976820Y-54660620D01*
X51961580Y-54653000D01*
X51961580Y-54655540D01*
X51936180Y-54668240D01*
X51885380Y-54701260D01*
X51816800Y-54749520D01*
X51735520Y-54802860D01*
X51730440Y-54807940D01*
X51651700Y-54861280D01*
X51585660Y-54907000D01*
X51537400Y-54937480D01*
X51517080Y-54950180D01*
X51512000Y-54950180D01*
X51481520Y-54940020D01*
X51423100Y-54922240D01*
X51354520Y-54894300D01*
X51280860Y-54863820D01*
X51212280Y-54835880D01*
X51161480Y-54813020D01*
X51138620Y-54800320D01*
X51138620Y-54797780D01*
X51128460Y-54769840D01*
X51115760Y-54708880D01*
X51097980Y-54627600D01*
X51080200Y-54528540D01*
X51077660Y-54513300D01*
X51059880Y-54419320D01*
X51044640Y-54340580D01*
X51031940Y-54284700D01*
X51026860Y-54261840D01*
X51014160Y-54259300D01*
X50965900Y-54256760D01*
X50894780Y-54254220D01*
X50808420Y-54254220D01*
X50719520Y-54254220D01*
X50633160Y-54256760D01*
X50556960Y-54259300D01*
X50503620Y-54261840D01*
X50480760Y-54266920D01*
X50478220Y-54269460D01*
X50470600Y-54297400D01*
X50457900Y-54358360D01*
X50440120Y-54439640D01*
X50422340Y-54538700D01*
X50419800Y-54556480D01*
X50402020Y-54650460D01*
X50384240Y-54729200D01*
X50374080Y-54782540D01*
X50366460Y-54802860D01*
X50358840Y-54807940D01*
X50320740Y-54825720D01*
X50257240Y-54851120D01*
X50175960Y-54884140D01*
X49993080Y-54957800D01*
X49769560Y-54802860D01*
X49749240Y-54790160D01*
X49667960Y-54734280D01*
X49601920Y-54691100D01*
X49556200Y-54660620D01*
X49535880Y-54650460D01*
X49535880Y-54650460D01*
X49513020Y-54670780D01*
X49467300Y-54711420D01*
X49406340Y-54772380D01*
X49337760Y-54840960D01*
X49284420Y-54894300D01*
X49223460Y-54957800D01*
X49182820Y-54998440D01*
X49162500Y-55026380D01*
X49154880Y-55044160D01*
X49157420Y-55054320D01*
X49170120Y-55077180D01*
X49203140Y-55125440D01*
X49248860Y-55194020D01*
X49304740Y-55272760D01*
X49350460Y-55341340D01*
X49398720Y-55415000D01*
X49429200Y-55468340D01*
X49441900Y-55496280D01*
X49439360Y-55506440D01*
X49421580Y-55549620D01*
X49396180Y-55618200D01*
X49363160Y-55696940D01*
X49284420Y-55874740D01*
X49167580Y-55895060D01*
X49096460Y-55910300D01*
X48997400Y-55928080D01*
X48903420Y-55945860D01*
X48756100Y-55976340D01*
X48751020Y-56514820D01*
X48773880Y-56524980D01*
X48796740Y-56532600D01*
X48850080Y-56542760D01*
X48928820Y-56558000D01*
X49020260Y-56575780D01*
X49099000Y-56591020D01*
X49177740Y-56606260D01*
X49233620Y-56616420D01*
X49259020Y-56621500D01*
X49266640Y-56631660D01*
X49286960Y-56669760D01*
X49314900Y-56730720D01*
X49345380Y-56804380D01*
X49375860Y-56878040D01*
X49403800Y-56949160D01*
X49424120Y-57002500D01*
X49431740Y-57030440D01*
X49421580Y-57050760D01*
X49391100Y-57096480D01*
X49347920Y-57162520D01*
X49294580Y-57241260D01*
X49238700Y-57320000D01*
X49195520Y-57388580D01*
X49162500Y-57436840D01*
X49149800Y-57457160D01*
X49157420Y-57472400D01*
X49187900Y-57510500D01*
X49246320Y-57571460D01*
X49335220Y-57660360D01*
X49350460Y-57673060D01*
X49419040Y-57741640D01*
X49480000Y-57794980D01*
X49520640Y-57833080D01*
X49538420Y-57845780D01*
%LPC*%
D15*
X62530000Y-67735000D03*
D16*
X62530000Y-66465000D03*
X63800000Y-67735000D03*
X63800000Y-66465000D03*
X65070000Y-67735000D03*
X65070000Y-66465000D03*
D17*
X74400000Y-63280000D03*
D18*
X74400000Y-66720000D03*
D17*
X55600000Y-66720000D03*
D18*
X55600000Y-63280000D03*
D19*
X76500000Y-65000000D03*
X78700000Y-65000000D03*
X76500000Y-64100000D03*
X76500000Y-65900000D03*
X78700000Y-65900000D03*
X78700000Y-64100000D03*
X53500000Y-65000000D03*
X51300000Y-65000000D03*
X53500000Y-65900000D03*
X53500000Y-64100000D03*
X51300000Y-64100000D03*
X51300000Y-65900000D03*
D20*
X49450000Y-67450000D03*
X47450000Y-62950000D03*
M02*
