G04 (created by PCBNEW (2013-04-07 BZR 4075)-testing) date Mon 08 Apr 2013 07:04:17 PM CEST*
%MOIN*%
G04 Gerber Fmt 3.4, Leading zero omitted, Abs format*
%FSLAX34Y34*%
G01*
G70*
G90*
G04 APERTURE LIST*
%ADD10C,0.006*%
%ADD11R,0.11811X0.0590551*%
%ADD12R,0.0590551X0.11811*%
%ADD13C,0.0314961*%
%ADD14C,0.019685*%
G04 APERTURE END LIST*
G54D10*
G36*
X30672Y-28333D02*
X31124Y-27242D01*
X31670Y-27468D01*
X31218Y-28559D01*
X30672Y-28333D01*
X30672Y-28333D01*
G37*
G36*
X31873Y-28830D02*
X32325Y-27739D01*
X32870Y-27965D01*
X32418Y-29056D01*
X31873Y-28830D01*
X31873Y-28830D01*
G37*
G36*
X20508Y-22847D02*
X20056Y-23938D01*
X19510Y-23712D01*
X19962Y-22621D01*
X20508Y-22847D01*
X20508Y-22847D01*
G37*
G36*
X19308Y-22350D02*
X18856Y-23441D01*
X18310Y-23215D01*
X18762Y-22124D01*
X19308Y-22350D01*
X19308Y-22350D01*
G37*
G36*
X20056Y-27242D02*
X20508Y-28333D01*
X19962Y-28559D01*
X19510Y-27468D01*
X20056Y-27242D01*
X20056Y-27242D01*
G37*
G36*
X18856Y-27739D02*
X19308Y-28830D01*
X18762Y-29056D01*
X18310Y-27965D01*
X18856Y-27739D01*
X18856Y-27739D01*
G37*
G36*
X31124Y-23938D02*
X30672Y-22847D01*
X31218Y-22621D01*
X31670Y-23712D01*
X31124Y-23938D01*
X31124Y-23938D01*
G37*
G36*
X32325Y-23441D02*
X31873Y-22350D01*
X32418Y-22124D01*
X32870Y-23215D01*
X32325Y-23441D01*
X32325Y-23441D01*
G37*
G36*
X27242Y-31144D02*
X28333Y-30692D01*
X28559Y-31237D01*
X27468Y-31689D01*
X27242Y-31144D01*
X27242Y-31144D01*
G37*
G36*
X27739Y-32344D02*
X28830Y-31892D01*
X29056Y-32438D01*
X27965Y-32890D01*
X27739Y-32344D01*
X27739Y-32344D01*
G37*
G36*
X23938Y-20056D02*
X22847Y-20508D01*
X22621Y-19962D01*
X23712Y-19510D01*
X23938Y-20056D01*
X23938Y-20056D01*
G37*
G36*
X23441Y-18856D02*
X22350Y-19308D01*
X22124Y-18762D01*
X23215Y-18310D01*
X23441Y-18856D01*
X23441Y-18856D01*
G37*
G36*
X22847Y-30672D02*
X23938Y-31124D01*
X23712Y-31670D01*
X22621Y-31218D01*
X22847Y-30672D01*
X22847Y-30672D01*
G37*
G36*
X22350Y-31873D02*
X23441Y-32325D01*
X23215Y-32870D01*
X22124Y-32418D01*
X22350Y-31873D01*
X22350Y-31873D01*
G37*
G54D11*
X25590Y-19547D03*
X25590Y-18248D03*
X25590Y-31633D03*
X25590Y-32933D03*
G54D12*
X31633Y-25590D03*
X32933Y-25590D03*
X19547Y-25590D03*
X18248Y-25590D03*
G54D10*
G36*
X30064Y-21932D02*
X29229Y-21097D01*
X29646Y-20679D01*
X30481Y-21514D01*
X30064Y-21932D01*
X30064Y-21932D01*
G37*
G36*
X30983Y-21013D02*
X30147Y-20178D01*
X30565Y-19760D01*
X31400Y-20595D01*
X30983Y-21013D01*
X30983Y-21013D01*
G37*
G36*
X21932Y-21116D02*
X21097Y-21951D01*
X20679Y-21534D01*
X21514Y-20699D01*
X21932Y-21116D01*
X21932Y-21116D01*
G37*
G36*
X21013Y-20198D02*
X20178Y-21033D01*
X19760Y-20615D01*
X20595Y-19780D01*
X21013Y-20198D01*
X21013Y-20198D01*
G37*
G36*
X21097Y-29209D02*
X21932Y-30044D01*
X21514Y-30462D01*
X20679Y-29627D01*
X21097Y-29209D01*
X21097Y-29209D01*
G37*
G36*
X20178Y-30128D02*
X21013Y-30963D01*
X20595Y-31380D01*
X19760Y-30545D01*
X20178Y-30128D01*
X20178Y-30128D01*
G37*
G36*
X29229Y-30084D02*
X30064Y-29248D01*
X30481Y-29666D01*
X29646Y-30501D01*
X29229Y-30084D01*
X29229Y-30084D01*
G37*
G36*
X30147Y-31002D02*
X30983Y-30167D01*
X31400Y-30585D01*
X30565Y-31420D01*
X30147Y-31002D01*
X30147Y-31002D01*
G37*
G36*
X28353Y-20508D02*
X27262Y-20056D01*
X27488Y-19510D01*
X28579Y-19962D01*
X28353Y-20508D01*
X28353Y-20508D01*
G37*
G36*
X28850Y-19308D02*
X27759Y-18856D01*
X27985Y-18310D01*
X29076Y-18762D01*
X28850Y-19308D01*
X28850Y-19308D01*
G37*
G36*
X31487Y-24743D02*
X31372Y-24164D01*
X31873Y-24064D01*
X31988Y-24643D01*
X31487Y-24743D01*
X31487Y-24743D01*
G37*
G36*
X32221Y-24596D02*
X32105Y-24018D01*
X32606Y-23918D01*
X32722Y-24496D01*
X32221Y-24596D01*
X32221Y-24596D01*
G37*
G54D13*
X31673Y-22775D03*
X33070Y-24094D03*
G54D14*
X31171Y-23280D02*
X31171Y-23277D01*
X31171Y-23277D02*
X31673Y-22775D01*
X31680Y-24403D02*
X31680Y-24087D01*
X32371Y-23395D02*
X32371Y-22782D01*
X31680Y-24087D02*
X32371Y-23395D01*
X32907Y-24257D02*
X32413Y-24257D01*
X33070Y-24094D02*
X32907Y-24257D01*
M02*
