G04 #@! TF.FileFunction,Legend,Top*
%FSLAX46Y46*%
G04 Gerber Fmt 4.6, Leading zero omitted, Abs format (unit mm)*
G04 Created by KiCad (PCBNEW (2015-04-10 BZR 5591)-product) date Sat 11 Apr 2015 12:57:23 AM CEST*
%MOMM*%
G01*
G04 APERTURE LIST*
%ADD10C,0.150000*%
%ADD11C,0.200000*%
%ADD12C,0.066040*%
%ADD13C,0.152400*%
%ADD14R,1.099820X0.998220*%
%ADD15R,1.016000X1.016000*%
%ADD16C,1.016000*%
%ADD17R,1.650000X2.500000*%
%ADD18O,1.650000X2.500000*%
%ADD19C,0.500000*%
%ADD20R,1.399540X0.998220*%
%ADD21R,3.000000X1.500000*%
%ADD22R,1.500000X3.000000*%
%ADD23R,1.498600X1.297940*%
%ADD24R,1.297940X1.498600*%
%ADD25R,1.000000X0.250000*%
%ADD26R,1.400000X3.700000*%
G04 APERTURE END LIST*
D10*
D11*
X74328571Y-68619048D02*
X74328571Y-69380953D01*
X74471429Y-61380952D02*
X74471429Y-60619047D01*
X74852381Y-60999999D02*
X74090476Y-60999999D01*
X55528571Y-60928571D02*
X55576190Y-60785714D01*
X55623810Y-60738095D01*
X55719048Y-60690476D01*
X55861905Y-60690476D01*
X55957143Y-60738095D01*
X56004762Y-60785714D01*
X56052381Y-60880952D01*
X56052381Y-61261905D01*
X55052381Y-61261905D01*
X55052381Y-60928571D01*
X55100000Y-60833333D01*
X55147619Y-60785714D01*
X55242857Y-60738095D01*
X55338095Y-60738095D01*
X55433333Y-60785714D01*
X55480952Y-60833333D01*
X55528571Y-60928571D01*
X55528571Y-61261905D01*
X55766667Y-69238095D02*
X55766667Y-68761904D01*
X56052381Y-69333333D02*
X55052381Y-69000000D01*
X56052381Y-68666666D01*
X65288200Y-59291800D02*
X65288200Y-59698200D01*
X65288200Y-59698200D02*
X66151800Y-59698200D01*
X66151800Y-59291800D02*
X66151800Y-59698200D01*
X65288200Y-59291800D02*
X66151800Y-59291800D01*
X65288200Y-58021800D02*
X65288200Y-58428200D01*
X65288200Y-58428200D02*
X66151800Y-58428200D01*
X66151800Y-58021800D02*
X66151800Y-58428200D01*
X65288200Y-58021800D02*
X66151800Y-58021800D01*
X65364400Y-58428200D02*
X65364400Y-59291800D01*
X66075600Y-59291800D02*
X66075600Y-58428200D01*
X63898200Y-59291800D02*
X63898200Y-59698200D01*
X63898200Y-59698200D02*
X64761800Y-59698200D01*
X64761800Y-59291800D02*
X64761800Y-59698200D01*
X63898200Y-59291800D02*
X64761800Y-59291800D01*
X63898200Y-58021800D02*
X63898200Y-58428200D01*
X63898200Y-58428200D02*
X64761800Y-58428200D01*
X64761800Y-58021800D02*
X64761800Y-58428200D01*
X63898200Y-58021800D02*
X64761800Y-58021800D01*
X63974400Y-58428200D02*
X63974400Y-59291800D01*
X64685600Y-59291800D02*
X64685600Y-58428200D01*
X61260000Y-69005000D02*
X61260000Y-67735000D01*
X61260000Y-69005000D02*
X62530000Y-69005000D01*
X61700000Y-65600000D02*
X65900000Y-65600000D01*
X65900000Y-65600000D02*
X65900000Y-68500000D01*
X65900000Y-68500000D02*
X65900000Y-68600000D01*
X65900000Y-68600000D02*
X61700000Y-68600000D01*
X61700000Y-68600000D02*
X61700000Y-65600000D01*
D12*
X58918800Y-63168600D02*
X58918800Y-62711400D01*
X58918800Y-62711400D02*
X58337140Y-62711400D01*
X58337140Y-63168600D02*
X58337140Y-62711400D01*
X58918800Y-63168600D02*
X58337140Y-63168600D01*
X60922860Y-62228800D02*
X60922860Y-61771600D01*
X60922860Y-61771600D02*
X60341200Y-61771600D01*
X60341200Y-62228800D02*
X60341200Y-61771600D01*
X60922860Y-62228800D02*
X60341200Y-62228800D01*
X60922860Y-64108400D02*
X60922860Y-63651200D01*
X60922860Y-63651200D02*
X60341200Y-63651200D01*
X60341200Y-64108400D02*
X60341200Y-63651200D01*
X60922860Y-64108400D02*
X60341200Y-64108400D01*
X59929720Y-63437840D02*
X59929720Y-62442160D01*
X59929720Y-62442160D02*
X59330280Y-62442160D01*
X59330280Y-63437840D02*
X59330280Y-62442160D01*
X59929720Y-63437840D02*
X59330280Y-63437840D01*
D13*
X58972140Y-61520140D02*
X60287860Y-61520140D01*
X60287860Y-61520140D02*
X60287860Y-64359860D01*
X60287860Y-64359860D02*
X58972140Y-64359860D01*
X58972140Y-64359860D02*
X58972140Y-61520140D01*
D11*
X49381179Y-58695984D02*
X49495984Y-58418821D01*
X49495984Y-58418821D02*
X49218821Y-58304016D01*
X49218821Y-58304016D02*
X49104016Y-58581179D01*
X49104016Y-58581179D02*
X49381179Y-58695984D01*
X48051403Y-57333379D02*
X49096653Y-56900422D01*
X50400000Y-58500000D02*
G75*
G03X50400000Y-58500000I-1100000J0D01*
G01*
X47362573Y-58996362D02*
X47223991Y-58938959D01*
X47223991Y-58938959D02*
X48142431Y-56721649D01*
X48142431Y-56721649D02*
X48281013Y-56779051D01*
X50318987Y-60220949D02*
X50457569Y-60278351D01*
X50457569Y-60278351D02*
X51376009Y-58061041D01*
X51376009Y-58061041D02*
X51237427Y-58003638D01*
X50242450Y-60405725D02*
X47286036Y-59181138D01*
X47286036Y-59181138D02*
X48357550Y-56594275D01*
X48357550Y-56594275D02*
X51313964Y-57818862D01*
X51313964Y-57818862D02*
X50242450Y-60405725D01*
X49495984Y-71581179D02*
X49381179Y-71304016D01*
X49381179Y-71304016D02*
X49104016Y-71418821D01*
X49104016Y-71418821D02*
X49218821Y-71695984D01*
X49218821Y-71695984D02*
X49495984Y-71581179D01*
X47592183Y-71557966D02*
X48025140Y-70512715D01*
X50400000Y-71500000D02*
G75*
G03X50400000Y-71500000I-1100000J0D01*
G01*
X48281013Y-73220949D02*
X48142431Y-73278351D01*
X48142431Y-73278351D02*
X47223991Y-71061041D01*
X47223991Y-71061041D02*
X47362573Y-71003638D01*
X51237427Y-71996362D02*
X51376009Y-71938959D01*
X51376009Y-71938959D02*
X50457569Y-69721649D01*
X50457569Y-69721649D02*
X50318987Y-69779051D01*
X51313964Y-72181138D02*
X48357550Y-73405725D01*
X48357550Y-73405725D02*
X47286036Y-70818862D01*
X47286036Y-70818862D02*
X50242450Y-69594275D01*
X50242450Y-69594275D02*
X51313964Y-72181138D01*
X71581179Y-80554016D02*
X71304016Y-80668821D01*
X71304016Y-80668821D02*
X71418821Y-80945984D01*
X71418821Y-80945984D02*
X71695984Y-80831179D01*
X71695984Y-80831179D02*
X71581179Y-80554016D01*
X71557966Y-82457817D02*
X70512715Y-82024860D01*
X72600000Y-80750000D02*
G75*
G03X72600000Y-80750000I-1100000J0D01*
G01*
X73220949Y-81768987D02*
X73278351Y-81907569D01*
X73278351Y-81907569D02*
X71061041Y-82826009D01*
X71061041Y-82826009D02*
X71003638Y-82687427D01*
X71996362Y-78812573D02*
X71938959Y-78673991D01*
X71938959Y-78673991D02*
X69721649Y-79592431D01*
X69721649Y-79592431D02*
X69779051Y-79731013D01*
X72181138Y-78736036D02*
X73405725Y-81692450D01*
X73405725Y-81692450D02*
X70818862Y-82763964D01*
X70818862Y-82763964D02*
X69594275Y-79807550D01*
X69594275Y-79807550D02*
X72181138Y-78736036D01*
X58418821Y-49495984D02*
X58695984Y-49381179D01*
X58695984Y-49381179D02*
X58581179Y-49104016D01*
X58581179Y-49104016D02*
X58304016Y-49218821D01*
X58304016Y-49218821D02*
X58418821Y-49495984D01*
X58442034Y-47592183D02*
X59487285Y-48025140D01*
X59600000Y-49300000D02*
G75*
G03X59600000Y-49300000I-1100000J0D01*
G01*
X56779051Y-48281013D02*
X56721649Y-48142431D01*
X56721649Y-48142431D02*
X58938959Y-47223991D01*
X58938959Y-47223991D02*
X58996362Y-47362573D01*
X58003638Y-51237427D02*
X58061041Y-51376009D01*
X58061041Y-51376009D02*
X60278351Y-50457569D01*
X60278351Y-50457569D02*
X60220949Y-50318987D01*
X57818862Y-51313964D02*
X56594275Y-48357550D01*
X56594275Y-48357550D02*
X59181138Y-47286036D01*
X59181138Y-47286036D02*
X60405725Y-50242450D01*
X60405725Y-50242450D02*
X57818862Y-51313964D01*
X58695984Y-80618821D02*
X58418821Y-80504016D01*
X58418821Y-80504016D02*
X58304016Y-80781179D01*
X58304016Y-80781179D02*
X58581179Y-80895984D01*
X58581179Y-80895984D02*
X58695984Y-80618821D01*
X57333379Y-81948597D02*
X56900422Y-80903347D01*
X59600000Y-80700000D02*
G75*
G03X59600000Y-80700000I-1100000J0D01*
G01*
X58996362Y-82637427D02*
X58938959Y-82776009D01*
X58938959Y-82776009D02*
X56721649Y-81857569D01*
X56721649Y-81857569D02*
X56779051Y-81718987D01*
X60220949Y-79681013D02*
X60278351Y-79542431D01*
X60278351Y-79542431D02*
X58061041Y-78623991D01*
X58061041Y-78623991D02*
X58003638Y-78762573D01*
X60405725Y-79757550D02*
X59181138Y-82713964D01*
X59181138Y-82713964D02*
X56594275Y-81642450D01*
X56594275Y-81642450D02*
X57818862Y-78686036D01*
X57818862Y-78686036D02*
X60405725Y-79757550D01*
X65150000Y-81850000D02*
X64850000Y-81850000D01*
X64850000Y-81850000D02*
X64850000Y-82150000D01*
X64850000Y-82150000D02*
X65150000Y-82150000D01*
X65150000Y-82150000D02*
X65150000Y-81850000D01*
X64400000Y-83600000D02*
X63600000Y-82800000D01*
X66100000Y-82000000D02*
G75*
G03X66100000Y-82000000I-1100000J0D01*
G01*
X66200000Y-83600000D02*
X66200000Y-83750000D01*
X66200000Y-83750000D02*
X63800000Y-83750000D01*
X63800000Y-83750000D02*
X63800000Y-83600000D01*
X66200000Y-80400000D02*
X66200000Y-80250000D01*
X66200000Y-80250000D02*
X63800000Y-80250000D01*
X63800000Y-80250000D02*
X63800000Y-80400000D01*
X66400000Y-80400000D02*
X66400000Y-83600000D01*
X66400000Y-83600000D02*
X63600000Y-83600000D01*
X63600000Y-83600000D02*
X63600000Y-80400000D01*
X63600000Y-80400000D02*
X66400000Y-80400000D01*
X48150000Y-65150000D02*
X48150000Y-64850000D01*
X48150000Y-64850000D02*
X47850000Y-64850000D01*
X47850000Y-64850000D02*
X47850000Y-65150000D01*
X47850000Y-65150000D02*
X48150000Y-65150000D01*
X46400000Y-64400000D02*
X47200000Y-63600000D01*
X49100000Y-65000000D02*
G75*
G03X49100000Y-65000000I-1100000J0D01*
G01*
X46400000Y-66200000D02*
X46250000Y-66200000D01*
X46250000Y-66200000D02*
X46250000Y-63800000D01*
X46250000Y-63800000D02*
X46400000Y-63800000D01*
X49600000Y-66200000D02*
X49750000Y-66200000D01*
X49750000Y-66200000D02*
X49750000Y-63800000D01*
X49750000Y-63800000D02*
X49600000Y-63800000D01*
X49600000Y-66400000D02*
X46400000Y-66400000D01*
X46400000Y-66400000D02*
X46400000Y-63600000D01*
X46400000Y-63600000D02*
X49600000Y-63600000D01*
X49600000Y-63600000D02*
X49600000Y-66400000D01*
X52950000Y-53212132D02*
X53162132Y-53000000D01*
X53162132Y-53000000D02*
X52950000Y-52787868D01*
X52950000Y-52787868D02*
X52737868Y-53000000D01*
X52737868Y-53000000D02*
X52950000Y-53212132D01*
X52242893Y-51444365D02*
X53374264Y-51444365D01*
X54049999Y-53000000D02*
G75*
G03X54049999Y-53000000I-1099999J0D01*
G01*
X50970101Y-52717157D02*
X50864035Y-52611091D01*
X50864035Y-52611091D02*
X52561091Y-50914035D01*
X52561091Y-50914035D02*
X52667157Y-51020101D01*
X53232843Y-54979899D02*
X53338909Y-55085965D01*
X53338909Y-55085965D02*
X55035965Y-53388909D01*
X55035965Y-53388909D02*
X54929899Y-53282843D01*
X53091421Y-55121320D02*
X50828680Y-52858579D01*
X50828680Y-52858579D02*
X52808579Y-50878680D01*
X52808579Y-50878680D02*
X55071320Y-53141421D01*
X55071320Y-53141421D02*
X53091421Y-55121320D01*
X53162132Y-76950000D02*
X52950000Y-76737868D01*
X52950000Y-76737868D02*
X52737868Y-76950000D01*
X52737868Y-76950000D02*
X52950000Y-77162132D01*
X52950000Y-77162132D02*
X53162132Y-76950000D01*
X51394365Y-77657107D02*
X51394365Y-76525736D01*
X54049999Y-76950000D02*
G75*
G03X54049999Y-76950000I-1099999J0D01*
G01*
X52667157Y-78929899D02*
X52561091Y-79035965D01*
X52561091Y-79035965D02*
X50864035Y-77338909D01*
X50864035Y-77338909D02*
X50970101Y-77232843D01*
X54929899Y-76667157D02*
X55035965Y-76561091D01*
X55035965Y-76561091D02*
X53338909Y-74864035D01*
X53338909Y-74864035D02*
X53232843Y-74970101D01*
X55071320Y-76808579D02*
X52808579Y-79071320D01*
X52808579Y-79071320D02*
X50828680Y-77091421D01*
X50828680Y-77091421D02*
X53091421Y-74828680D01*
X53091421Y-74828680D02*
X55071320Y-76808579D01*
X62355327Y-48064610D02*
X62228413Y-47429466D01*
X62228413Y-47429466D02*
X60856003Y-47703700D01*
X60982917Y-48338844D02*
X60856003Y-47703700D01*
X62355327Y-48064610D02*
X60982917Y-48338844D01*
X62643995Y-49509251D02*
X62516583Y-48871616D01*
X62516583Y-48871616D02*
X61144173Y-49145851D01*
X61271585Y-49783486D02*
X61144173Y-49145851D01*
X62643995Y-49509251D02*
X61271585Y-49783486D01*
X62277010Y-48696730D02*
X62199368Y-48308171D01*
X62199368Y-48308171D02*
X61222990Y-48503270D01*
X61300632Y-48891829D02*
X61222990Y-48503270D01*
X62277010Y-48696730D02*
X61300632Y-48891829D01*
X61207440Y-49125438D02*
X61047179Y-48323413D01*
X62452821Y-48876587D02*
X62292560Y-48074562D01*
X61172293Y-50725442D02*
X60399858Y-46859780D01*
X60399858Y-46859780D02*
X62327707Y-46474558D01*
X62327707Y-46474558D02*
X63100142Y-50340220D01*
X63100142Y-50340220D02*
X61172293Y-50725442D01*
X56003096Y-50373098D02*
X55641844Y-49835499D01*
X55641844Y-49835499D02*
X54480209Y-50616086D01*
X54841461Y-51153685D02*
X54480209Y-50616086D01*
X56003096Y-50373098D02*
X54841461Y-51153685D01*
X56824766Y-51595872D02*
X56462098Y-51056165D01*
X56462098Y-51056165D02*
X55300462Y-51836752D01*
X55663131Y-52376459D02*
X55300462Y-51836752D01*
X56824766Y-51595872D02*
X55663131Y-52376459D01*
X56173714Y-50986774D02*
X55952713Y-50657890D01*
X55952713Y-50657890D02*
X55126286Y-51213226D01*
X55347287Y-51542110D02*
X55126286Y-51213226D01*
X56173714Y-50986774D02*
X55347287Y-51542110D01*
X55351026Y-51793593D02*
X54894858Y-51114743D01*
X56405142Y-51085257D02*
X55948974Y-50406407D01*
X55933452Y-53284240D02*
X53734777Y-50012265D01*
X53734777Y-50012265D02*
X55366548Y-48915760D01*
X55366548Y-48915760D02*
X57565223Y-52187735D01*
X57565223Y-52187735D02*
X55933452Y-53284240D01*
X51149453Y-54943391D02*
X50610596Y-54584019D01*
X50610596Y-54584019D02*
X49834069Y-55748372D01*
X50372926Y-56107744D02*
X49834069Y-55748372D01*
X51149453Y-54943391D02*
X50372926Y-56107744D01*
X52375087Y-55760788D02*
X51834118Y-55400006D01*
X51834118Y-55400006D02*
X51057591Y-56564359D01*
X51598561Y-56925141D02*
X51057591Y-56564359D01*
X52375087Y-55760788D02*
X51598561Y-56925141D01*
X51541051Y-55445746D02*
X51211397Y-55225894D01*
X51211397Y-55225894D02*
X50658949Y-56054254D01*
X50988603Y-56274106D02*
X50658949Y-56054254D01*
X51541051Y-55445746D02*
X50988603Y-56274106D01*
X51087893Y-56505189D02*
X50407454Y-56051393D01*
X51792546Y-55448607D02*
X51112107Y-54994811D01*
X52194414Y-57661415D02*
X48914784Y-55474174D01*
X48914784Y-55474174D02*
X50005586Y-53838585D01*
X50005586Y-53838585D02*
X53285216Y-56025826D01*
X53285216Y-56025826D02*
X52194414Y-57661415D01*
X48321067Y-60991541D02*
X47683207Y-60879069D01*
X47683207Y-60879069D02*
X47440180Y-62257347D01*
X48078040Y-62369819D02*
X47440180Y-62257347D01*
X48321067Y-60991541D02*
X48078040Y-62369819D01*
X49771886Y-61247360D02*
X49131525Y-61134447D01*
X49131525Y-61134447D02*
X48888497Y-62512725D01*
X49528859Y-62625638D02*
X48888497Y-62512725D01*
X49771886Y-61247360D02*
X49528859Y-62625638D01*
X48881559Y-61294126D02*
X48491339Y-61225320D01*
X48491339Y-61225320D02*
X48318441Y-62205874D01*
X48708661Y-62274680D02*
X48318441Y-62205874D01*
X48881559Y-61294126D02*
X48708661Y-62274680D01*
X48892461Y-62446365D02*
X48087006Y-62304341D01*
X49112994Y-61195659D02*
X48307539Y-61053635D01*
X50370403Y-63060314D02*
X46488212Y-62375779D01*
X46488212Y-62375779D02*
X46829597Y-60439686D01*
X46829597Y-60439686D02*
X50711788Y-61124221D01*
X50711788Y-61124221D02*
X50370403Y-63060314D01*
X48064610Y-67644673D02*
X47429466Y-67771587D01*
X47429466Y-67771587D02*
X47703700Y-69143997D01*
X48338844Y-69017083D02*
X47703700Y-69143997D01*
X48064610Y-67644673D02*
X48338844Y-69017083D01*
X49509251Y-67356005D02*
X48871616Y-67483417D01*
X48871616Y-67483417D02*
X49145851Y-68855827D01*
X49783486Y-68728415D02*
X49145851Y-68855827D01*
X49509251Y-67356005D02*
X49783486Y-68728415D01*
X48696730Y-67722990D02*
X48308171Y-67800632D01*
X48308171Y-67800632D02*
X48503270Y-68777010D01*
X48891829Y-68699368D02*
X48503270Y-68777010D01*
X48696730Y-67722990D02*
X48891829Y-68699368D01*
X49125438Y-68792560D02*
X48323413Y-68952821D01*
X48876587Y-67547179D02*
X48074562Y-67707440D01*
X50725442Y-68827707D02*
X46859780Y-69600142D01*
X46859780Y-69600142D02*
X46474558Y-67672293D01*
X46474558Y-67672293D02*
X50340220Y-66899858D01*
X50340220Y-66899858D02*
X50725442Y-68827707D01*
X50373098Y-73896904D02*
X49835499Y-74258156D01*
X49835499Y-74258156D02*
X50616086Y-75419791D01*
X51153685Y-75058539D02*
X50616086Y-75419791D01*
X50373098Y-73896904D02*
X51153685Y-75058539D01*
X51595872Y-73075234D02*
X51056165Y-73437902D01*
X51056165Y-73437902D02*
X51836752Y-74599538D01*
X52376459Y-74236869D02*
X51836752Y-74599538D01*
X51595872Y-73075234D02*
X52376459Y-74236869D01*
X50986774Y-73726286D02*
X50657890Y-73947287D01*
X50657890Y-73947287D02*
X51213226Y-74773714D01*
X51542110Y-74552713D02*
X51213226Y-74773714D01*
X50986774Y-73726286D02*
X51542110Y-74552713D01*
X51793593Y-74548974D02*
X51114743Y-75005142D01*
X51085257Y-73494858D02*
X50406407Y-73951026D01*
X53284240Y-73966548D02*
X50012265Y-76165223D01*
X50012265Y-76165223D02*
X48915760Y-74533452D01*
X48915760Y-74533452D02*
X52187735Y-72334777D01*
X52187735Y-72334777D02*
X53284240Y-73966548D01*
X54893224Y-78853363D02*
X54535734Y-79393471D01*
X54535734Y-79393471D02*
X55702791Y-80165929D01*
X56060280Y-79625821D02*
X55702791Y-80165929D01*
X54893224Y-78853363D02*
X56060280Y-79625821D01*
X55706337Y-77624883D02*
X55347446Y-78167109D01*
X55347446Y-78167109D02*
X56514502Y-78939566D01*
X56873394Y-78397341D02*
X56514502Y-78939566D01*
X55706337Y-77624883D02*
X56873394Y-78397341D01*
X55394208Y-78460014D02*
X55175509Y-78790433D01*
X55175509Y-78790433D02*
X56005792Y-79339986D01*
X56224491Y-79009567D02*
X56005792Y-79339986D01*
X55394208Y-78460014D02*
X56224491Y-79009567D01*
X56455227Y-78909471D02*
X56003808Y-79591489D01*
X55396192Y-78208511D02*
X54944773Y-78890529D01*
X57607583Y-77798921D02*
X55431803Y-81086165D01*
X55431803Y-81086165D02*
X53792417Y-80001079D01*
X53792417Y-80001079D02*
X55968197Y-76713835D01*
X55968197Y-76713835D02*
X57607583Y-77798921D01*
X60987253Y-81666985D02*
X60864776Y-82303000D01*
X60864776Y-82303000D02*
X62239067Y-82567646D01*
X62361544Y-81931631D02*
X62239067Y-82567646D01*
X60987253Y-81666985D02*
X62361544Y-81931631D01*
X61265829Y-80220363D02*
X61142871Y-80858872D01*
X61142871Y-80858872D02*
X62517162Y-81123519D01*
X62640119Y-80485010D02*
X62517162Y-81123519D01*
X61265829Y-80220363D02*
X62640119Y-80485010D01*
X61298605Y-81111315D02*
X61223678Y-81500406D01*
X61223678Y-81500406D02*
X62201395Y-81688685D01*
X62276322Y-81299594D02*
X62201395Y-81688685D01*
X61298605Y-81111315D02*
X62276322Y-81299594D01*
X62450872Y-81118513D02*
X62296215Y-81921638D01*
X61203785Y-80878362D02*
X61049128Y-81681487D01*
X63087960Y-79650397D02*
X62342531Y-83521357D01*
X62342531Y-83521357D02*
X60412040Y-83149603D01*
X60412040Y-83149603D02*
X61157469Y-79278643D01*
X61157469Y-79278643D02*
X63087960Y-79650397D01*
X67648426Y-81939603D02*
X67779771Y-82573846D01*
X67779771Y-82573846D02*
X69150232Y-82290037D01*
X69018887Y-81655794D02*
X69150232Y-82290037D01*
X67648426Y-81939603D02*
X69018887Y-81655794D01*
X67349679Y-80497012D02*
X67481540Y-81133742D01*
X67481540Y-81133742D02*
X68852001Y-80849933D01*
X68720141Y-80213203D02*
X68852001Y-80849933D01*
X67349679Y-80497012D02*
X68720141Y-80213203D01*
X67722327Y-81306952D02*
X67802680Y-81694959D01*
X67802680Y-81694959D02*
X68777673Y-81493048D01*
X68697320Y-81105041D02*
X68777673Y-81493048D01*
X67722327Y-81306952D02*
X68697320Y-81105041D01*
X68788879Y-80870787D02*
X68954734Y-81671673D01*
X67545266Y-81128327D02*
X67711121Y-81929213D01*
X68812855Y-79270577D02*
X69612258Y-83130751D01*
X69612258Y-83130751D02*
X67687145Y-83529423D01*
X67687145Y-83529423D02*
X66887742Y-79669249D01*
X66887742Y-79669249D02*
X68812855Y-79270577D01*
X74001987Y-79729349D02*
X74366983Y-80264413D01*
X74366983Y-80264413D02*
X75523141Y-79475736D01*
X75158145Y-78940672D02*
X75523141Y-79475736D01*
X74001987Y-79729349D02*
X75158145Y-78940672D01*
X73171801Y-78512341D02*
X73538228Y-79049503D01*
X73538228Y-79049503D02*
X74694386Y-78260826D01*
X74327958Y-77723664D02*
X74694386Y-78260826D01*
X73171801Y-78512341D02*
X74327958Y-77723664D01*
X73827089Y-79116879D02*
X74050381Y-79444212D01*
X74050381Y-79444212D02*
X74872911Y-78883121D01*
X74649619Y-78555788D02*
X74872911Y-78883121D01*
X73827089Y-79116879D02*
X74649619Y-78555788D01*
X74644124Y-78304336D02*
X75105021Y-78979986D01*
X73594979Y-79020014D02*
X74055876Y-79695664D01*
X74051306Y-76817792D02*
X76272770Y-80074338D01*
X76272770Y-80074338D02*
X74648694Y-81182208D01*
X74648694Y-81182208D02*
X72427230Y-77925662D01*
X72427230Y-77925662D02*
X74051306Y-76817792D01*
X78858997Y-75057082D02*
X79401587Y-75410793D01*
X79401587Y-75410793D02*
X80165879Y-74238372D01*
X79623288Y-73884662D02*
X80165879Y-74238372D01*
X78858997Y-75057082D02*
X79623288Y-73884662D01*
X77624869Y-74252565D02*
X78169588Y-74607662D01*
X78169588Y-74607662D02*
X78933879Y-73435241D01*
X78389161Y-73080144D02*
X78933879Y-73435241D01*
X77624869Y-74252565D02*
X78389161Y-73080144D01*
X78462160Y-74558856D02*
X78794097Y-74775244D01*
X78794097Y-74775244D02*
X79337840Y-73941144D01*
X79005903Y-73724756D02*
X79337840Y-73941144D01*
X78462160Y-74558856D02*
X79005903Y-73724756D01*
X78904198Y-73494726D02*
X79589351Y-73941372D01*
X78210649Y-74558628D02*
X78895802Y-75005274D01*
X77785630Y-72350150D02*
X81087984Y-74502928D01*
X81087984Y-74502928D02*
X80014370Y-76149850D01*
X80014370Y-76149850D02*
X76712016Y-73997072D01*
X76712016Y-73997072D02*
X77785630Y-72350150D01*
X69064592Y-48338347D02*
X69191506Y-47703202D01*
X69191506Y-47703202D02*
X67819097Y-47428968D01*
X67692182Y-48064112D02*
X67819097Y-47428968D01*
X69064592Y-48338347D02*
X67692182Y-48064112D01*
X68775924Y-49782988D02*
X68903336Y-49145353D01*
X68903336Y-49145353D02*
X67530927Y-48871119D01*
X67403515Y-49508754D02*
X67530927Y-48871119D01*
X68775924Y-49782988D02*
X67403515Y-49508754D01*
X68749368Y-48891829D02*
X68827010Y-48503270D01*
X68827010Y-48503270D02*
X67850632Y-48308171D01*
X67772990Y-48696730D02*
X67850632Y-48308171D01*
X68749368Y-48891829D02*
X67772990Y-48696730D01*
X67597179Y-48876587D02*
X67757440Y-48074562D01*
X68842560Y-49125438D02*
X69002821Y-48323413D01*
X66949858Y-50340220D02*
X67722293Y-46474558D01*
X67722293Y-46474558D02*
X69650142Y-46859780D01*
X69650142Y-46859780D02*
X68877707Y-50725442D01*
X68877707Y-50725442D02*
X66949858Y-50340220D01*
X81935390Y-62405327D02*
X82570534Y-62278413D01*
X82570534Y-62278413D02*
X82296300Y-60906003D01*
X81661156Y-61032917D02*
X82296300Y-60906003D01*
X81935390Y-62405327D02*
X81661156Y-61032917D01*
X80490749Y-62693995D02*
X81128384Y-62566583D01*
X81128384Y-62566583D02*
X80854149Y-61194173D01*
X80216514Y-61321585D02*
X80854149Y-61194173D01*
X80490749Y-62693995D02*
X80216514Y-61321585D01*
X81303270Y-62327010D02*
X81691829Y-62249368D01*
X81691829Y-62249368D02*
X81496730Y-61272990D01*
X81108171Y-61350632D02*
X81496730Y-61272990D01*
X81303270Y-62327010D02*
X81108171Y-61350632D01*
X80874562Y-61257440D02*
X81676587Y-61097179D01*
X81123413Y-62502821D02*
X81925438Y-62342560D01*
X79274558Y-61222293D02*
X83140220Y-60449858D01*
X83140220Y-60449858D02*
X83525442Y-62377707D01*
X83525442Y-62377707D02*
X79659780Y-63150142D01*
X79659780Y-63150142D02*
X79274558Y-61222293D01*
X75106609Y-51149453D02*
X75465981Y-50610596D01*
X75465981Y-50610596D02*
X74301628Y-49834069D01*
X73942256Y-50372926D02*
X74301628Y-49834069D01*
X75106609Y-51149453D02*
X73942256Y-50372926D01*
X74289212Y-52375087D02*
X74649994Y-51834118D01*
X74649994Y-51834118D02*
X73485641Y-51057591D01*
X73124859Y-51598561D02*
X73485641Y-51057591D01*
X74289212Y-52375087D02*
X73124859Y-51598561D01*
X74604254Y-51541051D02*
X74824106Y-51211397D01*
X74824106Y-51211397D02*
X73995746Y-50658949D01*
X73775894Y-50988603D02*
X73995746Y-50658949D01*
X74604254Y-51541051D02*
X73775894Y-50988603D01*
X73544811Y-51087893D02*
X73998607Y-50407454D01*
X74601393Y-51792546D02*
X75055189Y-51112107D01*
X72388585Y-52194414D02*
X74575826Y-48914784D01*
X74575826Y-48914784D02*
X76211415Y-50005586D01*
X76211415Y-50005586D02*
X74024174Y-53285216D01*
X74024174Y-53285216D02*
X72388585Y-52194414D01*
X79625665Y-56055631D02*
X80164522Y-55696258D01*
X80164522Y-55696258D02*
X79387995Y-54531905D01*
X78849138Y-54891278D02*
X79387995Y-54531905D01*
X79625665Y-56055631D02*
X78849138Y-54891278D01*
X78400030Y-56873028D02*
X78941000Y-56512246D01*
X78941000Y-56512246D02*
X78164473Y-55347893D01*
X77623503Y-55708675D02*
X78164473Y-55347893D01*
X78400030Y-56873028D02*
X77623503Y-55708675D01*
X79011397Y-56224106D02*
X79341051Y-56004254D01*
X79341051Y-56004254D02*
X78788603Y-55175894D01*
X78458949Y-55395746D02*
X78788603Y-55175894D01*
X79011397Y-56224106D02*
X78458949Y-55395746D01*
X78207454Y-55398607D02*
X78887893Y-54944811D01*
X78912107Y-56455189D02*
X79592546Y-56001393D01*
X76714784Y-55975826D02*
X79994414Y-53788585D01*
X79994414Y-53788585D02*
X81085216Y-55424174D01*
X81085216Y-55424174D02*
X77805586Y-57611415D01*
X77805586Y-57611415D02*
X76714784Y-55975826D01*
X81661653Y-69014592D02*
X82296798Y-69141506D01*
X82296798Y-69141506D02*
X82571032Y-67769097D01*
X81935888Y-67642182D02*
X82571032Y-67769097D01*
X81661653Y-69014592D02*
X81935888Y-67642182D01*
X80217012Y-68725924D02*
X80854647Y-68853336D01*
X80854647Y-68853336D02*
X81128881Y-67480927D01*
X80491246Y-67353515D02*
X81128881Y-67480927D01*
X80217012Y-68725924D02*
X80491246Y-67353515D01*
X81108171Y-68699368D02*
X81496730Y-68777010D01*
X81496730Y-68777010D02*
X81691829Y-67800632D01*
X81303270Y-67722990D02*
X81691829Y-67800632D01*
X81108171Y-68699368D02*
X81303270Y-67722990D01*
X81123413Y-67547179D02*
X81925438Y-67707440D01*
X80874562Y-68792560D02*
X81676587Y-68952821D01*
X79659780Y-66899858D02*
X83525442Y-67672293D01*
X83525442Y-67672293D02*
X83140220Y-69600142D01*
X83140220Y-69600142D02*
X79274558Y-68827707D01*
X79274558Y-68827707D02*
X79659780Y-66899858D01*
X60258500Y-66693600D02*
X60258500Y-66045900D01*
X60258500Y-66045900D02*
X58858960Y-66045900D01*
X58858960Y-66693600D02*
X58858960Y-66045900D01*
X60258500Y-66693600D02*
X58858960Y-66693600D01*
X60258500Y-68166800D02*
X60258500Y-67516560D01*
X60258500Y-67516560D02*
X58858960Y-67516560D01*
X58858960Y-68166800D02*
X58858960Y-67516560D01*
X60258500Y-68166800D02*
X58858960Y-68166800D01*
X60057840Y-67298120D02*
X60057840Y-66901880D01*
X60057840Y-66901880D02*
X59062160Y-66901880D01*
X59062160Y-67298120D02*
X59062160Y-66901880D01*
X60057840Y-67298120D02*
X59062160Y-67298120D01*
X58925000Y-67508940D02*
X58925000Y-66691060D01*
X60195000Y-67508940D02*
X60195000Y-66691060D01*
X58577020Y-69071040D02*
X58577020Y-65128960D01*
X58577020Y-65128960D02*
X60542980Y-65128960D01*
X60542980Y-65128960D02*
X60542980Y-69071040D01*
X60542980Y-69071040D02*
X58577020Y-69071040D01*
X65426400Y-62198500D02*
X66074100Y-62198500D01*
X66074100Y-62198500D02*
X66074100Y-60798960D01*
X65426400Y-60798960D02*
X66074100Y-60798960D01*
X65426400Y-62198500D02*
X65426400Y-60798960D01*
X63953200Y-62198500D02*
X64603440Y-62198500D01*
X64603440Y-62198500D02*
X64603440Y-60798960D01*
X63953200Y-60798960D02*
X64603440Y-60798960D01*
X63953200Y-62198500D02*
X63953200Y-60798960D01*
X64821880Y-61997840D02*
X65218120Y-61997840D01*
X65218120Y-61997840D02*
X65218120Y-61002160D01*
X64821880Y-61002160D02*
X65218120Y-61002160D01*
X64821880Y-61997840D02*
X64821880Y-61002160D01*
X64611060Y-60865000D02*
X65428940Y-60865000D01*
X64611060Y-62135000D02*
X65428940Y-62135000D01*
X63048960Y-60517020D02*
X66991040Y-60517020D01*
X66991040Y-60517020D02*
X66991040Y-62482980D01*
X66991040Y-62482980D02*
X63048960Y-62482980D01*
X63048960Y-62482980D02*
X63048960Y-60517020D01*
X80618821Y-71304016D02*
X80504016Y-71581179D01*
X80504016Y-71581179D02*
X80781179Y-71695984D01*
X80781179Y-71695984D02*
X80895984Y-71418821D01*
X80895984Y-71418821D02*
X80618821Y-71304016D01*
X81948597Y-72666621D02*
X80903347Y-73099578D01*
X81800000Y-71500000D02*
G75*
G03X81800000Y-71500000I-1100000J0D01*
G01*
X82637427Y-71003638D02*
X82776009Y-71061041D01*
X82776009Y-71061041D02*
X81857569Y-73278351D01*
X81857569Y-73278351D02*
X81718987Y-73220949D01*
X79681013Y-69779051D02*
X79542431Y-69721649D01*
X79542431Y-69721649D02*
X78623991Y-71938959D01*
X78623991Y-71938959D02*
X78762573Y-71996362D01*
X79757550Y-69594275D02*
X82713964Y-70818862D01*
X82713964Y-70818862D02*
X81642450Y-73405725D01*
X81642450Y-73405725D02*
X78686036Y-72181138D01*
X78686036Y-72181138D02*
X79757550Y-69594275D01*
X80504016Y-58418821D02*
X80618821Y-58695984D01*
X80618821Y-58695984D02*
X80895984Y-58581179D01*
X80895984Y-58581179D02*
X80781179Y-58304016D01*
X80781179Y-58304016D02*
X80504016Y-58418821D01*
X82407817Y-58442034D02*
X81974860Y-59487285D01*
X81800000Y-58500000D02*
G75*
G03X81800000Y-58500000I-1100000J0D01*
G01*
X81718987Y-56779051D02*
X81857569Y-56721649D01*
X81857569Y-56721649D02*
X82776009Y-58938959D01*
X82776009Y-58938959D02*
X82637427Y-58996362D01*
X78762573Y-58003638D02*
X78623991Y-58061041D01*
X78623991Y-58061041D02*
X79542431Y-60278351D01*
X79542431Y-60278351D02*
X79681013Y-60220949D01*
X78686036Y-57818862D02*
X81642450Y-56594275D01*
X81642450Y-56594275D02*
X82713964Y-59181138D01*
X82713964Y-59181138D02*
X79757550Y-60405725D01*
X79757550Y-60405725D02*
X78686036Y-57818862D01*
X64850000Y-48150000D02*
X65150000Y-48150000D01*
X65150000Y-48150000D02*
X65150000Y-47850000D01*
X65150000Y-47850000D02*
X64850000Y-47850000D01*
X64850000Y-47850000D02*
X64850000Y-48150000D01*
X65600000Y-46400000D02*
X66400000Y-47200000D01*
X66100000Y-48000000D02*
G75*
G03X66100000Y-48000000I-1100000J0D01*
G01*
X63800000Y-46400000D02*
X63800000Y-46250000D01*
X63800000Y-46250000D02*
X66200000Y-46250000D01*
X66200000Y-46250000D02*
X66200000Y-46400000D01*
X63800000Y-49600000D02*
X63800000Y-49750000D01*
X63800000Y-49750000D02*
X66200000Y-49750000D01*
X66200000Y-49750000D02*
X66200000Y-49600000D01*
X63600000Y-49600000D02*
X63600000Y-46400000D01*
X63600000Y-46400000D02*
X66400000Y-46400000D01*
X66400000Y-46400000D02*
X66400000Y-49600000D01*
X66400000Y-49600000D02*
X63600000Y-49600000D01*
X81850000Y-64850000D02*
X81850000Y-65150000D01*
X81850000Y-65150000D02*
X82150000Y-65150000D01*
X82150000Y-65150000D02*
X82150000Y-64850000D01*
X82150000Y-64850000D02*
X81850000Y-64850000D01*
X83600000Y-65600000D02*
X82800000Y-66400000D01*
X83100000Y-65000000D02*
G75*
G03X83100000Y-65000000I-1100000J0D01*
G01*
X83600000Y-63800000D02*
X83750000Y-63800000D01*
X83750000Y-63800000D02*
X83750000Y-66200000D01*
X83750000Y-66200000D02*
X83600000Y-66200000D01*
X80400000Y-63800000D02*
X80250000Y-63800000D01*
X80250000Y-63800000D02*
X80250000Y-66200000D01*
X80250000Y-66200000D02*
X80400000Y-66200000D01*
X80400000Y-63600000D02*
X83600000Y-63600000D01*
X83600000Y-63600000D02*
X83600000Y-66400000D01*
X83600000Y-66400000D02*
X80400000Y-66400000D01*
X80400000Y-66400000D02*
X80400000Y-63600000D01*
X76787868Y-52950000D02*
X77000000Y-53162132D01*
X77000000Y-53162132D02*
X77212132Y-52950000D01*
X77212132Y-52950000D02*
X77000000Y-52737868D01*
X77000000Y-52737868D02*
X76787868Y-52950000D01*
X78555635Y-52242893D02*
X78555635Y-53374264D01*
X78099999Y-52950000D02*
G75*
G03X78099999Y-52950000I-1099999J0D01*
G01*
X77282843Y-50970101D02*
X77388909Y-50864035D01*
X77388909Y-50864035D02*
X79085965Y-52561091D01*
X79085965Y-52561091D02*
X78979899Y-52667157D01*
X75020101Y-53232843D02*
X74914035Y-53338909D01*
X74914035Y-53338909D02*
X76611091Y-55035965D01*
X76611091Y-55035965D02*
X76717157Y-54929899D01*
X74878680Y-53091421D02*
X77141421Y-50828680D01*
X77141421Y-50828680D02*
X79121320Y-52808579D01*
X79121320Y-52808579D02*
X76858579Y-55071320D01*
X76858579Y-55071320D02*
X74878680Y-53091421D01*
X77000000Y-76837868D02*
X76787868Y-77050000D01*
X76787868Y-77050000D02*
X77000000Y-77262132D01*
X77000000Y-77262132D02*
X77212132Y-77050000D01*
X77212132Y-77050000D02*
X77000000Y-76837868D01*
X77707107Y-78605635D02*
X76575736Y-78605635D01*
X78099999Y-77050000D02*
G75*
G03X78099999Y-77050000I-1099999J0D01*
G01*
X78979899Y-77332843D02*
X79085965Y-77438909D01*
X79085965Y-77438909D02*
X77388909Y-79135965D01*
X77388909Y-79135965D02*
X77282843Y-79029899D01*
X76717157Y-75070101D02*
X76611091Y-74964035D01*
X76611091Y-74964035D02*
X74914035Y-76661091D01*
X74914035Y-76661091D02*
X75020101Y-76767157D01*
X76858579Y-74928680D02*
X79121320Y-77191421D01*
X79121320Y-77191421D02*
X77141421Y-79171320D01*
X77141421Y-79171320D02*
X74878680Y-76908579D01*
X74878680Y-76908579D02*
X76858579Y-74928680D01*
X71354016Y-49381179D02*
X71631179Y-49495984D01*
X71631179Y-49495984D02*
X71745984Y-49218821D01*
X71745984Y-49218821D02*
X71468821Y-49104016D01*
X71468821Y-49104016D02*
X71354016Y-49381179D01*
X72716621Y-48051403D02*
X73149578Y-49096653D01*
X72650000Y-49300000D02*
G75*
G03X72650000Y-49300000I-1100000J0D01*
G01*
X71053638Y-47362573D02*
X71111041Y-47223991D01*
X71111041Y-47223991D02*
X73328351Y-48142431D01*
X73328351Y-48142431D02*
X73270949Y-48281013D01*
X69829051Y-50318987D02*
X69771649Y-50457569D01*
X69771649Y-50457569D02*
X71988959Y-51376009D01*
X71988959Y-51376009D02*
X72046362Y-51237427D01*
X69644275Y-50242450D02*
X70868862Y-47286036D01*
X70868862Y-47286036D02*
X73455725Y-48357550D01*
X73455725Y-48357550D02*
X72231138Y-51313964D01*
X72231138Y-51313964D02*
X69644275Y-50242450D01*
X62619382Y-57535484D02*
X59054520Y-59940014D01*
X59054520Y-59940014D02*
X57600618Y-57784516D01*
X57600618Y-57784516D02*
X61165480Y-55379986D01*
X61165480Y-55379986D02*
X62619382Y-57535484D01*
X61551224Y-57471924D02*
X59395727Y-58925825D01*
X59395727Y-58925825D02*
X58668776Y-57848076D01*
X58668776Y-57848076D02*
X60824273Y-56394175D01*
X60824273Y-56394175D02*
X61551224Y-57471924D01*
X57790645Y-59586290D02*
X56961608Y-60145483D01*
X56961608Y-60145483D02*
X56626092Y-59648060D01*
X56626092Y-59648060D02*
X57455129Y-59088867D01*
X62764871Y-56231133D02*
X63593908Y-55671940D01*
X63593908Y-55671940D02*
X63258392Y-55174517D01*
X63258392Y-55174517D02*
X62429355Y-55733710D01*
X58657394Y-60871298D02*
X56588380Y-57803859D01*
X56588380Y-57803859D02*
X61562606Y-54448702D01*
X61562606Y-54448702D02*
X63631620Y-57516141D01*
X63631620Y-57516141D02*
X58657394Y-60871298D01*
X68894520Y-55399986D02*
X72459382Y-57804516D01*
X72459382Y-57804516D02*
X71005480Y-59960014D01*
X71005480Y-59960014D02*
X67440618Y-57555484D01*
X67440618Y-57555484D02*
X68894520Y-55399986D01*
X69235727Y-56414175D02*
X71391224Y-57868076D01*
X71391224Y-57868076D02*
X70664273Y-58945825D01*
X70664273Y-58945825D02*
X68508776Y-57491924D01*
X68508776Y-57491924D02*
X69235727Y-56414175D01*
X72604871Y-59108867D02*
X73433908Y-59668060D01*
X73433908Y-59668060D02*
X73098392Y-60165483D01*
X73098392Y-60165483D02*
X72269355Y-59606290D01*
X67630645Y-55753710D02*
X66801608Y-55194517D01*
X66801608Y-55194517D02*
X66466092Y-55691940D01*
X66466092Y-55691940D02*
X67295129Y-56251133D01*
X73471620Y-57823859D02*
X71402606Y-60891298D01*
X71402606Y-60891298D02*
X66428380Y-57536141D01*
X66428380Y-57536141D02*
X68497394Y-54468702D01*
X68497394Y-54468702D02*
X73471620Y-57823859D01*
X72570000Y-68270000D02*
X72570000Y-64870000D01*
X72170000Y-68670000D02*
X67770000Y-68670000D01*
X72170000Y-68670000D02*
X72570000Y-68270000D01*
X67770000Y-64870000D02*
X72570000Y-64870000D01*
X67770000Y-68670000D02*
X67770000Y-64870000D01*
X71670000Y-68270000D02*
X68670000Y-68270000D01*
X68670000Y-68270000D02*
X68670000Y-65270000D01*
X68670000Y-65270000D02*
X71670000Y-65270000D01*
X71670000Y-65270000D02*
X71670000Y-68270000D01*
X66990000Y-62850000D02*
X62990000Y-62850000D01*
X66990000Y-62850000D02*
X66990000Y-65050000D01*
X66990000Y-65050000D02*
X62990000Y-65050000D01*
X62990000Y-65050000D02*
X62990000Y-62850000D01*
%LPC*%
D14*
X65720000Y-58011640D03*
X65720000Y-59708360D03*
X64330000Y-58011640D03*
X64330000Y-59708360D03*
D15*
X62530000Y-67735000D03*
D16*
X62530000Y-66465000D03*
X63800000Y-67735000D03*
X63800000Y-66465000D03*
X65070000Y-67735000D03*
X65070000Y-66465000D03*
D17*
X74400000Y-63280000D03*
D18*
X74400000Y-66720000D03*
D17*
X55600000Y-66720000D03*
D18*
X55600000Y-63280000D03*
D19*
X76500000Y-65000000D03*
X78700000Y-65000000D03*
X76500000Y-64100000D03*
X76500000Y-65900000D03*
X78700000Y-65900000D03*
X78700000Y-64100000D03*
X53500000Y-65000000D03*
X51300000Y-65000000D03*
X53500000Y-65900000D03*
X53500000Y-64100000D03*
X51300000Y-64100000D03*
X51300000Y-65900000D03*
D20*
X60729820Y-63889960D03*
X60729820Y-61990040D03*
X58530180Y-62940000D03*
D10*
G36*
X52091336Y-58032621D02*
X50943286Y-60804260D01*
X49557466Y-60230235D01*
X50705516Y-57458596D01*
X52091336Y-58032621D01*
X52091336Y-58032621D01*
G37*
G36*
X49042534Y-56769765D02*
X47894484Y-59541404D01*
X46508664Y-58967379D01*
X47656714Y-56195740D01*
X49042534Y-56769765D01*
X49042534Y-56769765D01*
G37*
G36*
X50943286Y-69195740D02*
X52091336Y-71967379D01*
X50705516Y-72541404D01*
X49557466Y-69769765D01*
X50943286Y-69195740D01*
X50943286Y-69195740D01*
G37*
G36*
X47894484Y-70458596D02*
X49042534Y-73230235D01*
X47656714Y-73804260D01*
X46508664Y-71032621D01*
X47894484Y-70458596D01*
X47894484Y-70458596D01*
G37*
G36*
X69195740Y-79106714D02*
X71967379Y-77958664D01*
X72541404Y-79344484D01*
X69769765Y-80492534D01*
X69195740Y-79106714D01*
X69195740Y-79106714D01*
G37*
G36*
X70458596Y-82155516D02*
X73230235Y-81007466D01*
X73804260Y-82393286D01*
X71032621Y-83541336D01*
X70458596Y-82155516D01*
X70458596Y-82155516D01*
G37*
G36*
X60804260Y-50943286D02*
X58032621Y-52091336D01*
X57458596Y-50705516D01*
X60230235Y-49557466D01*
X60804260Y-50943286D01*
X60804260Y-50943286D01*
G37*
G36*
X59541404Y-47894484D02*
X56769765Y-49042534D01*
X56195740Y-47656714D01*
X58967379Y-46508664D01*
X59541404Y-47894484D01*
X59541404Y-47894484D01*
G37*
G36*
X58032621Y-77908664D02*
X60804260Y-79056714D01*
X60230235Y-80442534D01*
X57458596Y-79294484D01*
X58032621Y-77908664D01*
X58032621Y-77908664D01*
G37*
G36*
X56769765Y-80957466D02*
X59541404Y-82105516D01*
X58967379Y-83491336D01*
X56195740Y-82343286D01*
X56769765Y-80957466D01*
X56769765Y-80957466D01*
G37*
D21*
X65000000Y-80350000D03*
X65000000Y-83650000D03*
D22*
X49650000Y-65000000D03*
X46350000Y-65000000D03*
D10*
G36*
X55707716Y-53636396D02*
X53586396Y-55757716D01*
X52525736Y-54697056D01*
X54647056Y-52575736D01*
X55707716Y-53636396D01*
X55707716Y-53636396D01*
G37*
G36*
X53374264Y-51302944D02*
X51252944Y-53424264D01*
X50192284Y-52363604D01*
X52313604Y-50242284D01*
X53374264Y-51302944D01*
X53374264Y-51302944D01*
G37*
G36*
X53586396Y-74192284D02*
X55707716Y-76313604D01*
X54647056Y-77374264D01*
X52525736Y-75252944D01*
X53586396Y-74192284D01*
X53586396Y-74192284D01*
G37*
G36*
X51252944Y-76525736D02*
X53374264Y-78647056D01*
X52313604Y-79707716D01*
X50192284Y-77586396D01*
X51252944Y-76525736D01*
X51252944Y-76525736D01*
G37*
G36*
X62798079Y-50021112D02*
X61328530Y-50314757D01*
X61074203Y-49041978D01*
X62543752Y-48748333D01*
X62798079Y-50021112D01*
X62798079Y-50021112D01*
G37*
G36*
X62425797Y-48158022D02*
X60956248Y-48451667D01*
X60701921Y-47178888D01*
X62171470Y-46885243D01*
X62425797Y-48158022D01*
X62425797Y-48158022D01*
G37*
G36*
X57163724Y-52009213D02*
X55919868Y-52845049D01*
X55195948Y-51767743D01*
X56439804Y-50931907D01*
X57163724Y-52009213D01*
X57163724Y-52009213D01*
G37*
G36*
X56104052Y-50432257D02*
X54860196Y-51268093D01*
X54136276Y-50190787D01*
X55380132Y-49354951D01*
X56104052Y-50432257D01*
X56104052Y-50432257D01*
G37*
G36*
X52845981Y-56013774D02*
X52014491Y-57260541D01*
X50934665Y-56540386D01*
X51766155Y-55293619D01*
X52845981Y-56013774D01*
X52845981Y-56013774D01*
G37*
G36*
X51265335Y-54959614D02*
X50433845Y-56206381D01*
X49354019Y-55486226D01*
X50185509Y-54239459D01*
X51265335Y-54959614D01*
X51265335Y-54959614D01*
G37*
G36*
X50304753Y-61289735D02*
X50044524Y-62765568D01*
X48766303Y-62540183D01*
X49026532Y-61064350D01*
X50304753Y-61289735D01*
X50304753Y-61289735D01*
G37*
G36*
X48433697Y-60959817D02*
X48173468Y-62435650D01*
X46895247Y-62210265D01*
X47155476Y-60734432D01*
X48433697Y-60959817D01*
X48433697Y-60959817D01*
G37*
G36*
X50021112Y-67201921D02*
X50314757Y-68671470D01*
X49041978Y-68925797D01*
X48748333Y-67456248D01*
X50021112Y-67201921D01*
X50021112Y-67201921D01*
G37*
G36*
X48158022Y-67574203D02*
X48451667Y-69043752D01*
X47178888Y-69298079D01*
X46885243Y-67828530D01*
X48158022Y-67574203D01*
X48158022Y-67574203D01*
G37*
G36*
X52009213Y-72736276D02*
X52845049Y-73980132D01*
X51767743Y-74704052D01*
X50931907Y-73460196D01*
X52009213Y-72736276D01*
X52009213Y-72736276D01*
G37*
G36*
X50432257Y-73795948D02*
X51268093Y-75039804D01*
X50190787Y-75763724D01*
X49354951Y-74519868D01*
X50432257Y-73795948D01*
X50432257Y-73795948D01*
G37*
G36*
X55957678Y-77153109D02*
X57207339Y-77980242D01*
X56490958Y-79062575D01*
X55241297Y-78235442D01*
X55957678Y-77153109D01*
X55957678Y-77153109D01*
G37*
G36*
X54909042Y-78737425D02*
X56158703Y-79564558D01*
X55442322Y-80646891D01*
X54192661Y-79819758D01*
X54909042Y-78737425D01*
X54909042Y-78737425D01*
G37*
G36*
X61316569Y-79688228D02*
X62788132Y-79971606D01*
X62542697Y-81246130D01*
X61071134Y-80962752D01*
X61316569Y-79688228D01*
X61316569Y-79688228D01*
G37*
G36*
X60957303Y-81553870D02*
X62428866Y-81837248D01*
X62183431Y-83111772D01*
X60711868Y-82828394D01*
X60957303Y-81553870D01*
X60957303Y-81553870D01*
G37*
G36*
X67192025Y-79986239D02*
X68659489Y-79682342D01*
X68922695Y-80953315D01*
X67455231Y-81257212D01*
X67192025Y-79986239D01*
X67192025Y-79986239D01*
G37*
G36*
X67577305Y-81846685D02*
X69044769Y-81542788D01*
X69307975Y-82813761D01*
X67840511Y-83117658D01*
X67577305Y-81846685D01*
X67577305Y-81846685D01*
G37*
G36*
X72829966Y-78101377D02*
X74067957Y-77256877D01*
X74799380Y-78329103D01*
X73561389Y-79173603D01*
X72829966Y-78101377D01*
X72829966Y-78101377D01*
G37*
G36*
X73900620Y-79670897D02*
X75138611Y-78826397D01*
X75870034Y-79898623D01*
X74632043Y-80743123D01*
X73900620Y-79670897D01*
X73900620Y-79670897D01*
G37*
G36*
X77151352Y-74004524D02*
X77969741Y-72749119D01*
X79057050Y-73457926D01*
X78238661Y-74713331D01*
X77151352Y-74004524D01*
X77151352Y-74004524D01*
G37*
G36*
X78742950Y-75042074D02*
X79561339Y-73786669D01*
X80648648Y-74495476D01*
X79830259Y-75750881D01*
X78742950Y-75042074D01*
X78742950Y-75042074D01*
G37*
G36*
X68721470Y-50314757D02*
X67251921Y-50021112D01*
X67506248Y-48748333D01*
X68975797Y-49041978D01*
X68721470Y-50314757D01*
X68721470Y-50314757D01*
G37*
G36*
X69093752Y-48451667D02*
X67624203Y-48158022D01*
X67878530Y-46885243D01*
X69348079Y-47178888D01*
X69093752Y-48451667D01*
X69093752Y-48451667D01*
G37*
G36*
X79978888Y-62848079D02*
X79685243Y-61378530D01*
X80958022Y-61124203D01*
X81251667Y-62593752D01*
X79978888Y-62848079D01*
X79978888Y-62848079D01*
G37*
G36*
X81841978Y-62475797D02*
X81548333Y-61006248D01*
X82821112Y-60751921D01*
X83114757Y-62221470D01*
X81841978Y-62475797D01*
X81841978Y-62475797D01*
G37*
G36*
X74036226Y-52845981D02*
X72789459Y-52014491D01*
X73509614Y-50934665D01*
X74756381Y-51766155D01*
X74036226Y-52845981D01*
X74036226Y-52845981D01*
G37*
G36*
X75090386Y-51265335D02*
X73843619Y-50433845D01*
X74563774Y-49354019D01*
X75810541Y-50185509D01*
X75090386Y-51265335D01*
X75090386Y-51265335D01*
G37*
G36*
X77985509Y-57210541D02*
X77154019Y-55963774D01*
X78233845Y-55243619D01*
X79065335Y-56490386D01*
X77985509Y-57210541D01*
X77985509Y-57210541D01*
G37*
G36*
X79566155Y-56156381D02*
X78734665Y-54909614D01*
X79814491Y-54189459D01*
X80645981Y-55436226D01*
X79566155Y-56156381D01*
X79566155Y-56156381D01*
G37*
G36*
X79685243Y-68671470D02*
X79978888Y-67201921D01*
X81251667Y-67456248D01*
X80958022Y-68925797D01*
X79685243Y-68671470D01*
X79685243Y-68671470D01*
G37*
G36*
X81548333Y-69043752D02*
X81841978Y-67574203D01*
X83114757Y-67828530D01*
X82821112Y-69298079D01*
X81548333Y-69043752D01*
X81548333Y-69043752D01*
G37*
D23*
X59560000Y-68049960D03*
X59560000Y-66150040D03*
D24*
X64070040Y-61500000D03*
X65969960Y-61500000D03*
D10*
G36*
X77908664Y-71967379D02*
X79056714Y-69195740D01*
X80442534Y-69769765D01*
X79294484Y-72541404D01*
X77908664Y-71967379D01*
X77908664Y-71967379D01*
G37*
G36*
X80957466Y-73230235D02*
X82105516Y-70458596D01*
X83491336Y-71032621D01*
X82343286Y-73804260D01*
X80957466Y-73230235D01*
X80957466Y-73230235D01*
G37*
G36*
X79056714Y-60804260D02*
X77908664Y-58032621D01*
X79294484Y-57458596D01*
X80442534Y-60230235D01*
X79056714Y-60804260D01*
X79056714Y-60804260D01*
G37*
G36*
X82105516Y-59541404D02*
X80957466Y-56769765D01*
X82343286Y-56195740D01*
X83491336Y-58967379D01*
X82105516Y-59541404D01*
X82105516Y-59541404D01*
G37*
D21*
X65000000Y-49650000D03*
X65000000Y-46350000D03*
D22*
X80350000Y-65000000D03*
X83650000Y-65000000D03*
D10*
G36*
X76363604Y-55707716D02*
X74242284Y-53586396D01*
X75302944Y-52525736D01*
X77424264Y-54647056D01*
X76363604Y-55707716D01*
X76363604Y-55707716D01*
G37*
G36*
X78697056Y-53374264D02*
X76575736Y-51252944D01*
X77636396Y-50192284D01*
X79757716Y-52313604D01*
X78697056Y-53374264D01*
X78697056Y-53374264D01*
G37*
G36*
X74242284Y-76413604D02*
X76363604Y-74292284D01*
X77424264Y-75352944D01*
X75302944Y-77474264D01*
X74242284Y-76413604D01*
X74242284Y-76413604D01*
G37*
G36*
X76575736Y-78747056D02*
X78697056Y-76625736D01*
X79757716Y-77686396D01*
X77636396Y-79807716D01*
X76575736Y-78747056D01*
X76575736Y-78747056D01*
G37*
G36*
X72017379Y-52091336D02*
X69245740Y-50943286D01*
X69819765Y-49557466D01*
X72591404Y-50705516D01*
X72017379Y-52091336D01*
X72017379Y-52091336D01*
G37*
G36*
X73280235Y-49042534D02*
X70508596Y-47894484D01*
X71082621Y-46508664D01*
X73854260Y-47656714D01*
X73280235Y-49042534D01*
X73280235Y-49042534D01*
G37*
G36*
X63629509Y-54562331D02*
X64300541Y-55557176D01*
X63056985Y-56395965D01*
X62385953Y-55401120D01*
X63629509Y-54562331D01*
X63629509Y-54562331D01*
G37*
G36*
X57079137Y-58799679D02*
X57917926Y-60043236D01*
X56674369Y-60882025D01*
X55835580Y-59638468D01*
X57079137Y-58799679D01*
X57079137Y-58799679D01*
G37*
G36*
X65759459Y-55577176D02*
X66430491Y-54582331D01*
X67674047Y-55421120D01*
X67003015Y-56415965D01*
X65759459Y-55577176D01*
X65759459Y-55577176D01*
G37*
G36*
X72142074Y-60063236D02*
X72980863Y-58819679D01*
X74224420Y-59658468D01*
X73385631Y-60902025D01*
X72142074Y-60063236D01*
X72142074Y-60063236D01*
G37*
D25*
X71670000Y-67770000D03*
X71670000Y-67270000D03*
X71670000Y-66770000D03*
X71670000Y-66270000D03*
X71670000Y-65770000D03*
X68670000Y-65770000D03*
X68670000Y-66270000D03*
X68670000Y-66770000D03*
X68670000Y-67270000D03*
X68670000Y-67770000D03*
D26*
X70170000Y-66270000D03*
D24*
X64040040Y-63950000D03*
X65939960Y-63950000D03*
M02*
