%FSLAX34Y34*%
G04 Gerber Fmt 3.4, Leading zero omitted, Abs format*
G04 (created by PCBNEW (2013-jul-14)-product) date Tue 31 Dec 2013 04:49:29 AM CET*
%MOIN*%
G01*
G70*
G90*
G04 APERTURE LIST*
%ADD10C,0.005906*%
%ADD11R,0.040000X0.040000*%
%ADD12C,0.040000*%
%ADD13R,0.064961X0.098425*%
%ADD14O,0.064961X0.098425*%
%ADD15C,0.019685*%
%ADD16R,0.055100X0.039300*%
%ADD17R,0.118110X0.059055*%
%ADD18R,0.059055X0.118110*%
%ADD19R,0.059000X0.051100*%
%ADD20R,0.051100X0.059000*%
%ADD21R,0.031400X0.031400*%
%ADD22R,0.039370X0.009843*%
%ADD23R,0.055118X0.145669*%
%ADD24C,0.031496*%
%ADD25C,0.015748*%
%ADD26C,0.009843*%
%ADD27C,0.019685*%
G04 APERTURE END LIST*
G54D10*
G54D11*
X24618Y-26667D03*
G54D12*
X24618Y-26167D03*
X25118Y-26667D03*
X25118Y-26167D03*
X25618Y-26667D03*
X25618Y-26167D03*
G54D13*
X29291Y-24913D03*
G54D14*
X29291Y-26267D03*
G54D13*
X21889Y-26267D03*
G54D14*
X21889Y-24913D03*
G54D15*
X30118Y-25590D03*
X30984Y-25590D03*
X30118Y-25236D03*
X30118Y-25944D03*
X30984Y-25944D03*
X30984Y-25236D03*
X21062Y-25590D03*
X20196Y-25590D03*
X21062Y-25944D03*
X21062Y-25236D03*
X20196Y-25236D03*
X20196Y-25944D03*
G54D16*
X23909Y-25153D03*
X23909Y-24405D03*
X23043Y-24779D03*
G54D10*
G36*
X20508Y-22847D02*
X20056Y-23938D01*
X19510Y-23712D01*
X19962Y-22621D01*
X20508Y-22847D01*
X20508Y-22847D01*
G37*
G36*
X19308Y-22350D02*
X18856Y-23441D01*
X18310Y-23215D01*
X18762Y-22124D01*
X19308Y-22350D01*
X19308Y-22350D01*
G37*
G36*
X20056Y-27242D02*
X20508Y-28333D01*
X19962Y-28559D01*
X19510Y-27468D01*
X20056Y-27242D01*
X20056Y-27242D01*
G37*
G36*
X18856Y-27739D02*
X19308Y-28830D01*
X18762Y-29056D01*
X18310Y-27965D01*
X18856Y-27739D01*
X18856Y-27739D01*
G37*
G36*
X27242Y-31144D02*
X28333Y-30692D01*
X28559Y-31237D01*
X27468Y-31689D01*
X27242Y-31144D01*
X27242Y-31144D01*
G37*
G36*
X27739Y-32344D02*
X28830Y-31892D01*
X29056Y-32438D01*
X27965Y-32890D01*
X27739Y-32344D01*
X27739Y-32344D01*
G37*
G36*
X23938Y-20056D02*
X22847Y-20508D01*
X22621Y-19962D01*
X23712Y-19510D01*
X23938Y-20056D01*
X23938Y-20056D01*
G37*
G36*
X23441Y-18856D02*
X22350Y-19308D01*
X22124Y-18762D01*
X23215Y-18310D01*
X23441Y-18856D01*
X23441Y-18856D01*
G37*
G36*
X22847Y-30672D02*
X23938Y-31124D01*
X23712Y-31670D01*
X22621Y-31218D01*
X22847Y-30672D01*
X22847Y-30672D01*
G37*
G36*
X22350Y-31873D02*
X23441Y-32325D01*
X23215Y-32870D01*
X22124Y-32418D01*
X22350Y-31873D01*
X22350Y-31873D01*
G37*
G54D17*
X25590Y-31633D03*
X25590Y-32933D03*
G54D18*
X19547Y-25590D03*
X18248Y-25590D03*
G54D10*
G36*
X21932Y-21116D02*
X21097Y-21951D01*
X20679Y-21534D01*
X21514Y-20699D01*
X21932Y-21116D01*
X21932Y-21116D01*
G37*
G36*
X21013Y-20198D02*
X20178Y-21033D01*
X19760Y-20615D01*
X20595Y-19780D01*
X21013Y-20198D01*
X21013Y-20198D01*
G37*
G36*
X21097Y-29209D02*
X21932Y-30044D01*
X21514Y-30462D01*
X20679Y-29627D01*
X21097Y-29209D01*
X21097Y-29209D01*
G37*
G36*
X20178Y-30128D02*
X21013Y-30963D01*
X20595Y-31380D01*
X19760Y-30545D01*
X20178Y-30128D01*
X20178Y-30128D01*
G37*
G36*
X24723Y-19693D02*
X24145Y-19808D01*
X24044Y-19307D01*
X24623Y-19192D01*
X24723Y-19693D01*
X24723Y-19693D01*
G37*
G36*
X24577Y-18959D02*
X23998Y-19075D01*
X23898Y-18574D01*
X24476Y-18458D01*
X24577Y-18959D01*
X24577Y-18959D01*
G37*
G36*
X22505Y-20476D02*
X22015Y-20805D01*
X21730Y-20381D01*
X22220Y-20051D01*
X22505Y-20476D01*
X22505Y-20476D01*
G37*
G36*
X22088Y-19855D02*
X21598Y-20184D01*
X21313Y-19760D01*
X21803Y-19431D01*
X22088Y-19855D01*
X22088Y-19855D01*
G37*
G36*
X20805Y-22052D02*
X20478Y-22543D01*
X20053Y-22259D01*
X20380Y-21769D01*
X20805Y-22052D01*
X20805Y-22052D01*
G37*
G36*
X20183Y-21637D02*
X19855Y-22128D01*
X19430Y-21844D01*
X19758Y-21354D01*
X20183Y-21637D01*
X20183Y-21637D01*
G37*
G36*
X19805Y-24129D02*
X19702Y-24710D01*
X19199Y-24622D01*
X19301Y-24041D01*
X19805Y-24129D01*
X19805Y-24129D01*
G37*
G36*
X19068Y-23999D02*
X18965Y-24580D01*
X18462Y-24492D01*
X18565Y-23911D01*
X19068Y-23999D01*
X19068Y-23999D01*
G37*
G36*
X19693Y-26457D02*
X19808Y-27036D01*
X19307Y-27136D01*
X19192Y-26557D01*
X19693Y-26457D01*
X19693Y-26457D01*
G37*
G36*
X18959Y-26604D02*
X19075Y-27182D01*
X18574Y-27282D01*
X18458Y-26704D01*
X18959Y-26604D01*
X18959Y-26604D01*
G37*
G36*
X20476Y-28636D02*
X20805Y-29126D01*
X20381Y-29411D01*
X20051Y-28921D01*
X20476Y-28636D01*
X20476Y-28636D01*
G37*
G36*
X19855Y-29053D02*
X20184Y-29543D01*
X19760Y-29828D01*
X19431Y-29338D01*
X19855Y-29053D01*
X19855Y-29053D01*
G37*
G36*
X22030Y-30375D02*
X22522Y-30700D01*
X22240Y-31126D01*
X21748Y-30801D01*
X22030Y-30375D01*
X22030Y-30375D01*
G37*
G36*
X21617Y-30998D02*
X22109Y-31324D01*
X21827Y-31750D01*
X21335Y-31425D01*
X21617Y-30998D01*
X21617Y-30998D01*
G37*
G36*
X24140Y-31373D02*
X24719Y-31484D01*
X24623Y-31986D01*
X24043Y-31875D01*
X24140Y-31373D01*
X24140Y-31373D01*
G37*
G36*
X23998Y-32107D02*
X24578Y-32219D01*
X24481Y-32721D01*
X23902Y-32609D01*
X23998Y-32107D01*
X23998Y-32107D01*
G37*
G36*
X26453Y-31490D02*
X27031Y-31371D01*
X27134Y-31871D01*
X26557Y-31991D01*
X26453Y-31490D01*
X26453Y-31490D01*
G37*
G36*
X26605Y-32223D02*
X27182Y-32103D01*
X27286Y-32603D01*
X26708Y-32723D01*
X26605Y-32223D01*
X26605Y-32223D01*
G37*
G36*
X28673Y-30748D02*
X29160Y-30416D01*
X29448Y-30838D01*
X28961Y-31170D01*
X28673Y-30748D01*
X28673Y-30748D01*
G37*
G36*
X29094Y-31366D02*
X29582Y-31034D01*
X29870Y-31456D01*
X29382Y-31788D01*
X29094Y-31366D01*
X29094Y-31366D01*
G37*
G36*
X30374Y-29135D02*
X30696Y-28641D01*
X31124Y-28920D01*
X30802Y-29414D01*
X30374Y-29135D01*
X30374Y-29135D01*
G37*
G36*
X31001Y-29544D02*
X31323Y-29049D01*
X31751Y-29328D01*
X31429Y-29823D01*
X31001Y-29544D01*
X31001Y-29544D01*
G37*
G36*
X27055Y-19808D02*
X26477Y-19693D01*
X26577Y-19192D01*
X27155Y-19307D01*
X27055Y-19808D01*
X27055Y-19808D01*
G37*
G36*
X27202Y-19075D02*
X26623Y-18959D01*
X26723Y-18458D01*
X27302Y-18574D01*
X27202Y-19075D01*
X27202Y-19075D01*
G37*
G36*
X31487Y-24743D02*
X31372Y-24164D01*
X31873Y-24064D01*
X31988Y-24643D01*
X31487Y-24743D01*
X31487Y-24743D01*
G37*
G36*
X32221Y-24596D02*
X32105Y-24018D01*
X32606Y-23918D01*
X32722Y-24496D01*
X32221Y-24596D01*
X32221Y-24596D01*
G37*
G36*
X29148Y-20805D02*
X28657Y-20478D01*
X28940Y-20053D01*
X29431Y-20380D01*
X29148Y-20805D01*
X29148Y-20805D01*
G37*
G36*
X29563Y-20183D02*
X29072Y-19855D01*
X29355Y-19430D01*
X29846Y-19758D01*
X29563Y-20183D01*
X29563Y-20183D01*
G37*
G36*
X30702Y-22523D02*
X30375Y-22032D01*
X30800Y-21749D01*
X31128Y-22240D01*
X30702Y-22523D01*
X30702Y-22523D01*
G37*
G36*
X31325Y-22108D02*
X30997Y-21617D01*
X31423Y-21334D01*
X31750Y-21825D01*
X31325Y-22108D01*
X31325Y-22108D01*
G37*
G36*
X31372Y-27036D02*
X31487Y-26457D01*
X31988Y-26557D01*
X31873Y-27136D01*
X31372Y-27036D01*
X31372Y-27036D01*
G37*
G36*
X32105Y-27182D02*
X32221Y-26604D01*
X32722Y-26704D01*
X32606Y-27282D01*
X32105Y-27182D01*
X32105Y-27182D01*
G37*
G54D19*
X23448Y-26791D03*
X23448Y-26043D03*
G54D20*
X25224Y-24212D03*
X25972Y-24212D03*
G54D10*
G36*
X30672Y-28333D02*
X31124Y-27242D01*
X31670Y-27468D01*
X31218Y-28559D01*
X30672Y-28333D01*
X30672Y-28333D01*
G37*
G36*
X31873Y-28830D02*
X32325Y-27739D01*
X32870Y-27965D01*
X32418Y-29056D01*
X31873Y-28830D01*
X31873Y-28830D01*
G37*
G36*
X31124Y-23938D02*
X30672Y-22847D01*
X31218Y-22621D01*
X31670Y-23712D01*
X31124Y-23938D01*
X31124Y-23938D01*
G37*
G36*
X32325Y-23441D02*
X31873Y-22350D01*
X32418Y-22124D01*
X32870Y-23215D01*
X32325Y-23441D01*
X32325Y-23441D01*
G37*
G54D17*
X25590Y-19547D03*
X25590Y-18248D03*
G54D18*
X31633Y-25590D03*
X32933Y-25590D03*
G54D10*
G36*
X30064Y-21932D02*
X29229Y-21097D01*
X29646Y-20679D01*
X30481Y-21514D01*
X30064Y-21932D01*
X30064Y-21932D01*
G37*
G36*
X30983Y-21013D02*
X30147Y-20178D01*
X30565Y-19760D01*
X31400Y-20595D01*
X30983Y-21013D01*
X30983Y-21013D01*
G37*
G36*
X29229Y-30084D02*
X30064Y-29248D01*
X30481Y-29666D01*
X29646Y-30501D01*
X29229Y-30084D01*
X29229Y-30084D01*
G37*
G36*
X30147Y-31002D02*
X30983Y-30167D01*
X31400Y-30585D01*
X30565Y-31420D01*
X30147Y-31002D01*
X30147Y-31002D01*
G37*
G36*
X28353Y-20508D02*
X27262Y-20056D01*
X27488Y-19510D01*
X28579Y-19962D01*
X28353Y-20508D01*
X28353Y-20508D01*
G37*
G36*
X28850Y-19308D02*
X27759Y-18856D01*
X27985Y-18310D01*
X29076Y-18762D01*
X28850Y-19308D01*
X28850Y-19308D01*
G37*
G54D21*
X25876Y-23469D03*
X25876Y-22879D03*
X25329Y-23469D03*
X25329Y-22879D03*
G54D10*
G36*
X25050Y-21481D02*
X25315Y-21872D01*
X24825Y-22203D01*
X24561Y-21811D01*
X25050Y-21481D01*
X25050Y-21481D01*
G37*
G36*
X22472Y-23149D02*
X22802Y-23639D01*
X22312Y-23969D01*
X21982Y-23479D01*
X22472Y-23149D01*
X22472Y-23149D01*
G37*
G36*
X25889Y-21880D02*
X26153Y-21489D01*
X26643Y-21819D01*
X26379Y-22211D01*
X25889Y-21880D01*
X25889Y-21880D01*
G37*
G36*
X28402Y-23646D02*
X28732Y-23157D01*
X29222Y-23487D01*
X28891Y-23977D01*
X28402Y-23646D01*
X28402Y-23646D01*
G37*
G54D22*
X28216Y-26681D03*
X28216Y-26484D03*
X28216Y-26287D03*
X28216Y-26090D03*
X28216Y-25893D03*
X27035Y-25893D03*
X27035Y-26090D03*
X27035Y-26287D03*
X27035Y-26484D03*
X27035Y-26681D03*
G54D23*
X27625Y-26090D03*
G54D20*
X25212Y-25177D03*
X25960Y-25177D03*
G54D24*
X25208Y-25192D03*
X26472Y-26803D03*
X28704Y-27066D03*
X27070Y-25122D03*
X27440Y-24385D03*
X26681Y-25681D03*
X22661Y-26586D03*
X22539Y-24153D03*
X22519Y-25433D03*
X26153Y-26421D03*
X21082Y-30413D03*
X30039Y-20669D03*
X32244Y-25314D03*
X31830Y-27893D03*
X30413Y-30098D03*
X25807Y-32224D03*
X23267Y-31850D03*
X25374Y-18996D03*
X27933Y-19409D03*
X18956Y-25846D03*
X19409Y-23307D03*
X22893Y-19606D03*
X20708Y-21122D03*
X31574Y-22854D03*
X28326Y-31653D03*
X19586Y-28346D03*
X32992Y-24094D03*
X32992Y-27047D03*
X27086Y-32992D03*
X24094Y-18188D03*
X27086Y-18188D03*
X24133Y-32992D03*
X21377Y-31850D03*
X19330Y-29803D03*
X18188Y-27086D03*
X18188Y-24094D03*
X19291Y-21417D03*
X21377Y-19291D03*
X29803Y-19330D03*
X31850Y-21377D03*
X31889Y-29724D03*
X29803Y-31929D03*
G54D25*
X25208Y-25181D02*
X25212Y-25177D01*
X25208Y-25192D02*
X25208Y-25181D01*
G54D26*
X26472Y-26803D02*
X26594Y-26681D01*
X26594Y-26681D02*
X27035Y-26681D01*
X28385Y-27307D02*
X28464Y-27307D01*
X24645Y-27307D02*
X24618Y-27279D01*
X24618Y-26667D02*
X24618Y-27279D01*
X24645Y-27307D02*
X28385Y-27307D01*
X28464Y-27307D02*
X28704Y-27066D01*
X28708Y-27070D02*
X28704Y-27066D01*
G54D25*
X28259Y-24385D02*
X28812Y-23833D01*
X28812Y-23833D02*
X28812Y-23567D01*
G54D26*
X27035Y-26090D02*
X26602Y-26090D01*
X26795Y-25122D02*
X27070Y-25122D01*
X26381Y-25535D02*
X26795Y-25122D01*
X26381Y-25870D02*
X26381Y-25535D01*
X26602Y-26090D02*
X26381Y-25870D01*
G54D25*
X28259Y-24385D02*
X27440Y-24385D01*
G54D26*
X27035Y-25704D02*
X27035Y-25893D01*
X27011Y-25681D02*
X27035Y-25704D01*
X26681Y-25681D02*
X27011Y-25681D01*
G54D25*
X25118Y-26167D02*
X25118Y-25877D01*
X23874Y-26791D02*
X23448Y-26791D01*
X24102Y-26562D02*
X23874Y-26791D01*
X24102Y-25964D02*
X24102Y-26562D01*
X24354Y-25712D02*
X24102Y-25964D01*
X24952Y-25712D02*
X24354Y-25712D01*
X25118Y-25877D02*
X24952Y-25712D01*
G54D26*
X25665Y-27118D02*
X25618Y-27070D01*
X28153Y-27118D02*
X28216Y-27055D01*
X28216Y-26681D02*
X28216Y-27055D01*
X25665Y-27118D02*
X28153Y-27118D01*
X25618Y-27070D02*
X25618Y-26667D01*
G54D25*
X22661Y-25574D02*
X22519Y-25433D01*
X22661Y-26586D02*
X22661Y-25574D01*
X22392Y-23559D02*
X22539Y-23706D01*
X22539Y-23706D02*
X22539Y-24153D01*
X22519Y-25433D02*
X22500Y-25452D01*
G54D26*
X26153Y-26421D02*
X26216Y-26484D01*
X26216Y-26484D02*
X27035Y-26484D01*
G54D25*
X25876Y-23469D02*
X26347Y-23469D01*
X26704Y-23826D02*
X26704Y-24303D01*
X26347Y-23469D02*
X26704Y-23826D01*
X25329Y-23469D02*
X25876Y-23469D01*
X23909Y-23984D02*
X24424Y-23469D01*
X23909Y-24405D02*
X23909Y-23984D01*
X24424Y-23469D02*
X25329Y-23469D01*
G54D26*
X28216Y-25893D02*
X28618Y-25893D01*
X28618Y-25893D02*
X28629Y-25905D01*
G54D25*
X25972Y-24303D02*
X26704Y-24303D01*
X26704Y-24303D02*
X27133Y-24732D01*
X28629Y-25318D02*
X28629Y-25905D01*
X28043Y-24732D02*
X28629Y-25318D01*
X27133Y-24732D02*
X28043Y-24732D01*
X28814Y-26090D02*
X29291Y-26090D01*
X28629Y-25905D02*
X28814Y-26090D01*
X25960Y-25177D02*
X25972Y-25813D01*
X25972Y-25813D02*
X25618Y-26167D01*
X25972Y-24303D02*
X25960Y-25177D01*
G54D26*
X27633Y-26015D02*
X27625Y-26287D01*
X28216Y-25893D02*
X27755Y-25893D01*
X27755Y-25893D02*
X27633Y-26015D01*
X27633Y-26283D02*
X27625Y-26287D01*
X27633Y-26015D02*
X27633Y-26283D01*
G54D27*
X21082Y-30413D02*
X21305Y-29835D01*
X30039Y-20669D02*
X29855Y-21305D01*
X32244Y-25314D02*
X31633Y-25590D01*
X31830Y-27893D02*
X31171Y-27901D01*
X30413Y-30098D02*
X29855Y-29875D01*
X25807Y-32224D02*
X25590Y-31633D01*
X23267Y-31850D02*
X23280Y-31171D01*
X25374Y-18996D02*
X25590Y-19547D01*
X27933Y-19409D02*
X27920Y-20009D01*
X18956Y-25846D02*
X19547Y-25590D01*
X19409Y-23307D02*
X20009Y-23280D01*
X23280Y-19992D02*
X22893Y-19606D01*
X23280Y-19992D02*
X23280Y-20009D01*
X20912Y-21325D02*
X20708Y-21122D01*
X20912Y-21325D02*
X21305Y-21325D01*
X31171Y-23277D02*
X31574Y-22854D01*
X31171Y-23280D02*
X31171Y-23277D01*
X27901Y-31227D02*
X28326Y-31653D01*
X27901Y-31227D02*
X27901Y-31191D01*
X20009Y-27923D02*
X19586Y-28346D01*
X20009Y-27901D02*
X20009Y-27923D01*
X25590Y-18248D02*
X26816Y-19500D01*
X22135Y-30751D02*
X22782Y-32371D01*
X20428Y-29023D02*
X20387Y-30754D01*
X18809Y-28398D02*
X19500Y-26796D01*
X18248Y-25590D02*
X19502Y-24375D01*
X18809Y-22782D02*
X20429Y-22156D01*
X20387Y-20406D02*
X22118Y-20428D01*
X22782Y-18809D02*
X24384Y-19500D01*
X28417Y-18809D02*
X29044Y-20429D01*
X30751Y-22136D02*
X30774Y-20387D01*
X31680Y-24403D02*
X32371Y-22782D01*
X31680Y-26796D02*
X32933Y-25590D01*
X30749Y-29028D02*
X32371Y-28398D01*
X29060Y-30793D02*
X30774Y-30793D01*
X26794Y-31681D02*
X28398Y-32391D01*
X24381Y-31679D02*
X25590Y-32933D01*
X24362Y-31778D02*
X24475Y-31778D01*
X32992Y-24094D02*
X32413Y-24257D01*
X32992Y-27047D02*
X32413Y-26943D01*
X27086Y-32992D02*
X26945Y-32413D01*
X24094Y-18188D02*
X24237Y-18767D01*
X27086Y-18188D02*
X26963Y-18767D01*
X24133Y-32992D02*
X24240Y-32414D01*
X21377Y-31850D02*
X21722Y-31374D01*
X19330Y-29803D02*
X19807Y-29440D01*
X18767Y-26943D02*
X18188Y-27086D01*
X18188Y-24094D02*
X18765Y-24246D01*
X19806Y-21741D02*
X19291Y-21417D01*
X21700Y-19807D02*
X21377Y-19291D01*
X29459Y-19806D02*
X29803Y-19330D01*
X31374Y-21721D02*
X31850Y-21377D01*
X31376Y-29436D02*
X31889Y-29724D01*
X29482Y-31411D02*
X29803Y-31929D01*
X29502Y-31569D02*
X29502Y-31450D01*
X21700Y-19673D02*
X21700Y-19807D01*
G54D25*
X22342Y-25090D02*
X22653Y-24779D01*
X22653Y-24779D02*
X23043Y-24779D01*
X21889Y-25090D02*
X22342Y-25090D01*
X24618Y-24759D02*
X24618Y-24472D01*
X24224Y-25153D02*
X24618Y-24759D01*
X23909Y-25153D02*
X24224Y-25153D01*
X24787Y-24303D02*
X25224Y-24303D01*
X24618Y-24472D02*
X24787Y-24303D01*
X23909Y-25153D02*
X23909Y-25405D01*
X23448Y-25704D02*
X23448Y-26043D01*
X23566Y-25586D02*
X23448Y-25704D01*
X23728Y-25586D02*
X23566Y-25586D01*
X23909Y-25405D02*
X23728Y-25586D01*
X26266Y-21850D02*
X25876Y-22239D01*
X25876Y-22239D02*
X25876Y-22879D01*
X24938Y-21842D02*
X25329Y-22233D01*
X25329Y-22233D02*
X25329Y-22879D01*
M02*
