G04 (created by PCBNEW (2013-04-07 BZR 4075)-testing) date Tue 09 Apr 2013 10:01:32 PM CEST*
%MOIN*%
G04 Gerber Fmt 3.4, Leading zero omitted, Abs format*
%FSLAX34Y34*%
G01*
G70*
G90*
G04 APERTURE LIST*
%ADD10C,0.006*%
%ADD11C,0.00393701*%
G04 APERTURE END LIST*
G54D10*
G54D11*
X25580Y-20081D02*
G75*
G02X31062Y-24957I9J-5508D01*
G74*
G01*
X25600Y-31099D02*
G75*
G02X20118Y-26223I-9J5508D01*
G74*
G01*
X25600Y-20081D02*
G75*
G03X20118Y-24957I-9J-5508D01*
G74*
G01*
X25580Y-31099D02*
G75*
G03X31062Y-26223I9J5508D01*
G74*
G01*
X21003Y-27559D02*
X30177Y-27559D01*
X21003Y-23622D02*
X30177Y-23622D01*
X20610Y-25196D02*
G75*
G03X21003Y-24803I0J393D01*
G74*
G01*
X20118Y-24960D02*
G75*
G03X20354Y-25196I236J0D01*
G74*
G01*
X21003Y-24803D02*
X21003Y-23622D01*
X21003Y-26377D02*
X21003Y-27559D01*
X20118Y-26220D02*
G75*
G02X20354Y-25984I236J0D01*
G74*
G01*
X20610Y-25984D02*
G75*
G02X21003Y-26377I0J-393D01*
G74*
G01*
X20610Y-25984D02*
X20354Y-25984D01*
X20610Y-25196D02*
X20354Y-25196D01*
X33464Y-25590D02*
G75*
G03X33464Y-25590I-7874J0D01*
G74*
G01*
X30570Y-25984D02*
X30826Y-25984D01*
X30570Y-25196D02*
X30826Y-25196D01*
X30570Y-25196D02*
G75*
G02X30177Y-24803I0J393D01*
G74*
G01*
X31062Y-24960D02*
G75*
G02X30826Y-25196I-236J0D01*
G74*
G01*
X30177Y-24803D02*
X30177Y-23622D01*
X30177Y-26377D02*
X30177Y-27559D01*
X31062Y-26220D02*
G75*
G03X30826Y-25984I-236J0D01*
G74*
G01*
X30570Y-25984D02*
G75*
G03X30177Y-26377I0J-393D01*
G74*
G01*
M02*
