%FSLAX34Y34*%
G04 Gerber Fmt 3.4, Leading zero omitted, Abs format*
G04 (created by PCBNEW (2013-12-18 BZR 4558)-product) date Wed 18 Dec 2013 08:01:27 PM CET*
%MOIN*%
G01*
G70*
G90*
G04 APERTURE LIST*
%ADD10C,0.005906*%
%ADD11C,0.019685*%
%ADD12R,0.040000X0.040000*%
%ADD13C,0.040000*%
%ADD14R,0.064961X0.064961*%
%ADD15C,0.064961*%
%ADD16R,0.098425X0.059055*%
%ADD17C,0.031496*%
%ADD18C,0.015748*%
%ADD19C,0.009843*%
%ADD20C,0.019685*%
%ADD21C,0.059055*%
G04 APERTURE END LIST*
G54D10*
G54D11*
X30118Y-25590D03*
X30984Y-25590D03*
X30118Y-25236D03*
X30118Y-25944D03*
X30984Y-25944D03*
X30984Y-25236D03*
X21062Y-25590D03*
X20196Y-25590D03*
X21062Y-25944D03*
X21062Y-25236D03*
X20196Y-25236D03*
X20196Y-25944D03*
G54D12*
X24618Y-26667D03*
G54D13*
X24618Y-26167D03*
X25118Y-26667D03*
X25118Y-26167D03*
X25618Y-26667D03*
X25618Y-26167D03*
G54D14*
X29291Y-25090D03*
G54D15*
X29291Y-26090D03*
G54D14*
X21889Y-26090D03*
G54D15*
X21889Y-25090D03*
G54D16*
X19468Y-26555D03*
X18681Y-24783D03*
G54D17*
X26472Y-26803D03*
X24677Y-24767D03*
X28980Y-27035D03*
X27070Y-25122D03*
X27440Y-24385D03*
X25602Y-25417D03*
X26692Y-25720D03*
X26153Y-26421D03*
X22539Y-24153D03*
X22401Y-27244D03*
X22519Y-25433D03*
X25590Y-21811D03*
X25590Y-22637D03*
X21082Y-30413D03*
X30039Y-20669D03*
X32244Y-25314D03*
X31830Y-27893D03*
X30413Y-30098D03*
X25807Y-32224D03*
X23267Y-31850D03*
X25374Y-18996D03*
X27933Y-19409D03*
X18956Y-25846D03*
X19409Y-23307D03*
X22893Y-19606D03*
X20708Y-21122D03*
X31574Y-22854D03*
X28326Y-31653D03*
X19586Y-28346D03*
X32992Y-24094D03*
X32992Y-27047D03*
X27086Y-32992D03*
X24094Y-18188D03*
X27086Y-18188D03*
X24133Y-32992D03*
X21377Y-31850D03*
X19330Y-29803D03*
X18188Y-27086D03*
X18188Y-24094D03*
X19291Y-21417D03*
X21377Y-19291D03*
X29803Y-19330D03*
X31850Y-21377D03*
X31889Y-29724D03*
X29803Y-31929D03*
G54D18*
X27055Y-26220D02*
X26472Y-26803D01*
X26547Y-24007D02*
X26547Y-25066D01*
X27055Y-25574D02*
X26547Y-25066D01*
X27055Y-25574D02*
X27055Y-26220D01*
X24677Y-24767D02*
X24618Y-24826D01*
X24618Y-24826D02*
X24618Y-26167D01*
G54D19*
X26547Y-24007D02*
X26547Y-24019D01*
X26547Y-24019D02*
X26547Y-24007D01*
G54D18*
X24330Y-24775D02*
X23968Y-24775D01*
X23216Y-26090D02*
X21889Y-26090D01*
X23661Y-25645D02*
X23216Y-26090D01*
X23661Y-25082D02*
X23661Y-25645D01*
X23968Y-24775D02*
X23661Y-25082D01*
X24330Y-24771D02*
X24330Y-24775D01*
X24330Y-24771D02*
X24673Y-24771D01*
X24673Y-24771D02*
X24677Y-24767D01*
X24330Y-24295D02*
X24330Y-24771D01*
X24618Y-24007D02*
X24330Y-24295D01*
X28690Y-24007D02*
X26547Y-24007D01*
X26547Y-24007D02*
X24618Y-24007D01*
X29291Y-25090D02*
X29291Y-24608D01*
X29291Y-24608D02*
X28690Y-24007D01*
X28980Y-27035D02*
X27448Y-25503D01*
X27448Y-25503D02*
X27448Y-25122D01*
G54D19*
X27070Y-25122D02*
X27448Y-25122D01*
X27448Y-25122D02*
X27472Y-25122D01*
X27472Y-25122D02*
X27448Y-25122D01*
G54D18*
X27440Y-24385D02*
X27448Y-24393D01*
X27448Y-24393D02*
X27448Y-25122D01*
X25602Y-25417D02*
X25645Y-25460D01*
X25645Y-25460D02*
X26433Y-25460D01*
X26433Y-25460D02*
X26692Y-25720D01*
G54D19*
X26153Y-27173D02*
X26153Y-26421D01*
X25141Y-27342D02*
X25984Y-27342D01*
X25984Y-27342D02*
X26153Y-27173D01*
X25118Y-26667D02*
X25118Y-27318D01*
X25118Y-27318D02*
X25141Y-27342D01*
X25118Y-27342D02*
X25141Y-27342D01*
X25129Y-27330D02*
X25129Y-27342D01*
X25118Y-27342D02*
X25129Y-27330D01*
X24811Y-27342D02*
X25129Y-27342D01*
G54D18*
X22539Y-24153D02*
X22539Y-25413D01*
G54D19*
X22401Y-27244D02*
X22500Y-27342D01*
X24811Y-27342D02*
X22500Y-27342D01*
G54D18*
X22539Y-25413D02*
X22519Y-25433D01*
X25590Y-21811D02*
X25590Y-22637D01*
G54D20*
X19468Y-26555D02*
X19880Y-27255D01*
X20009Y-27923D02*
X20009Y-27993D01*
X19880Y-27255D02*
X20009Y-27923D01*
X21399Y-29899D02*
X21082Y-30413D01*
X29740Y-21228D02*
X30039Y-20669D01*
X31608Y-25461D02*
X32244Y-25314D01*
X31214Y-27688D02*
X31830Y-27893D01*
X30413Y-30098D02*
X29863Y-29863D01*
X29863Y-29863D02*
X29863Y-29863D01*
X25619Y-31628D02*
X25807Y-32224D01*
X23498Y-31215D02*
X23267Y-31850D01*
X22893Y-19606D02*
X23280Y-20009D01*
X25590Y-19547D02*
X25374Y-18996D01*
X27789Y-19983D02*
X27933Y-19409D01*
X19575Y-25730D02*
X18956Y-25846D01*
X19409Y-23307D02*
X20004Y-23307D01*
X20004Y-23307D02*
X20004Y-23307D01*
X21133Y-21585D02*
X20708Y-21122D01*
X31574Y-22854D02*
X31122Y-23206D01*
X31122Y-23206D02*
X31165Y-23206D01*
X27901Y-31191D02*
X28326Y-31653D01*
X19586Y-28346D02*
X20071Y-27993D01*
X20071Y-27993D02*
X20009Y-27993D01*
X20009Y-27993D02*
X20009Y-27901D01*
X31165Y-23206D02*
X31165Y-23271D01*
G54D21*
X25590Y-19547D02*
X27789Y-19983D01*
X27789Y-19983D02*
X27920Y-20009D01*
X27920Y-20009D02*
X29740Y-21228D01*
X29740Y-21228D02*
X29855Y-21305D01*
X29855Y-21305D02*
X31165Y-23271D01*
X31165Y-23271D02*
X31171Y-23280D01*
X31171Y-23280D02*
X31608Y-25461D01*
X31608Y-25461D02*
X31633Y-25590D01*
X31633Y-25590D02*
X31214Y-27688D01*
X31214Y-27688D02*
X31171Y-27901D01*
X31171Y-27901D02*
X29863Y-29863D01*
X29863Y-29863D02*
X29855Y-29875D01*
X29855Y-29875D02*
X27901Y-31191D01*
X27901Y-31191D02*
X25930Y-31568D01*
X25930Y-31568D02*
X25619Y-31628D01*
X25619Y-31628D02*
X25590Y-31633D01*
X25590Y-31633D02*
X23498Y-31215D01*
X23498Y-31215D02*
X23280Y-31171D01*
X23280Y-31171D02*
X21399Y-29899D01*
X21399Y-29899D02*
X21305Y-29835D01*
X21305Y-29835D02*
X20009Y-27901D01*
X20009Y-27901D02*
X19575Y-25730D01*
X19575Y-25730D02*
X19547Y-25590D01*
X19547Y-25590D02*
X20004Y-23307D01*
X20004Y-23307D02*
X20009Y-23280D01*
X20009Y-23280D02*
X21133Y-21585D01*
X21133Y-21585D02*
X21305Y-21325D01*
X21305Y-21325D02*
X23280Y-20009D01*
X23280Y-20009D02*
X25590Y-19547D01*
G54D20*
X18681Y-24783D02*
X18254Y-25624D01*
X18254Y-25624D02*
X18535Y-27027D01*
X18254Y-25624D02*
X18523Y-26968D01*
X32644Y-24147D02*
X32992Y-24094D01*
X32654Y-26983D02*
X32992Y-27047D01*
X27075Y-32646D02*
X27086Y-32992D01*
X24146Y-18536D02*
X24094Y-18188D01*
X27006Y-18529D02*
X27086Y-18188D01*
X24218Y-32658D02*
X24133Y-32992D01*
X21560Y-31624D02*
X21377Y-31850D01*
X19666Y-29678D02*
X19330Y-29803D01*
X18188Y-27086D02*
X18535Y-27027D01*
X18535Y-27027D02*
X18535Y-27027D01*
X18526Y-24197D02*
X18188Y-24094D01*
X19457Y-21622D02*
X19291Y-21417D01*
X19457Y-21622D02*
X19579Y-21622D01*
X21565Y-19537D02*
X21377Y-19291D01*
X21565Y-19537D02*
X21565Y-19621D01*
X29606Y-19448D02*
X29803Y-19330D01*
X29606Y-19448D02*
X29606Y-19605D01*
X31691Y-21615D02*
X31850Y-21377D01*
X31691Y-21615D02*
X31593Y-21615D01*
X31752Y-29547D02*
X31889Y-29724D01*
X31752Y-29547D02*
X31605Y-29547D01*
X29599Y-31666D02*
X29803Y-31929D01*
X29599Y-31666D02*
X29599Y-31583D01*
X21560Y-31624D02*
X21560Y-31546D01*
G54D21*
X20387Y-20406D02*
X21565Y-19621D01*
X19579Y-21622D02*
X20387Y-20406D01*
X21565Y-19621D02*
X22782Y-18809D01*
X22782Y-18809D02*
X24146Y-18536D01*
X24146Y-18536D02*
X24186Y-18528D01*
X24186Y-18528D02*
X25590Y-18248D01*
X25590Y-18248D02*
X27006Y-18529D01*
X27006Y-18529D02*
X28417Y-18809D01*
X28417Y-18809D02*
X29606Y-19605D01*
X29606Y-19605D02*
X30774Y-20387D01*
X30774Y-20387D02*
X31593Y-21615D01*
X31593Y-21615D02*
X32371Y-22782D01*
X32371Y-22782D02*
X32644Y-24147D01*
X32644Y-24147D02*
X32655Y-24201D01*
X32655Y-24201D02*
X32933Y-25590D01*
X32933Y-25590D02*
X32654Y-26983D01*
X32654Y-26983D02*
X32371Y-28398D01*
X32371Y-28398D02*
X31605Y-29547D01*
X31605Y-29547D02*
X30774Y-30793D01*
X30774Y-30793D02*
X29599Y-31583D01*
X29599Y-31583D02*
X28398Y-32391D01*
X28398Y-32391D02*
X27075Y-32646D01*
X27075Y-32646D02*
X27037Y-32653D01*
X27037Y-32653D02*
X27003Y-32660D01*
X27003Y-32660D02*
X25590Y-32933D01*
X25590Y-32933D02*
X24218Y-32658D01*
X24218Y-32658D02*
X24174Y-32650D01*
X24174Y-32650D02*
X22782Y-32371D01*
X22782Y-32371D02*
X21560Y-31546D01*
X21560Y-31546D02*
X20387Y-30754D01*
X20387Y-30754D02*
X19666Y-29678D01*
X19666Y-29678D02*
X19593Y-29568D01*
X19593Y-29568D02*
X18809Y-28398D01*
X18809Y-28398D02*
X18535Y-27027D01*
X18535Y-27027D02*
X18523Y-26968D01*
X18523Y-26968D02*
X18248Y-25590D01*
X18248Y-25590D02*
X18526Y-24197D01*
X18526Y-24197D02*
X18809Y-22782D01*
X18809Y-22782D02*
X19579Y-21622D01*
M02*
