M48
INCH,TZ
T1C0.016
T2C0.020
T3C0.024
T4C0.040
%
G90
G05
T1
X1.8189Y-2.4094
X1.8189Y-2.7087
X1.8957Y-2.5846
X1.9291Y-2.1417
X1.9331Y-2.9803
X1.9409Y-2.3307
X1.9587Y-2.8346
X2.0709Y-2.1122
X2.1083Y-3.0413
X2.1378Y-1.9291
X2.1378Y-3.185
X2.252Y-2.5433
X2.2539Y-2.4154
X2.2661Y-2.6587
X2.2894Y-1.9606
X2.3268Y-3.185
X2.4094Y-1.8189
X2.4134Y-3.2992
X2.5209Y-2.5193
X2.5374Y-1.8996
X2.5807Y-3.2224
X2.6154Y-2.6421
X2.6472Y-2.6803
X2.6681Y-2.5681
X2.7071Y-2.5122
X2.7087Y-1.8189
X2.7087Y-3.2992
X2.7441Y-2.4386
X2.7933Y-1.9409
X2.8327Y-3.1654
X2.8705Y-2.7067
X2.9803Y-1.9331
X2.9803Y-3.1929
X3.0039Y-2.0669
X3.0413Y-3.0098
X3.1575Y-2.2854
X3.1831Y-2.7894
X3.185Y-2.1378
X3.189Y-2.9724
X3.2244Y-2.5315
X3.2992Y-2.4094
X3.2992Y-2.7047
T2
X2.0197Y-2.5236
X2.0197Y-2.5591
X2.0197Y-2.5945
X2.1063Y-2.5236
X2.1063Y-2.5591
X2.1063Y-2.5945
X3.0118Y-2.5236
X3.0118Y-2.5591
X3.0118Y-2.5945
X3.0984Y-2.5236
X3.0984Y-2.5591
X3.0984Y-2.5945
T3
X2.4618Y-2.6167
X2.4618Y-2.6667
X2.5118Y-2.6167
X2.5118Y-2.6667
X2.5618Y-2.6167
X2.5618Y-2.6667
T4
X2.189Y-2.5091
X2.189Y-2.6091
X2.9291Y-2.5091
X2.9291Y-2.6091
T0
M30
