G04 (created by PCBNEW (2013-05-02 BZR 4133)-testing) date Fri 03 May 2013 02:17:12 PM CEST*
%MOIN*%
G04 Gerber Fmt 3.4, Leading zero omitted, Abs format*
%FSLAX34Y34*%
G01*
G70*
G90*
G04 APERTURE LIST*
%ADD10C,0.006*%
%ADD11C,0.011811*%
%ADD12C,0.0001*%
%ADD13C,0.00787402*%
%ADD14C,0.019685*%
%ADD15R,0.0551181X0.0551181*%
%ADD16C,0.0551181*%
%ADD17R,0.0649606X0.0649606*%
%ADD18C,0.0649606*%
%ADD19R,0.0984252X0.0590551*%
G04 APERTURE END LIST*
G54D10*
G54D11*
X26361Y-24000D02*
X26183Y-24531D01*
X26006Y-24000D01*
X25551Y-24531D02*
X25854Y-24531D01*
X25703Y-24531D02*
X25703Y-24000D01*
X25753Y-24076D01*
X25804Y-24126D01*
X25854Y-24152D01*
X25323Y-24481D02*
X25298Y-24506D01*
X25323Y-24531D01*
X25348Y-24506D01*
X25323Y-24481D01*
X25323Y-24531D01*
X24969Y-24000D02*
X24918Y-24000D01*
X24867Y-24025D01*
X24842Y-24050D01*
X24817Y-24101D01*
X24791Y-24202D01*
X24791Y-24329D01*
X24817Y-24430D01*
X24842Y-24481D01*
X24867Y-24506D01*
X24918Y-24531D01*
X24969Y-24531D01*
X25019Y-24506D01*
X25044Y-24481D01*
X25070Y-24430D01*
X25095Y-24329D01*
X25095Y-24202D01*
X25070Y-24101D01*
X25044Y-24050D01*
X25019Y-24025D01*
X24969Y-24000D01*
X26462Y-24913D02*
X26437Y-24887D01*
X26386Y-24862D01*
X26259Y-24862D01*
X26209Y-24887D01*
X26183Y-24913D01*
X26158Y-24963D01*
X26158Y-25014D01*
X26183Y-25090D01*
X26487Y-25393D01*
X26158Y-25393D01*
X25829Y-24862D02*
X25778Y-24862D01*
X25728Y-24887D01*
X25703Y-24913D01*
X25677Y-24963D01*
X25652Y-25064D01*
X25652Y-25191D01*
X25677Y-25292D01*
X25703Y-25343D01*
X25728Y-25368D01*
X25778Y-25393D01*
X25829Y-25393D01*
X25880Y-25368D01*
X25905Y-25343D01*
X25930Y-25292D01*
X25956Y-25191D01*
X25956Y-25064D01*
X25930Y-24963D01*
X25905Y-24913D01*
X25880Y-24887D01*
X25829Y-24862D01*
X25146Y-25393D02*
X25449Y-25393D01*
X25298Y-25393D02*
X25298Y-24862D01*
X25348Y-24938D01*
X25399Y-24989D01*
X25449Y-25014D01*
X24969Y-24862D02*
X24640Y-24862D01*
X24817Y-25064D01*
X24741Y-25064D01*
X24690Y-25090D01*
X24665Y-25115D01*
X24640Y-25166D01*
X24640Y-25292D01*
X24665Y-25343D01*
X24690Y-25368D01*
X24741Y-25393D01*
X24893Y-25393D01*
X24943Y-25368D01*
X24969Y-25343D01*
X26421Y-22415D02*
X26421Y-21884D01*
X26421Y-22086D02*
X26370Y-22061D01*
X26269Y-22061D01*
X26219Y-22086D01*
X26193Y-22111D01*
X26168Y-22162D01*
X26168Y-22314D01*
X26193Y-22365D01*
X26219Y-22390D01*
X26269Y-22415D01*
X26370Y-22415D01*
X26421Y-22390D01*
X25864Y-22415D02*
X25915Y-22390D01*
X25940Y-22339D01*
X25940Y-21884D01*
X25586Y-22415D02*
X25636Y-22390D01*
X25662Y-22365D01*
X25687Y-22314D01*
X25687Y-22162D01*
X25662Y-22111D01*
X25636Y-22086D01*
X25586Y-22061D01*
X25510Y-22061D01*
X25459Y-22086D01*
X25434Y-22111D01*
X25409Y-22162D01*
X25409Y-22314D01*
X25434Y-22365D01*
X25459Y-22390D01*
X25510Y-22415D01*
X25586Y-22415D01*
X24953Y-22061D02*
X24953Y-22491D01*
X24978Y-22542D01*
X25004Y-22567D01*
X25054Y-22592D01*
X25130Y-22592D01*
X25181Y-22567D01*
X24953Y-22390D02*
X25004Y-22415D01*
X25105Y-22415D01*
X25156Y-22390D01*
X25181Y-22365D01*
X25206Y-22314D01*
X25206Y-22162D01*
X25181Y-22111D01*
X25156Y-22086D01*
X25105Y-22061D01*
X25004Y-22061D01*
X24953Y-22086D01*
X24700Y-22365D02*
X24675Y-22390D01*
X24700Y-22415D01*
X24725Y-22390D01*
X24700Y-22365D01*
X24700Y-22415D01*
X28534Y-23252D02*
X28484Y-23277D01*
X28383Y-23277D01*
X28332Y-23252D01*
X28307Y-23201D01*
X28307Y-23176D01*
X28332Y-23125D01*
X28383Y-23100D01*
X28458Y-23100D01*
X28509Y-23075D01*
X28534Y-23024D01*
X28534Y-22999D01*
X28509Y-22948D01*
X28458Y-22923D01*
X28383Y-22923D01*
X28332Y-22948D01*
X28079Y-22923D02*
X28079Y-23455D01*
X28079Y-22948D02*
X28028Y-22923D01*
X27927Y-22923D01*
X27876Y-22948D01*
X27851Y-22974D01*
X27826Y-23024D01*
X27826Y-23176D01*
X27851Y-23227D01*
X27876Y-23252D01*
X27927Y-23277D01*
X28028Y-23277D01*
X28079Y-23252D01*
X27598Y-23277D02*
X27598Y-22923D01*
X27598Y-22746D02*
X27623Y-22771D01*
X27598Y-22796D01*
X27573Y-22771D01*
X27598Y-22746D01*
X27598Y-22796D01*
X27421Y-22923D02*
X27218Y-22923D01*
X27345Y-22746D02*
X27345Y-23201D01*
X27320Y-23252D01*
X27269Y-23277D01*
X27218Y-23277D01*
X27092Y-22923D02*
X26813Y-22923D01*
X27092Y-23277D01*
X26813Y-23277D01*
X26408Y-23252D02*
X26459Y-23277D01*
X26560Y-23277D01*
X26611Y-23252D01*
X26636Y-23201D01*
X26636Y-22999D01*
X26611Y-22948D01*
X26560Y-22923D01*
X26459Y-22923D01*
X26408Y-22948D01*
X26383Y-22999D01*
X26383Y-23050D01*
X26636Y-23100D01*
X26155Y-22923D02*
X26155Y-23277D01*
X26155Y-22974D02*
X26130Y-22948D01*
X26079Y-22923D01*
X26003Y-22923D01*
X25953Y-22948D01*
X25928Y-22999D01*
X25928Y-23277D01*
X25674Y-22923D02*
X25674Y-23455D01*
X25674Y-22948D02*
X25624Y-22923D01*
X25523Y-22923D01*
X25472Y-22948D01*
X25447Y-22974D01*
X25421Y-23024D01*
X25421Y-23176D01*
X25447Y-23227D01*
X25472Y-23252D01*
X25523Y-23277D01*
X25624Y-23277D01*
X25674Y-23252D01*
X25269Y-22923D02*
X25067Y-22923D01*
X25194Y-23277D02*
X25194Y-22822D01*
X25168Y-22771D01*
X25118Y-22746D01*
X25067Y-22746D01*
X24687Y-23252D02*
X24738Y-23277D01*
X24839Y-23277D01*
X24890Y-23252D01*
X24915Y-23201D01*
X24915Y-22999D01*
X24890Y-22948D01*
X24839Y-22923D01*
X24738Y-22923D01*
X24687Y-22948D01*
X24662Y-22999D01*
X24662Y-23050D01*
X24915Y-23100D01*
X24434Y-23277D02*
X24434Y-22923D01*
X24434Y-22746D02*
X24460Y-22771D01*
X24434Y-22796D01*
X24409Y-22771D01*
X24434Y-22746D01*
X24434Y-22796D01*
X24105Y-23277D02*
X24156Y-23252D01*
X24181Y-23201D01*
X24181Y-22746D01*
X23903Y-23227D02*
X23877Y-23252D01*
X23903Y-23277D01*
X23928Y-23252D01*
X23903Y-23227D01*
X23903Y-23277D01*
X23574Y-23277D02*
X23624Y-23252D01*
X23650Y-23227D01*
X23675Y-23176D01*
X23675Y-23024D01*
X23650Y-22974D01*
X23624Y-22948D01*
X23574Y-22923D01*
X23498Y-22923D01*
X23447Y-22948D01*
X23422Y-22974D01*
X23397Y-23024D01*
X23397Y-23176D01*
X23422Y-23227D01*
X23447Y-23252D01*
X23498Y-23277D01*
X23574Y-23277D01*
X23169Y-23277D02*
X23169Y-22923D01*
X23169Y-23024D02*
X23143Y-22974D01*
X23118Y-22948D01*
X23068Y-22923D01*
X23017Y-22923D01*
X22612Y-22923D02*
X22612Y-23353D01*
X22637Y-23404D01*
X22663Y-23429D01*
X22713Y-23455D01*
X22789Y-23455D01*
X22840Y-23429D01*
X22612Y-23252D02*
X22663Y-23277D01*
X22764Y-23277D01*
X22814Y-23252D01*
X22840Y-23227D01*
X22865Y-23176D01*
X22865Y-23024D01*
X22840Y-22974D01*
X22814Y-22948D01*
X22764Y-22923D01*
X22663Y-22923D01*
X22612Y-22948D01*
X26400Y-31401D02*
X26223Y-31933D01*
X26046Y-31401D01*
X25590Y-31933D02*
X25894Y-31933D01*
X25742Y-31933D02*
X25742Y-31401D01*
X25793Y-31477D01*
X25843Y-31528D01*
X25894Y-31553D01*
X25362Y-31882D02*
X25337Y-31908D01*
X25362Y-31933D01*
X25388Y-31908D01*
X25362Y-31882D01*
X25362Y-31933D01*
X25008Y-31401D02*
X24957Y-31401D01*
X24907Y-31427D01*
X24881Y-31452D01*
X24856Y-31503D01*
X24831Y-31604D01*
X24831Y-31730D01*
X24856Y-31832D01*
X24881Y-31882D01*
X24907Y-31908D01*
X24957Y-31933D01*
X25008Y-31933D01*
X25059Y-31908D01*
X25084Y-31882D01*
X25109Y-31832D01*
X25134Y-31730D01*
X25134Y-31604D01*
X25109Y-31503D01*
X25084Y-31452D01*
X25059Y-31427D01*
X25008Y-31401D01*
X29526Y-19846D02*
X29526Y-19315D01*
X29526Y-19517D02*
X29475Y-19492D01*
X29374Y-19492D01*
X29323Y-19517D01*
X29298Y-19543D01*
X29273Y-19593D01*
X29273Y-19745D01*
X29298Y-19796D01*
X29323Y-19821D01*
X29374Y-19846D01*
X29475Y-19846D01*
X29526Y-19821D01*
X28969Y-19846D02*
X29019Y-19821D01*
X29045Y-19770D01*
X29045Y-19315D01*
X28690Y-19846D02*
X28741Y-19821D01*
X28766Y-19796D01*
X28792Y-19745D01*
X28792Y-19593D01*
X28766Y-19543D01*
X28741Y-19517D01*
X28690Y-19492D01*
X28615Y-19492D01*
X28564Y-19517D01*
X28539Y-19543D01*
X28513Y-19593D01*
X28513Y-19745D01*
X28539Y-19796D01*
X28564Y-19821D01*
X28615Y-19846D01*
X28690Y-19846D01*
X28058Y-19492D02*
X28058Y-19922D01*
X28083Y-19973D01*
X28108Y-19998D01*
X28159Y-20023D01*
X28235Y-20023D01*
X28285Y-19998D01*
X28058Y-19821D02*
X28108Y-19846D01*
X28210Y-19846D01*
X28260Y-19821D01*
X28285Y-19796D01*
X28311Y-19745D01*
X28311Y-19593D01*
X28285Y-19543D01*
X28260Y-19517D01*
X28210Y-19492D01*
X28108Y-19492D01*
X28058Y-19517D01*
X27805Y-19796D02*
X27779Y-19821D01*
X27805Y-19846D01*
X27830Y-19821D01*
X27805Y-19796D01*
X27805Y-19846D01*
X27577Y-19821D02*
X27526Y-19846D01*
X27425Y-19846D01*
X27374Y-19821D01*
X27349Y-19770D01*
X27349Y-19745D01*
X27374Y-19694D01*
X27425Y-19669D01*
X27501Y-19669D01*
X27552Y-19644D01*
X27577Y-19593D01*
X27577Y-19568D01*
X27552Y-19517D01*
X27501Y-19492D01*
X27425Y-19492D01*
X27374Y-19517D01*
X27121Y-19492D02*
X27121Y-20023D01*
X27121Y-19517D02*
X27071Y-19492D01*
X26969Y-19492D01*
X26919Y-19517D01*
X26893Y-19543D01*
X26868Y-19593D01*
X26868Y-19745D01*
X26893Y-19796D01*
X26919Y-19821D01*
X26969Y-19846D01*
X27071Y-19846D01*
X27121Y-19821D01*
X26640Y-19846D02*
X26640Y-19492D01*
X26640Y-19315D02*
X26666Y-19340D01*
X26640Y-19365D01*
X26615Y-19340D01*
X26640Y-19315D01*
X26640Y-19365D01*
X26463Y-19492D02*
X26261Y-19492D01*
X26387Y-19315D02*
X26387Y-19770D01*
X26362Y-19821D01*
X26311Y-19846D01*
X26261Y-19846D01*
X26134Y-19492D02*
X25856Y-19492D01*
X26134Y-19846D01*
X25856Y-19846D01*
X25451Y-19821D02*
X25501Y-19846D01*
X25603Y-19846D01*
X25653Y-19821D01*
X25679Y-19770D01*
X25679Y-19568D01*
X25653Y-19517D01*
X25603Y-19492D01*
X25501Y-19492D01*
X25451Y-19517D01*
X25426Y-19568D01*
X25426Y-19618D01*
X25679Y-19669D01*
X25198Y-19492D02*
X25198Y-19846D01*
X25198Y-19543D02*
X25172Y-19517D01*
X25122Y-19492D01*
X25046Y-19492D01*
X24995Y-19517D01*
X24970Y-19568D01*
X24970Y-19846D01*
X24717Y-19492D02*
X24717Y-20023D01*
X24717Y-19517D02*
X24666Y-19492D01*
X24565Y-19492D01*
X24514Y-19517D01*
X24489Y-19543D01*
X24464Y-19593D01*
X24464Y-19745D01*
X24489Y-19796D01*
X24514Y-19821D01*
X24565Y-19846D01*
X24666Y-19846D01*
X24717Y-19821D01*
X24312Y-19492D02*
X24109Y-19492D01*
X24236Y-19846D02*
X24236Y-19391D01*
X24211Y-19340D01*
X24160Y-19315D01*
X24109Y-19315D01*
X23730Y-19821D02*
X23780Y-19846D01*
X23882Y-19846D01*
X23932Y-19821D01*
X23958Y-19770D01*
X23958Y-19568D01*
X23932Y-19517D01*
X23882Y-19492D01*
X23780Y-19492D01*
X23730Y-19517D01*
X23705Y-19568D01*
X23705Y-19618D01*
X23958Y-19669D01*
X23477Y-19846D02*
X23477Y-19492D01*
X23477Y-19315D02*
X23502Y-19340D01*
X23477Y-19365D01*
X23451Y-19340D01*
X23477Y-19315D01*
X23477Y-19365D01*
X23148Y-19846D02*
X23198Y-19821D01*
X23224Y-19770D01*
X23224Y-19315D01*
X22945Y-19796D02*
X22920Y-19821D01*
X22945Y-19846D01*
X22971Y-19821D01*
X22945Y-19796D01*
X22945Y-19846D01*
X22616Y-19846D02*
X22667Y-19821D01*
X22692Y-19796D01*
X22717Y-19745D01*
X22717Y-19593D01*
X22692Y-19543D01*
X22667Y-19517D01*
X22616Y-19492D01*
X22540Y-19492D01*
X22490Y-19517D01*
X22464Y-19543D01*
X22439Y-19593D01*
X22439Y-19745D01*
X22464Y-19796D01*
X22490Y-19821D01*
X22540Y-19846D01*
X22616Y-19846D01*
X22211Y-19846D02*
X22211Y-19492D01*
X22211Y-19593D02*
X22186Y-19543D01*
X22161Y-19517D01*
X22110Y-19492D01*
X22059Y-19492D01*
X21654Y-19492D02*
X21654Y-19922D01*
X21680Y-19973D01*
X21705Y-19998D01*
X21756Y-20023D01*
X21832Y-20023D01*
X21882Y-19998D01*
X21654Y-19821D02*
X21705Y-19846D01*
X21806Y-19846D01*
X21857Y-19821D01*
X21882Y-19796D01*
X21908Y-19745D01*
X21908Y-19593D01*
X21882Y-19543D01*
X21857Y-19517D01*
X21806Y-19492D01*
X21705Y-19492D01*
X21654Y-19517D01*
X26501Y-18184D02*
X26476Y-18159D01*
X26425Y-18134D01*
X26299Y-18134D01*
X26248Y-18159D01*
X26223Y-18184D01*
X26197Y-18235D01*
X26197Y-18285D01*
X26223Y-18361D01*
X26526Y-18665D01*
X26197Y-18665D01*
X25868Y-18134D02*
X25818Y-18134D01*
X25767Y-18159D01*
X25742Y-18184D01*
X25717Y-18235D01*
X25691Y-18336D01*
X25691Y-18463D01*
X25717Y-18564D01*
X25742Y-18615D01*
X25767Y-18640D01*
X25818Y-18665D01*
X25868Y-18665D01*
X25919Y-18640D01*
X25944Y-18615D01*
X25970Y-18564D01*
X25995Y-18463D01*
X25995Y-18336D01*
X25970Y-18235D01*
X25944Y-18184D01*
X25919Y-18159D01*
X25868Y-18134D01*
X25185Y-18665D02*
X25489Y-18665D01*
X25337Y-18665D02*
X25337Y-18134D01*
X25388Y-18210D01*
X25438Y-18260D01*
X25489Y-18285D01*
X25008Y-18134D02*
X24679Y-18134D01*
X24856Y-18336D01*
X24780Y-18336D01*
X24730Y-18361D01*
X24704Y-18387D01*
X24679Y-18437D01*
X24679Y-18564D01*
X24704Y-18615D01*
X24730Y-18640D01*
X24780Y-18665D01*
X24932Y-18665D01*
X24983Y-18640D01*
X25008Y-18615D01*
G54D12*
G36*
X23076Y-25618D02*
X23084Y-25614D01*
X23103Y-25602D01*
X23129Y-25585D01*
X23160Y-25564D01*
X23191Y-25543D01*
X23217Y-25526D01*
X23235Y-25514D01*
X23242Y-25510D01*
X23246Y-25511D01*
X23261Y-25519D01*
X23283Y-25530D01*
X23295Y-25536D01*
X23315Y-25545D01*
X23325Y-25547D01*
X23326Y-25544D01*
X23334Y-25529D01*
X23345Y-25503D01*
X23360Y-25469D01*
X23377Y-25429D01*
X23395Y-25386D01*
X23413Y-25342D01*
X23431Y-25300D01*
X23446Y-25262D01*
X23459Y-25232D01*
X23467Y-25210D01*
X23470Y-25201D01*
X23469Y-25199D01*
X23459Y-25190D01*
X23442Y-25177D01*
X23404Y-25146D01*
X23368Y-25100D01*
X23345Y-25048D01*
X23338Y-24990D01*
X23344Y-24937D01*
X23365Y-24886D01*
X23401Y-24839D01*
X23445Y-24805D01*
X23496Y-24783D01*
X23553Y-24776D01*
X23608Y-24782D01*
X23660Y-24803D01*
X23707Y-24838D01*
X23726Y-24861D01*
X23753Y-24908D01*
X23769Y-24958D01*
X23770Y-24970D01*
X23768Y-25026D01*
X23752Y-25079D01*
X23723Y-25126D01*
X23682Y-25165D01*
X23677Y-25169D01*
X23658Y-25183D01*
X23646Y-25192D01*
X23636Y-25200D01*
X23706Y-25370D01*
X23717Y-25397D01*
X23737Y-25443D01*
X23754Y-25483D01*
X23767Y-25515D01*
X23777Y-25536D01*
X23781Y-25545D01*
X23781Y-25545D01*
X23787Y-25546D01*
X23800Y-25541D01*
X23824Y-25530D01*
X23840Y-25522D01*
X23858Y-25513D01*
X23866Y-25510D01*
X23873Y-25514D01*
X23890Y-25525D01*
X23915Y-25542D01*
X23945Y-25562D01*
X23974Y-25582D01*
X24001Y-25600D01*
X24020Y-25612D01*
X24030Y-25617D01*
X24031Y-25617D01*
X24039Y-25612D01*
X24055Y-25600D01*
X24078Y-25578D01*
X24110Y-25546D01*
X24115Y-25541D01*
X24142Y-25513D01*
X24164Y-25490D01*
X24179Y-25474D01*
X24184Y-25467D01*
X24184Y-25467D01*
X24179Y-25457D01*
X24167Y-25438D01*
X24149Y-25411D01*
X24128Y-25380D01*
X24072Y-25298D01*
X24103Y-25221D01*
X24112Y-25198D01*
X24124Y-25169D01*
X24133Y-25149D01*
X24138Y-25140D01*
X24146Y-25137D01*
X24167Y-25132D01*
X24198Y-25125D01*
X24234Y-25119D01*
X24269Y-25112D01*
X24300Y-25106D01*
X24323Y-25102D01*
X24333Y-25100D01*
X24335Y-25098D01*
X24337Y-25093D01*
X24339Y-25083D01*
X24339Y-25064D01*
X24340Y-25034D01*
X24340Y-24990D01*
X24340Y-24986D01*
X24339Y-24944D01*
X24339Y-24911D01*
X24338Y-24890D01*
X24336Y-24882D01*
X24336Y-24882D01*
X24326Y-24879D01*
X24304Y-24875D01*
X24273Y-24868D01*
X24235Y-24861D01*
X24233Y-24861D01*
X24196Y-24854D01*
X24165Y-24847D01*
X24143Y-24842D01*
X24134Y-24839D01*
X24132Y-24837D01*
X24124Y-24822D01*
X24113Y-24799D01*
X24101Y-24771D01*
X24089Y-24742D01*
X24078Y-24715D01*
X24071Y-24696D01*
X24069Y-24687D01*
X24069Y-24687D01*
X24075Y-24678D01*
X24088Y-24658D01*
X24106Y-24632D01*
X24128Y-24600D01*
X24129Y-24597D01*
X24151Y-24566D01*
X24168Y-24539D01*
X24180Y-24520D01*
X24184Y-24512D01*
X24184Y-24511D01*
X24177Y-24502D01*
X24161Y-24484D01*
X24138Y-24460D01*
X24110Y-24432D01*
X24101Y-24424D01*
X24071Y-24394D01*
X24050Y-24374D01*
X24036Y-24364D01*
X24030Y-24361D01*
X24030Y-24362D01*
X24020Y-24367D01*
X24000Y-24380D01*
X23973Y-24399D01*
X23941Y-24420D01*
X23939Y-24422D01*
X23908Y-24443D01*
X23882Y-24461D01*
X23863Y-24473D01*
X23855Y-24478D01*
X23853Y-24478D01*
X23841Y-24474D01*
X23818Y-24467D01*
X23791Y-24456D01*
X23762Y-24444D01*
X23735Y-24433D01*
X23715Y-24424D01*
X23706Y-24419D01*
X23706Y-24418D01*
X23702Y-24407D01*
X23697Y-24383D01*
X23690Y-24351D01*
X23683Y-24312D01*
X23682Y-24306D01*
X23675Y-24269D01*
X23669Y-24238D01*
X23664Y-24216D01*
X23662Y-24207D01*
X23657Y-24206D01*
X23638Y-24205D01*
X23610Y-24204D01*
X23576Y-24204D01*
X23541Y-24204D01*
X23507Y-24205D01*
X23477Y-24206D01*
X23456Y-24207D01*
X23447Y-24209D01*
X23446Y-24210D01*
X23443Y-24221D01*
X23438Y-24245D01*
X23431Y-24277D01*
X23424Y-24316D01*
X23423Y-24323D01*
X23416Y-24360D01*
X23409Y-24391D01*
X23405Y-24412D01*
X23402Y-24420D01*
X23399Y-24422D01*
X23384Y-24429D01*
X23359Y-24439D01*
X23327Y-24452D01*
X23255Y-24481D01*
X23167Y-24420D01*
X23159Y-24415D01*
X23127Y-24393D01*
X23101Y-24376D01*
X23083Y-24364D01*
X23075Y-24360D01*
X23075Y-24360D01*
X23066Y-24368D01*
X23048Y-24384D01*
X23024Y-24408D01*
X22997Y-24435D01*
X22976Y-24456D01*
X22952Y-24481D01*
X22936Y-24497D01*
X22928Y-24508D01*
X22925Y-24515D01*
X22926Y-24519D01*
X22931Y-24528D01*
X22944Y-24547D01*
X22962Y-24574D01*
X22984Y-24605D01*
X23002Y-24632D01*
X23021Y-24661D01*
X23033Y-24682D01*
X23038Y-24693D01*
X23037Y-24697D01*
X23030Y-24714D01*
X23020Y-24741D01*
X23007Y-24772D01*
X22976Y-24842D01*
X22930Y-24850D01*
X22902Y-24856D01*
X22863Y-24863D01*
X22826Y-24870D01*
X22768Y-24882D01*
X22766Y-25094D01*
X22775Y-25098D01*
X22784Y-25101D01*
X22805Y-25105D01*
X22836Y-25111D01*
X22872Y-25118D01*
X22903Y-25124D01*
X22934Y-25130D01*
X22956Y-25134D01*
X22966Y-25136D01*
X22969Y-25140D01*
X22977Y-25155D01*
X22988Y-25179D01*
X23000Y-25208D01*
X23012Y-25237D01*
X23023Y-25265D01*
X23031Y-25286D01*
X23034Y-25297D01*
X23030Y-25305D01*
X23018Y-25323D01*
X23001Y-25349D01*
X22980Y-25380D01*
X22958Y-25411D01*
X22941Y-25438D01*
X22928Y-25457D01*
X22923Y-25465D01*
X22926Y-25471D01*
X22938Y-25486D01*
X22961Y-25510D01*
X22996Y-25545D01*
X23002Y-25550D01*
X23029Y-25577D01*
X23053Y-25598D01*
X23069Y-25613D01*
X23076Y-25618D01*
X23076Y-25618D01*
G37*
G36*
X27747Y-25599D02*
X27767Y-25597D01*
X27785Y-25591D01*
X27793Y-25587D01*
X27810Y-25575D01*
X27823Y-25561D01*
X27833Y-25544D01*
X27840Y-25526D01*
X27843Y-25507D01*
X27842Y-25487D01*
X27838Y-25468D01*
X27829Y-25450D01*
X27823Y-25442D01*
X27815Y-25433D01*
X27806Y-25424D01*
X27798Y-25418D01*
X27795Y-25416D01*
X27778Y-25408D01*
X27760Y-25404D01*
X27741Y-25403D01*
X27734Y-25404D01*
X27723Y-25405D01*
X27714Y-25408D01*
X27703Y-25412D01*
X27692Y-25418D01*
X27676Y-25431D01*
X27663Y-25447D01*
X27653Y-25465D01*
X27650Y-25473D01*
X27648Y-25483D01*
X27647Y-25490D01*
X27647Y-25491D01*
X27646Y-25492D01*
X27646Y-25488D01*
X27646Y-25487D01*
X27643Y-25474D01*
X27638Y-25461D01*
X27632Y-25450D01*
X27621Y-25435D01*
X27606Y-25422D01*
X27589Y-25411D01*
X27569Y-25405D01*
X27549Y-25403D01*
X27543Y-25403D01*
X27528Y-25405D01*
X27513Y-25409D01*
X27510Y-25410D01*
X27493Y-25419D01*
X27478Y-25432D01*
X27466Y-25447D01*
X27457Y-25463D01*
X27452Y-25481D01*
X27451Y-25481D01*
X27450Y-25486D01*
X27450Y-25488D01*
X27450Y-25488D01*
X27450Y-25486D01*
X27448Y-25481D01*
X27448Y-25479D01*
X27442Y-25462D01*
X27433Y-25445D01*
X27420Y-25430D01*
X27408Y-25420D01*
X27391Y-25411D01*
X27372Y-25405D01*
X27351Y-25403D01*
X27337Y-25404D01*
X27317Y-25409D01*
X27299Y-25418D01*
X27283Y-25430D01*
X27271Y-25446D01*
X27269Y-25448D01*
X27265Y-25456D01*
X27262Y-25462D01*
X27260Y-25466D01*
X27257Y-25475D01*
X27255Y-25484D01*
X27254Y-25490D01*
X27254Y-25491D01*
X27254Y-25491D01*
X27253Y-25487D01*
X27251Y-25476D01*
X27246Y-25463D01*
X27240Y-25451D01*
X27228Y-25435D01*
X27213Y-25422D01*
X27196Y-25411D01*
X27176Y-25405D01*
X27156Y-25403D01*
X27137Y-25404D01*
X27118Y-25410D01*
X27101Y-25419D01*
X27085Y-25433D01*
X27077Y-25441D01*
X27070Y-25452D01*
X27064Y-25465D01*
X27060Y-25475D01*
X27057Y-25495D01*
X27058Y-25514D01*
X27062Y-25532D01*
X27069Y-25550D01*
X27080Y-25565D01*
X27094Y-25578D01*
X27110Y-25589D01*
X27128Y-25596D01*
X27148Y-25599D01*
X27149Y-25599D01*
X27170Y-25599D01*
X27188Y-25594D01*
X27206Y-25585D01*
X27213Y-25581D01*
X27226Y-25569D01*
X27237Y-25556D01*
X27246Y-25541D01*
X27248Y-25535D01*
X27250Y-25527D01*
X27252Y-25518D01*
X27253Y-25512D01*
X27253Y-25508D01*
X27254Y-25512D01*
X27254Y-25515D01*
X27256Y-25524D01*
X27259Y-25534D01*
X27262Y-25542D01*
X27267Y-25551D01*
X27279Y-25567D01*
X27294Y-25580D01*
X27311Y-25591D01*
X27331Y-25597D01*
X27334Y-25598D01*
X27348Y-25599D01*
X27362Y-25599D01*
X27375Y-25597D01*
X27388Y-25593D01*
X27406Y-25583D01*
X27423Y-25570D01*
X27424Y-25569D01*
X27435Y-25555D01*
X27443Y-25538D01*
X27448Y-25521D01*
X27449Y-25521D01*
X27450Y-25516D01*
X27450Y-25514D01*
X27450Y-25515D01*
X27451Y-25520D01*
X27451Y-25521D01*
X27454Y-25531D01*
X27459Y-25542D01*
X27464Y-25553D01*
X27473Y-25565D01*
X27488Y-25579D01*
X27505Y-25590D01*
X27525Y-25597D01*
X27528Y-25598D01*
X27541Y-25599D01*
X27556Y-25599D01*
X27568Y-25598D01*
X27579Y-25594D01*
X27598Y-25586D01*
X27614Y-25574D01*
X27628Y-25559D01*
X27638Y-25542D01*
X27640Y-25536D01*
X27643Y-25527D01*
X27645Y-25518D01*
X27646Y-25512D01*
X27646Y-25511D01*
X27646Y-25511D01*
X27647Y-25515D01*
X27647Y-25515D01*
X27650Y-25528D01*
X27655Y-25541D01*
X27661Y-25552D01*
X27663Y-25556D01*
X27676Y-25571D01*
X27692Y-25584D01*
X27709Y-25593D01*
X27727Y-25598D01*
X27747Y-25599D01*
X27747Y-25599D01*
G37*
G36*
X26952Y-25403D02*
X26964Y-25402D01*
X26975Y-25401D01*
X26989Y-25398D01*
X27007Y-25390D01*
X27023Y-25378D01*
X27037Y-25363D01*
X27047Y-25346D01*
X27054Y-25328D01*
X27057Y-25308D01*
X27055Y-25288D01*
X27050Y-25269D01*
X27041Y-25251D01*
X27029Y-25236D01*
X27013Y-25222D01*
X27008Y-25219D01*
X26989Y-25211D01*
X26969Y-25206D01*
X26949Y-25206D01*
X26929Y-25210D01*
X26913Y-25217D01*
X26896Y-25228D01*
X26881Y-25243D01*
X26870Y-25260D01*
X26863Y-25280D01*
X26861Y-25290D01*
X26860Y-25303D01*
X26860Y-25315D01*
X26862Y-25326D01*
X26863Y-25330D01*
X26871Y-25350D01*
X26882Y-25367D01*
X26897Y-25381D01*
X26915Y-25393D01*
X26924Y-25396D01*
X26935Y-25400D01*
X26945Y-25402D01*
X26952Y-25403D01*
X26952Y-25403D01*
G37*
G36*
X27944Y-25403D02*
X27964Y-25400D01*
X27984Y-25393D01*
X28002Y-25382D01*
X28006Y-25379D01*
X28019Y-25365D01*
X28030Y-25348D01*
X28037Y-25328D01*
X28039Y-25318D01*
X28040Y-25306D01*
X28040Y-25293D01*
X28038Y-25283D01*
X28037Y-25278D01*
X28029Y-25258D01*
X28018Y-25242D01*
X28003Y-25227D01*
X27986Y-25217D01*
X27968Y-25209D01*
X27947Y-25206D01*
X27940Y-25206D01*
X27920Y-25208D01*
X27901Y-25214D01*
X27885Y-25224D01*
X27870Y-25237D01*
X27858Y-25252D01*
X27850Y-25269D01*
X27845Y-25288D01*
X27844Y-25309D01*
X27845Y-25321D01*
X27847Y-25331D01*
X27851Y-25343D01*
X27859Y-25358D01*
X27872Y-25373D01*
X27887Y-25386D01*
X27905Y-25396D01*
X27924Y-25401D01*
X27944Y-25403D01*
X27944Y-25403D01*
G37*
G36*
X26756Y-25205D02*
X26770Y-25205D01*
X26782Y-25204D01*
X26796Y-25200D01*
X26814Y-25190D01*
X26831Y-25177D01*
X26841Y-25165D01*
X26851Y-25148D01*
X26858Y-25128D01*
X26859Y-25121D01*
X26860Y-25109D01*
X26859Y-25097D01*
X26858Y-25087D01*
X26856Y-25081D01*
X26849Y-25062D01*
X26837Y-25045D01*
X26823Y-25030D01*
X26805Y-25019D01*
X26798Y-25016D01*
X26786Y-25012D01*
X26773Y-25010D01*
X26758Y-25010D01*
X26749Y-25010D01*
X26738Y-25012D01*
X26728Y-25014D01*
X26718Y-25019D01*
X26711Y-25023D01*
X26695Y-25035D01*
X26681Y-25050D01*
X26671Y-25068D01*
X26665Y-25088D01*
X26664Y-25093D01*
X26663Y-25104D01*
X26663Y-25116D01*
X26665Y-25127D01*
X26666Y-25134D01*
X26674Y-25153D01*
X26685Y-25170D01*
X26700Y-25184D01*
X26717Y-25195D01*
X26737Y-25203D01*
X26743Y-25204D01*
X26756Y-25205D01*
X26756Y-25205D01*
G37*
G36*
X27546Y-25206D02*
X27565Y-25204D01*
X27584Y-25199D01*
X27595Y-25194D01*
X27612Y-25182D01*
X27626Y-25168D01*
X27636Y-25150D01*
X27643Y-25131D01*
X27644Y-25127D01*
X27647Y-25111D01*
X27646Y-25096D01*
X27642Y-25079D01*
X27634Y-25060D01*
X27623Y-25043D01*
X27608Y-25029D01*
X27590Y-25019D01*
X27570Y-25011D01*
X27558Y-25008D01*
X27564Y-25008D01*
X27566Y-25007D01*
X27580Y-25004D01*
X27595Y-24997D01*
X27608Y-24988D01*
X27611Y-24986D01*
X27625Y-24972D01*
X27636Y-24955D01*
X27643Y-24937D01*
X27646Y-24918D01*
X27646Y-24899D01*
X27641Y-24880D01*
X27633Y-24861D01*
X27632Y-24861D01*
X27620Y-24844D01*
X27605Y-24831D01*
X27589Y-24822D01*
X27571Y-24816D01*
X27552Y-24813D01*
X27533Y-24814D01*
X27514Y-24819D01*
X27496Y-24828D01*
X27480Y-24840D01*
X27472Y-24849D01*
X27462Y-24864D01*
X27455Y-24879D01*
X27451Y-24894D01*
X27450Y-24897D01*
X27450Y-24899D01*
X27450Y-24898D01*
X27449Y-24894D01*
X27446Y-24880D01*
X27440Y-24866D01*
X27431Y-24853D01*
X27426Y-24847D01*
X27412Y-24833D01*
X27394Y-24823D01*
X27376Y-24816D01*
X27356Y-24813D01*
X27336Y-24814D01*
X27323Y-24817D01*
X27304Y-24825D01*
X27288Y-24837D01*
X27274Y-24851D01*
X27263Y-24868D01*
X27256Y-24888D01*
X27255Y-24898D01*
X27254Y-24917D01*
X27257Y-24937D01*
X27264Y-24955D01*
X27275Y-24972D01*
X27290Y-24986D01*
X27307Y-24998D01*
X27315Y-25001D01*
X27324Y-25005D01*
X27332Y-25007D01*
X27339Y-25008D01*
X27340Y-25008D01*
X27339Y-25009D01*
X27335Y-25010D01*
X27325Y-25013D01*
X27312Y-25017D01*
X27301Y-25023D01*
X27295Y-25027D01*
X27282Y-25039D01*
X27270Y-25053D01*
X27262Y-25068D01*
X27256Y-25084D01*
X27254Y-25102D01*
X27254Y-25119D01*
X27255Y-25122D01*
X27260Y-25143D01*
X27269Y-25161D01*
X27283Y-25177D01*
X27294Y-25187D01*
X27311Y-25197D01*
X27331Y-25204D01*
X27338Y-25205D01*
X27349Y-25205D01*
X27360Y-25205D01*
X27371Y-25204D01*
X27379Y-25202D01*
X27385Y-25200D01*
X27404Y-25191D01*
X27421Y-25178D01*
X27434Y-25162D01*
X27439Y-25154D01*
X27445Y-25141D01*
X27448Y-25128D01*
X27449Y-25127D01*
X27450Y-25122D01*
X27450Y-25120D01*
X27450Y-25120D01*
X27450Y-25094D01*
X27450Y-25094D01*
X27450Y-25092D01*
X27448Y-25087D01*
X27448Y-25086D01*
X27442Y-25068D01*
X27433Y-25052D01*
X27420Y-25037D01*
X27405Y-25025D01*
X27389Y-25016D01*
X27388Y-25016D01*
X27379Y-25013D01*
X27371Y-25011D01*
X27362Y-25009D01*
X27370Y-25007D01*
X27382Y-25004D01*
X27400Y-24997D01*
X27416Y-24985D01*
X27429Y-24971D01*
X27440Y-24955D01*
X27444Y-24947D01*
X27447Y-24937D01*
X27449Y-24928D01*
X27450Y-24925D01*
X27450Y-24923D01*
X27450Y-24924D01*
X27451Y-24928D01*
X27453Y-24936D01*
X27456Y-24946D01*
X27460Y-24955D01*
X27466Y-24966D01*
X27479Y-24981D01*
X27494Y-24993D01*
X27512Y-25002D01*
X27530Y-25007D01*
X27539Y-25009D01*
X27530Y-25011D01*
X27528Y-25011D01*
X27520Y-25013D01*
X27511Y-25016D01*
X27510Y-25017D01*
X27493Y-25026D01*
X27478Y-25038D01*
X27466Y-25053D01*
X27457Y-25069D01*
X27452Y-25087D01*
X27451Y-25088D01*
X27450Y-25092D01*
X27450Y-25094D01*
X27450Y-25120D01*
X27450Y-25120D01*
X27450Y-25123D01*
X27452Y-25128D01*
X27455Y-25141D01*
X27463Y-25158D01*
X27475Y-25174D01*
X27490Y-25187D01*
X27507Y-25197D01*
X27507Y-25197D01*
X27526Y-25203D01*
X27546Y-25206D01*
X27546Y-25206D01*
G37*
G36*
X28131Y-25205D02*
X28147Y-25205D01*
X28162Y-25203D01*
X28171Y-25200D01*
X28190Y-25192D01*
X28206Y-25179D01*
X28219Y-25165D01*
X28229Y-25147D01*
X28235Y-25128D01*
X28237Y-25107D01*
X28237Y-25099D01*
X28233Y-25079D01*
X28225Y-25060D01*
X28213Y-25042D01*
X28209Y-25039D01*
X28195Y-25027D01*
X28179Y-25018D01*
X28162Y-25012D01*
X28161Y-25011D01*
X28146Y-25009D01*
X28130Y-25009D01*
X28116Y-25011D01*
X28110Y-25013D01*
X28092Y-25021D01*
X28075Y-25032D01*
X28062Y-25046D01*
X28051Y-25062D01*
X28044Y-25080D01*
X28040Y-25099D01*
X28041Y-25119D01*
X28045Y-25139D01*
X28052Y-25154D01*
X28063Y-25170D01*
X28078Y-25185D01*
X28095Y-25195D01*
X28114Y-25203D01*
X28116Y-25203D01*
X28131Y-25205D01*
X28131Y-25205D01*
G37*
G36*
X27158Y-24616D02*
X27178Y-24614D01*
X27197Y-24607D01*
X27206Y-24602D01*
X27214Y-24596D01*
X27224Y-24588D01*
X27234Y-24577D01*
X27244Y-24560D01*
X27251Y-24541D01*
X27252Y-24536D01*
X27253Y-24523D01*
X27253Y-24509D01*
X27252Y-24497D01*
X27246Y-24481D01*
X27237Y-24463D01*
X27225Y-24449D01*
X27223Y-24446D01*
X27214Y-24439D01*
X27204Y-24432D01*
X27194Y-24427D01*
X27190Y-24426D01*
X27182Y-24423D01*
X27174Y-24421D01*
X27168Y-24420D01*
X27165Y-24420D01*
X27169Y-24419D01*
X27173Y-24418D01*
X27180Y-24416D01*
X27187Y-24414D01*
X27202Y-24407D01*
X27216Y-24398D01*
X27228Y-24388D01*
X27230Y-24385D01*
X27241Y-24368D01*
X27249Y-24350D01*
X27253Y-24330D01*
X27253Y-24310D01*
X27253Y-24306D01*
X27247Y-24286D01*
X27238Y-24268D01*
X27224Y-24251D01*
X27212Y-24241D01*
X27195Y-24231D01*
X27176Y-24224D01*
X27172Y-24224D01*
X27159Y-24223D01*
X27145Y-24223D01*
X27133Y-24225D01*
X27121Y-24228D01*
X27103Y-24237D01*
X27088Y-24249D01*
X27075Y-24264D01*
X27065Y-24281D01*
X27059Y-24300D01*
X27058Y-24302D01*
X27057Y-24307D01*
X27056Y-24309D01*
X27056Y-24307D01*
X27055Y-24303D01*
X27053Y-24295D01*
X27050Y-24286D01*
X27047Y-24278D01*
X27044Y-24272D01*
X27032Y-24255D01*
X27017Y-24241D01*
X26999Y-24231D01*
X26980Y-24225D01*
X26959Y-24223D01*
X26943Y-24224D01*
X26924Y-24228D01*
X26907Y-24237D01*
X26897Y-24244D01*
X26882Y-24258D01*
X26871Y-24275D01*
X26864Y-24293D01*
X26860Y-24312D01*
X26860Y-24332D01*
X26865Y-24351D01*
X26873Y-24370D01*
X26885Y-24386D01*
X26900Y-24400D01*
X26917Y-24410D01*
X26937Y-24417D01*
X26949Y-24420D01*
X26942Y-24421D01*
X26938Y-24421D01*
X26922Y-24426D01*
X26907Y-24434D01*
X26892Y-24445D01*
X26881Y-24457D01*
X26874Y-24467D01*
X26867Y-24481D01*
X26863Y-24494D01*
X26861Y-24504D01*
X26860Y-24516D01*
X26860Y-24529D01*
X26862Y-24539D01*
X26865Y-24551D01*
X26875Y-24570D01*
X26887Y-24586D01*
X26903Y-24599D01*
X26921Y-24609D01*
X26942Y-24615D01*
X26947Y-24616D01*
X26959Y-24616D01*
X26972Y-24615D01*
X26983Y-24613D01*
X26991Y-24611D01*
X27009Y-24602D01*
X27026Y-24590D01*
X27039Y-24575D01*
X27049Y-24557D01*
X27055Y-24537D01*
X27055Y-24536D01*
X27056Y-24531D01*
X27057Y-24532D01*
X27057Y-24505D01*
X27056Y-24504D01*
X27055Y-24500D01*
X27055Y-24499D01*
X27052Y-24486D01*
X27045Y-24472D01*
X27037Y-24459D01*
X27031Y-24452D01*
X27016Y-24438D01*
X26998Y-24428D01*
X26978Y-24421D01*
X26969Y-24419D01*
X26975Y-24418D01*
X26981Y-24417D01*
X26988Y-24415D01*
X26992Y-24414D01*
X27010Y-24405D01*
X27025Y-24393D01*
X27039Y-24378D01*
X27048Y-24361D01*
X27055Y-24342D01*
X27056Y-24337D01*
X27057Y-24334D01*
X27058Y-24336D01*
X27059Y-24342D01*
X27059Y-24342D01*
X27062Y-24353D01*
X27067Y-24365D01*
X27073Y-24375D01*
X27078Y-24382D01*
X27087Y-24391D01*
X27097Y-24400D01*
X27106Y-24406D01*
X27107Y-24407D01*
X27122Y-24413D01*
X27138Y-24418D01*
X27145Y-24419D01*
X27137Y-24421D01*
X27120Y-24426D01*
X27102Y-24435D01*
X27086Y-24447D01*
X27074Y-24462D01*
X27071Y-24467D01*
X27066Y-24477D01*
X27062Y-24487D01*
X27059Y-24496D01*
X27058Y-24502D01*
X27058Y-24502D01*
X27057Y-24505D01*
X27057Y-24532D01*
X27057Y-24532D01*
X27058Y-24536D01*
X27060Y-24542D01*
X27061Y-24548D01*
X27065Y-24558D01*
X27075Y-24575D01*
X27088Y-24590D01*
X27103Y-24601D01*
X27121Y-24610D01*
X27139Y-24615D01*
X27158Y-24616D01*
X27158Y-24616D01*
G37*
G36*
X27750Y-24616D02*
X27769Y-24613D01*
X27788Y-24606D01*
X27804Y-24596D01*
X27819Y-24583D01*
X27830Y-24567D01*
X27839Y-24548D01*
X27840Y-24542D01*
X27842Y-24536D01*
X27842Y-24535D01*
X27843Y-24531D01*
X27843Y-24531D01*
X27843Y-24504D01*
X27842Y-24501D01*
X27840Y-24494D01*
X27837Y-24483D01*
X27828Y-24465D01*
X27816Y-24450D01*
X27801Y-24437D01*
X27784Y-24427D01*
X27765Y-24421D01*
X27755Y-24419D01*
X27762Y-24418D01*
X27763Y-24418D01*
X27779Y-24413D01*
X27794Y-24406D01*
X27800Y-24402D01*
X27810Y-24394D01*
X27820Y-24385D01*
X27827Y-24375D01*
X27832Y-24366D01*
X27838Y-24354D01*
X27841Y-24342D01*
X27842Y-24337D01*
X27843Y-24334D01*
X27844Y-24336D01*
X27845Y-24342D01*
X27849Y-24355D01*
X27858Y-24373D01*
X27871Y-24389D01*
X27886Y-24402D01*
X27904Y-24412D01*
X27925Y-24418D01*
X27931Y-24419D01*
X27922Y-24421D01*
X27913Y-24424D01*
X27894Y-24432D01*
X27877Y-24444D01*
X27863Y-24459D01*
X27859Y-24465D01*
X27854Y-24474D01*
X27849Y-24484D01*
X27847Y-24491D01*
X27845Y-24499D01*
X27845Y-24499D01*
X27844Y-24503D01*
X27843Y-24504D01*
X27843Y-24531D01*
X27844Y-24532D01*
X27845Y-24537D01*
X27847Y-24544D01*
X27852Y-24559D01*
X27860Y-24573D01*
X27866Y-24580D01*
X27880Y-24595D01*
X27898Y-24606D01*
X27918Y-24613D01*
X27926Y-24615D01*
X27940Y-24616D01*
X27954Y-24615D01*
X27966Y-24613D01*
X27967Y-24613D01*
X27987Y-24605D01*
X28004Y-24594D01*
X28019Y-24579D01*
X28030Y-24562D01*
X28037Y-24542D01*
X28039Y-24533D01*
X28040Y-24519D01*
X28039Y-24506D01*
X28037Y-24494D01*
X28034Y-24483D01*
X28027Y-24469D01*
X28019Y-24457D01*
X28010Y-24447D01*
X27998Y-24437D01*
X27985Y-24429D01*
X27981Y-24427D01*
X27971Y-24424D01*
X27962Y-24421D01*
X27955Y-24420D01*
X27954Y-24420D01*
X27957Y-24419D01*
X27962Y-24417D01*
X27974Y-24414D01*
X27987Y-24408D01*
X27997Y-24402D01*
X28000Y-24401D01*
X28012Y-24389D01*
X28024Y-24375D01*
X28032Y-24361D01*
X28035Y-24353D01*
X28039Y-24334D01*
X28040Y-24313D01*
X28036Y-24294D01*
X28035Y-24289D01*
X28027Y-24271D01*
X28015Y-24255D01*
X28000Y-24241D01*
X27982Y-24231D01*
X27963Y-24224D01*
X27960Y-24224D01*
X27946Y-24223D01*
X27932Y-24223D01*
X27919Y-24225D01*
X27916Y-24226D01*
X27896Y-24233D01*
X27879Y-24245D01*
X27865Y-24260D01*
X27853Y-24278D01*
X27851Y-24283D01*
X27848Y-24292D01*
X27845Y-24301D01*
X27844Y-24307D01*
X27844Y-24308D01*
X27844Y-24309D01*
X27842Y-24306D01*
X27841Y-24301D01*
X27838Y-24287D01*
X27829Y-24270D01*
X27817Y-24254D01*
X27803Y-24241D01*
X27785Y-24231D01*
X27785Y-24231D01*
X27767Y-24225D01*
X27747Y-24223D01*
X27727Y-24224D01*
X27709Y-24229D01*
X27698Y-24234D01*
X27681Y-24246D01*
X27667Y-24261D01*
X27656Y-24278D01*
X27649Y-24297D01*
X27648Y-24301D01*
X27646Y-24317D01*
X27647Y-24332D01*
X27651Y-24350D01*
X27659Y-24369D01*
X27671Y-24386D01*
X27686Y-24400D01*
X27704Y-24410D01*
X27724Y-24417D01*
X27728Y-24418D01*
X27732Y-24420D01*
X27732Y-24420D01*
X27726Y-24421D01*
X27714Y-24424D01*
X27702Y-24429D01*
X27691Y-24436D01*
X27680Y-24444D01*
X27666Y-24459D01*
X27655Y-24477D01*
X27654Y-24480D01*
X27648Y-24499D01*
X27646Y-24519D01*
X27649Y-24540D01*
X27655Y-24559D01*
X27660Y-24568D01*
X27666Y-24577D01*
X27674Y-24586D01*
X27675Y-24587D01*
X27691Y-24600D01*
X27708Y-24609D01*
X27728Y-24615D01*
X27730Y-24615D01*
X27750Y-24616D01*
X27750Y-24616D01*
G37*
G54D13*
X18968Y-26055D02*
X19968Y-26055D01*
X18968Y-27055D02*
X19968Y-27055D01*
X19968Y-27055D02*
X19968Y-26055D01*
X18968Y-26055D02*
X18968Y-27055D01*
X18181Y-24283D02*
X19181Y-24283D01*
X18181Y-25283D02*
X19181Y-25283D01*
X19181Y-25283D02*
X19181Y-24283D01*
X18181Y-24283D02*
X18181Y-25283D01*
G54D12*
G36*
X31320Y-22754D02*
X31340Y-22752D01*
X31358Y-22746D01*
X31366Y-22742D01*
X31383Y-22730D01*
X31396Y-22716D01*
X31406Y-22699D01*
X31413Y-22681D01*
X31416Y-22662D01*
X31415Y-22642D01*
X31411Y-22623D01*
X31402Y-22605D01*
X31396Y-22597D01*
X31388Y-22588D01*
X31379Y-22579D01*
X31371Y-22573D01*
X31368Y-22571D01*
X31351Y-22563D01*
X31333Y-22559D01*
X31314Y-22558D01*
X31307Y-22559D01*
X31296Y-22560D01*
X31287Y-22563D01*
X31276Y-22567D01*
X31265Y-22573D01*
X31249Y-22586D01*
X31236Y-22602D01*
X31226Y-22620D01*
X31223Y-22628D01*
X31221Y-22638D01*
X31220Y-22645D01*
X31220Y-22646D01*
X31219Y-22647D01*
X31219Y-22643D01*
X31219Y-22642D01*
X31216Y-22629D01*
X31211Y-22616D01*
X31205Y-22605D01*
X31194Y-22590D01*
X31179Y-22577D01*
X31162Y-22566D01*
X31142Y-22560D01*
X31122Y-22558D01*
X31116Y-22558D01*
X31101Y-22560D01*
X31086Y-22564D01*
X31083Y-22565D01*
X31066Y-22574D01*
X31051Y-22587D01*
X31039Y-22602D01*
X31030Y-22618D01*
X31025Y-22636D01*
X31024Y-22636D01*
X31023Y-22641D01*
X31023Y-22643D01*
X31023Y-22643D01*
X31023Y-22641D01*
X31021Y-22636D01*
X31021Y-22634D01*
X31015Y-22617D01*
X31006Y-22600D01*
X30993Y-22585D01*
X30981Y-22575D01*
X30964Y-22566D01*
X30945Y-22560D01*
X30924Y-22558D01*
X30910Y-22559D01*
X30890Y-22564D01*
X30872Y-22573D01*
X30856Y-22585D01*
X30844Y-22601D01*
X30842Y-22603D01*
X30838Y-22611D01*
X30835Y-22617D01*
X30833Y-22621D01*
X30830Y-22630D01*
X30828Y-22639D01*
X30827Y-22645D01*
X30827Y-22646D01*
X30827Y-22646D01*
X30826Y-22642D01*
X30824Y-22631D01*
X30819Y-22618D01*
X30813Y-22606D01*
X30801Y-22590D01*
X30786Y-22577D01*
X30769Y-22566D01*
X30749Y-22560D01*
X30729Y-22558D01*
X30710Y-22559D01*
X30691Y-22565D01*
X30674Y-22574D01*
X30658Y-22588D01*
X30650Y-22596D01*
X30643Y-22607D01*
X30637Y-22620D01*
X30633Y-22630D01*
X30630Y-22650D01*
X30631Y-22669D01*
X30635Y-22687D01*
X30642Y-22705D01*
X30653Y-22720D01*
X30667Y-22733D01*
X30683Y-22744D01*
X30701Y-22751D01*
X30721Y-22754D01*
X30722Y-22754D01*
X30743Y-22754D01*
X30761Y-22749D01*
X30779Y-22740D01*
X30786Y-22736D01*
X30799Y-22724D01*
X30810Y-22711D01*
X30819Y-22696D01*
X30821Y-22690D01*
X30823Y-22682D01*
X30825Y-22673D01*
X30826Y-22667D01*
X30826Y-22663D01*
X30827Y-22667D01*
X30827Y-22670D01*
X30829Y-22679D01*
X30832Y-22689D01*
X30835Y-22697D01*
X30840Y-22706D01*
X30852Y-22722D01*
X30867Y-22735D01*
X30884Y-22746D01*
X30904Y-22752D01*
X30907Y-22753D01*
X30921Y-22754D01*
X30935Y-22754D01*
X30948Y-22752D01*
X30961Y-22748D01*
X30979Y-22738D01*
X30996Y-22725D01*
X30997Y-22724D01*
X31008Y-22710D01*
X31016Y-22693D01*
X31021Y-22676D01*
X31022Y-22676D01*
X31023Y-22671D01*
X31023Y-22669D01*
X31023Y-22670D01*
X31024Y-22675D01*
X31024Y-22676D01*
X31027Y-22686D01*
X31032Y-22697D01*
X31037Y-22708D01*
X31046Y-22720D01*
X31061Y-22734D01*
X31078Y-22745D01*
X31098Y-22752D01*
X31101Y-22753D01*
X31114Y-22754D01*
X31129Y-22754D01*
X31141Y-22753D01*
X31152Y-22749D01*
X31171Y-22741D01*
X31187Y-22729D01*
X31201Y-22714D01*
X31211Y-22697D01*
X31213Y-22691D01*
X31216Y-22682D01*
X31218Y-22673D01*
X31219Y-22667D01*
X31219Y-22666D01*
X31219Y-22666D01*
X31220Y-22670D01*
X31220Y-22670D01*
X31223Y-22683D01*
X31228Y-22696D01*
X31234Y-22707D01*
X31236Y-22711D01*
X31249Y-22726D01*
X31265Y-22739D01*
X31282Y-22748D01*
X31300Y-22753D01*
X31320Y-22754D01*
X31320Y-22754D01*
G37*
G36*
X30525Y-22558D02*
X30537Y-22557D01*
X30548Y-22556D01*
X30562Y-22553D01*
X30580Y-22545D01*
X30596Y-22533D01*
X30610Y-22518D01*
X30620Y-22501D01*
X30627Y-22483D01*
X30630Y-22463D01*
X30628Y-22443D01*
X30623Y-22424D01*
X30614Y-22406D01*
X30602Y-22391D01*
X30586Y-22377D01*
X30581Y-22374D01*
X30562Y-22366D01*
X30542Y-22361D01*
X30522Y-22361D01*
X30502Y-22365D01*
X30486Y-22372D01*
X30469Y-22383D01*
X30454Y-22398D01*
X30443Y-22415D01*
X30436Y-22435D01*
X30434Y-22445D01*
X30433Y-22458D01*
X30433Y-22470D01*
X30435Y-22481D01*
X30436Y-22485D01*
X30444Y-22505D01*
X30455Y-22522D01*
X30470Y-22536D01*
X30488Y-22548D01*
X30497Y-22551D01*
X30508Y-22555D01*
X30518Y-22557D01*
X30525Y-22558D01*
X30525Y-22558D01*
G37*
G36*
X31517Y-22558D02*
X31537Y-22555D01*
X31557Y-22548D01*
X31575Y-22537D01*
X31579Y-22534D01*
X31592Y-22520D01*
X31603Y-22503D01*
X31610Y-22483D01*
X31612Y-22473D01*
X31613Y-22461D01*
X31613Y-22448D01*
X31611Y-22438D01*
X31610Y-22433D01*
X31602Y-22413D01*
X31591Y-22397D01*
X31576Y-22382D01*
X31559Y-22372D01*
X31541Y-22364D01*
X31520Y-22361D01*
X31513Y-22361D01*
X31493Y-22363D01*
X31474Y-22369D01*
X31458Y-22379D01*
X31443Y-22392D01*
X31431Y-22407D01*
X31423Y-22424D01*
X31418Y-22443D01*
X31417Y-22464D01*
X31418Y-22476D01*
X31420Y-22486D01*
X31424Y-22498D01*
X31432Y-22513D01*
X31445Y-22528D01*
X31460Y-22541D01*
X31478Y-22551D01*
X31497Y-22556D01*
X31517Y-22558D01*
X31517Y-22558D01*
G37*
G36*
X30329Y-22360D02*
X30343Y-22360D01*
X30355Y-22359D01*
X30369Y-22355D01*
X30387Y-22345D01*
X30404Y-22332D01*
X30414Y-22320D01*
X30424Y-22303D01*
X30431Y-22283D01*
X30432Y-22276D01*
X30433Y-22264D01*
X30432Y-22252D01*
X30431Y-22242D01*
X30429Y-22236D01*
X30422Y-22217D01*
X30410Y-22200D01*
X30396Y-22185D01*
X30378Y-22174D01*
X30371Y-22171D01*
X30359Y-22167D01*
X30346Y-22165D01*
X30331Y-22165D01*
X30322Y-22165D01*
X30311Y-22167D01*
X30301Y-22169D01*
X30291Y-22174D01*
X30284Y-22178D01*
X30268Y-22190D01*
X30254Y-22205D01*
X30244Y-22223D01*
X30238Y-22243D01*
X30237Y-22248D01*
X30236Y-22259D01*
X30236Y-22271D01*
X30238Y-22282D01*
X30239Y-22289D01*
X30247Y-22308D01*
X30258Y-22325D01*
X30273Y-22339D01*
X30290Y-22350D01*
X30310Y-22358D01*
X30316Y-22359D01*
X30329Y-22360D01*
X30329Y-22360D01*
G37*
G36*
X31119Y-22361D02*
X31138Y-22359D01*
X31157Y-22354D01*
X31168Y-22349D01*
X31185Y-22337D01*
X31199Y-22323D01*
X31209Y-22305D01*
X31216Y-22286D01*
X31217Y-22282D01*
X31220Y-22266D01*
X31219Y-22251D01*
X31215Y-22234D01*
X31207Y-22215D01*
X31196Y-22198D01*
X31181Y-22184D01*
X31163Y-22174D01*
X31143Y-22166D01*
X31131Y-22163D01*
X31137Y-22163D01*
X31139Y-22162D01*
X31153Y-22159D01*
X31168Y-22152D01*
X31181Y-22143D01*
X31184Y-22141D01*
X31198Y-22127D01*
X31209Y-22110D01*
X31216Y-22092D01*
X31219Y-22073D01*
X31219Y-22054D01*
X31214Y-22035D01*
X31206Y-22016D01*
X31205Y-22016D01*
X31193Y-21999D01*
X31178Y-21986D01*
X31162Y-21977D01*
X31144Y-21971D01*
X31125Y-21968D01*
X31106Y-21969D01*
X31087Y-21974D01*
X31069Y-21983D01*
X31053Y-21995D01*
X31045Y-22004D01*
X31035Y-22019D01*
X31028Y-22034D01*
X31024Y-22049D01*
X31023Y-22052D01*
X31023Y-22054D01*
X31023Y-22053D01*
X31022Y-22049D01*
X31019Y-22035D01*
X31013Y-22021D01*
X31004Y-22008D01*
X30999Y-22002D01*
X30985Y-21988D01*
X30967Y-21978D01*
X30949Y-21971D01*
X30929Y-21968D01*
X30909Y-21969D01*
X30896Y-21972D01*
X30877Y-21980D01*
X30861Y-21992D01*
X30847Y-22006D01*
X30836Y-22023D01*
X30829Y-22043D01*
X30828Y-22053D01*
X30827Y-22072D01*
X30830Y-22092D01*
X30837Y-22110D01*
X30848Y-22127D01*
X30863Y-22141D01*
X30880Y-22153D01*
X30888Y-22156D01*
X30897Y-22160D01*
X30905Y-22162D01*
X30912Y-22163D01*
X30913Y-22163D01*
X30912Y-22164D01*
X30908Y-22165D01*
X30898Y-22168D01*
X30885Y-22172D01*
X30874Y-22178D01*
X30868Y-22182D01*
X30855Y-22194D01*
X30843Y-22208D01*
X30835Y-22223D01*
X30829Y-22239D01*
X30827Y-22257D01*
X30827Y-22274D01*
X30828Y-22277D01*
X30833Y-22298D01*
X30842Y-22316D01*
X30856Y-22332D01*
X30867Y-22342D01*
X30884Y-22352D01*
X30904Y-22359D01*
X30911Y-22360D01*
X30922Y-22360D01*
X30933Y-22360D01*
X30944Y-22359D01*
X30952Y-22357D01*
X30958Y-22355D01*
X30977Y-22346D01*
X30994Y-22333D01*
X31007Y-22317D01*
X31012Y-22309D01*
X31018Y-22296D01*
X31021Y-22283D01*
X31022Y-22282D01*
X31023Y-22277D01*
X31023Y-22275D01*
X31023Y-22275D01*
X31023Y-22249D01*
X31023Y-22249D01*
X31023Y-22247D01*
X31021Y-22242D01*
X31021Y-22241D01*
X31015Y-22223D01*
X31006Y-22207D01*
X30993Y-22192D01*
X30978Y-22180D01*
X30962Y-22171D01*
X30961Y-22171D01*
X30952Y-22168D01*
X30944Y-22166D01*
X30935Y-22164D01*
X30943Y-22162D01*
X30955Y-22159D01*
X30973Y-22152D01*
X30989Y-22140D01*
X31002Y-22126D01*
X31013Y-22110D01*
X31017Y-22102D01*
X31020Y-22092D01*
X31022Y-22083D01*
X31023Y-22080D01*
X31023Y-22078D01*
X31023Y-22079D01*
X31024Y-22083D01*
X31026Y-22091D01*
X31029Y-22101D01*
X31033Y-22110D01*
X31039Y-22121D01*
X31052Y-22136D01*
X31067Y-22148D01*
X31085Y-22157D01*
X31103Y-22162D01*
X31112Y-22164D01*
X31103Y-22166D01*
X31101Y-22166D01*
X31093Y-22168D01*
X31084Y-22171D01*
X31083Y-22172D01*
X31066Y-22181D01*
X31051Y-22193D01*
X31039Y-22208D01*
X31030Y-22224D01*
X31025Y-22242D01*
X31024Y-22243D01*
X31023Y-22247D01*
X31023Y-22249D01*
X31023Y-22275D01*
X31023Y-22275D01*
X31023Y-22278D01*
X31025Y-22283D01*
X31028Y-22296D01*
X31036Y-22313D01*
X31048Y-22329D01*
X31063Y-22342D01*
X31080Y-22352D01*
X31080Y-22352D01*
X31099Y-22358D01*
X31119Y-22361D01*
X31119Y-22361D01*
G37*
G36*
X31704Y-22360D02*
X31720Y-22360D01*
X31735Y-22358D01*
X31744Y-22355D01*
X31763Y-22347D01*
X31779Y-22334D01*
X31792Y-22320D01*
X31802Y-22302D01*
X31808Y-22283D01*
X31810Y-22262D01*
X31810Y-22254D01*
X31806Y-22234D01*
X31798Y-22215D01*
X31786Y-22197D01*
X31782Y-22194D01*
X31768Y-22182D01*
X31752Y-22173D01*
X31735Y-22167D01*
X31734Y-22166D01*
X31719Y-22164D01*
X31703Y-22164D01*
X31689Y-22166D01*
X31683Y-22168D01*
X31665Y-22176D01*
X31648Y-22187D01*
X31635Y-22201D01*
X31624Y-22217D01*
X31617Y-22235D01*
X31613Y-22254D01*
X31614Y-22274D01*
X31618Y-22294D01*
X31625Y-22309D01*
X31636Y-22325D01*
X31651Y-22340D01*
X31668Y-22350D01*
X31687Y-22358D01*
X31689Y-22358D01*
X31704Y-22360D01*
X31704Y-22360D01*
G37*
G36*
X30731Y-21771D02*
X30751Y-21769D01*
X30770Y-21762D01*
X30779Y-21757D01*
X30787Y-21751D01*
X30797Y-21743D01*
X30807Y-21732D01*
X30817Y-21715D01*
X30824Y-21696D01*
X30825Y-21691D01*
X30826Y-21678D01*
X30826Y-21664D01*
X30825Y-21652D01*
X30819Y-21636D01*
X30810Y-21618D01*
X30798Y-21604D01*
X30796Y-21601D01*
X30787Y-21594D01*
X30777Y-21587D01*
X30767Y-21582D01*
X30763Y-21581D01*
X30755Y-21578D01*
X30747Y-21576D01*
X30741Y-21575D01*
X30738Y-21575D01*
X30742Y-21574D01*
X30746Y-21573D01*
X30753Y-21571D01*
X30760Y-21569D01*
X30775Y-21562D01*
X30789Y-21553D01*
X30801Y-21543D01*
X30803Y-21540D01*
X30814Y-21523D01*
X30822Y-21505D01*
X30826Y-21485D01*
X30826Y-21465D01*
X30826Y-21461D01*
X30820Y-21441D01*
X30811Y-21423D01*
X30797Y-21406D01*
X30785Y-21396D01*
X30768Y-21386D01*
X30749Y-21379D01*
X30745Y-21379D01*
X30732Y-21378D01*
X30718Y-21378D01*
X30706Y-21380D01*
X30694Y-21383D01*
X30676Y-21392D01*
X30661Y-21404D01*
X30648Y-21419D01*
X30638Y-21436D01*
X30632Y-21455D01*
X30631Y-21457D01*
X30630Y-21462D01*
X30629Y-21464D01*
X30629Y-21462D01*
X30628Y-21458D01*
X30626Y-21450D01*
X30623Y-21441D01*
X30620Y-21433D01*
X30617Y-21427D01*
X30605Y-21410D01*
X30590Y-21396D01*
X30572Y-21386D01*
X30553Y-21380D01*
X30532Y-21378D01*
X30516Y-21379D01*
X30497Y-21383D01*
X30480Y-21392D01*
X30470Y-21399D01*
X30455Y-21413D01*
X30444Y-21430D01*
X30437Y-21448D01*
X30433Y-21467D01*
X30433Y-21487D01*
X30438Y-21506D01*
X30446Y-21525D01*
X30458Y-21541D01*
X30473Y-21555D01*
X30490Y-21565D01*
X30510Y-21572D01*
X30522Y-21575D01*
X30515Y-21576D01*
X30511Y-21576D01*
X30495Y-21581D01*
X30480Y-21589D01*
X30465Y-21600D01*
X30454Y-21612D01*
X30447Y-21622D01*
X30440Y-21636D01*
X30436Y-21649D01*
X30434Y-21659D01*
X30433Y-21671D01*
X30433Y-21684D01*
X30435Y-21694D01*
X30438Y-21706D01*
X30448Y-21725D01*
X30460Y-21741D01*
X30476Y-21754D01*
X30494Y-21764D01*
X30515Y-21770D01*
X30520Y-21771D01*
X30532Y-21771D01*
X30545Y-21770D01*
X30556Y-21768D01*
X30564Y-21766D01*
X30582Y-21757D01*
X30599Y-21745D01*
X30612Y-21730D01*
X30622Y-21712D01*
X30628Y-21692D01*
X30628Y-21691D01*
X30629Y-21686D01*
X30630Y-21687D01*
X30630Y-21660D01*
X30629Y-21659D01*
X30628Y-21655D01*
X30628Y-21654D01*
X30625Y-21641D01*
X30618Y-21627D01*
X30610Y-21614D01*
X30604Y-21607D01*
X30589Y-21593D01*
X30571Y-21583D01*
X30551Y-21576D01*
X30542Y-21574D01*
X30548Y-21573D01*
X30554Y-21572D01*
X30561Y-21570D01*
X30565Y-21569D01*
X30583Y-21560D01*
X30598Y-21548D01*
X30612Y-21533D01*
X30621Y-21516D01*
X30628Y-21497D01*
X30629Y-21492D01*
X30630Y-21489D01*
X30631Y-21491D01*
X30632Y-21497D01*
X30632Y-21497D01*
X30635Y-21508D01*
X30640Y-21520D01*
X30646Y-21530D01*
X30651Y-21537D01*
X30660Y-21546D01*
X30670Y-21555D01*
X30679Y-21561D01*
X30680Y-21562D01*
X30695Y-21568D01*
X30711Y-21573D01*
X30718Y-21574D01*
X30710Y-21576D01*
X30693Y-21581D01*
X30675Y-21590D01*
X30659Y-21602D01*
X30647Y-21617D01*
X30644Y-21622D01*
X30639Y-21632D01*
X30635Y-21642D01*
X30632Y-21651D01*
X30631Y-21657D01*
X30631Y-21657D01*
X30630Y-21660D01*
X30630Y-21687D01*
X30630Y-21687D01*
X30631Y-21691D01*
X30633Y-21697D01*
X30634Y-21703D01*
X30638Y-21713D01*
X30648Y-21730D01*
X30661Y-21745D01*
X30676Y-21756D01*
X30694Y-21765D01*
X30712Y-21770D01*
X30731Y-21771D01*
X30731Y-21771D01*
G37*
G36*
X31323Y-21771D02*
X31342Y-21768D01*
X31361Y-21761D01*
X31377Y-21751D01*
X31392Y-21738D01*
X31403Y-21722D01*
X31412Y-21703D01*
X31413Y-21697D01*
X31415Y-21691D01*
X31415Y-21690D01*
X31416Y-21686D01*
X31416Y-21686D01*
X31416Y-21659D01*
X31415Y-21656D01*
X31413Y-21649D01*
X31410Y-21638D01*
X31401Y-21620D01*
X31389Y-21605D01*
X31374Y-21592D01*
X31357Y-21582D01*
X31338Y-21576D01*
X31328Y-21574D01*
X31335Y-21573D01*
X31336Y-21573D01*
X31352Y-21568D01*
X31367Y-21561D01*
X31373Y-21557D01*
X31383Y-21549D01*
X31393Y-21540D01*
X31400Y-21530D01*
X31405Y-21521D01*
X31411Y-21509D01*
X31414Y-21497D01*
X31415Y-21492D01*
X31416Y-21489D01*
X31417Y-21491D01*
X31418Y-21497D01*
X31422Y-21510D01*
X31431Y-21528D01*
X31444Y-21544D01*
X31459Y-21557D01*
X31477Y-21567D01*
X31498Y-21573D01*
X31504Y-21574D01*
X31495Y-21576D01*
X31486Y-21579D01*
X31467Y-21587D01*
X31450Y-21599D01*
X31436Y-21614D01*
X31432Y-21620D01*
X31427Y-21629D01*
X31422Y-21639D01*
X31420Y-21646D01*
X31418Y-21654D01*
X31418Y-21654D01*
X31417Y-21658D01*
X31416Y-21659D01*
X31416Y-21686D01*
X31417Y-21687D01*
X31418Y-21692D01*
X31420Y-21699D01*
X31425Y-21714D01*
X31433Y-21728D01*
X31439Y-21735D01*
X31453Y-21750D01*
X31471Y-21761D01*
X31491Y-21768D01*
X31499Y-21770D01*
X31513Y-21771D01*
X31527Y-21770D01*
X31539Y-21768D01*
X31540Y-21768D01*
X31560Y-21760D01*
X31577Y-21749D01*
X31592Y-21734D01*
X31603Y-21717D01*
X31610Y-21697D01*
X31612Y-21688D01*
X31613Y-21674D01*
X31612Y-21661D01*
X31610Y-21649D01*
X31607Y-21638D01*
X31600Y-21624D01*
X31592Y-21612D01*
X31583Y-21602D01*
X31571Y-21592D01*
X31558Y-21584D01*
X31554Y-21582D01*
X31544Y-21579D01*
X31535Y-21576D01*
X31528Y-21575D01*
X31527Y-21575D01*
X31530Y-21574D01*
X31535Y-21572D01*
X31547Y-21569D01*
X31560Y-21563D01*
X31570Y-21557D01*
X31573Y-21556D01*
X31585Y-21544D01*
X31597Y-21530D01*
X31605Y-21516D01*
X31608Y-21508D01*
X31612Y-21489D01*
X31613Y-21468D01*
X31609Y-21449D01*
X31608Y-21444D01*
X31600Y-21426D01*
X31588Y-21410D01*
X31573Y-21396D01*
X31555Y-21386D01*
X31536Y-21379D01*
X31533Y-21379D01*
X31519Y-21378D01*
X31505Y-21378D01*
X31492Y-21380D01*
X31489Y-21381D01*
X31469Y-21388D01*
X31452Y-21400D01*
X31438Y-21415D01*
X31426Y-21433D01*
X31424Y-21438D01*
X31421Y-21447D01*
X31418Y-21456D01*
X31417Y-21462D01*
X31417Y-21463D01*
X31417Y-21464D01*
X31415Y-21461D01*
X31414Y-21456D01*
X31411Y-21442D01*
X31402Y-21425D01*
X31390Y-21409D01*
X31376Y-21396D01*
X31358Y-21386D01*
X31358Y-21386D01*
X31340Y-21380D01*
X31320Y-21378D01*
X31300Y-21379D01*
X31282Y-21384D01*
X31271Y-21389D01*
X31254Y-21401D01*
X31240Y-21416D01*
X31229Y-21433D01*
X31222Y-21452D01*
X31221Y-21456D01*
X31219Y-21472D01*
X31220Y-21487D01*
X31224Y-21505D01*
X31232Y-21524D01*
X31244Y-21541D01*
X31259Y-21555D01*
X31277Y-21565D01*
X31297Y-21572D01*
X31301Y-21573D01*
X31305Y-21575D01*
X31305Y-21575D01*
X31299Y-21576D01*
X31287Y-21579D01*
X31275Y-21584D01*
X31264Y-21591D01*
X31253Y-21599D01*
X31239Y-21614D01*
X31228Y-21632D01*
X31227Y-21635D01*
X31221Y-21654D01*
X31219Y-21674D01*
X31222Y-21695D01*
X31228Y-21714D01*
X31233Y-21723D01*
X31239Y-21732D01*
X31247Y-21741D01*
X31248Y-21742D01*
X31264Y-21755D01*
X31281Y-21764D01*
X31301Y-21770D01*
X31303Y-21770D01*
X31323Y-21771D01*
X31323Y-21771D01*
G37*
G36*
X19503Y-22773D02*
X19511Y-22769D01*
X19530Y-22757D01*
X19556Y-22740D01*
X19587Y-22719D01*
X19618Y-22698D01*
X19644Y-22681D01*
X19662Y-22669D01*
X19669Y-22665D01*
X19673Y-22666D01*
X19688Y-22674D01*
X19710Y-22685D01*
X19722Y-22691D01*
X19742Y-22700D01*
X19752Y-22702D01*
X19753Y-22699D01*
X19761Y-22684D01*
X19772Y-22658D01*
X19787Y-22624D01*
X19804Y-22584D01*
X19822Y-22541D01*
X19840Y-22497D01*
X19858Y-22455D01*
X19873Y-22417D01*
X19886Y-22387D01*
X19894Y-22365D01*
X19897Y-22356D01*
X19896Y-22354D01*
X19886Y-22345D01*
X19869Y-22332D01*
X19831Y-22301D01*
X19795Y-22255D01*
X19772Y-22203D01*
X19765Y-22145D01*
X19771Y-22092D01*
X19792Y-22041D01*
X19828Y-21994D01*
X19872Y-21960D01*
X19923Y-21938D01*
X19980Y-21931D01*
X20035Y-21937D01*
X20087Y-21958D01*
X20134Y-21993D01*
X20153Y-22016D01*
X20180Y-22063D01*
X20196Y-22113D01*
X20197Y-22125D01*
X20195Y-22181D01*
X20179Y-22234D01*
X20150Y-22281D01*
X20109Y-22320D01*
X20104Y-22324D01*
X20085Y-22338D01*
X20073Y-22347D01*
X20063Y-22355D01*
X20133Y-22525D01*
X20144Y-22552D01*
X20164Y-22598D01*
X20181Y-22638D01*
X20194Y-22670D01*
X20204Y-22691D01*
X20208Y-22700D01*
X20208Y-22700D01*
X20214Y-22701D01*
X20227Y-22696D01*
X20251Y-22685D01*
X20267Y-22677D01*
X20285Y-22668D01*
X20293Y-22665D01*
X20300Y-22669D01*
X20317Y-22680D01*
X20342Y-22697D01*
X20372Y-22717D01*
X20401Y-22737D01*
X20428Y-22755D01*
X20447Y-22767D01*
X20457Y-22772D01*
X20458Y-22772D01*
X20466Y-22767D01*
X20482Y-22755D01*
X20505Y-22733D01*
X20537Y-22701D01*
X20542Y-22696D01*
X20569Y-22668D01*
X20591Y-22645D01*
X20606Y-22629D01*
X20611Y-22622D01*
X20611Y-22622D01*
X20606Y-22612D01*
X20594Y-22593D01*
X20576Y-22566D01*
X20555Y-22535D01*
X20499Y-22453D01*
X20530Y-22376D01*
X20539Y-22353D01*
X20551Y-22324D01*
X20560Y-22304D01*
X20565Y-22295D01*
X20573Y-22292D01*
X20594Y-22287D01*
X20625Y-22280D01*
X20661Y-22274D01*
X20696Y-22267D01*
X20727Y-22261D01*
X20750Y-22257D01*
X20760Y-22255D01*
X20762Y-22253D01*
X20764Y-22248D01*
X20766Y-22238D01*
X20766Y-22219D01*
X20767Y-22189D01*
X20767Y-22145D01*
X20767Y-22141D01*
X20766Y-22099D01*
X20766Y-22066D01*
X20765Y-22045D01*
X20763Y-22037D01*
X20763Y-22037D01*
X20753Y-22034D01*
X20731Y-22030D01*
X20700Y-22023D01*
X20662Y-22016D01*
X20660Y-22016D01*
X20623Y-22009D01*
X20592Y-22002D01*
X20570Y-21997D01*
X20561Y-21994D01*
X20559Y-21992D01*
X20551Y-21977D01*
X20540Y-21954D01*
X20528Y-21926D01*
X20516Y-21897D01*
X20505Y-21870D01*
X20498Y-21851D01*
X20496Y-21842D01*
X20496Y-21842D01*
X20502Y-21833D01*
X20515Y-21813D01*
X20533Y-21787D01*
X20555Y-21755D01*
X20556Y-21752D01*
X20578Y-21721D01*
X20595Y-21694D01*
X20607Y-21675D01*
X20611Y-21667D01*
X20611Y-21666D01*
X20604Y-21657D01*
X20588Y-21639D01*
X20565Y-21615D01*
X20537Y-21587D01*
X20528Y-21579D01*
X20498Y-21549D01*
X20477Y-21529D01*
X20463Y-21519D01*
X20457Y-21516D01*
X20457Y-21517D01*
X20447Y-21522D01*
X20427Y-21535D01*
X20400Y-21554D01*
X20368Y-21575D01*
X20366Y-21577D01*
X20335Y-21598D01*
X20309Y-21616D01*
X20290Y-21628D01*
X20282Y-21633D01*
X20280Y-21633D01*
X20268Y-21629D01*
X20245Y-21622D01*
X20218Y-21611D01*
X20189Y-21599D01*
X20162Y-21588D01*
X20142Y-21579D01*
X20133Y-21574D01*
X20133Y-21573D01*
X20129Y-21562D01*
X20124Y-21538D01*
X20117Y-21506D01*
X20110Y-21467D01*
X20109Y-21461D01*
X20102Y-21424D01*
X20096Y-21393D01*
X20091Y-21371D01*
X20089Y-21362D01*
X20084Y-21361D01*
X20065Y-21360D01*
X20037Y-21359D01*
X20003Y-21359D01*
X19968Y-21359D01*
X19934Y-21360D01*
X19904Y-21361D01*
X19883Y-21362D01*
X19874Y-21364D01*
X19873Y-21365D01*
X19870Y-21376D01*
X19865Y-21400D01*
X19858Y-21432D01*
X19851Y-21471D01*
X19850Y-21478D01*
X19843Y-21515D01*
X19836Y-21546D01*
X19832Y-21567D01*
X19829Y-21575D01*
X19826Y-21577D01*
X19811Y-21584D01*
X19786Y-21594D01*
X19754Y-21607D01*
X19682Y-21636D01*
X19594Y-21575D01*
X19586Y-21570D01*
X19554Y-21548D01*
X19528Y-21531D01*
X19510Y-21519D01*
X19502Y-21515D01*
X19502Y-21515D01*
X19493Y-21523D01*
X19475Y-21539D01*
X19451Y-21563D01*
X19424Y-21590D01*
X19403Y-21611D01*
X19379Y-21636D01*
X19363Y-21652D01*
X19355Y-21663D01*
X19352Y-21670D01*
X19353Y-21674D01*
X19358Y-21683D01*
X19371Y-21702D01*
X19389Y-21729D01*
X19411Y-21760D01*
X19429Y-21787D01*
X19448Y-21816D01*
X19460Y-21837D01*
X19465Y-21848D01*
X19464Y-21852D01*
X19457Y-21869D01*
X19447Y-21896D01*
X19434Y-21927D01*
X19403Y-21997D01*
X19357Y-22005D01*
X19329Y-22011D01*
X19290Y-22018D01*
X19253Y-22025D01*
X19195Y-22037D01*
X19193Y-22249D01*
X19202Y-22253D01*
X19211Y-22256D01*
X19232Y-22260D01*
X19263Y-22266D01*
X19299Y-22273D01*
X19330Y-22279D01*
X19361Y-22285D01*
X19383Y-22289D01*
X19393Y-22291D01*
X19396Y-22295D01*
X19404Y-22310D01*
X19415Y-22334D01*
X19427Y-22363D01*
X19439Y-22392D01*
X19450Y-22420D01*
X19458Y-22441D01*
X19461Y-22452D01*
X19457Y-22460D01*
X19445Y-22478D01*
X19428Y-22504D01*
X19407Y-22535D01*
X19385Y-22566D01*
X19368Y-22593D01*
X19355Y-22612D01*
X19350Y-22620D01*
X19353Y-22626D01*
X19365Y-22641D01*
X19388Y-22665D01*
X19423Y-22700D01*
X19429Y-22705D01*
X19456Y-22732D01*
X19480Y-22753D01*
X19496Y-22768D01*
X19503Y-22773D01*
X19503Y-22773D01*
G37*
G54D13*
X18535Y-26583D02*
X18235Y-26583D01*
X18385Y-26733D02*
X18385Y-26433D01*
X19815Y-24811D02*
X19515Y-24811D01*
%LPC*%
G54D14*
X21062Y-25590D03*
X20196Y-25590D03*
X21062Y-25944D03*
X21062Y-25236D03*
X20196Y-25236D03*
X20196Y-25944D03*
X30118Y-25590D03*
X30984Y-25590D03*
X30118Y-25236D03*
X30118Y-25944D03*
X30984Y-25944D03*
X30984Y-25236D03*
G54D15*
X24330Y-26811D03*
G54D16*
X24330Y-26023D03*
X25118Y-26811D03*
X25118Y-26023D03*
X25905Y-26811D03*
X25905Y-26023D03*
G54D17*
X29291Y-25090D03*
G54D18*
X29291Y-26090D03*
G54D17*
X21889Y-26090D03*
G54D18*
X21889Y-25090D03*
G54D19*
X19468Y-26555D03*
X18681Y-24783D03*
M02*
