G04 #@! TF.FileFunction,Copper,L1,Top,Signal*
%FSLAX46Y46*%
G04 Gerber Fmt 4.6, Leading zero omitted, Abs format (unit mm)*
G04 Created by KiCad (PCBNEW (2015-04-10 BZR 5591)-product) date Sat 11 Apr 2015 12:57:23 AM CEST*
%MOMM*%
G01*
G04 APERTURE LIST*
%ADD10C,0.150000*%
%ADD11R,1.099820X0.998220*%
%ADD12R,1.016000X1.016000*%
%ADD13C,1.016000*%
%ADD14R,1.650000X2.500000*%
%ADD15O,1.650000X2.500000*%
%ADD16C,0.500000*%
%ADD17R,1.399540X0.998220*%
%ADD18R,3.000000X1.500000*%
%ADD19R,1.500000X3.000000*%
%ADD20R,1.498600X1.297940*%
%ADD21R,1.297940X1.498600*%
%ADD22R,1.000000X0.250000*%
%ADD23R,1.400000X3.700000*%
%ADD24C,0.800000*%
%ADD25C,0.250000*%
%ADD26C,0.400000*%
%ADD27C,0.500000*%
G04 APERTURE END LIST*
D10*
D11*
X65720000Y-58011640D03*
X65720000Y-59708360D03*
X64330000Y-58011640D03*
X64330000Y-59708360D03*
D12*
X62530000Y-67735000D03*
D13*
X62530000Y-66465000D03*
X63800000Y-67735000D03*
X63800000Y-66465000D03*
X65070000Y-67735000D03*
X65070000Y-66465000D03*
D14*
X74400000Y-63280000D03*
D15*
X74400000Y-66720000D03*
D14*
X55600000Y-66720000D03*
D15*
X55600000Y-63280000D03*
D16*
X76500000Y-65000000D03*
X78700000Y-65000000D03*
X76500000Y-64100000D03*
X76500000Y-65900000D03*
X78700000Y-65900000D03*
X78700000Y-64100000D03*
X53500000Y-65000000D03*
X51300000Y-65000000D03*
X53500000Y-65900000D03*
X53500000Y-64100000D03*
X51300000Y-64100000D03*
X51300000Y-65900000D03*
D17*
X60729820Y-63889960D03*
X60729820Y-61990040D03*
X58530180Y-62940000D03*
D10*
G36*
X52091336Y-58032621D02*
X50943286Y-60804260D01*
X49557466Y-60230235D01*
X50705516Y-57458596D01*
X52091336Y-58032621D01*
X52091336Y-58032621D01*
G37*
G36*
X49042534Y-56769765D02*
X47894484Y-59541404D01*
X46508664Y-58967379D01*
X47656714Y-56195740D01*
X49042534Y-56769765D01*
X49042534Y-56769765D01*
G37*
G36*
X50943286Y-69195740D02*
X52091336Y-71967379D01*
X50705516Y-72541404D01*
X49557466Y-69769765D01*
X50943286Y-69195740D01*
X50943286Y-69195740D01*
G37*
G36*
X47894484Y-70458596D02*
X49042534Y-73230235D01*
X47656714Y-73804260D01*
X46508664Y-71032621D01*
X47894484Y-70458596D01*
X47894484Y-70458596D01*
G37*
G36*
X69195740Y-79106714D02*
X71967379Y-77958664D01*
X72541404Y-79344484D01*
X69769765Y-80492534D01*
X69195740Y-79106714D01*
X69195740Y-79106714D01*
G37*
G36*
X70458596Y-82155516D02*
X73230235Y-81007466D01*
X73804260Y-82393286D01*
X71032621Y-83541336D01*
X70458596Y-82155516D01*
X70458596Y-82155516D01*
G37*
G36*
X60804260Y-50943286D02*
X58032621Y-52091336D01*
X57458596Y-50705516D01*
X60230235Y-49557466D01*
X60804260Y-50943286D01*
X60804260Y-50943286D01*
G37*
G36*
X59541404Y-47894484D02*
X56769765Y-49042534D01*
X56195740Y-47656714D01*
X58967379Y-46508664D01*
X59541404Y-47894484D01*
X59541404Y-47894484D01*
G37*
G36*
X58032621Y-77908664D02*
X60804260Y-79056714D01*
X60230235Y-80442534D01*
X57458596Y-79294484D01*
X58032621Y-77908664D01*
X58032621Y-77908664D01*
G37*
G36*
X56769765Y-80957466D02*
X59541404Y-82105516D01*
X58967379Y-83491336D01*
X56195740Y-82343286D01*
X56769765Y-80957466D01*
X56769765Y-80957466D01*
G37*
D18*
X65000000Y-80350000D03*
X65000000Y-83650000D03*
D19*
X49650000Y-65000000D03*
X46350000Y-65000000D03*
D10*
G36*
X55707716Y-53636396D02*
X53586396Y-55757716D01*
X52525736Y-54697056D01*
X54647056Y-52575736D01*
X55707716Y-53636396D01*
X55707716Y-53636396D01*
G37*
G36*
X53374264Y-51302944D02*
X51252944Y-53424264D01*
X50192284Y-52363604D01*
X52313604Y-50242284D01*
X53374264Y-51302944D01*
X53374264Y-51302944D01*
G37*
G36*
X53586396Y-74192284D02*
X55707716Y-76313604D01*
X54647056Y-77374264D01*
X52525736Y-75252944D01*
X53586396Y-74192284D01*
X53586396Y-74192284D01*
G37*
G36*
X51252944Y-76525736D02*
X53374264Y-78647056D01*
X52313604Y-79707716D01*
X50192284Y-77586396D01*
X51252944Y-76525736D01*
X51252944Y-76525736D01*
G37*
G36*
X62798079Y-50021112D02*
X61328530Y-50314757D01*
X61074203Y-49041978D01*
X62543752Y-48748333D01*
X62798079Y-50021112D01*
X62798079Y-50021112D01*
G37*
G36*
X62425797Y-48158022D02*
X60956248Y-48451667D01*
X60701921Y-47178888D01*
X62171470Y-46885243D01*
X62425797Y-48158022D01*
X62425797Y-48158022D01*
G37*
G36*
X57163724Y-52009213D02*
X55919868Y-52845049D01*
X55195948Y-51767743D01*
X56439804Y-50931907D01*
X57163724Y-52009213D01*
X57163724Y-52009213D01*
G37*
G36*
X56104052Y-50432257D02*
X54860196Y-51268093D01*
X54136276Y-50190787D01*
X55380132Y-49354951D01*
X56104052Y-50432257D01*
X56104052Y-50432257D01*
G37*
G36*
X52845981Y-56013774D02*
X52014491Y-57260541D01*
X50934665Y-56540386D01*
X51766155Y-55293619D01*
X52845981Y-56013774D01*
X52845981Y-56013774D01*
G37*
G36*
X51265335Y-54959614D02*
X50433845Y-56206381D01*
X49354019Y-55486226D01*
X50185509Y-54239459D01*
X51265335Y-54959614D01*
X51265335Y-54959614D01*
G37*
G36*
X50304753Y-61289735D02*
X50044524Y-62765568D01*
X48766303Y-62540183D01*
X49026532Y-61064350D01*
X50304753Y-61289735D01*
X50304753Y-61289735D01*
G37*
G36*
X48433697Y-60959817D02*
X48173468Y-62435650D01*
X46895247Y-62210265D01*
X47155476Y-60734432D01*
X48433697Y-60959817D01*
X48433697Y-60959817D01*
G37*
G36*
X50021112Y-67201921D02*
X50314757Y-68671470D01*
X49041978Y-68925797D01*
X48748333Y-67456248D01*
X50021112Y-67201921D01*
X50021112Y-67201921D01*
G37*
G36*
X48158022Y-67574203D02*
X48451667Y-69043752D01*
X47178888Y-69298079D01*
X46885243Y-67828530D01*
X48158022Y-67574203D01*
X48158022Y-67574203D01*
G37*
G36*
X52009213Y-72736276D02*
X52845049Y-73980132D01*
X51767743Y-74704052D01*
X50931907Y-73460196D01*
X52009213Y-72736276D01*
X52009213Y-72736276D01*
G37*
G36*
X50432257Y-73795948D02*
X51268093Y-75039804D01*
X50190787Y-75763724D01*
X49354951Y-74519868D01*
X50432257Y-73795948D01*
X50432257Y-73795948D01*
G37*
G36*
X55957678Y-77153109D02*
X57207339Y-77980242D01*
X56490958Y-79062575D01*
X55241297Y-78235442D01*
X55957678Y-77153109D01*
X55957678Y-77153109D01*
G37*
G36*
X54909042Y-78737425D02*
X56158703Y-79564558D01*
X55442322Y-80646891D01*
X54192661Y-79819758D01*
X54909042Y-78737425D01*
X54909042Y-78737425D01*
G37*
G36*
X61316569Y-79688228D02*
X62788132Y-79971606D01*
X62542697Y-81246130D01*
X61071134Y-80962752D01*
X61316569Y-79688228D01*
X61316569Y-79688228D01*
G37*
G36*
X60957303Y-81553870D02*
X62428866Y-81837248D01*
X62183431Y-83111772D01*
X60711868Y-82828394D01*
X60957303Y-81553870D01*
X60957303Y-81553870D01*
G37*
G36*
X67192025Y-79986239D02*
X68659489Y-79682342D01*
X68922695Y-80953315D01*
X67455231Y-81257212D01*
X67192025Y-79986239D01*
X67192025Y-79986239D01*
G37*
G36*
X67577305Y-81846685D02*
X69044769Y-81542788D01*
X69307975Y-82813761D01*
X67840511Y-83117658D01*
X67577305Y-81846685D01*
X67577305Y-81846685D01*
G37*
G36*
X72829966Y-78101377D02*
X74067957Y-77256877D01*
X74799380Y-78329103D01*
X73561389Y-79173603D01*
X72829966Y-78101377D01*
X72829966Y-78101377D01*
G37*
G36*
X73900620Y-79670897D02*
X75138611Y-78826397D01*
X75870034Y-79898623D01*
X74632043Y-80743123D01*
X73900620Y-79670897D01*
X73900620Y-79670897D01*
G37*
G36*
X77151352Y-74004524D02*
X77969741Y-72749119D01*
X79057050Y-73457926D01*
X78238661Y-74713331D01*
X77151352Y-74004524D01*
X77151352Y-74004524D01*
G37*
G36*
X78742950Y-75042074D02*
X79561339Y-73786669D01*
X80648648Y-74495476D01*
X79830259Y-75750881D01*
X78742950Y-75042074D01*
X78742950Y-75042074D01*
G37*
G36*
X68721470Y-50314757D02*
X67251921Y-50021112D01*
X67506248Y-48748333D01*
X68975797Y-49041978D01*
X68721470Y-50314757D01*
X68721470Y-50314757D01*
G37*
G36*
X69093752Y-48451667D02*
X67624203Y-48158022D01*
X67878530Y-46885243D01*
X69348079Y-47178888D01*
X69093752Y-48451667D01*
X69093752Y-48451667D01*
G37*
G36*
X79978888Y-62848079D02*
X79685243Y-61378530D01*
X80958022Y-61124203D01*
X81251667Y-62593752D01*
X79978888Y-62848079D01*
X79978888Y-62848079D01*
G37*
G36*
X81841978Y-62475797D02*
X81548333Y-61006248D01*
X82821112Y-60751921D01*
X83114757Y-62221470D01*
X81841978Y-62475797D01*
X81841978Y-62475797D01*
G37*
G36*
X74036226Y-52845981D02*
X72789459Y-52014491D01*
X73509614Y-50934665D01*
X74756381Y-51766155D01*
X74036226Y-52845981D01*
X74036226Y-52845981D01*
G37*
G36*
X75090386Y-51265335D02*
X73843619Y-50433845D01*
X74563774Y-49354019D01*
X75810541Y-50185509D01*
X75090386Y-51265335D01*
X75090386Y-51265335D01*
G37*
G36*
X77985509Y-57210541D02*
X77154019Y-55963774D01*
X78233845Y-55243619D01*
X79065335Y-56490386D01*
X77985509Y-57210541D01*
X77985509Y-57210541D01*
G37*
G36*
X79566155Y-56156381D02*
X78734665Y-54909614D01*
X79814491Y-54189459D01*
X80645981Y-55436226D01*
X79566155Y-56156381D01*
X79566155Y-56156381D01*
G37*
G36*
X79685243Y-68671470D02*
X79978888Y-67201921D01*
X81251667Y-67456248D01*
X80958022Y-68925797D01*
X79685243Y-68671470D01*
X79685243Y-68671470D01*
G37*
G36*
X81548333Y-69043752D02*
X81841978Y-67574203D01*
X83114757Y-67828530D01*
X82821112Y-69298079D01*
X81548333Y-69043752D01*
X81548333Y-69043752D01*
G37*
D20*
X59560000Y-68049960D03*
X59560000Y-66150040D03*
D21*
X64070040Y-61500000D03*
X65969960Y-61500000D03*
D10*
G36*
X77908664Y-71967379D02*
X79056714Y-69195740D01*
X80442534Y-69769765D01*
X79294484Y-72541404D01*
X77908664Y-71967379D01*
X77908664Y-71967379D01*
G37*
G36*
X80957466Y-73230235D02*
X82105516Y-70458596D01*
X83491336Y-71032621D01*
X82343286Y-73804260D01*
X80957466Y-73230235D01*
X80957466Y-73230235D01*
G37*
G36*
X79056714Y-60804260D02*
X77908664Y-58032621D01*
X79294484Y-57458596D01*
X80442534Y-60230235D01*
X79056714Y-60804260D01*
X79056714Y-60804260D01*
G37*
G36*
X82105516Y-59541404D02*
X80957466Y-56769765D01*
X82343286Y-56195740D01*
X83491336Y-58967379D01*
X82105516Y-59541404D01*
X82105516Y-59541404D01*
G37*
D18*
X65000000Y-49650000D03*
X65000000Y-46350000D03*
D19*
X80350000Y-65000000D03*
X83650000Y-65000000D03*
D10*
G36*
X76363604Y-55707716D02*
X74242284Y-53586396D01*
X75302944Y-52525736D01*
X77424264Y-54647056D01*
X76363604Y-55707716D01*
X76363604Y-55707716D01*
G37*
G36*
X78697056Y-53374264D02*
X76575736Y-51252944D01*
X77636396Y-50192284D01*
X79757716Y-52313604D01*
X78697056Y-53374264D01*
X78697056Y-53374264D01*
G37*
G36*
X74242284Y-76413604D02*
X76363604Y-74292284D01*
X77424264Y-75352944D01*
X75302944Y-77474264D01*
X74242284Y-76413604D01*
X74242284Y-76413604D01*
G37*
G36*
X76575736Y-78747056D02*
X78697056Y-76625736D01*
X79757716Y-77686396D01*
X77636396Y-79807716D01*
X76575736Y-78747056D01*
X76575736Y-78747056D01*
G37*
G36*
X72017379Y-52091336D02*
X69245740Y-50943286D01*
X69819765Y-49557466D01*
X72591404Y-50705516D01*
X72017379Y-52091336D01*
X72017379Y-52091336D01*
G37*
G36*
X73280235Y-49042534D02*
X70508596Y-47894484D01*
X71082621Y-46508664D01*
X73854260Y-47656714D01*
X73280235Y-49042534D01*
X73280235Y-49042534D01*
G37*
G36*
X63629509Y-54562331D02*
X64300541Y-55557176D01*
X63056985Y-56395965D01*
X62385953Y-55401120D01*
X63629509Y-54562331D01*
X63629509Y-54562331D01*
G37*
G36*
X57079137Y-58799679D02*
X57917926Y-60043236D01*
X56674369Y-60882025D01*
X55835580Y-59638468D01*
X57079137Y-58799679D01*
X57079137Y-58799679D01*
G37*
G36*
X65759459Y-55577176D02*
X66430491Y-54582331D01*
X67674047Y-55421120D01*
X67003015Y-56415965D01*
X65759459Y-55577176D01*
X65759459Y-55577176D01*
G37*
G36*
X72142074Y-60063236D02*
X72980863Y-58819679D01*
X74224420Y-59658468D01*
X73385631Y-60902025D01*
X72142074Y-60063236D01*
X72142074Y-60063236D01*
G37*
D22*
X71670000Y-67770000D03*
X71670000Y-67270000D03*
X71670000Y-66770000D03*
X71670000Y-66270000D03*
X71670000Y-65770000D03*
X68670000Y-65770000D03*
X68670000Y-66270000D03*
X68670000Y-66770000D03*
X68670000Y-67270000D03*
X68670000Y-67770000D03*
D23*
X70170000Y-66270000D03*
D21*
X64040040Y-63950000D03*
X65939960Y-63950000D03*
D24*
X67240000Y-68080000D03*
X64030000Y-63990000D03*
X69700000Y-61940000D03*
X68760000Y-63810000D03*
X72910000Y-68750000D03*
X67770000Y-65230000D03*
X66430000Y-67110000D03*
X57200000Y-64600000D03*
X57250000Y-61350000D03*
X57560000Y-67530000D03*
X49750000Y-72000000D03*
X71950000Y-80400000D03*
X80200000Y-58050000D03*
X52600000Y-53650000D03*
X58150000Y-49800000D03*
X49300000Y-59200000D03*
X48150000Y-65650000D03*
X70950000Y-49300000D03*
X64450000Y-48250000D03*
X59100000Y-80900000D03*
X65550000Y-81850000D03*
X77250000Y-76450000D03*
X80850000Y-70850000D03*
X81900000Y-64300000D03*
X76300000Y-52500000D03*
X53550000Y-77250000D03*
X75700000Y-81100000D03*
X81000000Y-75500000D03*
X80900000Y-54300000D03*
X75700000Y-49100000D03*
X54300000Y-49000000D03*
X49000000Y-54400000D03*
X46200000Y-61200000D03*
X46200000Y-68800000D03*
X49100000Y-75700000D03*
X54300000Y-80900000D03*
X61300000Y-83800000D03*
X68800000Y-46200000D03*
X61200000Y-46200000D03*
X68800000Y-83800000D03*
X83800000Y-68700000D03*
X83800000Y-61200000D03*
D25*
X67550000Y-67770000D02*
X68670000Y-67770000D01*
X67240000Y-68080000D02*
X67550000Y-67770000D01*
D26*
X64030000Y-63990000D02*
X64030000Y-63960040D01*
X64030000Y-63960040D02*
X64040040Y-63950000D01*
X71780000Y-61940000D02*
X69700000Y-61940000D01*
D25*
X67570000Y-66270000D02*
X67010000Y-65710000D01*
X67010000Y-65710000D02*
X67010000Y-64860000D01*
X67010000Y-64860000D02*
X68060000Y-63810000D01*
X68060000Y-63810000D02*
X68760000Y-63810000D01*
X68670000Y-66270000D02*
X67570000Y-66270000D01*
D26*
X73183247Y-60536753D02*
X73183247Y-59860852D01*
X71780000Y-61940000D02*
X73183247Y-60536753D01*
D25*
X72920000Y-68760000D02*
X72910000Y-68750000D01*
X72300000Y-69360000D02*
X72910000Y-68750000D01*
X62600000Y-69360000D02*
X72100000Y-69360000D01*
X62530000Y-67735000D02*
X62530000Y-69290000D01*
X62600000Y-69360000D02*
X62530000Y-69290000D01*
X72100000Y-69360000D02*
X72300000Y-69360000D01*
D26*
X63800000Y-65730000D02*
X63380000Y-65310000D01*
X63380000Y-65310000D02*
X61860000Y-65310000D01*
X61860000Y-65310000D02*
X61220000Y-65950000D01*
X61220000Y-65950000D02*
X61220000Y-67470000D01*
X61220000Y-67470000D02*
X60640040Y-68049960D01*
X60640040Y-68049960D02*
X59560000Y-68049960D01*
X63800000Y-66465000D02*
X63800000Y-65730000D01*
D25*
X67770000Y-65230000D02*
X68610000Y-65230000D01*
X68610000Y-65230000D02*
X68670000Y-65290000D01*
X68670000Y-65290000D02*
X68670000Y-65770000D01*
X65070000Y-68760004D02*
X65070000Y-67735000D01*
X65189996Y-68880000D02*
X71510000Y-68880000D01*
X71670000Y-67770000D02*
X71670000Y-68720000D01*
X71510000Y-68880000D02*
X71670000Y-68720000D01*
X65189996Y-68880000D02*
X65070000Y-68760004D01*
X66590000Y-67270000D02*
X68670000Y-67270000D01*
X66430000Y-67110000D02*
X66590000Y-67270000D01*
D26*
X57200000Y-64600000D02*
X57150000Y-64650000D01*
X57250000Y-60214099D02*
X57250000Y-61350000D01*
X56876753Y-59840852D02*
X57250000Y-60214099D01*
X57560000Y-67530000D02*
X57560000Y-64960000D01*
X57560000Y-64960000D02*
X57200000Y-64600000D01*
D25*
X70190000Y-66080000D02*
X70190000Y-66760000D01*
X70190000Y-66760000D02*
X70170000Y-66770000D01*
X70500000Y-65770000D02*
X70190000Y-66080000D01*
X71670000Y-65770000D02*
X70500000Y-65770000D01*
X70190000Y-66080000D02*
X70170000Y-66770000D01*
D26*
X65969960Y-61730000D02*
X65939960Y-63950000D01*
X65969960Y-65565040D02*
X65070000Y-66465000D01*
X65939960Y-63950000D02*
X65969960Y-65565040D01*
X72720000Y-65800000D02*
X73190000Y-66270000D01*
X73190000Y-66270000D02*
X74400000Y-66270000D01*
X68920000Y-62820000D02*
X71230000Y-62820000D01*
X71230000Y-62820000D02*
X72720000Y-64310000D01*
X72720000Y-64310000D02*
X72720000Y-65800000D01*
X67830000Y-61730000D02*
X68920000Y-62820000D01*
X65969960Y-61730000D02*
X67830000Y-61730000D01*
D25*
X72690000Y-65770000D02*
X72720000Y-65800000D01*
X71670000Y-65770000D02*
X72690000Y-65770000D01*
D26*
X62038200Y-59611800D02*
X64337500Y-59611800D01*
X60729820Y-61990040D02*
X60729820Y-60920180D01*
X60729820Y-60920180D02*
X62038200Y-59611800D01*
X64337500Y-59611800D02*
X65727500Y-59611800D01*
X66921800Y-59611800D02*
X67830000Y-60520000D01*
X67830000Y-60520000D02*
X67830000Y-61730000D01*
X65727500Y-59611800D02*
X66921800Y-59611800D01*
D27*
X50824401Y-70868572D02*
X50824401Y-70925599D01*
X50824401Y-70925599D02*
X49750000Y-72000000D01*
X70868572Y-79318572D02*
X70868572Y-79225599D01*
X70868572Y-79318572D02*
X71950000Y-80400000D01*
X79175599Y-59131428D02*
X79175599Y-59124401D01*
X79175599Y-59124401D02*
X80200000Y-58050000D01*
X53116726Y-54166726D02*
X54116726Y-54166726D01*
X53116726Y-54166726D02*
X52600000Y-53650000D01*
X59131428Y-50781428D02*
X59131428Y-50824401D01*
X59131428Y-50781428D02*
X58150000Y-49800000D01*
X49300000Y-59200000D02*
X50824401Y-59131428D01*
X48150000Y-65650000D02*
X49650000Y-65000000D01*
X70950000Y-49300000D02*
X70918572Y-50824401D01*
X64450000Y-48250000D02*
X65000000Y-49650000D01*
X59100000Y-80900000D02*
X59131428Y-79175599D01*
X65550000Y-81850000D02*
X65000000Y-80350000D01*
X77250000Y-76450000D02*
X75833274Y-75883274D01*
X80850000Y-70850000D02*
X79175599Y-70868572D01*
X81900000Y-64300000D02*
X80350000Y-65000000D01*
X76300000Y-52500000D02*
X75833274Y-54116726D01*
X53550000Y-77250000D02*
X54116726Y-75783274D01*
X65000000Y-46350000D02*
X68113859Y-49531545D01*
X56224318Y-78107842D02*
X57868572Y-82224401D01*
X51888478Y-73720164D02*
X51783274Y-78116726D01*
X47775599Y-72131428D02*
X49531545Y-68063859D01*
X46350000Y-65000000D02*
X49535528Y-61914959D01*
X47775599Y-57868572D02*
X51890323Y-56277080D01*
X51783274Y-51833274D02*
X56179836Y-51888478D01*
X57868572Y-47775599D02*
X61936141Y-49531545D01*
X72181428Y-47775599D02*
X73772920Y-51890323D01*
X78109677Y-56227080D02*
X78166726Y-51783274D01*
X80468455Y-61986141D02*
X82224401Y-57868572D01*
X80468455Y-68063859D02*
X83650000Y-65000000D01*
X78104201Y-73731225D02*
X82224401Y-72131428D01*
X73814673Y-78215240D02*
X78166726Y-78216726D01*
X68057360Y-80469777D02*
X72131428Y-82274401D01*
X61879633Y-80717179D02*
X62167179Y-80717179D01*
X61929633Y-80467179D02*
X65000000Y-83650000D01*
X55120164Y-49970164D02*
X55120164Y-50311522D01*
X74935327Y-80185327D02*
X74935327Y-79884760D01*
X74885327Y-79784760D02*
X75700000Y-81100000D01*
X79695799Y-74768775D02*
X81000000Y-75500000D01*
X79690323Y-55172920D02*
X80900000Y-54300000D01*
X74827080Y-50309677D02*
X75700000Y-49100000D01*
X55120164Y-50311522D02*
X54300000Y-49000000D01*
X50309677Y-55222920D02*
X49000000Y-54400000D01*
X46200000Y-61200000D02*
X47664472Y-61585041D01*
X47668455Y-68436141D02*
X46200000Y-68800000D01*
X49100000Y-75700000D02*
X50311522Y-74779836D01*
X54300000Y-80900000D02*
X55175682Y-79692158D01*
X61300000Y-83800000D02*
X61570367Y-82332821D01*
X68800000Y-46200000D02*
X68486141Y-47668455D01*
X61200000Y-46200000D02*
X61563859Y-47668455D01*
X68800000Y-83800000D02*
X68442640Y-82330223D01*
X83800000Y-68700000D02*
X82331545Y-68436141D01*
X83800000Y-61200000D02*
X82331545Y-61613859D01*
D26*
X55600000Y-63730000D02*
X56750000Y-63730000D01*
X57540000Y-62940000D02*
X58530180Y-62940000D01*
X56750000Y-63730000D02*
X57540000Y-62940000D01*
X60729820Y-64530180D02*
X60270000Y-64990000D01*
X60270000Y-64990000D02*
X59860000Y-64990000D01*
X59860000Y-64990000D02*
X59560000Y-65290000D01*
X59560000Y-65290000D02*
X59560000Y-66150040D01*
X60729820Y-63889960D02*
X60729820Y-64530180D01*
X62530000Y-62160000D02*
X62960000Y-61730000D01*
X62960000Y-61730000D02*
X64070040Y-61730000D01*
X60729820Y-63889960D02*
X61530040Y-63889960D01*
X61530040Y-63889960D02*
X62530000Y-62890000D01*
X62530000Y-62890000D02*
X62530000Y-62160000D01*
X65727500Y-56488401D02*
X65727500Y-58113200D01*
X66716753Y-55499148D02*
X65727500Y-56488401D01*
X64337500Y-56473401D02*
X64337500Y-58113200D01*
X63343247Y-55479148D02*
X64337500Y-56473401D01*
M02*
