%FSLAX34Y34*%
G04 Gerber Fmt 3.4, Leading zero omitted, Abs format*
G04 (created by PCBNEW (2013-12-18 BZR 4558)-product) date Wed 18 Dec 2013 08:01:28 PM CET*
%MOIN*%
G01*
G70*
G90*
G04 APERTURE LIST*
%ADD10C,0.005906*%
%ADD11C,0.011811*%
%ADD12C,0.000100*%
%ADD13C,0.007874*%
%ADD14C,0.019685*%
%ADD15R,0.040000X0.040000*%
%ADD16C,0.040000*%
%ADD17R,0.064961X0.064961*%
%ADD18C,0.064961*%
%ADD19R,0.098425X0.059055*%
G04 APERTURE END LIST*
G54D10*
G54D11*
X18565Y-26653D02*
X18284Y-26653D01*
X18622Y-26822D02*
X18425Y-26231D01*
X18228Y-26822D01*
X19623Y-24741D02*
X19538Y-24769D01*
X19510Y-24797D01*
X19482Y-24853D01*
X19482Y-24938D01*
X19510Y-24994D01*
X19538Y-25022D01*
X19595Y-25050D01*
X19820Y-25050D01*
X19820Y-24460D01*
X19623Y-24460D01*
X19566Y-24488D01*
X19538Y-24516D01*
X19510Y-24572D01*
X19510Y-24628D01*
X19538Y-24685D01*
X19566Y-24713D01*
X19623Y-24741D01*
X19820Y-24741D01*
X27091Y-24179D02*
X26914Y-24710D01*
X26737Y-24179D01*
X26281Y-24710D02*
X26585Y-24710D01*
X26433Y-24710D02*
X26433Y-24179D01*
X26483Y-24255D01*
X26534Y-24305D01*
X26585Y-24331D01*
X26053Y-24660D02*
X26028Y-24685D01*
X26053Y-24710D01*
X26079Y-24685D01*
X26053Y-24660D01*
X26053Y-24710D01*
X25699Y-24179D02*
X25648Y-24179D01*
X25598Y-24204D01*
X25572Y-24230D01*
X25547Y-24280D01*
X25522Y-24381D01*
X25522Y-24508D01*
X25547Y-24609D01*
X25572Y-24660D01*
X25598Y-24685D01*
X25648Y-24710D01*
X25699Y-24710D01*
X25750Y-24685D01*
X25775Y-24660D01*
X25800Y-24609D01*
X25825Y-24508D01*
X25825Y-24381D01*
X25800Y-24280D01*
X25775Y-24230D01*
X25750Y-24204D01*
X25699Y-24179D01*
X25016Y-24710D02*
X25319Y-24710D01*
X25167Y-24710D02*
X25167Y-24179D01*
X25218Y-24255D01*
X25269Y-24305D01*
X25319Y-24331D01*
X24788Y-24660D02*
X24762Y-24685D01*
X24788Y-24710D01*
X24813Y-24685D01*
X24788Y-24660D01*
X24788Y-24710D01*
X24535Y-24710D02*
X24535Y-24179D01*
X24535Y-24381D02*
X24484Y-24356D01*
X24383Y-24356D01*
X24332Y-24381D01*
X24307Y-24407D01*
X24282Y-24457D01*
X24282Y-24609D01*
X24307Y-24660D01*
X24332Y-24685D01*
X24383Y-24710D01*
X24484Y-24710D01*
X24535Y-24685D01*
X26572Y-25092D02*
X26547Y-25066D01*
X26496Y-25041D01*
X26370Y-25041D01*
X26319Y-25066D01*
X26294Y-25092D01*
X26268Y-25142D01*
X26268Y-25193D01*
X26294Y-25269D01*
X26597Y-25573D01*
X26268Y-25573D01*
X25939Y-25041D02*
X25889Y-25041D01*
X25838Y-25066D01*
X25813Y-25092D01*
X25787Y-25142D01*
X25762Y-25244D01*
X25762Y-25370D01*
X25787Y-25471D01*
X25813Y-25522D01*
X25838Y-25547D01*
X25889Y-25573D01*
X25939Y-25573D01*
X25990Y-25547D01*
X26015Y-25522D01*
X26041Y-25471D01*
X26066Y-25370D01*
X26066Y-25244D01*
X26041Y-25142D01*
X26015Y-25092D01*
X25990Y-25066D01*
X25939Y-25041D01*
X25256Y-25573D02*
X25560Y-25573D01*
X25408Y-25573D02*
X25408Y-25041D01*
X25458Y-25117D01*
X25509Y-25168D01*
X25560Y-25193D01*
X25079Y-25041D02*
X24750Y-25041D01*
X24927Y-25244D01*
X24851Y-25244D01*
X24800Y-25269D01*
X24775Y-25294D01*
X24750Y-25345D01*
X24750Y-25471D01*
X24775Y-25522D01*
X24800Y-25547D01*
X24851Y-25573D01*
X25003Y-25573D01*
X25053Y-25547D01*
X25079Y-25522D01*
X26439Y-22399D02*
X26439Y-21868D01*
X26439Y-22070D02*
X26388Y-22045D01*
X26287Y-22045D01*
X26236Y-22070D01*
X26211Y-22096D01*
X26186Y-22146D01*
X26186Y-22298D01*
X26211Y-22349D01*
X26236Y-22374D01*
X26287Y-22399D01*
X26388Y-22399D01*
X26439Y-22374D01*
X25882Y-22399D02*
X25933Y-22374D01*
X25958Y-22323D01*
X25958Y-21868D01*
X25604Y-22399D02*
X25654Y-22374D01*
X25679Y-22349D01*
X25705Y-22298D01*
X25705Y-22146D01*
X25679Y-22096D01*
X25654Y-22070D01*
X25604Y-22045D01*
X25528Y-22045D01*
X25477Y-22070D01*
X25452Y-22096D01*
X25426Y-22146D01*
X25426Y-22298D01*
X25452Y-22349D01*
X25477Y-22374D01*
X25528Y-22399D01*
X25604Y-22399D01*
X24971Y-22045D02*
X24971Y-22475D01*
X24996Y-22526D01*
X25021Y-22551D01*
X25072Y-22577D01*
X25148Y-22577D01*
X25199Y-22551D01*
X24971Y-22374D02*
X25021Y-22399D01*
X25123Y-22399D01*
X25173Y-22374D01*
X25199Y-22349D01*
X25224Y-22298D01*
X25224Y-22146D01*
X25199Y-22096D01*
X25173Y-22070D01*
X25123Y-22045D01*
X25021Y-22045D01*
X24971Y-22070D01*
X24718Y-22349D02*
X24692Y-22374D01*
X24718Y-22399D01*
X24743Y-22374D01*
X24718Y-22349D01*
X24718Y-22399D01*
X28552Y-23236D02*
X28501Y-23262D01*
X28400Y-23262D01*
X28350Y-23236D01*
X28324Y-23186D01*
X28324Y-23160D01*
X28350Y-23110D01*
X28400Y-23084D01*
X28476Y-23084D01*
X28527Y-23059D01*
X28552Y-23008D01*
X28552Y-22983D01*
X28527Y-22933D01*
X28476Y-22907D01*
X28400Y-22907D01*
X28350Y-22933D01*
X28097Y-22907D02*
X28097Y-23439D01*
X28097Y-22933D02*
X28046Y-22907D01*
X27945Y-22907D01*
X27894Y-22933D01*
X27869Y-22958D01*
X27843Y-23008D01*
X27843Y-23160D01*
X27869Y-23211D01*
X27894Y-23236D01*
X27945Y-23262D01*
X28046Y-23262D01*
X28097Y-23236D01*
X27616Y-23262D02*
X27616Y-22907D01*
X27616Y-22730D02*
X27641Y-22755D01*
X27616Y-22781D01*
X27590Y-22755D01*
X27616Y-22730D01*
X27616Y-22781D01*
X27438Y-22907D02*
X27236Y-22907D01*
X27363Y-22730D02*
X27363Y-23186D01*
X27337Y-23236D01*
X27287Y-23262D01*
X27236Y-23262D01*
X27109Y-22907D02*
X26831Y-22907D01*
X27109Y-23262D01*
X26831Y-23262D01*
X26426Y-23236D02*
X26477Y-23262D01*
X26578Y-23262D01*
X26629Y-23236D01*
X26654Y-23186D01*
X26654Y-22983D01*
X26629Y-22933D01*
X26578Y-22907D01*
X26477Y-22907D01*
X26426Y-22933D01*
X26401Y-22983D01*
X26401Y-23034D01*
X26654Y-23084D01*
X26173Y-22907D02*
X26173Y-23262D01*
X26173Y-22958D02*
X26148Y-22933D01*
X26097Y-22907D01*
X26021Y-22907D01*
X25971Y-22933D01*
X25945Y-22983D01*
X25945Y-23262D01*
X25692Y-22907D02*
X25692Y-23439D01*
X25692Y-22933D02*
X25642Y-22907D01*
X25540Y-22907D01*
X25490Y-22933D01*
X25464Y-22958D01*
X25439Y-23008D01*
X25439Y-23160D01*
X25464Y-23211D01*
X25490Y-23236D01*
X25540Y-23262D01*
X25642Y-23262D01*
X25692Y-23236D01*
X25287Y-22907D02*
X25085Y-22907D01*
X25211Y-23262D02*
X25211Y-22806D01*
X25186Y-22755D01*
X25135Y-22730D01*
X25085Y-22730D01*
X24705Y-23236D02*
X24756Y-23262D01*
X24857Y-23262D01*
X24908Y-23236D01*
X24933Y-23186D01*
X24933Y-22983D01*
X24908Y-22933D01*
X24857Y-22907D01*
X24756Y-22907D01*
X24705Y-22933D01*
X24680Y-22983D01*
X24680Y-23034D01*
X24933Y-23084D01*
X24452Y-23262D02*
X24452Y-22907D01*
X24452Y-22730D02*
X24477Y-22755D01*
X24452Y-22781D01*
X24427Y-22755D01*
X24452Y-22730D01*
X24452Y-22781D01*
X24123Y-23262D02*
X24174Y-23236D01*
X24199Y-23186D01*
X24199Y-22730D01*
X23920Y-23211D02*
X23895Y-23236D01*
X23920Y-23262D01*
X23946Y-23236D01*
X23920Y-23211D01*
X23920Y-23262D01*
X23591Y-23262D02*
X23642Y-23236D01*
X23667Y-23211D01*
X23693Y-23160D01*
X23693Y-23008D01*
X23667Y-22958D01*
X23642Y-22933D01*
X23591Y-22907D01*
X23516Y-22907D01*
X23465Y-22933D01*
X23440Y-22958D01*
X23414Y-23008D01*
X23414Y-23160D01*
X23440Y-23211D01*
X23465Y-23236D01*
X23516Y-23262D01*
X23591Y-23262D01*
X23187Y-23262D02*
X23187Y-22907D01*
X23187Y-23008D02*
X23161Y-22958D01*
X23136Y-22933D01*
X23085Y-22907D01*
X23035Y-22907D01*
X22630Y-22907D02*
X22630Y-23338D01*
X22655Y-23388D01*
X22680Y-23413D01*
X22731Y-23439D01*
X22807Y-23439D01*
X22857Y-23413D01*
X22630Y-23236D02*
X22680Y-23262D01*
X22782Y-23262D01*
X22832Y-23236D01*
X22857Y-23211D01*
X22883Y-23160D01*
X22883Y-23008D01*
X22857Y-22958D01*
X22832Y-22933D01*
X22782Y-22907D01*
X22680Y-22907D01*
X22630Y-22933D01*
X27020Y-31401D02*
X26843Y-31933D01*
X26666Y-31401D01*
X26210Y-31933D02*
X26514Y-31933D01*
X26362Y-31933D02*
X26362Y-31401D01*
X26413Y-31477D01*
X26463Y-31528D01*
X26514Y-31553D01*
X25982Y-31882D02*
X25957Y-31908D01*
X25982Y-31933D01*
X26008Y-31908D01*
X25982Y-31882D01*
X25982Y-31933D01*
X25628Y-31401D02*
X25577Y-31401D01*
X25527Y-31427D01*
X25501Y-31452D01*
X25476Y-31503D01*
X25451Y-31604D01*
X25451Y-31730D01*
X25476Y-31832D01*
X25501Y-31882D01*
X25527Y-31908D01*
X25577Y-31933D01*
X25628Y-31933D01*
X25679Y-31908D01*
X25704Y-31882D01*
X25729Y-31832D01*
X25755Y-31730D01*
X25755Y-31604D01*
X25729Y-31503D01*
X25704Y-31452D01*
X25679Y-31427D01*
X25628Y-31401D01*
X24945Y-31933D02*
X25248Y-31933D01*
X25097Y-31933D02*
X25097Y-31401D01*
X25147Y-31477D01*
X25198Y-31528D01*
X25248Y-31553D01*
X24717Y-31882D02*
X24692Y-31908D01*
X24717Y-31933D01*
X24742Y-31908D01*
X24717Y-31882D01*
X24717Y-31933D01*
X24464Y-31933D02*
X24464Y-31401D01*
X24464Y-31604D02*
X24413Y-31579D01*
X24312Y-31579D01*
X24261Y-31604D01*
X24236Y-31629D01*
X24211Y-31680D01*
X24211Y-31832D01*
X24236Y-31882D01*
X24261Y-31908D01*
X24312Y-31933D01*
X24413Y-31933D01*
X24464Y-31908D01*
X29526Y-19846D02*
X29526Y-19315D01*
X29526Y-19517D02*
X29475Y-19492D01*
X29374Y-19492D01*
X29323Y-19517D01*
X29298Y-19543D01*
X29273Y-19593D01*
X29273Y-19745D01*
X29298Y-19796D01*
X29323Y-19821D01*
X29374Y-19846D01*
X29475Y-19846D01*
X29526Y-19821D01*
X28969Y-19846D02*
X29019Y-19821D01*
X29045Y-19770D01*
X29045Y-19315D01*
X28690Y-19846D02*
X28741Y-19821D01*
X28766Y-19796D01*
X28792Y-19745D01*
X28792Y-19593D01*
X28766Y-19543D01*
X28741Y-19517D01*
X28690Y-19492D01*
X28615Y-19492D01*
X28564Y-19517D01*
X28539Y-19543D01*
X28513Y-19593D01*
X28513Y-19745D01*
X28539Y-19796D01*
X28564Y-19821D01*
X28615Y-19846D01*
X28690Y-19846D01*
X28058Y-19492D02*
X28058Y-19922D01*
X28083Y-19973D01*
X28108Y-19998D01*
X28159Y-20023D01*
X28235Y-20023D01*
X28285Y-19998D01*
X28058Y-19821D02*
X28108Y-19846D01*
X28210Y-19846D01*
X28260Y-19821D01*
X28285Y-19796D01*
X28311Y-19745D01*
X28311Y-19593D01*
X28285Y-19543D01*
X28260Y-19517D01*
X28210Y-19492D01*
X28108Y-19492D01*
X28058Y-19517D01*
X27805Y-19796D02*
X27779Y-19821D01*
X27805Y-19846D01*
X27830Y-19821D01*
X27805Y-19796D01*
X27805Y-19846D01*
X27577Y-19821D02*
X27526Y-19846D01*
X27425Y-19846D01*
X27374Y-19821D01*
X27349Y-19770D01*
X27349Y-19745D01*
X27374Y-19694D01*
X27425Y-19669D01*
X27501Y-19669D01*
X27552Y-19644D01*
X27577Y-19593D01*
X27577Y-19568D01*
X27552Y-19517D01*
X27501Y-19492D01*
X27425Y-19492D01*
X27374Y-19517D01*
X27121Y-19492D02*
X27121Y-20023D01*
X27121Y-19517D02*
X27071Y-19492D01*
X26969Y-19492D01*
X26919Y-19517D01*
X26893Y-19543D01*
X26868Y-19593D01*
X26868Y-19745D01*
X26893Y-19796D01*
X26919Y-19821D01*
X26969Y-19846D01*
X27071Y-19846D01*
X27121Y-19821D01*
X26640Y-19846D02*
X26640Y-19492D01*
X26640Y-19315D02*
X26666Y-19340D01*
X26640Y-19365D01*
X26615Y-19340D01*
X26640Y-19315D01*
X26640Y-19365D01*
X26463Y-19492D02*
X26261Y-19492D01*
X26387Y-19315D02*
X26387Y-19770D01*
X26362Y-19821D01*
X26311Y-19846D01*
X26261Y-19846D01*
X26134Y-19492D02*
X25856Y-19492D01*
X26134Y-19846D01*
X25856Y-19846D01*
X25451Y-19821D02*
X25501Y-19846D01*
X25603Y-19846D01*
X25653Y-19821D01*
X25679Y-19770D01*
X25679Y-19568D01*
X25653Y-19517D01*
X25603Y-19492D01*
X25501Y-19492D01*
X25451Y-19517D01*
X25426Y-19568D01*
X25426Y-19618D01*
X25679Y-19669D01*
X25198Y-19492D02*
X25198Y-19846D01*
X25198Y-19543D02*
X25172Y-19517D01*
X25122Y-19492D01*
X25046Y-19492D01*
X24995Y-19517D01*
X24970Y-19568D01*
X24970Y-19846D01*
X24717Y-19492D02*
X24717Y-20023D01*
X24717Y-19517D02*
X24666Y-19492D01*
X24565Y-19492D01*
X24514Y-19517D01*
X24489Y-19543D01*
X24464Y-19593D01*
X24464Y-19745D01*
X24489Y-19796D01*
X24514Y-19821D01*
X24565Y-19846D01*
X24666Y-19846D01*
X24717Y-19821D01*
X24312Y-19492D02*
X24109Y-19492D01*
X24236Y-19846D02*
X24236Y-19391D01*
X24211Y-19340D01*
X24160Y-19315D01*
X24109Y-19315D01*
X23730Y-19821D02*
X23780Y-19846D01*
X23882Y-19846D01*
X23932Y-19821D01*
X23958Y-19770D01*
X23958Y-19568D01*
X23932Y-19517D01*
X23882Y-19492D01*
X23780Y-19492D01*
X23730Y-19517D01*
X23705Y-19568D01*
X23705Y-19618D01*
X23958Y-19669D01*
X23477Y-19846D02*
X23477Y-19492D01*
X23477Y-19315D02*
X23502Y-19340D01*
X23477Y-19365D01*
X23451Y-19340D01*
X23477Y-19315D01*
X23477Y-19365D01*
X23148Y-19846D02*
X23198Y-19821D01*
X23224Y-19770D01*
X23224Y-19315D01*
X22945Y-19796D02*
X22920Y-19821D01*
X22945Y-19846D01*
X22971Y-19821D01*
X22945Y-19796D01*
X22945Y-19846D01*
X22616Y-19846D02*
X22667Y-19821D01*
X22692Y-19796D01*
X22717Y-19745D01*
X22717Y-19593D01*
X22692Y-19543D01*
X22667Y-19517D01*
X22616Y-19492D01*
X22540Y-19492D01*
X22490Y-19517D01*
X22464Y-19543D01*
X22439Y-19593D01*
X22439Y-19745D01*
X22464Y-19796D01*
X22490Y-19821D01*
X22540Y-19846D01*
X22616Y-19846D01*
X22211Y-19846D02*
X22211Y-19492D01*
X22211Y-19593D02*
X22186Y-19543D01*
X22161Y-19517D01*
X22110Y-19492D01*
X22059Y-19492D01*
X21654Y-19492D02*
X21654Y-19922D01*
X21680Y-19973D01*
X21705Y-19998D01*
X21756Y-20023D01*
X21832Y-20023D01*
X21882Y-19998D01*
X21654Y-19821D02*
X21705Y-19846D01*
X21806Y-19846D01*
X21857Y-19821D01*
X21882Y-19796D01*
X21908Y-19745D01*
X21908Y-19593D01*
X21882Y-19543D01*
X21857Y-19517D01*
X21806Y-19492D01*
X21705Y-19492D01*
X21654Y-19517D01*
X26501Y-18184D02*
X26476Y-18159D01*
X26425Y-18134D01*
X26299Y-18134D01*
X26248Y-18159D01*
X26223Y-18184D01*
X26197Y-18235D01*
X26197Y-18285D01*
X26223Y-18361D01*
X26526Y-18665D01*
X26197Y-18665D01*
X25868Y-18134D02*
X25818Y-18134D01*
X25767Y-18159D01*
X25742Y-18184D01*
X25717Y-18235D01*
X25691Y-18336D01*
X25691Y-18463D01*
X25717Y-18564D01*
X25742Y-18615D01*
X25767Y-18640D01*
X25818Y-18665D01*
X25868Y-18665D01*
X25919Y-18640D01*
X25944Y-18615D01*
X25970Y-18564D01*
X25995Y-18463D01*
X25995Y-18336D01*
X25970Y-18235D01*
X25944Y-18184D01*
X25919Y-18159D01*
X25868Y-18134D01*
X25185Y-18665D02*
X25489Y-18665D01*
X25337Y-18665D02*
X25337Y-18134D01*
X25388Y-18210D01*
X25438Y-18260D01*
X25489Y-18285D01*
X25008Y-18134D02*
X24679Y-18134D01*
X24856Y-18336D01*
X24780Y-18336D01*
X24730Y-18361D01*
X24704Y-18387D01*
X24679Y-18437D01*
X24679Y-18564D01*
X24704Y-18615D01*
X24730Y-18640D01*
X24780Y-18665D01*
X24932Y-18665D01*
X24983Y-18640D01*
X25008Y-18615D01*
G54D12*
G36*
X22774Y-25577D02*
X22782Y-25573D01*
X22801Y-25561D01*
X22827Y-25544D01*
X22858Y-25523D01*
X22889Y-25502D01*
X22915Y-25485D01*
X22933Y-25473D01*
X22940Y-25469D01*
X22944Y-25470D01*
X22959Y-25478D01*
X22981Y-25489D01*
X22993Y-25495D01*
X23013Y-25504D01*
X23023Y-25506D01*
X23024Y-25503D01*
X23032Y-25488D01*
X23043Y-25462D01*
X23058Y-25428D01*
X23075Y-25388D01*
X23093Y-25345D01*
X23111Y-25301D01*
X23129Y-25259D01*
X23144Y-25221D01*
X23157Y-25191D01*
X23165Y-25169D01*
X23168Y-25160D01*
X23167Y-25158D01*
X23157Y-25149D01*
X23140Y-25136D01*
X23102Y-25105D01*
X23066Y-25059D01*
X23043Y-25007D01*
X23036Y-24949D01*
X23042Y-24896D01*
X23063Y-24845D01*
X23099Y-24798D01*
X23143Y-24764D01*
X23194Y-24742D01*
X23251Y-24735D01*
X23306Y-24741D01*
X23358Y-24762D01*
X23405Y-24797D01*
X23424Y-24820D01*
X23451Y-24867D01*
X23467Y-24917D01*
X23468Y-24929D01*
X23466Y-24985D01*
X23450Y-25038D01*
X23421Y-25085D01*
X23380Y-25124D01*
X23375Y-25128D01*
X23356Y-25142D01*
X23344Y-25151D01*
X23334Y-25159D01*
X23404Y-25329D01*
X23415Y-25356D01*
X23435Y-25402D01*
X23452Y-25442D01*
X23465Y-25474D01*
X23475Y-25495D01*
X23479Y-25504D01*
X23479Y-25504D01*
X23485Y-25505D01*
X23498Y-25500D01*
X23522Y-25489D01*
X23538Y-25481D01*
X23556Y-25472D01*
X23564Y-25469D01*
X23571Y-25473D01*
X23588Y-25484D01*
X23613Y-25501D01*
X23643Y-25521D01*
X23672Y-25541D01*
X23699Y-25559D01*
X23718Y-25571D01*
X23728Y-25576D01*
X23729Y-25576D01*
X23737Y-25571D01*
X23753Y-25559D01*
X23776Y-25537D01*
X23808Y-25505D01*
X23813Y-25500D01*
X23840Y-25472D01*
X23862Y-25449D01*
X23877Y-25433D01*
X23882Y-25426D01*
X23882Y-25426D01*
X23877Y-25416D01*
X23865Y-25397D01*
X23847Y-25370D01*
X23826Y-25339D01*
X23770Y-25257D01*
X23801Y-25180D01*
X23810Y-25157D01*
X23822Y-25128D01*
X23831Y-25108D01*
X23836Y-25099D01*
X23844Y-25096D01*
X23865Y-25091D01*
X23896Y-25084D01*
X23932Y-25078D01*
X23967Y-25071D01*
X23998Y-25065D01*
X24021Y-25061D01*
X24031Y-25059D01*
X24033Y-25057D01*
X24035Y-25052D01*
X24037Y-25042D01*
X24037Y-25023D01*
X24038Y-24993D01*
X24038Y-24949D01*
X24038Y-24945D01*
X24037Y-24903D01*
X24037Y-24870D01*
X24036Y-24849D01*
X24034Y-24841D01*
X24034Y-24841D01*
X24024Y-24838D01*
X24002Y-24834D01*
X23971Y-24827D01*
X23933Y-24820D01*
X23931Y-24820D01*
X23894Y-24813D01*
X23863Y-24806D01*
X23841Y-24801D01*
X23832Y-24798D01*
X23830Y-24796D01*
X23822Y-24781D01*
X23811Y-24758D01*
X23799Y-24730D01*
X23787Y-24701D01*
X23776Y-24674D01*
X23769Y-24655D01*
X23767Y-24646D01*
X23767Y-24646D01*
X23773Y-24637D01*
X23786Y-24617D01*
X23804Y-24591D01*
X23826Y-24559D01*
X23827Y-24556D01*
X23849Y-24525D01*
X23866Y-24498D01*
X23878Y-24479D01*
X23882Y-24471D01*
X23882Y-24470D01*
X23875Y-24461D01*
X23859Y-24443D01*
X23836Y-24419D01*
X23808Y-24391D01*
X23799Y-24383D01*
X23769Y-24353D01*
X23748Y-24333D01*
X23734Y-24323D01*
X23728Y-24320D01*
X23728Y-24321D01*
X23718Y-24326D01*
X23698Y-24339D01*
X23671Y-24358D01*
X23639Y-24379D01*
X23637Y-24381D01*
X23606Y-24402D01*
X23580Y-24420D01*
X23561Y-24432D01*
X23553Y-24437D01*
X23551Y-24437D01*
X23539Y-24433D01*
X23516Y-24426D01*
X23489Y-24415D01*
X23460Y-24403D01*
X23433Y-24392D01*
X23413Y-24383D01*
X23404Y-24378D01*
X23404Y-24377D01*
X23400Y-24366D01*
X23395Y-24342D01*
X23388Y-24310D01*
X23381Y-24271D01*
X23380Y-24265D01*
X23373Y-24228D01*
X23367Y-24197D01*
X23362Y-24175D01*
X23360Y-24166D01*
X23355Y-24165D01*
X23336Y-24164D01*
X23308Y-24163D01*
X23274Y-24163D01*
X23239Y-24163D01*
X23205Y-24164D01*
X23175Y-24165D01*
X23154Y-24166D01*
X23145Y-24168D01*
X23144Y-24169D01*
X23141Y-24180D01*
X23136Y-24204D01*
X23129Y-24236D01*
X23122Y-24275D01*
X23121Y-24282D01*
X23114Y-24319D01*
X23107Y-24350D01*
X23103Y-24371D01*
X23100Y-24379D01*
X23097Y-24381D01*
X23082Y-24388D01*
X23057Y-24398D01*
X23025Y-24411D01*
X22953Y-24440D01*
X22865Y-24379D01*
X22857Y-24374D01*
X22825Y-24352D01*
X22799Y-24335D01*
X22781Y-24323D01*
X22773Y-24319D01*
X22773Y-24319D01*
X22764Y-24327D01*
X22746Y-24343D01*
X22722Y-24367D01*
X22695Y-24394D01*
X22674Y-24415D01*
X22650Y-24440D01*
X22634Y-24456D01*
X22626Y-24467D01*
X22623Y-24474D01*
X22624Y-24478D01*
X22629Y-24487D01*
X22642Y-24506D01*
X22660Y-24533D01*
X22682Y-24564D01*
X22700Y-24591D01*
X22719Y-24620D01*
X22731Y-24641D01*
X22736Y-24652D01*
X22735Y-24656D01*
X22728Y-24673D01*
X22718Y-24700D01*
X22705Y-24731D01*
X22674Y-24801D01*
X22628Y-24809D01*
X22600Y-24815D01*
X22561Y-24822D01*
X22524Y-24829D01*
X22466Y-24841D01*
X22464Y-25053D01*
X22473Y-25057D01*
X22482Y-25060D01*
X22503Y-25064D01*
X22534Y-25070D01*
X22570Y-25077D01*
X22601Y-25083D01*
X22632Y-25089D01*
X22654Y-25093D01*
X22664Y-25095D01*
X22667Y-25099D01*
X22675Y-25114D01*
X22686Y-25138D01*
X22698Y-25167D01*
X22710Y-25196D01*
X22721Y-25224D01*
X22729Y-25245D01*
X22732Y-25256D01*
X22728Y-25264D01*
X22716Y-25282D01*
X22699Y-25308D01*
X22678Y-25339D01*
X22656Y-25370D01*
X22639Y-25397D01*
X22626Y-25416D01*
X22621Y-25424D01*
X22624Y-25430D01*
X22636Y-25445D01*
X22659Y-25469D01*
X22694Y-25504D01*
X22700Y-25509D01*
X22727Y-25536D01*
X22751Y-25557D01*
X22767Y-25572D01*
X22774Y-25577D01*
X22774Y-25577D01*
G37*
G36*
X28289Y-25538D02*
X28309Y-25536D01*
X28327Y-25530D01*
X28335Y-25526D01*
X28352Y-25514D01*
X28365Y-25500D01*
X28375Y-25483D01*
X28382Y-25465D01*
X28385Y-25446D01*
X28384Y-25426D01*
X28380Y-25407D01*
X28371Y-25389D01*
X28365Y-25381D01*
X28357Y-25372D01*
X28348Y-25363D01*
X28340Y-25357D01*
X28337Y-25355D01*
X28320Y-25347D01*
X28302Y-25343D01*
X28283Y-25342D01*
X28276Y-25343D01*
X28265Y-25344D01*
X28256Y-25347D01*
X28245Y-25351D01*
X28234Y-25357D01*
X28218Y-25370D01*
X28205Y-25386D01*
X28195Y-25404D01*
X28192Y-25412D01*
X28190Y-25422D01*
X28189Y-25429D01*
X28189Y-25430D01*
X28188Y-25431D01*
X28188Y-25427D01*
X28188Y-25426D01*
X28185Y-25413D01*
X28180Y-25400D01*
X28174Y-25389D01*
X28163Y-25374D01*
X28148Y-25361D01*
X28131Y-25350D01*
X28111Y-25344D01*
X28091Y-25342D01*
X28085Y-25342D01*
X28070Y-25344D01*
X28055Y-25348D01*
X28052Y-25349D01*
X28035Y-25358D01*
X28020Y-25371D01*
X28008Y-25386D01*
X27999Y-25402D01*
X27994Y-25420D01*
X27993Y-25420D01*
X27992Y-25425D01*
X27992Y-25427D01*
X27992Y-25427D01*
X27992Y-25425D01*
X27990Y-25420D01*
X27990Y-25418D01*
X27984Y-25401D01*
X27975Y-25384D01*
X27962Y-25369D01*
X27950Y-25359D01*
X27933Y-25350D01*
X27914Y-25344D01*
X27893Y-25342D01*
X27879Y-25343D01*
X27859Y-25348D01*
X27841Y-25357D01*
X27825Y-25369D01*
X27813Y-25385D01*
X27811Y-25387D01*
X27807Y-25395D01*
X27804Y-25401D01*
X27802Y-25405D01*
X27799Y-25414D01*
X27797Y-25423D01*
X27796Y-25429D01*
X27796Y-25430D01*
X27796Y-25430D01*
X27795Y-25426D01*
X27793Y-25415D01*
X27788Y-25402D01*
X27782Y-25390D01*
X27770Y-25374D01*
X27755Y-25361D01*
X27738Y-25350D01*
X27718Y-25344D01*
X27698Y-25342D01*
X27679Y-25343D01*
X27660Y-25349D01*
X27643Y-25358D01*
X27627Y-25372D01*
X27619Y-25380D01*
X27612Y-25391D01*
X27606Y-25404D01*
X27602Y-25414D01*
X27599Y-25434D01*
X27600Y-25453D01*
X27604Y-25471D01*
X27611Y-25489D01*
X27622Y-25504D01*
X27636Y-25517D01*
X27652Y-25528D01*
X27670Y-25535D01*
X27690Y-25538D01*
X27691Y-25538D01*
X27712Y-25538D01*
X27730Y-25533D01*
X27748Y-25524D01*
X27755Y-25520D01*
X27768Y-25508D01*
X27779Y-25495D01*
X27788Y-25480D01*
X27790Y-25474D01*
X27792Y-25466D01*
X27794Y-25457D01*
X27795Y-25451D01*
X27795Y-25447D01*
X27796Y-25451D01*
X27796Y-25454D01*
X27798Y-25463D01*
X27801Y-25473D01*
X27804Y-25481D01*
X27809Y-25490D01*
X27821Y-25506D01*
X27836Y-25519D01*
X27853Y-25530D01*
X27873Y-25536D01*
X27876Y-25537D01*
X27890Y-25538D01*
X27904Y-25538D01*
X27917Y-25536D01*
X27930Y-25532D01*
X27948Y-25522D01*
X27965Y-25509D01*
X27966Y-25508D01*
X27977Y-25494D01*
X27985Y-25477D01*
X27990Y-25460D01*
X27991Y-25460D01*
X27992Y-25455D01*
X27992Y-25453D01*
X27992Y-25454D01*
X27993Y-25459D01*
X27993Y-25460D01*
X27996Y-25470D01*
X28001Y-25481D01*
X28006Y-25492D01*
X28015Y-25504D01*
X28030Y-25518D01*
X28047Y-25529D01*
X28067Y-25536D01*
X28070Y-25537D01*
X28083Y-25538D01*
X28098Y-25538D01*
X28110Y-25537D01*
X28121Y-25533D01*
X28140Y-25525D01*
X28156Y-25513D01*
X28170Y-25498D01*
X28180Y-25481D01*
X28182Y-25475D01*
X28185Y-25466D01*
X28187Y-25457D01*
X28188Y-25451D01*
X28188Y-25450D01*
X28188Y-25450D01*
X28189Y-25454D01*
X28189Y-25454D01*
X28192Y-25467D01*
X28197Y-25480D01*
X28203Y-25491D01*
X28205Y-25495D01*
X28218Y-25510D01*
X28234Y-25523D01*
X28251Y-25532D01*
X28269Y-25537D01*
X28289Y-25538D01*
X28289Y-25538D01*
G37*
G36*
X27494Y-25342D02*
X27506Y-25341D01*
X27517Y-25340D01*
X27531Y-25337D01*
X27549Y-25329D01*
X27565Y-25317D01*
X27579Y-25302D01*
X27589Y-25285D01*
X27596Y-25267D01*
X27599Y-25247D01*
X27597Y-25227D01*
X27592Y-25208D01*
X27583Y-25190D01*
X27571Y-25175D01*
X27555Y-25161D01*
X27550Y-25158D01*
X27531Y-25150D01*
X27511Y-25145D01*
X27491Y-25145D01*
X27471Y-25149D01*
X27455Y-25156D01*
X27438Y-25167D01*
X27423Y-25182D01*
X27412Y-25199D01*
X27405Y-25219D01*
X27403Y-25229D01*
X27402Y-25242D01*
X27402Y-25254D01*
X27404Y-25265D01*
X27405Y-25269D01*
X27413Y-25289D01*
X27424Y-25306D01*
X27439Y-25320D01*
X27457Y-25332D01*
X27466Y-25335D01*
X27477Y-25339D01*
X27487Y-25341D01*
X27494Y-25342D01*
X27494Y-25342D01*
G37*
G36*
X28486Y-25342D02*
X28506Y-25339D01*
X28526Y-25332D01*
X28544Y-25321D01*
X28548Y-25318D01*
X28561Y-25304D01*
X28572Y-25287D01*
X28579Y-25267D01*
X28581Y-25257D01*
X28582Y-25245D01*
X28582Y-25232D01*
X28580Y-25222D01*
X28579Y-25217D01*
X28571Y-25197D01*
X28560Y-25181D01*
X28545Y-25166D01*
X28528Y-25156D01*
X28510Y-25148D01*
X28489Y-25145D01*
X28482Y-25145D01*
X28462Y-25147D01*
X28443Y-25153D01*
X28427Y-25163D01*
X28412Y-25176D01*
X28400Y-25191D01*
X28392Y-25208D01*
X28387Y-25227D01*
X28386Y-25248D01*
X28387Y-25260D01*
X28389Y-25270D01*
X28393Y-25282D01*
X28401Y-25297D01*
X28414Y-25312D01*
X28429Y-25325D01*
X28447Y-25335D01*
X28466Y-25340D01*
X28486Y-25342D01*
X28486Y-25342D01*
G37*
G36*
X27298Y-25144D02*
X27312Y-25144D01*
X27324Y-25143D01*
X27338Y-25139D01*
X27356Y-25129D01*
X27373Y-25116D01*
X27383Y-25104D01*
X27393Y-25087D01*
X27400Y-25067D01*
X27401Y-25060D01*
X27402Y-25048D01*
X27401Y-25036D01*
X27400Y-25026D01*
X27398Y-25020D01*
X27391Y-25001D01*
X27379Y-24984D01*
X27365Y-24969D01*
X27347Y-24958D01*
X27340Y-24955D01*
X27328Y-24951D01*
X27315Y-24949D01*
X27300Y-24949D01*
X27291Y-24949D01*
X27280Y-24951D01*
X27270Y-24953D01*
X27260Y-24958D01*
X27253Y-24962D01*
X27237Y-24974D01*
X27223Y-24989D01*
X27213Y-25007D01*
X27207Y-25027D01*
X27206Y-25032D01*
X27205Y-25043D01*
X27205Y-25055D01*
X27207Y-25066D01*
X27208Y-25073D01*
X27216Y-25092D01*
X27227Y-25109D01*
X27242Y-25123D01*
X27259Y-25134D01*
X27279Y-25142D01*
X27285Y-25143D01*
X27298Y-25144D01*
X27298Y-25144D01*
G37*
G36*
X28088Y-25145D02*
X28107Y-25143D01*
X28126Y-25138D01*
X28137Y-25133D01*
X28154Y-25121D01*
X28168Y-25107D01*
X28178Y-25089D01*
X28185Y-25070D01*
X28186Y-25066D01*
X28189Y-25050D01*
X28188Y-25035D01*
X28184Y-25018D01*
X28176Y-24999D01*
X28165Y-24982D01*
X28150Y-24968D01*
X28132Y-24958D01*
X28112Y-24950D01*
X28100Y-24947D01*
X28106Y-24947D01*
X28108Y-24946D01*
X28122Y-24943D01*
X28137Y-24936D01*
X28150Y-24927D01*
X28153Y-24925D01*
X28167Y-24911D01*
X28178Y-24894D01*
X28185Y-24876D01*
X28188Y-24857D01*
X28188Y-24838D01*
X28183Y-24819D01*
X28175Y-24800D01*
X28174Y-24800D01*
X28162Y-24783D01*
X28147Y-24770D01*
X28131Y-24761D01*
X28113Y-24755D01*
X28094Y-24752D01*
X28075Y-24753D01*
X28056Y-24758D01*
X28038Y-24767D01*
X28022Y-24779D01*
X28014Y-24788D01*
X28004Y-24803D01*
X27997Y-24818D01*
X27993Y-24833D01*
X27992Y-24836D01*
X27992Y-24838D01*
X27992Y-24837D01*
X27991Y-24833D01*
X27988Y-24819D01*
X27982Y-24805D01*
X27973Y-24792D01*
X27968Y-24786D01*
X27954Y-24772D01*
X27936Y-24762D01*
X27918Y-24755D01*
X27898Y-24752D01*
X27878Y-24753D01*
X27865Y-24756D01*
X27846Y-24764D01*
X27830Y-24776D01*
X27816Y-24790D01*
X27805Y-24807D01*
X27798Y-24827D01*
X27797Y-24837D01*
X27796Y-24856D01*
X27799Y-24876D01*
X27806Y-24894D01*
X27817Y-24911D01*
X27832Y-24925D01*
X27849Y-24937D01*
X27857Y-24940D01*
X27866Y-24944D01*
X27874Y-24946D01*
X27881Y-24947D01*
X27882Y-24947D01*
X27881Y-24948D01*
X27877Y-24949D01*
X27867Y-24952D01*
X27854Y-24956D01*
X27843Y-24962D01*
X27837Y-24966D01*
X27824Y-24978D01*
X27812Y-24992D01*
X27804Y-25007D01*
X27798Y-25023D01*
X27796Y-25041D01*
X27796Y-25058D01*
X27797Y-25061D01*
X27802Y-25082D01*
X27811Y-25100D01*
X27825Y-25116D01*
X27836Y-25126D01*
X27853Y-25136D01*
X27873Y-25143D01*
X27880Y-25144D01*
X27891Y-25144D01*
X27902Y-25144D01*
X27913Y-25143D01*
X27921Y-25141D01*
X27927Y-25139D01*
X27946Y-25130D01*
X27963Y-25117D01*
X27976Y-25101D01*
X27981Y-25093D01*
X27987Y-25080D01*
X27990Y-25067D01*
X27991Y-25066D01*
X27992Y-25061D01*
X27992Y-25059D01*
X27992Y-25059D01*
X27992Y-25033D01*
X27992Y-25033D01*
X27992Y-25031D01*
X27990Y-25026D01*
X27990Y-25025D01*
X27984Y-25007D01*
X27975Y-24991D01*
X27962Y-24976D01*
X27947Y-24964D01*
X27931Y-24955D01*
X27930Y-24955D01*
X27921Y-24952D01*
X27913Y-24950D01*
X27904Y-24948D01*
X27912Y-24946D01*
X27924Y-24943D01*
X27942Y-24936D01*
X27958Y-24924D01*
X27971Y-24910D01*
X27982Y-24894D01*
X27986Y-24886D01*
X27989Y-24876D01*
X27991Y-24867D01*
X27992Y-24864D01*
X27992Y-24862D01*
X27992Y-24863D01*
X27993Y-24867D01*
X27995Y-24875D01*
X27998Y-24885D01*
X28002Y-24894D01*
X28008Y-24905D01*
X28021Y-24920D01*
X28036Y-24932D01*
X28054Y-24941D01*
X28072Y-24946D01*
X28081Y-24948D01*
X28072Y-24950D01*
X28070Y-24950D01*
X28062Y-24952D01*
X28053Y-24955D01*
X28052Y-24956D01*
X28035Y-24965D01*
X28020Y-24977D01*
X28008Y-24992D01*
X27999Y-25008D01*
X27994Y-25026D01*
X27993Y-25027D01*
X27992Y-25031D01*
X27992Y-25033D01*
X27992Y-25059D01*
X27992Y-25059D01*
X27992Y-25062D01*
X27994Y-25067D01*
X27997Y-25080D01*
X28005Y-25097D01*
X28017Y-25113D01*
X28032Y-25126D01*
X28049Y-25136D01*
X28049Y-25136D01*
X28068Y-25142D01*
X28088Y-25145D01*
X28088Y-25145D01*
G37*
G36*
X28673Y-25144D02*
X28689Y-25144D01*
X28704Y-25142D01*
X28713Y-25139D01*
X28732Y-25131D01*
X28748Y-25118D01*
X28761Y-25104D01*
X28771Y-25086D01*
X28777Y-25067D01*
X28779Y-25046D01*
X28779Y-25038D01*
X28775Y-25018D01*
X28767Y-24999D01*
X28755Y-24981D01*
X28751Y-24978D01*
X28737Y-24966D01*
X28721Y-24957D01*
X28704Y-24951D01*
X28703Y-24950D01*
X28688Y-24948D01*
X28672Y-24948D01*
X28658Y-24950D01*
X28652Y-24952D01*
X28634Y-24960D01*
X28617Y-24971D01*
X28604Y-24985D01*
X28593Y-25001D01*
X28586Y-25019D01*
X28582Y-25038D01*
X28583Y-25058D01*
X28587Y-25078D01*
X28594Y-25093D01*
X28605Y-25109D01*
X28620Y-25124D01*
X28637Y-25134D01*
X28656Y-25142D01*
X28658Y-25142D01*
X28673Y-25144D01*
X28673Y-25144D01*
G37*
G36*
X27700Y-24555D02*
X27720Y-24553D01*
X27739Y-24546D01*
X27748Y-24541D01*
X27756Y-24535D01*
X27766Y-24527D01*
X27776Y-24516D01*
X27786Y-24499D01*
X27793Y-24480D01*
X27794Y-24475D01*
X27795Y-24462D01*
X27795Y-24448D01*
X27794Y-24436D01*
X27788Y-24420D01*
X27779Y-24402D01*
X27767Y-24388D01*
X27765Y-24385D01*
X27756Y-24378D01*
X27746Y-24371D01*
X27736Y-24366D01*
X27732Y-24365D01*
X27724Y-24362D01*
X27716Y-24360D01*
X27710Y-24359D01*
X27707Y-24359D01*
X27711Y-24358D01*
X27715Y-24357D01*
X27722Y-24355D01*
X27729Y-24353D01*
X27744Y-24346D01*
X27758Y-24337D01*
X27770Y-24327D01*
X27772Y-24324D01*
X27783Y-24307D01*
X27791Y-24289D01*
X27795Y-24269D01*
X27795Y-24249D01*
X27795Y-24245D01*
X27789Y-24225D01*
X27780Y-24207D01*
X27766Y-24190D01*
X27754Y-24180D01*
X27737Y-24170D01*
X27718Y-24163D01*
X27714Y-24163D01*
X27701Y-24162D01*
X27687Y-24162D01*
X27675Y-24164D01*
X27663Y-24167D01*
X27645Y-24176D01*
X27630Y-24188D01*
X27617Y-24203D01*
X27607Y-24220D01*
X27601Y-24239D01*
X27600Y-24241D01*
X27599Y-24246D01*
X27598Y-24248D01*
X27598Y-24246D01*
X27597Y-24242D01*
X27595Y-24234D01*
X27592Y-24225D01*
X27589Y-24217D01*
X27586Y-24211D01*
X27574Y-24194D01*
X27559Y-24180D01*
X27541Y-24170D01*
X27522Y-24164D01*
X27501Y-24162D01*
X27485Y-24163D01*
X27466Y-24167D01*
X27449Y-24176D01*
X27439Y-24183D01*
X27424Y-24197D01*
X27413Y-24214D01*
X27406Y-24232D01*
X27402Y-24251D01*
X27402Y-24271D01*
X27407Y-24290D01*
X27415Y-24309D01*
X27427Y-24325D01*
X27442Y-24339D01*
X27459Y-24349D01*
X27479Y-24356D01*
X27491Y-24359D01*
X27484Y-24360D01*
X27480Y-24360D01*
X27464Y-24365D01*
X27449Y-24373D01*
X27434Y-24384D01*
X27423Y-24396D01*
X27416Y-24406D01*
X27409Y-24420D01*
X27405Y-24433D01*
X27403Y-24443D01*
X27402Y-24455D01*
X27402Y-24468D01*
X27404Y-24478D01*
X27407Y-24490D01*
X27417Y-24509D01*
X27429Y-24525D01*
X27445Y-24538D01*
X27463Y-24548D01*
X27484Y-24554D01*
X27489Y-24555D01*
X27501Y-24555D01*
X27514Y-24554D01*
X27525Y-24552D01*
X27533Y-24550D01*
X27551Y-24541D01*
X27568Y-24529D01*
X27581Y-24514D01*
X27591Y-24496D01*
X27597Y-24476D01*
X27597Y-24475D01*
X27598Y-24470D01*
X27599Y-24471D01*
X27599Y-24444D01*
X27598Y-24443D01*
X27597Y-24439D01*
X27597Y-24438D01*
X27594Y-24425D01*
X27587Y-24411D01*
X27579Y-24398D01*
X27573Y-24391D01*
X27558Y-24377D01*
X27540Y-24367D01*
X27520Y-24360D01*
X27511Y-24358D01*
X27517Y-24357D01*
X27523Y-24356D01*
X27530Y-24354D01*
X27534Y-24353D01*
X27552Y-24344D01*
X27567Y-24332D01*
X27581Y-24317D01*
X27590Y-24300D01*
X27597Y-24281D01*
X27598Y-24276D01*
X27599Y-24273D01*
X27600Y-24275D01*
X27601Y-24281D01*
X27601Y-24281D01*
X27604Y-24292D01*
X27609Y-24304D01*
X27615Y-24314D01*
X27620Y-24321D01*
X27629Y-24330D01*
X27639Y-24339D01*
X27648Y-24345D01*
X27649Y-24346D01*
X27664Y-24352D01*
X27680Y-24357D01*
X27687Y-24358D01*
X27679Y-24360D01*
X27662Y-24365D01*
X27644Y-24374D01*
X27628Y-24386D01*
X27616Y-24401D01*
X27613Y-24406D01*
X27608Y-24416D01*
X27604Y-24426D01*
X27601Y-24435D01*
X27600Y-24441D01*
X27600Y-24441D01*
X27599Y-24444D01*
X27599Y-24471D01*
X27599Y-24471D01*
X27600Y-24475D01*
X27602Y-24481D01*
X27603Y-24487D01*
X27607Y-24497D01*
X27617Y-24514D01*
X27630Y-24529D01*
X27645Y-24540D01*
X27663Y-24549D01*
X27681Y-24554D01*
X27700Y-24555D01*
X27700Y-24555D01*
G37*
G36*
X28292Y-24555D02*
X28311Y-24552D01*
X28330Y-24545D01*
X28346Y-24535D01*
X28361Y-24522D01*
X28372Y-24506D01*
X28381Y-24487D01*
X28382Y-24481D01*
X28384Y-24475D01*
X28384Y-24474D01*
X28385Y-24470D01*
X28385Y-24470D01*
X28385Y-24443D01*
X28384Y-24440D01*
X28382Y-24433D01*
X28379Y-24422D01*
X28370Y-24404D01*
X28358Y-24389D01*
X28343Y-24376D01*
X28326Y-24366D01*
X28307Y-24360D01*
X28297Y-24358D01*
X28304Y-24357D01*
X28305Y-24357D01*
X28321Y-24352D01*
X28336Y-24345D01*
X28342Y-24341D01*
X28352Y-24333D01*
X28362Y-24324D01*
X28369Y-24314D01*
X28374Y-24305D01*
X28380Y-24293D01*
X28383Y-24281D01*
X28384Y-24276D01*
X28385Y-24273D01*
X28386Y-24275D01*
X28387Y-24281D01*
X28391Y-24294D01*
X28400Y-24312D01*
X28413Y-24328D01*
X28428Y-24341D01*
X28446Y-24351D01*
X28467Y-24357D01*
X28473Y-24358D01*
X28464Y-24360D01*
X28455Y-24363D01*
X28436Y-24371D01*
X28419Y-24383D01*
X28405Y-24398D01*
X28401Y-24404D01*
X28396Y-24413D01*
X28391Y-24423D01*
X28389Y-24430D01*
X28387Y-24438D01*
X28387Y-24438D01*
X28386Y-24442D01*
X28385Y-24443D01*
X28385Y-24470D01*
X28386Y-24471D01*
X28387Y-24476D01*
X28389Y-24483D01*
X28394Y-24498D01*
X28402Y-24512D01*
X28408Y-24519D01*
X28422Y-24534D01*
X28440Y-24545D01*
X28460Y-24552D01*
X28468Y-24554D01*
X28482Y-24555D01*
X28496Y-24554D01*
X28508Y-24552D01*
X28509Y-24552D01*
X28529Y-24544D01*
X28546Y-24533D01*
X28561Y-24518D01*
X28572Y-24501D01*
X28579Y-24481D01*
X28581Y-24472D01*
X28582Y-24458D01*
X28581Y-24445D01*
X28579Y-24433D01*
X28576Y-24422D01*
X28569Y-24408D01*
X28561Y-24396D01*
X28552Y-24386D01*
X28540Y-24376D01*
X28527Y-24368D01*
X28523Y-24366D01*
X28513Y-24363D01*
X28504Y-24360D01*
X28497Y-24359D01*
X28496Y-24359D01*
X28499Y-24358D01*
X28504Y-24356D01*
X28516Y-24353D01*
X28529Y-24347D01*
X28539Y-24341D01*
X28542Y-24340D01*
X28554Y-24328D01*
X28566Y-24314D01*
X28574Y-24300D01*
X28577Y-24292D01*
X28581Y-24273D01*
X28582Y-24252D01*
X28578Y-24233D01*
X28577Y-24228D01*
X28569Y-24210D01*
X28557Y-24194D01*
X28542Y-24180D01*
X28524Y-24170D01*
X28505Y-24163D01*
X28502Y-24163D01*
X28488Y-24162D01*
X28474Y-24162D01*
X28461Y-24164D01*
X28458Y-24165D01*
X28438Y-24172D01*
X28421Y-24184D01*
X28407Y-24199D01*
X28395Y-24217D01*
X28393Y-24222D01*
X28390Y-24231D01*
X28387Y-24240D01*
X28386Y-24246D01*
X28386Y-24247D01*
X28386Y-24248D01*
X28384Y-24245D01*
X28383Y-24240D01*
X28380Y-24226D01*
X28371Y-24209D01*
X28359Y-24193D01*
X28345Y-24180D01*
X28327Y-24170D01*
X28327Y-24170D01*
X28309Y-24164D01*
X28289Y-24162D01*
X28269Y-24163D01*
X28251Y-24168D01*
X28240Y-24173D01*
X28223Y-24185D01*
X28209Y-24200D01*
X28198Y-24217D01*
X28191Y-24236D01*
X28190Y-24240D01*
X28188Y-24256D01*
X28189Y-24271D01*
X28193Y-24289D01*
X28201Y-24308D01*
X28213Y-24325D01*
X28228Y-24339D01*
X28246Y-24349D01*
X28266Y-24356D01*
X28270Y-24357D01*
X28274Y-24359D01*
X28274Y-24359D01*
X28268Y-24360D01*
X28256Y-24363D01*
X28244Y-24368D01*
X28233Y-24375D01*
X28222Y-24383D01*
X28208Y-24398D01*
X28197Y-24416D01*
X28196Y-24419D01*
X28190Y-24438D01*
X28188Y-24458D01*
X28191Y-24479D01*
X28197Y-24498D01*
X28202Y-24507D01*
X28208Y-24516D01*
X28216Y-24525D01*
X28217Y-24526D01*
X28233Y-24539D01*
X28250Y-24548D01*
X28270Y-24554D01*
X28272Y-24554D01*
X28292Y-24555D01*
X28292Y-24555D01*
G37*
G54D13*
X18968Y-26055D02*
X19968Y-26055D01*
X18968Y-27055D02*
X19968Y-27055D01*
X19968Y-27055D02*
X19968Y-26055D01*
X18968Y-26055D02*
X18968Y-27055D01*
X18181Y-24283D02*
X19181Y-24283D01*
X18181Y-25283D02*
X19181Y-25283D01*
X19181Y-25283D02*
X19181Y-24283D01*
X18181Y-24283D02*
X18181Y-25283D01*
G54D12*
G36*
X31320Y-22754D02*
X31340Y-22752D01*
X31358Y-22746D01*
X31366Y-22742D01*
X31383Y-22730D01*
X31396Y-22716D01*
X31406Y-22699D01*
X31413Y-22681D01*
X31416Y-22662D01*
X31415Y-22642D01*
X31411Y-22623D01*
X31402Y-22605D01*
X31396Y-22597D01*
X31388Y-22588D01*
X31379Y-22579D01*
X31371Y-22573D01*
X31368Y-22571D01*
X31351Y-22563D01*
X31333Y-22559D01*
X31314Y-22558D01*
X31307Y-22559D01*
X31296Y-22560D01*
X31287Y-22563D01*
X31276Y-22567D01*
X31265Y-22573D01*
X31249Y-22586D01*
X31236Y-22602D01*
X31226Y-22620D01*
X31223Y-22628D01*
X31221Y-22638D01*
X31220Y-22645D01*
X31220Y-22646D01*
X31219Y-22647D01*
X31219Y-22643D01*
X31219Y-22642D01*
X31216Y-22629D01*
X31211Y-22616D01*
X31205Y-22605D01*
X31194Y-22590D01*
X31179Y-22577D01*
X31162Y-22566D01*
X31142Y-22560D01*
X31122Y-22558D01*
X31116Y-22558D01*
X31101Y-22560D01*
X31086Y-22564D01*
X31083Y-22565D01*
X31066Y-22574D01*
X31051Y-22587D01*
X31039Y-22602D01*
X31030Y-22618D01*
X31025Y-22636D01*
X31024Y-22636D01*
X31023Y-22641D01*
X31023Y-22643D01*
X31023Y-22643D01*
X31023Y-22641D01*
X31021Y-22636D01*
X31021Y-22634D01*
X31015Y-22617D01*
X31006Y-22600D01*
X30993Y-22585D01*
X30981Y-22575D01*
X30964Y-22566D01*
X30945Y-22560D01*
X30924Y-22558D01*
X30910Y-22559D01*
X30890Y-22564D01*
X30872Y-22573D01*
X30856Y-22585D01*
X30844Y-22601D01*
X30842Y-22603D01*
X30838Y-22611D01*
X30835Y-22617D01*
X30833Y-22621D01*
X30830Y-22630D01*
X30828Y-22639D01*
X30827Y-22645D01*
X30827Y-22646D01*
X30827Y-22646D01*
X30826Y-22642D01*
X30824Y-22631D01*
X30819Y-22618D01*
X30813Y-22606D01*
X30801Y-22590D01*
X30786Y-22577D01*
X30769Y-22566D01*
X30749Y-22560D01*
X30729Y-22558D01*
X30710Y-22559D01*
X30691Y-22565D01*
X30674Y-22574D01*
X30658Y-22588D01*
X30650Y-22596D01*
X30643Y-22607D01*
X30637Y-22620D01*
X30633Y-22630D01*
X30630Y-22650D01*
X30631Y-22669D01*
X30635Y-22687D01*
X30642Y-22705D01*
X30653Y-22720D01*
X30667Y-22733D01*
X30683Y-22744D01*
X30701Y-22751D01*
X30721Y-22754D01*
X30722Y-22754D01*
X30743Y-22754D01*
X30761Y-22749D01*
X30779Y-22740D01*
X30786Y-22736D01*
X30799Y-22724D01*
X30810Y-22711D01*
X30819Y-22696D01*
X30821Y-22690D01*
X30823Y-22682D01*
X30825Y-22673D01*
X30826Y-22667D01*
X30826Y-22663D01*
X30827Y-22667D01*
X30827Y-22670D01*
X30829Y-22679D01*
X30832Y-22689D01*
X30835Y-22697D01*
X30840Y-22706D01*
X30852Y-22722D01*
X30867Y-22735D01*
X30884Y-22746D01*
X30904Y-22752D01*
X30907Y-22753D01*
X30921Y-22754D01*
X30935Y-22754D01*
X30948Y-22752D01*
X30961Y-22748D01*
X30979Y-22738D01*
X30996Y-22725D01*
X30997Y-22724D01*
X31008Y-22710D01*
X31016Y-22693D01*
X31021Y-22676D01*
X31022Y-22676D01*
X31023Y-22671D01*
X31023Y-22669D01*
X31023Y-22670D01*
X31024Y-22675D01*
X31024Y-22676D01*
X31027Y-22686D01*
X31032Y-22697D01*
X31037Y-22708D01*
X31046Y-22720D01*
X31061Y-22734D01*
X31078Y-22745D01*
X31098Y-22752D01*
X31101Y-22753D01*
X31114Y-22754D01*
X31129Y-22754D01*
X31141Y-22753D01*
X31152Y-22749D01*
X31171Y-22741D01*
X31187Y-22729D01*
X31201Y-22714D01*
X31211Y-22697D01*
X31213Y-22691D01*
X31216Y-22682D01*
X31218Y-22673D01*
X31219Y-22667D01*
X31219Y-22666D01*
X31219Y-22666D01*
X31220Y-22670D01*
X31220Y-22670D01*
X31223Y-22683D01*
X31228Y-22696D01*
X31234Y-22707D01*
X31236Y-22711D01*
X31249Y-22726D01*
X31265Y-22739D01*
X31282Y-22748D01*
X31300Y-22753D01*
X31320Y-22754D01*
X31320Y-22754D01*
G37*
G36*
X30525Y-22558D02*
X30537Y-22557D01*
X30548Y-22556D01*
X30562Y-22553D01*
X30580Y-22545D01*
X30596Y-22533D01*
X30610Y-22518D01*
X30620Y-22501D01*
X30627Y-22483D01*
X30630Y-22463D01*
X30628Y-22443D01*
X30623Y-22424D01*
X30614Y-22406D01*
X30602Y-22391D01*
X30586Y-22377D01*
X30581Y-22374D01*
X30562Y-22366D01*
X30542Y-22361D01*
X30522Y-22361D01*
X30502Y-22365D01*
X30486Y-22372D01*
X30469Y-22383D01*
X30454Y-22398D01*
X30443Y-22415D01*
X30436Y-22435D01*
X30434Y-22445D01*
X30433Y-22458D01*
X30433Y-22470D01*
X30435Y-22481D01*
X30436Y-22485D01*
X30444Y-22505D01*
X30455Y-22522D01*
X30470Y-22536D01*
X30488Y-22548D01*
X30497Y-22551D01*
X30508Y-22555D01*
X30518Y-22557D01*
X30525Y-22558D01*
X30525Y-22558D01*
G37*
G36*
X31517Y-22558D02*
X31537Y-22555D01*
X31557Y-22548D01*
X31575Y-22537D01*
X31579Y-22534D01*
X31592Y-22520D01*
X31603Y-22503D01*
X31610Y-22483D01*
X31612Y-22473D01*
X31613Y-22461D01*
X31613Y-22448D01*
X31611Y-22438D01*
X31610Y-22433D01*
X31602Y-22413D01*
X31591Y-22397D01*
X31576Y-22382D01*
X31559Y-22372D01*
X31541Y-22364D01*
X31520Y-22361D01*
X31513Y-22361D01*
X31493Y-22363D01*
X31474Y-22369D01*
X31458Y-22379D01*
X31443Y-22392D01*
X31431Y-22407D01*
X31423Y-22424D01*
X31418Y-22443D01*
X31417Y-22464D01*
X31418Y-22476D01*
X31420Y-22486D01*
X31424Y-22498D01*
X31432Y-22513D01*
X31445Y-22528D01*
X31460Y-22541D01*
X31478Y-22551D01*
X31497Y-22556D01*
X31517Y-22558D01*
X31517Y-22558D01*
G37*
G36*
X30329Y-22360D02*
X30343Y-22360D01*
X30355Y-22359D01*
X30369Y-22355D01*
X30387Y-22345D01*
X30404Y-22332D01*
X30414Y-22320D01*
X30424Y-22303D01*
X30431Y-22283D01*
X30432Y-22276D01*
X30433Y-22264D01*
X30432Y-22252D01*
X30431Y-22242D01*
X30429Y-22236D01*
X30422Y-22217D01*
X30410Y-22200D01*
X30396Y-22185D01*
X30378Y-22174D01*
X30371Y-22171D01*
X30359Y-22167D01*
X30346Y-22165D01*
X30331Y-22165D01*
X30322Y-22165D01*
X30311Y-22167D01*
X30301Y-22169D01*
X30291Y-22174D01*
X30284Y-22178D01*
X30268Y-22190D01*
X30254Y-22205D01*
X30244Y-22223D01*
X30238Y-22243D01*
X30237Y-22248D01*
X30236Y-22259D01*
X30236Y-22271D01*
X30238Y-22282D01*
X30239Y-22289D01*
X30247Y-22308D01*
X30258Y-22325D01*
X30273Y-22339D01*
X30290Y-22350D01*
X30310Y-22358D01*
X30316Y-22359D01*
X30329Y-22360D01*
X30329Y-22360D01*
G37*
G36*
X31119Y-22361D02*
X31138Y-22359D01*
X31157Y-22354D01*
X31168Y-22349D01*
X31185Y-22337D01*
X31199Y-22323D01*
X31209Y-22305D01*
X31216Y-22286D01*
X31217Y-22282D01*
X31220Y-22266D01*
X31219Y-22251D01*
X31215Y-22234D01*
X31207Y-22215D01*
X31196Y-22198D01*
X31181Y-22184D01*
X31163Y-22174D01*
X31143Y-22166D01*
X31131Y-22163D01*
X31137Y-22163D01*
X31139Y-22162D01*
X31153Y-22159D01*
X31168Y-22152D01*
X31181Y-22143D01*
X31184Y-22141D01*
X31198Y-22127D01*
X31209Y-22110D01*
X31216Y-22092D01*
X31219Y-22073D01*
X31219Y-22054D01*
X31214Y-22035D01*
X31206Y-22016D01*
X31205Y-22016D01*
X31193Y-21999D01*
X31178Y-21986D01*
X31162Y-21977D01*
X31144Y-21971D01*
X31125Y-21968D01*
X31106Y-21969D01*
X31087Y-21974D01*
X31069Y-21983D01*
X31053Y-21995D01*
X31045Y-22004D01*
X31035Y-22019D01*
X31028Y-22034D01*
X31024Y-22049D01*
X31023Y-22052D01*
X31023Y-22054D01*
X31023Y-22053D01*
X31022Y-22049D01*
X31019Y-22035D01*
X31013Y-22021D01*
X31004Y-22008D01*
X30999Y-22002D01*
X30985Y-21988D01*
X30967Y-21978D01*
X30949Y-21971D01*
X30929Y-21968D01*
X30909Y-21969D01*
X30896Y-21972D01*
X30877Y-21980D01*
X30861Y-21992D01*
X30847Y-22006D01*
X30836Y-22023D01*
X30829Y-22043D01*
X30828Y-22053D01*
X30827Y-22072D01*
X30830Y-22092D01*
X30837Y-22110D01*
X30848Y-22127D01*
X30863Y-22141D01*
X30880Y-22153D01*
X30888Y-22156D01*
X30897Y-22160D01*
X30905Y-22162D01*
X30912Y-22163D01*
X30913Y-22163D01*
X30912Y-22164D01*
X30908Y-22165D01*
X30898Y-22168D01*
X30885Y-22172D01*
X30874Y-22178D01*
X30868Y-22182D01*
X30855Y-22194D01*
X30843Y-22208D01*
X30835Y-22223D01*
X30829Y-22239D01*
X30827Y-22257D01*
X30827Y-22274D01*
X30828Y-22277D01*
X30833Y-22298D01*
X30842Y-22316D01*
X30856Y-22332D01*
X30867Y-22342D01*
X30884Y-22352D01*
X30904Y-22359D01*
X30911Y-22360D01*
X30922Y-22360D01*
X30933Y-22360D01*
X30944Y-22359D01*
X30952Y-22357D01*
X30958Y-22355D01*
X30977Y-22346D01*
X30994Y-22333D01*
X31007Y-22317D01*
X31012Y-22309D01*
X31018Y-22296D01*
X31021Y-22283D01*
X31022Y-22282D01*
X31023Y-22277D01*
X31023Y-22275D01*
X31023Y-22275D01*
X31023Y-22249D01*
X31023Y-22249D01*
X31023Y-22247D01*
X31021Y-22242D01*
X31021Y-22241D01*
X31015Y-22223D01*
X31006Y-22207D01*
X30993Y-22192D01*
X30978Y-22180D01*
X30962Y-22171D01*
X30961Y-22171D01*
X30952Y-22168D01*
X30944Y-22166D01*
X30935Y-22164D01*
X30943Y-22162D01*
X30955Y-22159D01*
X30973Y-22152D01*
X30989Y-22140D01*
X31002Y-22126D01*
X31013Y-22110D01*
X31017Y-22102D01*
X31020Y-22092D01*
X31022Y-22083D01*
X31023Y-22080D01*
X31023Y-22078D01*
X31023Y-22079D01*
X31024Y-22083D01*
X31026Y-22091D01*
X31029Y-22101D01*
X31033Y-22110D01*
X31039Y-22121D01*
X31052Y-22136D01*
X31067Y-22148D01*
X31085Y-22157D01*
X31103Y-22162D01*
X31112Y-22164D01*
X31103Y-22166D01*
X31101Y-22166D01*
X31093Y-22168D01*
X31084Y-22171D01*
X31083Y-22172D01*
X31066Y-22181D01*
X31051Y-22193D01*
X31039Y-22208D01*
X31030Y-22224D01*
X31025Y-22242D01*
X31024Y-22243D01*
X31023Y-22247D01*
X31023Y-22249D01*
X31023Y-22275D01*
X31023Y-22275D01*
X31023Y-22278D01*
X31025Y-22283D01*
X31028Y-22296D01*
X31036Y-22313D01*
X31048Y-22329D01*
X31063Y-22342D01*
X31080Y-22352D01*
X31080Y-22352D01*
X31099Y-22358D01*
X31119Y-22361D01*
X31119Y-22361D01*
G37*
G36*
X31704Y-22360D02*
X31720Y-22360D01*
X31735Y-22358D01*
X31744Y-22355D01*
X31763Y-22347D01*
X31779Y-22334D01*
X31792Y-22320D01*
X31802Y-22302D01*
X31808Y-22283D01*
X31810Y-22262D01*
X31810Y-22254D01*
X31806Y-22234D01*
X31798Y-22215D01*
X31786Y-22197D01*
X31782Y-22194D01*
X31768Y-22182D01*
X31752Y-22173D01*
X31735Y-22167D01*
X31734Y-22166D01*
X31719Y-22164D01*
X31703Y-22164D01*
X31689Y-22166D01*
X31683Y-22168D01*
X31665Y-22176D01*
X31648Y-22187D01*
X31635Y-22201D01*
X31624Y-22217D01*
X31617Y-22235D01*
X31613Y-22254D01*
X31614Y-22274D01*
X31618Y-22294D01*
X31625Y-22309D01*
X31636Y-22325D01*
X31651Y-22340D01*
X31668Y-22350D01*
X31687Y-22358D01*
X31689Y-22358D01*
X31704Y-22360D01*
X31704Y-22360D01*
G37*
G36*
X30731Y-21771D02*
X30751Y-21769D01*
X30770Y-21762D01*
X30779Y-21757D01*
X30787Y-21751D01*
X30797Y-21743D01*
X30807Y-21732D01*
X30817Y-21715D01*
X30824Y-21696D01*
X30825Y-21691D01*
X30826Y-21678D01*
X30826Y-21664D01*
X30825Y-21652D01*
X30819Y-21636D01*
X30810Y-21618D01*
X30798Y-21604D01*
X30796Y-21601D01*
X30787Y-21594D01*
X30777Y-21587D01*
X30767Y-21582D01*
X30763Y-21581D01*
X30755Y-21578D01*
X30747Y-21576D01*
X30741Y-21575D01*
X30738Y-21575D01*
X30742Y-21574D01*
X30746Y-21573D01*
X30753Y-21571D01*
X30760Y-21569D01*
X30775Y-21562D01*
X30789Y-21553D01*
X30801Y-21543D01*
X30803Y-21540D01*
X30814Y-21523D01*
X30822Y-21505D01*
X30826Y-21485D01*
X30826Y-21465D01*
X30826Y-21461D01*
X30820Y-21441D01*
X30811Y-21423D01*
X30797Y-21406D01*
X30785Y-21396D01*
X30768Y-21386D01*
X30749Y-21379D01*
X30745Y-21379D01*
X30732Y-21378D01*
X30718Y-21378D01*
X30706Y-21380D01*
X30694Y-21383D01*
X30676Y-21392D01*
X30661Y-21404D01*
X30648Y-21419D01*
X30638Y-21436D01*
X30632Y-21455D01*
X30631Y-21457D01*
X30630Y-21462D01*
X30629Y-21464D01*
X30629Y-21462D01*
X30628Y-21458D01*
X30626Y-21450D01*
X30623Y-21441D01*
X30620Y-21433D01*
X30617Y-21427D01*
X30605Y-21410D01*
X30590Y-21396D01*
X30572Y-21386D01*
X30553Y-21380D01*
X30532Y-21378D01*
X30516Y-21379D01*
X30497Y-21383D01*
X30480Y-21392D01*
X30470Y-21399D01*
X30455Y-21413D01*
X30444Y-21430D01*
X30437Y-21448D01*
X30433Y-21467D01*
X30433Y-21487D01*
X30438Y-21506D01*
X30446Y-21525D01*
X30458Y-21541D01*
X30473Y-21555D01*
X30490Y-21565D01*
X30510Y-21572D01*
X30522Y-21575D01*
X30515Y-21576D01*
X30511Y-21576D01*
X30495Y-21581D01*
X30480Y-21589D01*
X30465Y-21600D01*
X30454Y-21612D01*
X30447Y-21622D01*
X30440Y-21636D01*
X30436Y-21649D01*
X30434Y-21659D01*
X30433Y-21671D01*
X30433Y-21684D01*
X30435Y-21694D01*
X30438Y-21706D01*
X30448Y-21725D01*
X30460Y-21741D01*
X30476Y-21754D01*
X30494Y-21764D01*
X30515Y-21770D01*
X30520Y-21771D01*
X30532Y-21771D01*
X30545Y-21770D01*
X30556Y-21768D01*
X30564Y-21766D01*
X30582Y-21757D01*
X30599Y-21745D01*
X30612Y-21730D01*
X30622Y-21712D01*
X30628Y-21692D01*
X30628Y-21691D01*
X30629Y-21686D01*
X30630Y-21687D01*
X30630Y-21660D01*
X30629Y-21659D01*
X30628Y-21655D01*
X30628Y-21654D01*
X30625Y-21641D01*
X30618Y-21627D01*
X30610Y-21614D01*
X30604Y-21607D01*
X30589Y-21593D01*
X30571Y-21583D01*
X30551Y-21576D01*
X30542Y-21574D01*
X30548Y-21573D01*
X30554Y-21572D01*
X30561Y-21570D01*
X30565Y-21569D01*
X30583Y-21560D01*
X30598Y-21548D01*
X30612Y-21533D01*
X30621Y-21516D01*
X30628Y-21497D01*
X30629Y-21492D01*
X30630Y-21489D01*
X30631Y-21491D01*
X30632Y-21497D01*
X30632Y-21497D01*
X30635Y-21508D01*
X30640Y-21520D01*
X30646Y-21530D01*
X30651Y-21537D01*
X30660Y-21546D01*
X30670Y-21555D01*
X30679Y-21561D01*
X30680Y-21562D01*
X30695Y-21568D01*
X30711Y-21573D01*
X30718Y-21574D01*
X30710Y-21576D01*
X30693Y-21581D01*
X30675Y-21590D01*
X30659Y-21602D01*
X30647Y-21617D01*
X30644Y-21622D01*
X30639Y-21632D01*
X30635Y-21642D01*
X30632Y-21651D01*
X30631Y-21657D01*
X30631Y-21657D01*
X30630Y-21660D01*
X30630Y-21687D01*
X30630Y-21687D01*
X30631Y-21691D01*
X30633Y-21697D01*
X30634Y-21703D01*
X30638Y-21713D01*
X30648Y-21730D01*
X30661Y-21745D01*
X30676Y-21756D01*
X30694Y-21765D01*
X30712Y-21770D01*
X30731Y-21771D01*
X30731Y-21771D01*
G37*
G36*
X31323Y-21771D02*
X31342Y-21768D01*
X31361Y-21761D01*
X31377Y-21751D01*
X31392Y-21738D01*
X31403Y-21722D01*
X31412Y-21703D01*
X31413Y-21697D01*
X31415Y-21691D01*
X31415Y-21690D01*
X31416Y-21686D01*
X31416Y-21686D01*
X31416Y-21659D01*
X31415Y-21656D01*
X31413Y-21649D01*
X31410Y-21638D01*
X31401Y-21620D01*
X31389Y-21605D01*
X31374Y-21592D01*
X31357Y-21582D01*
X31338Y-21576D01*
X31328Y-21574D01*
X31335Y-21573D01*
X31336Y-21573D01*
X31352Y-21568D01*
X31367Y-21561D01*
X31373Y-21557D01*
X31383Y-21549D01*
X31393Y-21540D01*
X31400Y-21530D01*
X31405Y-21521D01*
X31411Y-21509D01*
X31414Y-21497D01*
X31415Y-21492D01*
X31416Y-21489D01*
X31417Y-21491D01*
X31418Y-21497D01*
X31422Y-21510D01*
X31431Y-21528D01*
X31444Y-21544D01*
X31459Y-21557D01*
X31477Y-21567D01*
X31498Y-21573D01*
X31504Y-21574D01*
X31495Y-21576D01*
X31486Y-21579D01*
X31467Y-21587D01*
X31450Y-21599D01*
X31436Y-21614D01*
X31432Y-21620D01*
X31427Y-21629D01*
X31422Y-21639D01*
X31420Y-21646D01*
X31418Y-21654D01*
X31418Y-21654D01*
X31417Y-21658D01*
X31416Y-21659D01*
X31416Y-21686D01*
X31417Y-21687D01*
X31418Y-21692D01*
X31420Y-21699D01*
X31425Y-21714D01*
X31433Y-21728D01*
X31439Y-21735D01*
X31453Y-21750D01*
X31471Y-21761D01*
X31491Y-21768D01*
X31499Y-21770D01*
X31513Y-21771D01*
X31527Y-21770D01*
X31539Y-21768D01*
X31540Y-21768D01*
X31560Y-21760D01*
X31577Y-21749D01*
X31592Y-21734D01*
X31603Y-21717D01*
X31610Y-21697D01*
X31612Y-21688D01*
X31613Y-21674D01*
X31612Y-21661D01*
X31610Y-21649D01*
X31607Y-21638D01*
X31600Y-21624D01*
X31592Y-21612D01*
X31583Y-21602D01*
X31571Y-21592D01*
X31558Y-21584D01*
X31554Y-21582D01*
X31544Y-21579D01*
X31535Y-21576D01*
X31528Y-21575D01*
X31527Y-21575D01*
X31530Y-21574D01*
X31535Y-21572D01*
X31547Y-21569D01*
X31560Y-21563D01*
X31570Y-21557D01*
X31573Y-21556D01*
X31585Y-21544D01*
X31597Y-21530D01*
X31605Y-21516D01*
X31608Y-21508D01*
X31612Y-21489D01*
X31613Y-21468D01*
X31609Y-21449D01*
X31608Y-21444D01*
X31600Y-21426D01*
X31588Y-21410D01*
X31573Y-21396D01*
X31555Y-21386D01*
X31536Y-21379D01*
X31533Y-21379D01*
X31519Y-21378D01*
X31505Y-21378D01*
X31492Y-21380D01*
X31489Y-21381D01*
X31469Y-21388D01*
X31452Y-21400D01*
X31438Y-21415D01*
X31426Y-21433D01*
X31424Y-21438D01*
X31421Y-21447D01*
X31418Y-21456D01*
X31417Y-21462D01*
X31417Y-21463D01*
X31417Y-21464D01*
X31415Y-21461D01*
X31414Y-21456D01*
X31411Y-21442D01*
X31402Y-21425D01*
X31390Y-21409D01*
X31376Y-21396D01*
X31358Y-21386D01*
X31358Y-21386D01*
X31340Y-21380D01*
X31320Y-21378D01*
X31300Y-21379D01*
X31282Y-21384D01*
X31271Y-21389D01*
X31254Y-21401D01*
X31240Y-21416D01*
X31229Y-21433D01*
X31222Y-21452D01*
X31221Y-21456D01*
X31219Y-21472D01*
X31220Y-21487D01*
X31224Y-21505D01*
X31232Y-21524D01*
X31244Y-21541D01*
X31259Y-21555D01*
X31277Y-21565D01*
X31297Y-21572D01*
X31301Y-21573D01*
X31305Y-21575D01*
X31305Y-21575D01*
X31299Y-21576D01*
X31287Y-21579D01*
X31275Y-21584D01*
X31264Y-21591D01*
X31253Y-21599D01*
X31239Y-21614D01*
X31228Y-21632D01*
X31227Y-21635D01*
X31221Y-21654D01*
X31219Y-21674D01*
X31222Y-21695D01*
X31228Y-21714D01*
X31233Y-21723D01*
X31239Y-21732D01*
X31247Y-21741D01*
X31248Y-21742D01*
X31264Y-21755D01*
X31281Y-21764D01*
X31301Y-21770D01*
X31303Y-21770D01*
X31323Y-21771D01*
X31323Y-21771D01*
G37*
G36*
X19503Y-22773D02*
X19511Y-22769D01*
X19530Y-22757D01*
X19556Y-22740D01*
X19587Y-22719D01*
X19618Y-22698D01*
X19644Y-22681D01*
X19662Y-22669D01*
X19669Y-22665D01*
X19673Y-22666D01*
X19688Y-22674D01*
X19710Y-22685D01*
X19722Y-22691D01*
X19742Y-22700D01*
X19752Y-22702D01*
X19753Y-22699D01*
X19761Y-22684D01*
X19772Y-22658D01*
X19787Y-22624D01*
X19804Y-22584D01*
X19822Y-22541D01*
X19840Y-22497D01*
X19858Y-22455D01*
X19873Y-22417D01*
X19886Y-22387D01*
X19894Y-22365D01*
X19897Y-22356D01*
X19896Y-22354D01*
X19886Y-22345D01*
X19869Y-22332D01*
X19831Y-22301D01*
X19795Y-22255D01*
X19772Y-22203D01*
X19765Y-22145D01*
X19771Y-22092D01*
X19792Y-22041D01*
X19828Y-21994D01*
X19872Y-21960D01*
X19923Y-21938D01*
X19980Y-21931D01*
X20035Y-21937D01*
X20087Y-21958D01*
X20134Y-21993D01*
X20153Y-22016D01*
X20180Y-22063D01*
X20196Y-22113D01*
X20197Y-22125D01*
X20195Y-22181D01*
X20179Y-22234D01*
X20150Y-22281D01*
X20109Y-22320D01*
X20104Y-22324D01*
X20085Y-22338D01*
X20073Y-22347D01*
X20063Y-22355D01*
X20133Y-22525D01*
X20144Y-22552D01*
X20164Y-22598D01*
X20181Y-22638D01*
X20194Y-22670D01*
X20204Y-22691D01*
X20208Y-22700D01*
X20208Y-22700D01*
X20214Y-22701D01*
X20227Y-22696D01*
X20251Y-22685D01*
X20267Y-22677D01*
X20285Y-22668D01*
X20293Y-22665D01*
X20300Y-22669D01*
X20317Y-22680D01*
X20342Y-22697D01*
X20372Y-22717D01*
X20401Y-22737D01*
X20428Y-22755D01*
X20447Y-22767D01*
X20457Y-22772D01*
X20458Y-22772D01*
X20466Y-22767D01*
X20482Y-22755D01*
X20505Y-22733D01*
X20537Y-22701D01*
X20542Y-22696D01*
X20569Y-22668D01*
X20591Y-22645D01*
X20606Y-22629D01*
X20611Y-22622D01*
X20611Y-22622D01*
X20606Y-22612D01*
X20594Y-22593D01*
X20576Y-22566D01*
X20555Y-22535D01*
X20499Y-22453D01*
X20530Y-22376D01*
X20539Y-22353D01*
X20551Y-22324D01*
X20560Y-22304D01*
X20565Y-22295D01*
X20573Y-22292D01*
X20594Y-22287D01*
X20625Y-22280D01*
X20661Y-22274D01*
X20696Y-22267D01*
X20727Y-22261D01*
X20750Y-22257D01*
X20760Y-22255D01*
X20762Y-22253D01*
X20764Y-22248D01*
X20766Y-22238D01*
X20766Y-22219D01*
X20767Y-22189D01*
X20767Y-22145D01*
X20767Y-22141D01*
X20766Y-22099D01*
X20766Y-22066D01*
X20765Y-22045D01*
X20763Y-22037D01*
X20763Y-22037D01*
X20753Y-22034D01*
X20731Y-22030D01*
X20700Y-22023D01*
X20662Y-22016D01*
X20660Y-22016D01*
X20623Y-22009D01*
X20592Y-22002D01*
X20570Y-21997D01*
X20561Y-21994D01*
X20559Y-21992D01*
X20551Y-21977D01*
X20540Y-21954D01*
X20528Y-21926D01*
X20516Y-21897D01*
X20505Y-21870D01*
X20498Y-21851D01*
X20496Y-21842D01*
X20496Y-21842D01*
X20502Y-21833D01*
X20515Y-21813D01*
X20533Y-21787D01*
X20555Y-21755D01*
X20556Y-21752D01*
X20578Y-21721D01*
X20595Y-21694D01*
X20607Y-21675D01*
X20611Y-21667D01*
X20611Y-21666D01*
X20604Y-21657D01*
X20588Y-21639D01*
X20565Y-21615D01*
X20537Y-21587D01*
X20528Y-21579D01*
X20498Y-21549D01*
X20477Y-21529D01*
X20463Y-21519D01*
X20457Y-21516D01*
X20457Y-21517D01*
X20447Y-21522D01*
X20427Y-21535D01*
X20400Y-21554D01*
X20368Y-21575D01*
X20366Y-21577D01*
X20335Y-21598D01*
X20309Y-21616D01*
X20290Y-21628D01*
X20282Y-21633D01*
X20280Y-21633D01*
X20268Y-21629D01*
X20245Y-21622D01*
X20218Y-21611D01*
X20189Y-21599D01*
X20162Y-21588D01*
X20142Y-21579D01*
X20133Y-21574D01*
X20133Y-21573D01*
X20129Y-21562D01*
X20124Y-21538D01*
X20117Y-21506D01*
X20110Y-21467D01*
X20109Y-21461D01*
X20102Y-21424D01*
X20096Y-21393D01*
X20091Y-21371D01*
X20089Y-21362D01*
X20084Y-21361D01*
X20065Y-21360D01*
X20037Y-21359D01*
X20003Y-21359D01*
X19968Y-21359D01*
X19934Y-21360D01*
X19904Y-21361D01*
X19883Y-21362D01*
X19874Y-21364D01*
X19873Y-21365D01*
X19870Y-21376D01*
X19865Y-21400D01*
X19858Y-21432D01*
X19851Y-21471D01*
X19850Y-21478D01*
X19843Y-21515D01*
X19836Y-21546D01*
X19832Y-21567D01*
X19829Y-21575D01*
X19826Y-21577D01*
X19811Y-21584D01*
X19786Y-21594D01*
X19754Y-21607D01*
X19682Y-21636D01*
X19594Y-21575D01*
X19586Y-21570D01*
X19554Y-21548D01*
X19528Y-21531D01*
X19510Y-21519D01*
X19502Y-21515D01*
X19502Y-21515D01*
X19493Y-21523D01*
X19475Y-21539D01*
X19451Y-21563D01*
X19424Y-21590D01*
X19403Y-21611D01*
X19379Y-21636D01*
X19363Y-21652D01*
X19355Y-21663D01*
X19352Y-21670D01*
X19353Y-21674D01*
X19358Y-21683D01*
X19371Y-21702D01*
X19389Y-21729D01*
X19411Y-21760D01*
X19429Y-21787D01*
X19448Y-21816D01*
X19460Y-21837D01*
X19465Y-21848D01*
X19464Y-21852D01*
X19457Y-21869D01*
X19447Y-21896D01*
X19434Y-21927D01*
X19403Y-21997D01*
X19357Y-22005D01*
X19329Y-22011D01*
X19290Y-22018D01*
X19253Y-22025D01*
X19195Y-22037D01*
X19193Y-22249D01*
X19202Y-22253D01*
X19211Y-22256D01*
X19232Y-22260D01*
X19263Y-22266D01*
X19299Y-22273D01*
X19330Y-22279D01*
X19361Y-22285D01*
X19383Y-22289D01*
X19393Y-22291D01*
X19396Y-22295D01*
X19404Y-22310D01*
X19415Y-22334D01*
X19427Y-22363D01*
X19439Y-22392D01*
X19450Y-22420D01*
X19458Y-22441D01*
X19461Y-22452D01*
X19457Y-22460D01*
X19445Y-22478D01*
X19428Y-22504D01*
X19407Y-22535D01*
X19385Y-22566D01*
X19368Y-22593D01*
X19355Y-22612D01*
X19350Y-22620D01*
X19353Y-22626D01*
X19365Y-22641D01*
X19388Y-22665D01*
X19423Y-22700D01*
X19429Y-22705D01*
X19456Y-22732D01*
X19480Y-22753D01*
X19496Y-22768D01*
X19503Y-22773D01*
X19503Y-22773D01*
G37*
%LPC*%
G54D14*
X30118Y-25590D03*
X30984Y-25590D03*
X30118Y-25236D03*
X30118Y-25944D03*
X30984Y-25944D03*
X30984Y-25236D03*
X21062Y-25590D03*
X20196Y-25590D03*
X21062Y-25944D03*
X21062Y-25236D03*
X20196Y-25236D03*
X20196Y-25944D03*
G54D15*
X24618Y-26667D03*
G54D16*
X24618Y-26167D03*
X25118Y-26667D03*
X25118Y-26167D03*
X25618Y-26667D03*
X25618Y-26167D03*
G54D17*
X29291Y-25090D03*
G54D18*
X29291Y-26090D03*
G54D17*
X21889Y-26090D03*
G54D18*
X21889Y-25090D03*
G54D19*
X19468Y-26555D03*
X18681Y-24783D03*
M02*
