G04 (created by PCBNEW (2013-04-07 BZR 4075)-testing) date Wed 10 Apr 2013 07:57:29 PM CEST*
%MOIN*%
G04 Gerber Fmt 3.4, Leading zero omitted, Abs format*
%FSLAX34Y34*%
G01*
G70*
G90*
G04 APERTURE LIST*
%ADD10C,0.006*%
%ADD11C,0.011811*%
%ADD12C,0.00787402*%
%ADD13C,0.0001*%
%ADD14R,0.0551181X0.0551181*%
%ADD15C,0.0551181*%
%ADD16C,0.019685*%
%ADD17R,0.0649606X0.0649606*%
%ADD18C,0.0649606*%
%ADD19R,0.0984252X0.0590551*%
G04 APERTURE END LIST*
G54D10*
G54D11*
X26400Y-31376D02*
X26223Y-31908D01*
X26046Y-31376D01*
X25590Y-31908D02*
X25894Y-31908D01*
X25742Y-31908D02*
X25742Y-31376D01*
X25793Y-31452D01*
X25843Y-31503D01*
X25894Y-31528D01*
X25362Y-31857D02*
X25337Y-31882D01*
X25362Y-31908D01*
X25388Y-31882D01*
X25362Y-31857D01*
X25362Y-31908D01*
X25008Y-31376D02*
X24957Y-31376D01*
X24907Y-31401D01*
X24881Y-31427D01*
X24856Y-31477D01*
X24831Y-31579D01*
X24831Y-31705D01*
X24856Y-31806D01*
X24881Y-31857D01*
X24907Y-31882D01*
X24957Y-31908D01*
X25008Y-31908D01*
X25059Y-31882D01*
X25084Y-31857D01*
X25109Y-31806D01*
X25134Y-31705D01*
X25134Y-31579D01*
X25109Y-31477D01*
X25084Y-31427D01*
X25059Y-31401D01*
X25008Y-31376D01*
X29526Y-19821D02*
X29526Y-19289D01*
X29526Y-19492D02*
X29475Y-19467D01*
X29374Y-19467D01*
X29323Y-19492D01*
X29298Y-19517D01*
X29273Y-19568D01*
X29273Y-19720D01*
X29298Y-19770D01*
X29323Y-19796D01*
X29374Y-19821D01*
X29475Y-19821D01*
X29526Y-19796D01*
X28969Y-19821D02*
X29019Y-19796D01*
X29045Y-19745D01*
X29045Y-19289D01*
X28690Y-19821D02*
X28741Y-19796D01*
X28766Y-19770D01*
X28792Y-19720D01*
X28792Y-19568D01*
X28766Y-19517D01*
X28741Y-19492D01*
X28690Y-19467D01*
X28615Y-19467D01*
X28564Y-19492D01*
X28539Y-19517D01*
X28513Y-19568D01*
X28513Y-19720D01*
X28539Y-19770D01*
X28564Y-19796D01*
X28615Y-19821D01*
X28690Y-19821D01*
X28058Y-19467D02*
X28058Y-19897D01*
X28083Y-19947D01*
X28108Y-19973D01*
X28159Y-19998D01*
X28235Y-19998D01*
X28285Y-19973D01*
X28058Y-19796D02*
X28108Y-19821D01*
X28210Y-19821D01*
X28260Y-19796D01*
X28285Y-19770D01*
X28311Y-19720D01*
X28311Y-19568D01*
X28285Y-19517D01*
X28260Y-19492D01*
X28210Y-19467D01*
X28108Y-19467D01*
X28058Y-19492D01*
X27805Y-19770D02*
X27779Y-19796D01*
X27805Y-19821D01*
X27830Y-19796D01*
X27805Y-19770D01*
X27805Y-19821D01*
X27577Y-19796D02*
X27526Y-19821D01*
X27425Y-19821D01*
X27374Y-19796D01*
X27349Y-19745D01*
X27349Y-19720D01*
X27374Y-19669D01*
X27425Y-19644D01*
X27501Y-19644D01*
X27552Y-19618D01*
X27577Y-19568D01*
X27577Y-19543D01*
X27552Y-19492D01*
X27501Y-19467D01*
X27425Y-19467D01*
X27374Y-19492D01*
X27121Y-19467D02*
X27121Y-19998D01*
X27121Y-19492D02*
X27071Y-19467D01*
X26969Y-19467D01*
X26919Y-19492D01*
X26893Y-19517D01*
X26868Y-19568D01*
X26868Y-19720D01*
X26893Y-19770D01*
X26919Y-19796D01*
X26969Y-19821D01*
X27071Y-19821D01*
X27121Y-19796D01*
X26640Y-19821D02*
X26640Y-19467D01*
X26640Y-19289D02*
X26666Y-19315D01*
X26640Y-19340D01*
X26615Y-19315D01*
X26640Y-19289D01*
X26640Y-19340D01*
X26463Y-19467D02*
X26261Y-19467D01*
X26387Y-19289D02*
X26387Y-19745D01*
X26362Y-19796D01*
X26311Y-19821D01*
X26261Y-19821D01*
X26134Y-19467D02*
X25856Y-19467D01*
X26134Y-19821D01*
X25856Y-19821D01*
X25451Y-19796D02*
X25501Y-19821D01*
X25603Y-19821D01*
X25653Y-19796D01*
X25679Y-19745D01*
X25679Y-19543D01*
X25653Y-19492D01*
X25603Y-19467D01*
X25501Y-19467D01*
X25451Y-19492D01*
X25426Y-19543D01*
X25426Y-19593D01*
X25679Y-19644D01*
X25198Y-19467D02*
X25198Y-19821D01*
X25198Y-19517D02*
X25172Y-19492D01*
X25122Y-19467D01*
X25046Y-19467D01*
X24995Y-19492D01*
X24970Y-19543D01*
X24970Y-19821D01*
X24717Y-19467D02*
X24717Y-19998D01*
X24717Y-19492D02*
X24666Y-19467D01*
X24565Y-19467D01*
X24514Y-19492D01*
X24489Y-19517D01*
X24464Y-19568D01*
X24464Y-19720D01*
X24489Y-19770D01*
X24514Y-19796D01*
X24565Y-19821D01*
X24666Y-19821D01*
X24717Y-19796D01*
X24312Y-19467D02*
X24109Y-19467D01*
X24236Y-19821D02*
X24236Y-19365D01*
X24211Y-19315D01*
X24160Y-19289D01*
X24109Y-19289D01*
X23730Y-19796D02*
X23780Y-19821D01*
X23882Y-19821D01*
X23932Y-19796D01*
X23958Y-19745D01*
X23958Y-19543D01*
X23932Y-19492D01*
X23882Y-19467D01*
X23780Y-19467D01*
X23730Y-19492D01*
X23705Y-19543D01*
X23705Y-19593D01*
X23958Y-19644D01*
X23477Y-19821D02*
X23477Y-19467D01*
X23477Y-19289D02*
X23502Y-19315D01*
X23477Y-19340D01*
X23451Y-19315D01*
X23477Y-19289D01*
X23477Y-19340D01*
X23148Y-19821D02*
X23198Y-19796D01*
X23224Y-19745D01*
X23224Y-19289D01*
X22945Y-19770D02*
X22920Y-19796D01*
X22945Y-19821D01*
X22971Y-19796D01*
X22945Y-19770D01*
X22945Y-19821D01*
X22616Y-19821D02*
X22667Y-19796D01*
X22692Y-19770D01*
X22717Y-19720D01*
X22717Y-19568D01*
X22692Y-19517D01*
X22667Y-19492D01*
X22616Y-19467D01*
X22540Y-19467D01*
X22490Y-19492D01*
X22464Y-19517D01*
X22439Y-19568D01*
X22439Y-19720D01*
X22464Y-19770D01*
X22490Y-19796D01*
X22540Y-19821D01*
X22616Y-19821D01*
X22211Y-19821D02*
X22211Y-19467D01*
X22211Y-19568D02*
X22186Y-19517D01*
X22161Y-19492D01*
X22110Y-19467D01*
X22059Y-19467D01*
X21654Y-19467D02*
X21654Y-19897D01*
X21680Y-19947D01*
X21705Y-19973D01*
X21756Y-19998D01*
X21832Y-19998D01*
X21882Y-19973D01*
X21654Y-19796D02*
X21705Y-19821D01*
X21806Y-19821D01*
X21857Y-19796D01*
X21882Y-19770D01*
X21908Y-19720D01*
X21908Y-19568D01*
X21882Y-19517D01*
X21857Y-19492D01*
X21806Y-19467D01*
X21705Y-19467D01*
X21654Y-19492D01*
X29526Y-23699D02*
X29526Y-23167D01*
X29526Y-23370D02*
X29475Y-23345D01*
X29374Y-23345D01*
X29323Y-23370D01*
X29298Y-23395D01*
X29273Y-23446D01*
X29273Y-23598D01*
X29298Y-23648D01*
X29323Y-23674D01*
X29374Y-23699D01*
X29475Y-23699D01*
X29526Y-23674D01*
X28969Y-23699D02*
X29019Y-23674D01*
X29045Y-23623D01*
X29045Y-23167D01*
X28690Y-23699D02*
X28741Y-23674D01*
X28766Y-23648D01*
X28792Y-23598D01*
X28792Y-23446D01*
X28766Y-23395D01*
X28741Y-23370D01*
X28690Y-23345D01*
X28615Y-23345D01*
X28564Y-23370D01*
X28539Y-23395D01*
X28513Y-23446D01*
X28513Y-23598D01*
X28539Y-23648D01*
X28564Y-23674D01*
X28615Y-23699D01*
X28690Y-23699D01*
X28058Y-23345D02*
X28058Y-23775D01*
X28083Y-23825D01*
X28108Y-23851D01*
X28159Y-23876D01*
X28235Y-23876D01*
X28285Y-23851D01*
X28058Y-23674D02*
X28108Y-23699D01*
X28210Y-23699D01*
X28260Y-23674D01*
X28285Y-23648D01*
X28311Y-23598D01*
X28311Y-23446D01*
X28285Y-23395D01*
X28260Y-23370D01*
X28210Y-23345D01*
X28108Y-23345D01*
X28058Y-23370D01*
X27805Y-23648D02*
X27779Y-23674D01*
X27805Y-23699D01*
X27830Y-23674D01*
X27805Y-23648D01*
X27805Y-23699D01*
X27577Y-23674D02*
X27526Y-23699D01*
X27425Y-23699D01*
X27374Y-23674D01*
X27349Y-23623D01*
X27349Y-23598D01*
X27374Y-23547D01*
X27425Y-23522D01*
X27501Y-23522D01*
X27552Y-23496D01*
X27577Y-23446D01*
X27577Y-23420D01*
X27552Y-23370D01*
X27501Y-23345D01*
X27425Y-23345D01*
X27374Y-23370D01*
X27121Y-23345D02*
X27121Y-23876D01*
X27121Y-23370D02*
X27071Y-23345D01*
X26969Y-23345D01*
X26919Y-23370D01*
X26893Y-23395D01*
X26868Y-23446D01*
X26868Y-23598D01*
X26893Y-23648D01*
X26919Y-23674D01*
X26969Y-23699D01*
X27071Y-23699D01*
X27121Y-23674D01*
X26640Y-23699D02*
X26640Y-23345D01*
X26640Y-23167D02*
X26666Y-23193D01*
X26640Y-23218D01*
X26615Y-23193D01*
X26640Y-23167D01*
X26640Y-23218D01*
X26463Y-23345D02*
X26261Y-23345D01*
X26387Y-23167D02*
X26387Y-23623D01*
X26362Y-23674D01*
X26311Y-23699D01*
X26261Y-23699D01*
X26134Y-23345D02*
X25856Y-23345D01*
X26134Y-23699D01*
X25856Y-23699D01*
X25451Y-23674D02*
X25501Y-23699D01*
X25603Y-23699D01*
X25653Y-23674D01*
X25679Y-23623D01*
X25679Y-23420D01*
X25653Y-23370D01*
X25603Y-23345D01*
X25501Y-23345D01*
X25451Y-23370D01*
X25426Y-23420D01*
X25426Y-23471D01*
X25679Y-23522D01*
X25198Y-23345D02*
X25198Y-23699D01*
X25198Y-23395D02*
X25172Y-23370D01*
X25122Y-23345D01*
X25046Y-23345D01*
X24995Y-23370D01*
X24970Y-23420D01*
X24970Y-23699D01*
X24717Y-23345D02*
X24717Y-23876D01*
X24717Y-23370D02*
X24666Y-23345D01*
X24565Y-23345D01*
X24514Y-23370D01*
X24489Y-23395D01*
X24464Y-23446D01*
X24464Y-23598D01*
X24489Y-23648D01*
X24514Y-23674D01*
X24565Y-23699D01*
X24666Y-23699D01*
X24717Y-23674D01*
X24312Y-23345D02*
X24109Y-23345D01*
X24236Y-23699D02*
X24236Y-23243D01*
X24211Y-23193D01*
X24160Y-23167D01*
X24109Y-23167D01*
X23730Y-23674D02*
X23780Y-23699D01*
X23882Y-23699D01*
X23932Y-23674D01*
X23958Y-23623D01*
X23958Y-23420D01*
X23932Y-23370D01*
X23882Y-23345D01*
X23780Y-23345D01*
X23730Y-23370D01*
X23705Y-23420D01*
X23705Y-23471D01*
X23958Y-23522D01*
X23477Y-23699D02*
X23477Y-23345D01*
X23477Y-23167D02*
X23502Y-23193D01*
X23477Y-23218D01*
X23451Y-23193D01*
X23477Y-23167D01*
X23477Y-23218D01*
X23148Y-23699D02*
X23198Y-23674D01*
X23224Y-23623D01*
X23224Y-23167D01*
X22945Y-23648D02*
X22920Y-23674D01*
X22945Y-23699D01*
X22971Y-23674D01*
X22945Y-23648D01*
X22945Y-23699D01*
X22616Y-23699D02*
X22667Y-23674D01*
X22692Y-23648D01*
X22717Y-23598D01*
X22717Y-23446D01*
X22692Y-23395D01*
X22667Y-23370D01*
X22616Y-23345D01*
X22540Y-23345D01*
X22490Y-23370D01*
X22464Y-23395D01*
X22439Y-23446D01*
X22439Y-23598D01*
X22464Y-23648D01*
X22490Y-23674D01*
X22540Y-23699D01*
X22616Y-23699D01*
X22211Y-23699D02*
X22211Y-23345D01*
X22211Y-23446D02*
X22186Y-23395D01*
X22161Y-23370D01*
X22110Y-23345D01*
X22059Y-23345D01*
X21654Y-23345D02*
X21654Y-23775D01*
X21680Y-23825D01*
X21705Y-23851D01*
X21756Y-23876D01*
X21832Y-23876D01*
X21882Y-23851D01*
X21654Y-23674D02*
X21705Y-23699D01*
X21806Y-23699D01*
X21857Y-23674D01*
X21882Y-23648D01*
X21908Y-23598D01*
X21908Y-23446D01*
X21882Y-23395D01*
X21857Y-23370D01*
X21806Y-23345D01*
X21705Y-23345D01*
X21654Y-23370D01*
X26501Y-18159D02*
X26476Y-18134D01*
X26425Y-18108D01*
X26299Y-18108D01*
X26248Y-18134D01*
X26223Y-18159D01*
X26197Y-18210D01*
X26197Y-18260D01*
X26223Y-18336D01*
X26526Y-18640D01*
X26197Y-18640D01*
X25868Y-18108D02*
X25818Y-18108D01*
X25767Y-18134D01*
X25742Y-18159D01*
X25717Y-18210D01*
X25691Y-18311D01*
X25691Y-18437D01*
X25717Y-18539D01*
X25742Y-18589D01*
X25767Y-18615D01*
X25818Y-18640D01*
X25868Y-18640D01*
X25919Y-18615D01*
X25944Y-18589D01*
X25970Y-18539D01*
X25995Y-18437D01*
X25995Y-18311D01*
X25970Y-18210D01*
X25944Y-18159D01*
X25919Y-18134D01*
X25868Y-18108D01*
X25185Y-18640D02*
X25489Y-18640D01*
X25337Y-18640D02*
X25337Y-18108D01*
X25388Y-18184D01*
X25438Y-18235D01*
X25489Y-18260D01*
X25008Y-18108D02*
X24679Y-18108D01*
X24856Y-18311D01*
X24780Y-18311D01*
X24730Y-18336D01*
X24704Y-18361D01*
X24679Y-18412D01*
X24679Y-18539D01*
X24704Y-18589D01*
X24730Y-18615D01*
X24780Y-18640D01*
X24932Y-18640D01*
X24983Y-18615D01*
X25008Y-18589D01*
X26400Y-20904D02*
X26223Y-21435D01*
X26046Y-20904D01*
X25590Y-21435D02*
X25894Y-21435D01*
X25742Y-21435D02*
X25742Y-20904D01*
X25793Y-20980D01*
X25843Y-21030D01*
X25894Y-21055D01*
X25362Y-21384D02*
X25337Y-21410D01*
X25362Y-21435D01*
X25388Y-21410D01*
X25362Y-21384D01*
X25362Y-21435D01*
X25008Y-20904D02*
X24957Y-20904D01*
X24907Y-20929D01*
X24881Y-20954D01*
X24856Y-21005D01*
X24831Y-21106D01*
X24831Y-21233D01*
X24856Y-21334D01*
X24881Y-21384D01*
X24907Y-21410D01*
X24957Y-21435D01*
X25008Y-21435D01*
X25059Y-21410D01*
X25084Y-21384D01*
X25109Y-21334D01*
X25134Y-21233D01*
X25134Y-21106D01*
X25109Y-21005D01*
X25084Y-20954D01*
X25059Y-20929D01*
X25008Y-20904D01*
X26501Y-21816D02*
X26476Y-21791D01*
X26425Y-21766D01*
X26299Y-21766D01*
X26248Y-21791D01*
X26223Y-21816D01*
X26197Y-21867D01*
X26197Y-21918D01*
X26223Y-21994D01*
X26526Y-22297D01*
X26197Y-22297D01*
X25868Y-21766D02*
X25818Y-21766D01*
X25767Y-21791D01*
X25742Y-21816D01*
X25717Y-21867D01*
X25691Y-21968D01*
X25691Y-22095D01*
X25717Y-22196D01*
X25742Y-22247D01*
X25767Y-22272D01*
X25818Y-22297D01*
X25868Y-22297D01*
X25919Y-22272D01*
X25944Y-22247D01*
X25970Y-22196D01*
X25995Y-22095D01*
X25995Y-21968D01*
X25970Y-21867D01*
X25944Y-21816D01*
X25919Y-21791D01*
X25868Y-21766D01*
X25185Y-22297D02*
X25489Y-22297D01*
X25337Y-22297D02*
X25337Y-21766D01*
X25388Y-21842D01*
X25438Y-21892D01*
X25489Y-21918D01*
X25008Y-21766D02*
X24679Y-21766D01*
X24856Y-21968D01*
X24780Y-21968D01*
X24730Y-21994D01*
X24704Y-22019D01*
X24679Y-22070D01*
X24679Y-22196D01*
X24704Y-22247D01*
X24730Y-22272D01*
X24780Y-22297D01*
X24932Y-22297D01*
X24983Y-22272D01*
X25008Y-22247D01*
G54D12*
X18968Y-26055D02*
X19968Y-26055D01*
X18968Y-27055D02*
X19968Y-27055D01*
X19968Y-27055D02*
X19968Y-26055D01*
X18968Y-26055D02*
X18968Y-27055D01*
X18181Y-24283D02*
X19181Y-24283D01*
X18181Y-25283D02*
X19181Y-25283D01*
X19181Y-25283D02*
X19181Y-24283D01*
X18181Y-24283D02*
X18181Y-25283D01*
G54D13*
G36*
X23145Y-22951D02*
X23153Y-22947D01*
X23172Y-22935D01*
X23198Y-22918D01*
X23229Y-22897D01*
X23260Y-22876D01*
X23286Y-22859D01*
X23304Y-22847D01*
X23311Y-22843D01*
X23315Y-22844D01*
X23330Y-22852D01*
X23352Y-22863D01*
X23364Y-22869D01*
X23384Y-22878D01*
X23394Y-22880D01*
X23395Y-22877D01*
X23403Y-22862D01*
X23414Y-22836D01*
X23429Y-22802D01*
X23446Y-22762D01*
X23464Y-22719D01*
X23482Y-22675D01*
X23500Y-22633D01*
X23515Y-22595D01*
X23528Y-22565D01*
X23536Y-22543D01*
X23539Y-22534D01*
X23538Y-22532D01*
X23528Y-22523D01*
X23511Y-22510D01*
X23473Y-22479D01*
X23437Y-22433D01*
X23414Y-22381D01*
X23407Y-22323D01*
X23413Y-22270D01*
X23434Y-22219D01*
X23470Y-22172D01*
X23514Y-22138D01*
X23565Y-22116D01*
X23622Y-22109D01*
X23677Y-22115D01*
X23729Y-22136D01*
X23776Y-22171D01*
X23795Y-22194D01*
X23822Y-22241D01*
X23838Y-22291D01*
X23839Y-22303D01*
X23837Y-22359D01*
X23821Y-22412D01*
X23792Y-22459D01*
X23751Y-22498D01*
X23746Y-22502D01*
X23727Y-22516D01*
X23715Y-22525D01*
X23705Y-22533D01*
X23775Y-22703D01*
X23786Y-22730D01*
X23806Y-22776D01*
X23823Y-22816D01*
X23836Y-22848D01*
X23846Y-22869D01*
X23850Y-22878D01*
X23850Y-22878D01*
X23856Y-22879D01*
X23869Y-22874D01*
X23893Y-22863D01*
X23909Y-22855D01*
X23927Y-22846D01*
X23935Y-22843D01*
X23942Y-22847D01*
X23959Y-22858D01*
X23984Y-22875D01*
X24014Y-22895D01*
X24043Y-22915D01*
X24070Y-22933D01*
X24089Y-22945D01*
X24099Y-22950D01*
X24100Y-22950D01*
X24108Y-22945D01*
X24124Y-22933D01*
X24147Y-22911D01*
X24179Y-22879D01*
X24184Y-22874D01*
X24211Y-22846D01*
X24233Y-22823D01*
X24248Y-22807D01*
X24253Y-22800D01*
X24253Y-22800D01*
X24248Y-22790D01*
X24236Y-22771D01*
X24218Y-22744D01*
X24197Y-22713D01*
X24141Y-22631D01*
X24172Y-22554D01*
X24181Y-22531D01*
X24193Y-22502D01*
X24202Y-22482D01*
X24207Y-22473D01*
X24215Y-22470D01*
X24236Y-22465D01*
X24267Y-22458D01*
X24303Y-22452D01*
X24338Y-22445D01*
X24369Y-22439D01*
X24392Y-22435D01*
X24402Y-22433D01*
X24404Y-22431D01*
X24406Y-22426D01*
X24408Y-22416D01*
X24408Y-22397D01*
X24409Y-22367D01*
X24409Y-22323D01*
X24409Y-22319D01*
X24408Y-22277D01*
X24408Y-22244D01*
X24407Y-22223D01*
X24405Y-22215D01*
X24405Y-22215D01*
X24395Y-22212D01*
X24373Y-22208D01*
X24342Y-22201D01*
X24304Y-22194D01*
X24302Y-22194D01*
X24265Y-22187D01*
X24234Y-22180D01*
X24212Y-22175D01*
X24203Y-22172D01*
X24201Y-22170D01*
X24193Y-22155D01*
X24182Y-22132D01*
X24170Y-22104D01*
X24158Y-22075D01*
X24147Y-22048D01*
X24140Y-22029D01*
X24138Y-22020D01*
X24138Y-22020D01*
X24144Y-22011D01*
X24157Y-21991D01*
X24175Y-21965D01*
X24197Y-21933D01*
X24198Y-21930D01*
X24220Y-21899D01*
X24237Y-21872D01*
X24249Y-21853D01*
X24253Y-21845D01*
X24253Y-21844D01*
X24246Y-21835D01*
X24230Y-21817D01*
X24207Y-21793D01*
X24179Y-21765D01*
X24170Y-21757D01*
X24140Y-21727D01*
X24119Y-21707D01*
X24105Y-21697D01*
X24099Y-21694D01*
X24099Y-21695D01*
X24089Y-21700D01*
X24069Y-21713D01*
X24042Y-21732D01*
X24010Y-21753D01*
X24008Y-21755D01*
X23977Y-21776D01*
X23951Y-21794D01*
X23932Y-21806D01*
X23924Y-21811D01*
X23922Y-21811D01*
X23910Y-21807D01*
X23887Y-21800D01*
X23860Y-21789D01*
X23831Y-21777D01*
X23804Y-21766D01*
X23784Y-21757D01*
X23775Y-21752D01*
X23775Y-21751D01*
X23771Y-21740D01*
X23766Y-21716D01*
X23759Y-21684D01*
X23752Y-21645D01*
X23751Y-21639D01*
X23744Y-21602D01*
X23738Y-21571D01*
X23733Y-21549D01*
X23731Y-21540D01*
X23726Y-21539D01*
X23707Y-21538D01*
X23679Y-21537D01*
X23645Y-21537D01*
X23610Y-21537D01*
X23576Y-21538D01*
X23546Y-21539D01*
X23525Y-21540D01*
X23516Y-21542D01*
X23515Y-21543D01*
X23512Y-21554D01*
X23507Y-21578D01*
X23500Y-21610D01*
X23493Y-21649D01*
X23492Y-21656D01*
X23485Y-21693D01*
X23478Y-21724D01*
X23474Y-21745D01*
X23471Y-21753D01*
X23468Y-21755D01*
X23453Y-21762D01*
X23428Y-21772D01*
X23396Y-21785D01*
X23324Y-21814D01*
X23236Y-21753D01*
X23228Y-21748D01*
X23196Y-21726D01*
X23170Y-21709D01*
X23152Y-21697D01*
X23144Y-21693D01*
X23144Y-21693D01*
X23135Y-21701D01*
X23117Y-21717D01*
X23093Y-21741D01*
X23066Y-21768D01*
X23045Y-21789D01*
X23021Y-21814D01*
X23005Y-21830D01*
X22997Y-21841D01*
X22994Y-21848D01*
X22995Y-21852D01*
X23000Y-21861D01*
X23013Y-21880D01*
X23031Y-21907D01*
X23053Y-21938D01*
X23071Y-21965D01*
X23090Y-21994D01*
X23102Y-22015D01*
X23107Y-22026D01*
X23106Y-22030D01*
X23099Y-22047D01*
X23089Y-22074D01*
X23076Y-22105D01*
X23045Y-22175D01*
X22999Y-22183D01*
X22971Y-22189D01*
X22932Y-22196D01*
X22895Y-22203D01*
X22837Y-22215D01*
X22835Y-22427D01*
X22844Y-22431D01*
X22853Y-22434D01*
X22874Y-22438D01*
X22905Y-22444D01*
X22941Y-22451D01*
X22972Y-22457D01*
X23003Y-22463D01*
X23025Y-22467D01*
X23035Y-22469D01*
X23038Y-22473D01*
X23046Y-22488D01*
X23057Y-22512D01*
X23069Y-22541D01*
X23081Y-22570D01*
X23092Y-22598D01*
X23100Y-22619D01*
X23103Y-22630D01*
X23099Y-22638D01*
X23087Y-22656D01*
X23070Y-22682D01*
X23049Y-22713D01*
X23027Y-22744D01*
X23010Y-22771D01*
X22997Y-22790D01*
X22992Y-22798D01*
X22995Y-22804D01*
X23007Y-22819D01*
X23030Y-22843D01*
X23065Y-22878D01*
X23071Y-22883D01*
X23098Y-22910D01*
X23122Y-22931D01*
X23138Y-22946D01*
X23145Y-22951D01*
X23145Y-22951D01*
G37*
G36*
X27856Y-22932D02*
X27876Y-22930D01*
X27894Y-22924D01*
X27902Y-22920D01*
X27919Y-22908D01*
X27932Y-22894D01*
X27942Y-22877D01*
X27949Y-22859D01*
X27952Y-22840D01*
X27951Y-22820D01*
X27947Y-22801D01*
X27938Y-22783D01*
X27932Y-22775D01*
X27924Y-22766D01*
X27915Y-22757D01*
X27907Y-22751D01*
X27904Y-22749D01*
X27887Y-22741D01*
X27869Y-22737D01*
X27850Y-22736D01*
X27843Y-22737D01*
X27832Y-22738D01*
X27823Y-22741D01*
X27812Y-22745D01*
X27801Y-22751D01*
X27785Y-22764D01*
X27772Y-22780D01*
X27762Y-22798D01*
X27759Y-22806D01*
X27757Y-22816D01*
X27756Y-22823D01*
X27756Y-22824D01*
X27755Y-22825D01*
X27755Y-22821D01*
X27755Y-22820D01*
X27752Y-22807D01*
X27747Y-22794D01*
X27741Y-22783D01*
X27730Y-22768D01*
X27715Y-22755D01*
X27698Y-22744D01*
X27678Y-22738D01*
X27658Y-22736D01*
X27652Y-22736D01*
X27637Y-22738D01*
X27622Y-22742D01*
X27619Y-22743D01*
X27602Y-22752D01*
X27587Y-22765D01*
X27575Y-22780D01*
X27566Y-22796D01*
X27561Y-22814D01*
X27560Y-22814D01*
X27559Y-22819D01*
X27559Y-22821D01*
X27559Y-22821D01*
X27559Y-22819D01*
X27557Y-22814D01*
X27557Y-22812D01*
X27551Y-22795D01*
X27542Y-22778D01*
X27529Y-22763D01*
X27517Y-22753D01*
X27500Y-22744D01*
X27481Y-22738D01*
X27460Y-22736D01*
X27446Y-22737D01*
X27426Y-22742D01*
X27408Y-22751D01*
X27392Y-22763D01*
X27380Y-22779D01*
X27378Y-22781D01*
X27374Y-22789D01*
X27371Y-22795D01*
X27369Y-22799D01*
X27366Y-22808D01*
X27364Y-22817D01*
X27363Y-22823D01*
X27363Y-22824D01*
X27363Y-22824D01*
X27362Y-22820D01*
X27360Y-22809D01*
X27355Y-22796D01*
X27349Y-22784D01*
X27337Y-22768D01*
X27322Y-22755D01*
X27305Y-22744D01*
X27285Y-22738D01*
X27265Y-22736D01*
X27246Y-22737D01*
X27227Y-22743D01*
X27210Y-22752D01*
X27194Y-22766D01*
X27186Y-22774D01*
X27179Y-22785D01*
X27173Y-22798D01*
X27169Y-22808D01*
X27166Y-22828D01*
X27167Y-22847D01*
X27171Y-22865D01*
X27178Y-22883D01*
X27189Y-22898D01*
X27203Y-22911D01*
X27219Y-22922D01*
X27237Y-22929D01*
X27257Y-22932D01*
X27258Y-22932D01*
X27279Y-22932D01*
X27297Y-22927D01*
X27315Y-22918D01*
X27322Y-22914D01*
X27335Y-22902D01*
X27346Y-22889D01*
X27355Y-22874D01*
X27357Y-22868D01*
X27359Y-22860D01*
X27361Y-22851D01*
X27362Y-22845D01*
X27362Y-22841D01*
X27363Y-22845D01*
X27363Y-22848D01*
X27365Y-22857D01*
X27368Y-22867D01*
X27371Y-22875D01*
X27376Y-22884D01*
X27388Y-22900D01*
X27403Y-22913D01*
X27420Y-22924D01*
X27440Y-22930D01*
X27443Y-22931D01*
X27457Y-22932D01*
X27471Y-22932D01*
X27484Y-22930D01*
X27497Y-22926D01*
X27515Y-22916D01*
X27532Y-22903D01*
X27533Y-22902D01*
X27544Y-22888D01*
X27552Y-22871D01*
X27557Y-22854D01*
X27558Y-22854D01*
X27559Y-22849D01*
X27559Y-22847D01*
X27559Y-22848D01*
X27560Y-22853D01*
X27560Y-22854D01*
X27563Y-22864D01*
X27568Y-22875D01*
X27573Y-22886D01*
X27582Y-22898D01*
X27597Y-22912D01*
X27614Y-22923D01*
X27634Y-22930D01*
X27637Y-22931D01*
X27650Y-22932D01*
X27665Y-22932D01*
X27677Y-22931D01*
X27688Y-22927D01*
X27707Y-22919D01*
X27723Y-22907D01*
X27737Y-22892D01*
X27747Y-22875D01*
X27749Y-22869D01*
X27752Y-22860D01*
X27754Y-22851D01*
X27755Y-22845D01*
X27755Y-22844D01*
X27755Y-22844D01*
X27756Y-22848D01*
X27756Y-22848D01*
X27759Y-22861D01*
X27764Y-22874D01*
X27770Y-22885D01*
X27772Y-22889D01*
X27785Y-22904D01*
X27801Y-22917D01*
X27818Y-22926D01*
X27836Y-22931D01*
X27856Y-22932D01*
X27856Y-22932D01*
G37*
G36*
X27061Y-22736D02*
X27073Y-22735D01*
X27084Y-22734D01*
X27098Y-22731D01*
X27116Y-22723D01*
X27132Y-22711D01*
X27146Y-22696D01*
X27156Y-22679D01*
X27163Y-22661D01*
X27166Y-22641D01*
X27164Y-22621D01*
X27159Y-22602D01*
X27150Y-22584D01*
X27138Y-22569D01*
X27122Y-22555D01*
X27117Y-22552D01*
X27098Y-22544D01*
X27078Y-22539D01*
X27058Y-22539D01*
X27038Y-22543D01*
X27022Y-22550D01*
X27005Y-22561D01*
X26990Y-22576D01*
X26979Y-22593D01*
X26972Y-22613D01*
X26970Y-22623D01*
X26969Y-22636D01*
X26969Y-22648D01*
X26971Y-22659D01*
X26972Y-22663D01*
X26980Y-22683D01*
X26991Y-22700D01*
X27006Y-22714D01*
X27024Y-22726D01*
X27033Y-22729D01*
X27044Y-22733D01*
X27054Y-22735D01*
X27061Y-22736D01*
X27061Y-22736D01*
G37*
G36*
X28053Y-22736D02*
X28073Y-22733D01*
X28093Y-22726D01*
X28111Y-22715D01*
X28115Y-22712D01*
X28128Y-22698D01*
X28139Y-22681D01*
X28146Y-22661D01*
X28148Y-22651D01*
X28149Y-22639D01*
X28149Y-22626D01*
X28147Y-22616D01*
X28146Y-22611D01*
X28138Y-22591D01*
X28127Y-22575D01*
X28112Y-22560D01*
X28095Y-22550D01*
X28077Y-22542D01*
X28056Y-22539D01*
X28049Y-22539D01*
X28029Y-22541D01*
X28010Y-22547D01*
X27994Y-22557D01*
X27979Y-22570D01*
X27967Y-22585D01*
X27959Y-22602D01*
X27954Y-22621D01*
X27953Y-22642D01*
X27954Y-22654D01*
X27956Y-22664D01*
X27960Y-22676D01*
X27968Y-22691D01*
X27981Y-22706D01*
X27996Y-22719D01*
X28014Y-22729D01*
X28033Y-22734D01*
X28053Y-22736D01*
X28053Y-22736D01*
G37*
G36*
X26865Y-22538D02*
X26879Y-22538D01*
X26891Y-22537D01*
X26905Y-22533D01*
X26923Y-22523D01*
X26940Y-22510D01*
X26950Y-22498D01*
X26960Y-22481D01*
X26967Y-22461D01*
X26968Y-22454D01*
X26969Y-22442D01*
X26968Y-22430D01*
X26967Y-22420D01*
X26965Y-22414D01*
X26958Y-22395D01*
X26946Y-22378D01*
X26932Y-22363D01*
X26914Y-22352D01*
X26907Y-22349D01*
X26895Y-22345D01*
X26882Y-22343D01*
X26867Y-22343D01*
X26858Y-22343D01*
X26847Y-22345D01*
X26837Y-22347D01*
X26827Y-22352D01*
X26820Y-22356D01*
X26804Y-22368D01*
X26790Y-22383D01*
X26780Y-22401D01*
X26774Y-22421D01*
X26773Y-22426D01*
X26772Y-22437D01*
X26772Y-22449D01*
X26774Y-22460D01*
X26775Y-22467D01*
X26783Y-22486D01*
X26794Y-22503D01*
X26809Y-22517D01*
X26826Y-22528D01*
X26846Y-22536D01*
X26852Y-22537D01*
X26865Y-22538D01*
X26865Y-22538D01*
G37*
G36*
X27655Y-22539D02*
X27674Y-22537D01*
X27693Y-22532D01*
X27704Y-22527D01*
X27721Y-22515D01*
X27735Y-22501D01*
X27745Y-22483D01*
X27752Y-22464D01*
X27753Y-22460D01*
X27756Y-22444D01*
X27755Y-22429D01*
X27751Y-22412D01*
X27743Y-22393D01*
X27732Y-22376D01*
X27717Y-22362D01*
X27699Y-22352D01*
X27679Y-22344D01*
X27667Y-22341D01*
X27673Y-22341D01*
X27675Y-22340D01*
X27689Y-22337D01*
X27704Y-22330D01*
X27717Y-22321D01*
X27720Y-22319D01*
X27734Y-22305D01*
X27745Y-22288D01*
X27752Y-22270D01*
X27755Y-22251D01*
X27755Y-22232D01*
X27750Y-22213D01*
X27742Y-22194D01*
X27741Y-22194D01*
X27729Y-22177D01*
X27714Y-22164D01*
X27698Y-22155D01*
X27680Y-22149D01*
X27661Y-22146D01*
X27642Y-22147D01*
X27623Y-22152D01*
X27605Y-22161D01*
X27589Y-22173D01*
X27581Y-22182D01*
X27571Y-22197D01*
X27564Y-22212D01*
X27560Y-22227D01*
X27559Y-22230D01*
X27559Y-22232D01*
X27559Y-22231D01*
X27558Y-22227D01*
X27555Y-22213D01*
X27549Y-22199D01*
X27540Y-22186D01*
X27535Y-22180D01*
X27521Y-22166D01*
X27503Y-22156D01*
X27485Y-22149D01*
X27465Y-22146D01*
X27445Y-22147D01*
X27432Y-22150D01*
X27413Y-22158D01*
X27397Y-22170D01*
X27383Y-22184D01*
X27372Y-22201D01*
X27365Y-22221D01*
X27364Y-22231D01*
X27363Y-22250D01*
X27366Y-22270D01*
X27373Y-22288D01*
X27384Y-22305D01*
X27399Y-22319D01*
X27416Y-22331D01*
X27424Y-22334D01*
X27433Y-22338D01*
X27441Y-22340D01*
X27448Y-22341D01*
X27449Y-22341D01*
X27448Y-22342D01*
X27444Y-22343D01*
X27434Y-22346D01*
X27421Y-22350D01*
X27410Y-22356D01*
X27404Y-22360D01*
X27391Y-22372D01*
X27379Y-22386D01*
X27371Y-22401D01*
X27365Y-22417D01*
X27363Y-22435D01*
X27363Y-22452D01*
X27364Y-22455D01*
X27369Y-22476D01*
X27378Y-22494D01*
X27392Y-22510D01*
X27403Y-22520D01*
X27420Y-22530D01*
X27440Y-22537D01*
X27447Y-22538D01*
X27458Y-22538D01*
X27469Y-22538D01*
X27480Y-22537D01*
X27488Y-22535D01*
X27494Y-22533D01*
X27513Y-22524D01*
X27530Y-22511D01*
X27543Y-22495D01*
X27548Y-22487D01*
X27554Y-22474D01*
X27557Y-22461D01*
X27558Y-22460D01*
X27559Y-22455D01*
X27559Y-22453D01*
X27559Y-22453D01*
X27559Y-22427D01*
X27559Y-22427D01*
X27559Y-22425D01*
X27557Y-22420D01*
X27557Y-22419D01*
X27551Y-22401D01*
X27542Y-22385D01*
X27529Y-22370D01*
X27514Y-22358D01*
X27498Y-22349D01*
X27497Y-22349D01*
X27488Y-22346D01*
X27480Y-22344D01*
X27471Y-22342D01*
X27479Y-22340D01*
X27491Y-22337D01*
X27509Y-22330D01*
X27525Y-22318D01*
X27538Y-22304D01*
X27549Y-22288D01*
X27553Y-22280D01*
X27556Y-22270D01*
X27558Y-22261D01*
X27559Y-22258D01*
X27559Y-22256D01*
X27559Y-22257D01*
X27560Y-22261D01*
X27562Y-22269D01*
X27565Y-22279D01*
X27569Y-22288D01*
X27575Y-22299D01*
X27588Y-22314D01*
X27603Y-22326D01*
X27621Y-22335D01*
X27639Y-22340D01*
X27648Y-22342D01*
X27639Y-22344D01*
X27637Y-22344D01*
X27629Y-22346D01*
X27620Y-22349D01*
X27619Y-22350D01*
X27602Y-22359D01*
X27587Y-22371D01*
X27575Y-22386D01*
X27566Y-22402D01*
X27561Y-22420D01*
X27560Y-22421D01*
X27559Y-22425D01*
X27559Y-22427D01*
X27559Y-22453D01*
X27559Y-22453D01*
X27559Y-22456D01*
X27561Y-22461D01*
X27564Y-22474D01*
X27572Y-22491D01*
X27584Y-22507D01*
X27599Y-22520D01*
X27616Y-22530D01*
X27616Y-22530D01*
X27635Y-22536D01*
X27655Y-22539D01*
X27655Y-22539D01*
G37*
G36*
X28240Y-22538D02*
X28256Y-22538D01*
X28271Y-22536D01*
X28280Y-22533D01*
X28299Y-22525D01*
X28315Y-22512D01*
X28328Y-22498D01*
X28338Y-22480D01*
X28344Y-22461D01*
X28346Y-22440D01*
X28346Y-22432D01*
X28342Y-22412D01*
X28334Y-22393D01*
X28322Y-22375D01*
X28318Y-22372D01*
X28304Y-22360D01*
X28288Y-22351D01*
X28271Y-22345D01*
X28270Y-22344D01*
X28255Y-22342D01*
X28239Y-22342D01*
X28225Y-22344D01*
X28219Y-22346D01*
X28201Y-22354D01*
X28184Y-22365D01*
X28171Y-22379D01*
X28160Y-22395D01*
X28153Y-22413D01*
X28149Y-22432D01*
X28150Y-22452D01*
X28154Y-22472D01*
X28161Y-22487D01*
X28172Y-22503D01*
X28187Y-22518D01*
X28204Y-22528D01*
X28223Y-22536D01*
X28225Y-22536D01*
X28240Y-22538D01*
X28240Y-22538D01*
G37*
G36*
X27267Y-21949D02*
X27287Y-21947D01*
X27306Y-21940D01*
X27315Y-21935D01*
X27323Y-21929D01*
X27333Y-21921D01*
X27343Y-21910D01*
X27353Y-21893D01*
X27360Y-21874D01*
X27361Y-21869D01*
X27362Y-21856D01*
X27362Y-21842D01*
X27361Y-21830D01*
X27355Y-21814D01*
X27346Y-21796D01*
X27334Y-21782D01*
X27332Y-21779D01*
X27323Y-21772D01*
X27313Y-21765D01*
X27303Y-21760D01*
X27299Y-21759D01*
X27291Y-21756D01*
X27283Y-21754D01*
X27277Y-21753D01*
X27274Y-21753D01*
X27278Y-21752D01*
X27282Y-21751D01*
X27289Y-21749D01*
X27296Y-21747D01*
X27311Y-21740D01*
X27325Y-21731D01*
X27337Y-21721D01*
X27339Y-21718D01*
X27350Y-21701D01*
X27358Y-21683D01*
X27362Y-21663D01*
X27362Y-21643D01*
X27362Y-21639D01*
X27356Y-21619D01*
X27347Y-21601D01*
X27333Y-21584D01*
X27321Y-21574D01*
X27304Y-21564D01*
X27285Y-21557D01*
X27281Y-21557D01*
X27268Y-21556D01*
X27254Y-21556D01*
X27242Y-21558D01*
X27230Y-21561D01*
X27212Y-21570D01*
X27197Y-21582D01*
X27184Y-21597D01*
X27174Y-21614D01*
X27168Y-21633D01*
X27167Y-21635D01*
X27166Y-21640D01*
X27165Y-21642D01*
X27165Y-21640D01*
X27164Y-21636D01*
X27162Y-21628D01*
X27159Y-21619D01*
X27156Y-21611D01*
X27153Y-21605D01*
X27141Y-21588D01*
X27126Y-21574D01*
X27108Y-21564D01*
X27089Y-21558D01*
X27068Y-21556D01*
X27052Y-21557D01*
X27033Y-21561D01*
X27016Y-21570D01*
X27006Y-21577D01*
X26991Y-21591D01*
X26980Y-21608D01*
X26973Y-21626D01*
X26969Y-21645D01*
X26969Y-21665D01*
X26974Y-21684D01*
X26982Y-21703D01*
X26994Y-21719D01*
X27009Y-21733D01*
X27026Y-21743D01*
X27046Y-21750D01*
X27058Y-21753D01*
X27051Y-21754D01*
X27047Y-21754D01*
X27031Y-21759D01*
X27016Y-21767D01*
X27001Y-21778D01*
X26990Y-21790D01*
X26983Y-21800D01*
X26976Y-21814D01*
X26972Y-21827D01*
X26970Y-21837D01*
X26969Y-21849D01*
X26969Y-21862D01*
X26971Y-21872D01*
X26974Y-21884D01*
X26984Y-21903D01*
X26996Y-21919D01*
X27012Y-21932D01*
X27030Y-21942D01*
X27051Y-21948D01*
X27056Y-21949D01*
X27068Y-21949D01*
X27081Y-21948D01*
X27092Y-21946D01*
X27100Y-21944D01*
X27118Y-21935D01*
X27135Y-21923D01*
X27148Y-21908D01*
X27158Y-21890D01*
X27164Y-21870D01*
X27164Y-21869D01*
X27165Y-21864D01*
X27166Y-21865D01*
X27166Y-21838D01*
X27165Y-21837D01*
X27164Y-21833D01*
X27164Y-21832D01*
X27161Y-21819D01*
X27154Y-21805D01*
X27146Y-21792D01*
X27140Y-21785D01*
X27125Y-21771D01*
X27107Y-21761D01*
X27087Y-21754D01*
X27078Y-21752D01*
X27084Y-21751D01*
X27090Y-21750D01*
X27097Y-21748D01*
X27101Y-21747D01*
X27119Y-21738D01*
X27134Y-21726D01*
X27148Y-21711D01*
X27157Y-21694D01*
X27164Y-21675D01*
X27165Y-21670D01*
X27166Y-21667D01*
X27167Y-21669D01*
X27168Y-21675D01*
X27168Y-21675D01*
X27171Y-21686D01*
X27176Y-21698D01*
X27182Y-21708D01*
X27187Y-21715D01*
X27196Y-21724D01*
X27206Y-21733D01*
X27215Y-21739D01*
X27216Y-21740D01*
X27231Y-21746D01*
X27247Y-21751D01*
X27254Y-21752D01*
X27246Y-21754D01*
X27229Y-21759D01*
X27211Y-21768D01*
X27195Y-21780D01*
X27183Y-21795D01*
X27180Y-21800D01*
X27175Y-21810D01*
X27171Y-21820D01*
X27168Y-21829D01*
X27167Y-21835D01*
X27167Y-21835D01*
X27166Y-21838D01*
X27166Y-21865D01*
X27166Y-21865D01*
X27167Y-21869D01*
X27169Y-21875D01*
X27170Y-21881D01*
X27174Y-21891D01*
X27184Y-21908D01*
X27197Y-21923D01*
X27212Y-21934D01*
X27230Y-21943D01*
X27248Y-21948D01*
X27267Y-21949D01*
X27267Y-21949D01*
G37*
G36*
X27859Y-21949D02*
X27878Y-21946D01*
X27897Y-21939D01*
X27913Y-21929D01*
X27928Y-21916D01*
X27939Y-21900D01*
X27948Y-21881D01*
X27949Y-21875D01*
X27951Y-21869D01*
X27951Y-21868D01*
X27952Y-21864D01*
X27952Y-21864D01*
X27952Y-21837D01*
X27951Y-21834D01*
X27949Y-21827D01*
X27946Y-21816D01*
X27937Y-21798D01*
X27925Y-21783D01*
X27910Y-21770D01*
X27893Y-21760D01*
X27874Y-21754D01*
X27864Y-21752D01*
X27871Y-21751D01*
X27872Y-21751D01*
X27888Y-21746D01*
X27903Y-21739D01*
X27909Y-21735D01*
X27919Y-21727D01*
X27929Y-21718D01*
X27936Y-21708D01*
X27941Y-21699D01*
X27947Y-21687D01*
X27950Y-21675D01*
X27951Y-21670D01*
X27952Y-21667D01*
X27953Y-21669D01*
X27954Y-21675D01*
X27958Y-21688D01*
X27967Y-21706D01*
X27980Y-21722D01*
X27995Y-21735D01*
X28013Y-21745D01*
X28034Y-21751D01*
X28040Y-21752D01*
X28031Y-21754D01*
X28022Y-21757D01*
X28003Y-21765D01*
X27986Y-21777D01*
X27972Y-21792D01*
X27968Y-21798D01*
X27963Y-21807D01*
X27958Y-21817D01*
X27956Y-21824D01*
X27954Y-21832D01*
X27954Y-21832D01*
X27953Y-21836D01*
X27952Y-21837D01*
X27952Y-21864D01*
X27953Y-21865D01*
X27954Y-21870D01*
X27956Y-21877D01*
X27961Y-21892D01*
X27969Y-21906D01*
X27975Y-21913D01*
X27989Y-21928D01*
X28007Y-21939D01*
X28027Y-21946D01*
X28035Y-21948D01*
X28049Y-21949D01*
X28063Y-21948D01*
X28075Y-21946D01*
X28076Y-21946D01*
X28096Y-21938D01*
X28113Y-21927D01*
X28128Y-21912D01*
X28139Y-21895D01*
X28146Y-21875D01*
X28148Y-21866D01*
X28149Y-21852D01*
X28148Y-21839D01*
X28146Y-21827D01*
X28143Y-21816D01*
X28136Y-21802D01*
X28128Y-21790D01*
X28119Y-21780D01*
X28107Y-21770D01*
X28094Y-21762D01*
X28090Y-21760D01*
X28080Y-21757D01*
X28071Y-21754D01*
X28064Y-21753D01*
X28063Y-21753D01*
X28066Y-21752D01*
X28071Y-21750D01*
X28083Y-21747D01*
X28096Y-21741D01*
X28106Y-21735D01*
X28109Y-21734D01*
X28121Y-21722D01*
X28133Y-21708D01*
X28141Y-21694D01*
X28144Y-21686D01*
X28148Y-21667D01*
X28149Y-21646D01*
X28145Y-21627D01*
X28144Y-21622D01*
X28136Y-21604D01*
X28124Y-21588D01*
X28109Y-21574D01*
X28091Y-21564D01*
X28072Y-21557D01*
X28069Y-21557D01*
X28055Y-21556D01*
X28041Y-21556D01*
X28028Y-21558D01*
X28025Y-21559D01*
X28005Y-21566D01*
X27988Y-21578D01*
X27974Y-21593D01*
X27962Y-21611D01*
X27960Y-21616D01*
X27957Y-21625D01*
X27954Y-21634D01*
X27953Y-21640D01*
X27953Y-21641D01*
X27953Y-21642D01*
X27951Y-21639D01*
X27950Y-21634D01*
X27947Y-21620D01*
X27938Y-21603D01*
X27926Y-21587D01*
X27912Y-21574D01*
X27894Y-21564D01*
X27894Y-21564D01*
X27876Y-21558D01*
X27856Y-21556D01*
X27836Y-21557D01*
X27818Y-21562D01*
X27807Y-21567D01*
X27790Y-21579D01*
X27776Y-21594D01*
X27765Y-21611D01*
X27758Y-21630D01*
X27757Y-21634D01*
X27755Y-21650D01*
X27756Y-21665D01*
X27760Y-21683D01*
X27768Y-21702D01*
X27780Y-21719D01*
X27795Y-21733D01*
X27813Y-21743D01*
X27833Y-21750D01*
X27837Y-21751D01*
X27841Y-21753D01*
X27841Y-21753D01*
X27835Y-21754D01*
X27823Y-21757D01*
X27811Y-21762D01*
X27800Y-21769D01*
X27789Y-21777D01*
X27775Y-21792D01*
X27764Y-21810D01*
X27763Y-21813D01*
X27757Y-21832D01*
X27755Y-21852D01*
X27758Y-21873D01*
X27764Y-21892D01*
X27769Y-21901D01*
X27775Y-21910D01*
X27783Y-21919D01*
X27784Y-21920D01*
X27800Y-21933D01*
X27817Y-21942D01*
X27837Y-21948D01*
X27839Y-21948D01*
X27859Y-21949D01*
X27859Y-21949D01*
G37*
G36*
X31320Y-22754D02*
X31340Y-22752D01*
X31358Y-22746D01*
X31366Y-22742D01*
X31383Y-22730D01*
X31396Y-22716D01*
X31406Y-22699D01*
X31413Y-22681D01*
X31416Y-22662D01*
X31415Y-22642D01*
X31411Y-22623D01*
X31402Y-22605D01*
X31396Y-22597D01*
X31388Y-22588D01*
X31379Y-22579D01*
X31371Y-22573D01*
X31368Y-22571D01*
X31351Y-22563D01*
X31333Y-22559D01*
X31314Y-22558D01*
X31307Y-22559D01*
X31296Y-22560D01*
X31287Y-22563D01*
X31276Y-22567D01*
X31265Y-22573D01*
X31249Y-22586D01*
X31236Y-22602D01*
X31226Y-22620D01*
X31223Y-22628D01*
X31221Y-22638D01*
X31220Y-22645D01*
X31220Y-22646D01*
X31219Y-22647D01*
X31219Y-22643D01*
X31219Y-22642D01*
X31216Y-22629D01*
X31211Y-22616D01*
X31205Y-22605D01*
X31194Y-22590D01*
X31179Y-22577D01*
X31162Y-22566D01*
X31142Y-22560D01*
X31122Y-22558D01*
X31116Y-22558D01*
X31101Y-22560D01*
X31086Y-22564D01*
X31083Y-22565D01*
X31066Y-22574D01*
X31051Y-22587D01*
X31039Y-22602D01*
X31030Y-22618D01*
X31025Y-22636D01*
X31024Y-22636D01*
X31023Y-22641D01*
X31023Y-22643D01*
X31023Y-22643D01*
X31023Y-22641D01*
X31021Y-22636D01*
X31021Y-22634D01*
X31015Y-22617D01*
X31006Y-22600D01*
X30993Y-22585D01*
X30981Y-22575D01*
X30964Y-22566D01*
X30945Y-22560D01*
X30924Y-22558D01*
X30910Y-22559D01*
X30890Y-22564D01*
X30872Y-22573D01*
X30856Y-22585D01*
X30844Y-22601D01*
X30842Y-22603D01*
X30838Y-22611D01*
X30835Y-22617D01*
X30833Y-22621D01*
X30830Y-22630D01*
X30828Y-22639D01*
X30827Y-22645D01*
X30827Y-22646D01*
X30827Y-22646D01*
X30826Y-22642D01*
X30824Y-22631D01*
X30819Y-22618D01*
X30813Y-22606D01*
X30801Y-22590D01*
X30786Y-22577D01*
X30769Y-22566D01*
X30749Y-22560D01*
X30729Y-22558D01*
X30710Y-22559D01*
X30691Y-22565D01*
X30674Y-22574D01*
X30658Y-22588D01*
X30650Y-22596D01*
X30643Y-22607D01*
X30637Y-22620D01*
X30633Y-22630D01*
X30630Y-22650D01*
X30631Y-22669D01*
X30635Y-22687D01*
X30642Y-22705D01*
X30653Y-22720D01*
X30667Y-22733D01*
X30683Y-22744D01*
X30701Y-22751D01*
X30721Y-22754D01*
X30722Y-22754D01*
X30743Y-22754D01*
X30761Y-22749D01*
X30779Y-22740D01*
X30786Y-22736D01*
X30799Y-22724D01*
X30810Y-22711D01*
X30819Y-22696D01*
X30821Y-22690D01*
X30823Y-22682D01*
X30825Y-22673D01*
X30826Y-22667D01*
X30826Y-22663D01*
X30827Y-22667D01*
X30827Y-22670D01*
X30829Y-22679D01*
X30832Y-22689D01*
X30835Y-22697D01*
X30840Y-22706D01*
X30852Y-22722D01*
X30867Y-22735D01*
X30884Y-22746D01*
X30904Y-22752D01*
X30907Y-22753D01*
X30921Y-22754D01*
X30935Y-22754D01*
X30948Y-22752D01*
X30961Y-22748D01*
X30979Y-22738D01*
X30996Y-22725D01*
X30997Y-22724D01*
X31008Y-22710D01*
X31016Y-22693D01*
X31021Y-22676D01*
X31022Y-22676D01*
X31023Y-22671D01*
X31023Y-22669D01*
X31023Y-22670D01*
X31024Y-22675D01*
X31024Y-22676D01*
X31027Y-22686D01*
X31032Y-22697D01*
X31037Y-22708D01*
X31046Y-22720D01*
X31061Y-22734D01*
X31078Y-22745D01*
X31098Y-22752D01*
X31101Y-22753D01*
X31114Y-22754D01*
X31129Y-22754D01*
X31141Y-22753D01*
X31152Y-22749D01*
X31171Y-22741D01*
X31187Y-22729D01*
X31201Y-22714D01*
X31211Y-22697D01*
X31213Y-22691D01*
X31216Y-22682D01*
X31218Y-22673D01*
X31219Y-22667D01*
X31219Y-22666D01*
X31219Y-22666D01*
X31220Y-22670D01*
X31220Y-22670D01*
X31223Y-22683D01*
X31228Y-22696D01*
X31234Y-22707D01*
X31236Y-22711D01*
X31249Y-22726D01*
X31265Y-22739D01*
X31282Y-22748D01*
X31300Y-22753D01*
X31320Y-22754D01*
X31320Y-22754D01*
G37*
G36*
X30525Y-22558D02*
X30537Y-22557D01*
X30548Y-22556D01*
X30562Y-22553D01*
X30580Y-22545D01*
X30596Y-22533D01*
X30610Y-22518D01*
X30620Y-22501D01*
X30627Y-22483D01*
X30630Y-22463D01*
X30628Y-22443D01*
X30623Y-22424D01*
X30614Y-22406D01*
X30602Y-22391D01*
X30586Y-22377D01*
X30581Y-22374D01*
X30562Y-22366D01*
X30542Y-22361D01*
X30522Y-22361D01*
X30502Y-22365D01*
X30486Y-22372D01*
X30469Y-22383D01*
X30454Y-22398D01*
X30443Y-22415D01*
X30436Y-22435D01*
X30434Y-22445D01*
X30433Y-22458D01*
X30433Y-22470D01*
X30435Y-22481D01*
X30436Y-22485D01*
X30444Y-22505D01*
X30455Y-22522D01*
X30470Y-22536D01*
X30488Y-22548D01*
X30497Y-22551D01*
X30508Y-22555D01*
X30518Y-22557D01*
X30525Y-22558D01*
X30525Y-22558D01*
G37*
G36*
X31517Y-22558D02*
X31537Y-22555D01*
X31557Y-22548D01*
X31575Y-22537D01*
X31579Y-22534D01*
X31592Y-22520D01*
X31603Y-22503D01*
X31610Y-22483D01*
X31612Y-22473D01*
X31613Y-22461D01*
X31613Y-22448D01*
X31611Y-22438D01*
X31610Y-22433D01*
X31602Y-22413D01*
X31591Y-22397D01*
X31576Y-22382D01*
X31559Y-22372D01*
X31541Y-22364D01*
X31520Y-22361D01*
X31513Y-22361D01*
X31493Y-22363D01*
X31474Y-22369D01*
X31458Y-22379D01*
X31443Y-22392D01*
X31431Y-22407D01*
X31423Y-22424D01*
X31418Y-22443D01*
X31417Y-22464D01*
X31418Y-22476D01*
X31420Y-22486D01*
X31424Y-22498D01*
X31432Y-22513D01*
X31445Y-22528D01*
X31460Y-22541D01*
X31478Y-22551D01*
X31497Y-22556D01*
X31517Y-22558D01*
X31517Y-22558D01*
G37*
G36*
X30329Y-22360D02*
X30343Y-22360D01*
X30355Y-22359D01*
X30369Y-22355D01*
X30387Y-22345D01*
X30404Y-22332D01*
X30414Y-22320D01*
X30424Y-22303D01*
X30431Y-22283D01*
X30432Y-22276D01*
X30433Y-22264D01*
X30432Y-22252D01*
X30431Y-22242D01*
X30429Y-22236D01*
X30422Y-22217D01*
X30410Y-22200D01*
X30396Y-22185D01*
X30378Y-22174D01*
X30371Y-22171D01*
X30359Y-22167D01*
X30346Y-22165D01*
X30331Y-22165D01*
X30322Y-22165D01*
X30311Y-22167D01*
X30301Y-22169D01*
X30291Y-22174D01*
X30284Y-22178D01*
X30268Y-22190D01*
X30254Y-22205D01*
X30244Y-22223D01*
X30238Y-22243D01*
X30237Y-22248D01*
X30236Y-22259D01*
X30236Y-22271D01*
X30238Y-22282D01*
X30239Y-22289D01*
X30247Y-22308D01*
X30258Y-22325D01*
X30273Y-22339D01*
X30290Y-22350D01*
X30310Y-22358D01*
X30316Y-22359D01*
X30329Y-22360D01*
X30329Y-22360D01*
G37*
G36*
X31119Y-22361D02*
X31138Y-22359D01*
X31157Y-22354D01*
X31168Y-22349D01*
X31185Y-22337D01*
X31199Y-22323D01*
X31209Y-22305D01*
X31216Y-22286D01*
X31217Y-22282D01*
X31220Y-22266D01*
X31219Y-22251D01*
X31215Y-22234D01*
X31207Y-22215D01*
X31196Y-22198D01*
X31181Y-22184D01*
X31163Y-22174D01*
X31143Y-22166D01*
X31131Y-22163D01*
X31137Y-22163D01*
X31139Y-22162D01*
X31153Y-22159D01*
X31168Y-22152D01*
X31181Y-22143D01*
X31184Y-22141D01*
X31198Y-22127D01*
X31209Y-22110D01*
X31216Y-22092D01*
X31219Y-22073D01*
X31219Y-22054D01*
X31214Y-22035D01*
X31206Y-22016D01*
X31205Y-22016D01*
X31193Y-21999D01*
X31178Y-21986D01*
X31162Y-21977D01*
X31144Y-21971D01*
X31125Y-21968D01*
X31106Y-21969D01*
X31087Y-21974D01*
X31069Y-21983D01*
X31053Y-21995D01*
X31045Y-22004D01*
X31035Y-22019D01*
X31028Y-22034D01*
X31024Y-22049D01*
X31023Y-22052D01*
X31023Y-22054D01*
X31023Y-22053D01*
X31022Y-22049D01*
X31019Y-22035D01*
X31013Y-22021D01*
X31004Y-22008D01*
X30999Y-22002D01*
X30985Y-21988D01*
X30967Y-21978D01*
X30949Y-21971D01*
X30929Y-21968D01*
X30909Y-21969D01*
X30896Y-21972D01*
X30877Y-21980D01*
X30861Y-21992D01*
X30847Y-22006D01*
X30836Y-22023D01*
X30829Y-22043D01*
X30828Y-22053D01*
X30827Y-22072D01*
X30830Y-22092D01*
X30837Y-22110D01*
X30848Y-22127D01*
X30863Y-22141D01*
X30880Y-22153D01*
X30888Y-22156D01*
X30897Y-22160D01*
X30905Y-22162D01*
X30912Y-22163D01*
X30913Y-22163D01*
X30912Y-22164D01*
X30908Y-22165D01*
X30898Y-22168D01*
X30885Y-22172D01*
X30874Y-22178D01*
X30868Y-22182D01*
X30855Y-22194D01*
X30843Y-22208D01*
X30835Y-22223D01*
X30829Y-22239D01*
X30827Y-22257D01*
X30827Y-22274D01*
X30828Y-22277D01*
X30833Y-22298D01*
X30842Y-22316D01*
X30856Y-22332D01*
X30867Y-22342D01*
X30884Y-22352D01*
X30904Y-22359D01*
X30911Y-22360D01*
X30922Y-22360D01*
X30933Y-22360D01*
X30944Y-22359D01*
X30952Y-22357D01*
X30958Y-22355D01*
X30977Y-22346D01*
X30994Y-22333D01*
X31007Y-22317D01*
X31012Y-22309D01*
X31018Y-22296D01*
X31021Y-22283D01*
X31022Y-22282D01*
X31023Y-22277D01*
X31023Y-22275D01*
X31023Y-22275D01*
X31023Y-22249D01*
X31023Y-22249D01*
X31023Y-22247D01*
X31021Y-22242D01*
X31021Y-22241D01*
X31015Y-22223D01*
X31006Y-22207D01*
X30993Y-22192D01*
X30978Y-22180D01*
X30962Y-22171D01*
X30961Y-22171D01*
X30952Y-22168D01*
X30944Y-22166D01*
X30935Y-22164D01*
X30943Y-22162D01*
X30955Y-22159D01*
X30973Y-22152D01*
X30989Y-22140D01*
X31002Y-22126D01*
X31013Y-22110D01*
X31017Y-22102D01*
X31020Y-22092D01*
X31022Y-22083D01*
X31023Y-22080D01*
X31023Y-22078D01*
X31023Y-22079D01*
X31024Y-22083D01*
X31026Y-22091D01*
X31029Y-22101D01*
X31033Y-22110D01*
X31039Y-22121D01*
X31052Y-22136D01*
X31067Y-22148D01*
X31085Y-22157D01*
X31103Y-22162D01*
X31112Y-22164D01*
X31103Y-22166D01*
X31101Y-22166D01*
X31093Y-22168D01*
X31084Y-22171D01*
X31083Y-22172D01*
X31066Y-22181D01*
X31051Y-22193D01*
X31039Y-22208D01*
X31030Y-22224D01*
X31025Y-22242D01*
X31024Y-22243D01*
X31023Y-22247D01*
X31023Y-22249D01*
X31023Y-22275D01*
X31023Y-22275D01*
X31023Y-22278D01*
X31025Y-22283D01*
X31028Y-22296D01*
X31036Y-22313D01*
X31048Y-22329D01*
X31063Y-22342D01*
X31080Y-22352D01*
X31080Y-22352D01*
X31099Y-22358D01*
X31119Y-22361D01*
X31119Y-22361D01*
G37*
G36*
X31704Y-22360D02*
X31720Y-22360D01*
X31735Y-22358D01*
X31744Y-22355D01*
X31763Y-22347D01*
X31779Y-22334D01*
X31792Y-22320D01*
X31802Y-22302D01*
X31808Y-22283D01*
X31810Y-22262D01*
X31810Y-22254D01*
X31806Y-22234D01*
X31798Y-22215D01*
X31786Y-22197D01*
X31782Y-22194D01*
X31768Y-22182D01*
X31752Y-22173D01*
X31735Y-22167D01*
X31734Y-22166D01*
X31719Y-22164D01*
X31703Y-22164D01*
X31689Y-22166D01*
X31683Y-22168D01*
X31665Y-22176D01*
X31648Y-22187D01*
X31635Y-22201D01*
X31624Y-22217D01*
X31617Y-22235D01*
X31613Y-22254D01*
X31614Y-22274D01*
X31618Y-22294D01*
X31625Y-22309D01*
X31636Y-22325D01*
X31651Y-22340D01*
X31668Y-22350D01*
X31687Y-22358D01*
X31689Y-22358D01*
X31704Y-22360D01*
X31704Y-22360D01*
G37*
G36*
X30731Y-21771D02*
X30751Y-21769D01*
X30770Y-21762D01*
X30779Y-21757D01*
X30787Y-21751D01*
X30797Y-21743D01*
X30807Y-21732D01*
X30817Y-21715D01*
X30824Y-21696D01*
X30825Y-21691D01*
X30826Y-21678D01*
X30826Y-21664D01*
X30825Y-21652D01*
X30819Y-21636D01*
X30810Y-21618D01*
X30798Y-21604D01*
X30796Y-21601D01*
X30787Y-21594D01*
X30777Y-21587D01*
X30767Y-21582D01*
X30763Y-21581D01*
X30755Y-21578D01*
X30747Y-21576D01*
X30741Y-21575D01*
X30738Y-21575D01*
X30742Y-21574D01*
X30746Y-21573D01*
X30753Y-21571D01*
X30760Y-21569D01*
X30775Y-21562D01*
X30789Y-21553D01*
X30801Y-21543D01*
X30803Y-21540D01*
X30814Y-21523D01*
X30822Y-21505D01*
X30826Y-21485D01*
X30826Y-21465D01*
X30826Y-21461D01*
X30820Y-21441D01*
X30811Y-21423D01*
X30797Y-21406D01*
X30785Y-21396D01*
X30768Y-21386D01*
X30749Y-21379D01*
X30745Y-21379D01*
X30732Y-21378D01*
X30718Y-21378D01*
X30706Y-21380D01*
X30694Y-21383D01*
X30676Y-21392D01*
X30661Y-21404D01*
X30648Y-21419D01*
X30638Y-21436D01*
X30632Y-21455D01*
X30631Y-21457D01*
X30630Y-21462D01*
X30629Y-21464D01*
X30629Y-21462D01*
X30628Y-21458D01*
X30626Y-21450D01*
X30623Y-21441D01*
X30620Y-21433D01*
X30617Y-21427D01*
X30605Y-21410D01*
X30590Y-21396D01*
X30572Y-21386D01*
X30553Y-21380D01*
X30532Y-21378D01*
X30516Y-21379D01*
X30497Y-21383D01*
X30480Y-21392D01*
X30470Y-21399D01*
X30455Y-21413D01*
X30444Y-21430D01*
X30437Y-21448D01*
X30433Y-21467D01*
X30433Y-21487D01*
X30438Y-21506D01*
X30446Y-21525D01*
X30458Y-21541D01*
X30473Y-21555D01*
X30490Y-21565D01*
X30510Y-21572D01*
X30522Y-21575D01*
X30515Y-21576D01*
X30511Y-21576D01*
X30495Y-21581D01*
X30480Y-21589D01*
X30465Y-21600D01*
X30454Y-21612D01*
X30447Y-21622D01*
X30440Y-21636D01*
X30436Y-21649D01*
X30434Y-21659D01*
X30433Y-21671D01*
X30433Y-21684D01*
X30435Y-21694D01*
X30438Y-21706D01*
X30448Y-21725D01*
X30460Y-21741D01*
X30476Y-21754D01*
X30494Y-21764D01*
X30515Y-21770D01*
X30520Y-21771D01*
X30532Y-21771D01*
X30545Y-21770D01*
X30556Y-21768D01*
X30564Y-21766D01*
X30582Y-21757D01*
X30599Y-21745D01*
X30612Y-21730D01*
X30622Y-21712D01*
X30628Y-21692D01*
X30628Y-21691D01*
X30629Y-21686D01*
X30630Y-21687D01*
X30630Y-21660D01*
X30629Y-21659D01*
X30628Y-21655D01*
X30628Y-21654D01*
X30625Y-21641D01*
X30618Y-21627D01*
X30610Y-21614D01*
X30604Y-21607D01*
X30589Y-21593D01*
X30571Y-21583D01*
X30551Y-21576D01*
X30542Y-21574D01*
X30548Y-21573D01*
X30554Y-21572D01*
X30561Y-21570D01*
X30565Y-21569D01*
X30583Y-21560D01*
X30598Y-21548D01*
X30612Y-21533D01*
X30621Y-21516D01*
X30628Y-21497D01*
X30629Y-21492D01*
X30630Y-21489D01*
X30631Y-21491D01*
X30632Y-21497D01*
X30632Y-21497D01*
X30635Y-21508D01*
X30640Y-21520D01*
X30646Y-21530D01*
X30651Y-21537D01*
X30660Y-21546D01*
X30670Y-21555D01*
X30679Y-21561D01*
X30680Y-21562D01*
X30695Y-21568D01*
X30711Y-21573D01*
X30718Y-21574D01*
X30710Y-21576D01*
X30693Y-21581D01*
X30675Y-21590D01*
X30659Y-21602D01*
X30647Y-21617D01*
X30644Y-21622D01*
X30639Y-21632D01*
X30635Y-21642D01*
X30632Y-21651D01*
X30631Y-21657D01*
X30631Y-21657D01*
X30630Y-21660D01*
X30630Y-21687D01*
X30630Y-21687D01*
X30631Y-21691D01*
X30633Y-21697D01*
X30634Y-21703D01*
X30638Y-21713D01*
X30648Y-21730D01*
X30661Y-21745D01*
X30676Y-21756D01*
X30694Y-21765D01*
X30712Y-21770D01*
X30731Y-21771D01*
X30731Y-21771D01*
G37*
G36*
X31323Y-21771D02*
X31342Y-21768D01*
X31361Y-21761D01*
X31377Y-21751D01*
X31392Y-21738D01*
X31403Y-21722D01*
X31412Y-21703D01*
X31413Y-21697D01*
X31415Y-21691D01*
X31415Y-21690D01*
X31416Y-21686D01*
X31416Y-21686D01*
X31416Y-21659D01*
X31415Y-21656D01*
X31413Y-21649D01*
X31410Y-21638D01*
X31401Y-21620D01*
X31389Y-21605D01*
X31374Y-21592D01*
X31357Y-21582D01*
X31338Y-21576D01*
X31328Y-21574D01*
X31335Y-21573D01*
X31336Y-21573D01*
X31352Y-21568D01*
X31367Y-21561D01*
X31373Y-21557D01*
X31383Y-21549D01*
X31393Y-21540D01*
X31400Y-21530D01*
X31405Y-21521D01*
X31411Y-21509D01*
X31414Y-21497D01*
X31415Y-21492D01*
X31416Y-21489D01*
X31417Y-21491D01*
X31418Y-21497D01*
X31422Y-21510D01*
X31431Y-21528D01*
X31444Y-21544D01*
X31459Y-21557D01*
X31477Y-21567D01*
X31498Y-21573D01*
X31504Y-21574D01*
X31495Y-21576D01*
X31486Y-21579D01*
X31467Y-21587D01*
X31450Y-21599D01*
X31436Y-21614D01*
X31432Y-21620D01*
X31427Y-21629D01*
X31422Y-21639D01*
X31420Y-21646D01*
X31418Y-21654D01*
X31418Y-21654D01*
X31417Y-21658D01*
X31416Y-21659D01*
X31416Y-21686D01*
X31417Y-21687D01*
X31418Y-21692D01*
X31420Y-21699D01*
X31425Y-21714D01*
X31433Y-21728D01*
X31439Y-21735D01*
X31453Y-21750D01*
X31471Y-21761D01*
X31491Y-21768D01*
X31499Y-21770D01*
X31513Y-21771D01*
X31527Y-21770D01*
X31539Y-21768D01*
X31540Y-21768D01*
X31560Y-21760D01*
X31577Y-21749D01*
X31592Y-21734D01*
X31603Y-21717D01*
X31610Y-21697D01*
X31612Y-21688D01*
X31613Y-21674D01*
X31612Y-21661D01*
X31610Y-21649D01*
X31607Y-21638D01*
X31600Y-21624D01*
X31592Y-21612D01*
X31583Y-21602D01*
X31571Y-21592D01*
X31558Y-21584D01*
X31554Y-21582D01*
X31544Y-21579D01*
X31535Y-21576D01*
X31528Y-21575D01*
X31527Y-21575D01*
X31530Y-21574D01*
X31535Y-21572D01*
X31547Y-21569D01*
X31560Y-21563D01*
X31570Y-21557D01*
X31573Y-21556D01*
X31585Y-21544D01*
X31597Y-21530D01*
X31605Y-21516D01*
X31608Y-21508D01*
X31612Y-21489D01*
X31613Y-21468D01*
X31609Y-21449D01*
X31608Y-21444D01*
X31600Y-21426D01*
X31588Y-21410D01*
X31573Y-21396D01*
X31555Y-21386D01*
X31536Y-21379D01*
X31533Y-21379D01*
X31519Y-21378D01*
X31505Y-21378D01*
X31492Y-21380D01*
X31489Y-21381D01*
X31469Y-21388D01*
X31452Y-21400D01*
X31438Y-21415D01*
X31426Y-21433D01*
X31424Y-21438D01*
X31421Y-21447D01*
X31418Y-21456D01*
X31417Y-21462D01*
X31417Y-21463D01*
X31417Y-21464D01*
X31415Y-21461D01*
X31414Y-21456D01*
X31411Y-21442D01*
X31402Y-21425D01*
X31390Y-21409D01*
X31376Y-21396D01*
X31358Y-21386D01*
X31358Y-21386D01*
X31340Y-21380D01*
X31320Y-21378D01*
X31300Y-21379D01*
X31282Y-21384D01*
X31271Y-21389D01*
X31254Y-21401D01*
X31240Y-21416D01*
X31229Y-21433D01*
X31222Y-21452D01*
X31221Y-21456D01*
X31219Y-21472D01*
X31220Y-21487D01*
X31224Y-21505D01*
X31232Y-21524D01*
X31244Y-21541D01*
X31259Y-21555D01*
X31277Y-21565D01*
X31297Y-21572D01*
X31301Y-21573D01*
X31305Y-21575D01*
X31305Y-21575D01*
X31299Y-21576D01*
X31287Y-21579D01*
X31275Y-21584D01*
X31264Y-21591D01*
X31253Y-21599D01*
X31239Y-21614D01*
X31228Y-21632D01*
X31227Y-21635D01*
X31221Y-21654D01*
X31219Y-21674D01*
X31222Y-21695D01*
X31228Y-21714D01*
X31233Y-21723D01*
X31239Y-21732D01*
X31247Y-21741D01*
X31248Y-21742D01*
X31264Y-21755D01*
X31281Y-21764D01*
X31301Y-21770D01*
X31303Y-21770D01*
X31323Y-21771D01*
X31323Y-21771D01*
G37*
G36*
X19503Y-22773D02*
X19511Y-22769D01*
X19530Y-22757D01*
X19556Y-22740D01*
X19587Y-22719D01*
X19618Y-22698D01*
X19644Y-22681D01*
X19662Y-22669D01*
X19669Y-22665D01*
X19673Y-22666D01*
X19688Y-22674D01*
X19710Y-22685D01*
X19722Y-22691D01*
X19742Y-22700D01*
X19752Y-22702D01*
X19753Y-22699D01*
X19761Y-22684D01*
X19772Y-22658D01*
X19787Y-22624D01*
X19804Y-22584D01*
X19822Y-22541D01*
X19840Y-22497D01*
X19858Y-22455D01*
X19873Y-22417D01*
X19886Y-22387D01*
X19894Y-22365D01*
X19897Y-22356D01*
X19896Y-22354D01*
X19886Y-22345D01*
X19869Y-22332D01*
X19831Y-22301D01*
X19795Y-22255D01*
X19772Y-22203D01*
X19765Y-22145D01*
X19771Y-22092D01*
X19792Y-22041D01*
X19828Y-21994D01*
X19872Y-21960D01*
X19923Y-21938D01*
X19980Y-21931D01*
X20035Y-21937D01*
X20087Y-21958D01*
X20134Y-21993D01*
X20153Y-22016D01*
X20180Y-22063D01*
X20196Y-22113D01*
X20197Y-22125D01*
X20195Y-22181D01*
X20179Y-22234D01*
X20150Y-22281D01*
X20109Y-22320D01*
X20104Y-22324D01*
X20085Y-22338D01*
X20073Y-22347D01*
X20063Y-22355D01*
X20133Y-22525D01*
X20144Y-22552D01*
X20164Y-22598D01*
X20181Y-22638D01*
X20194Y-22670D01*
X20204Y-22691D01*
X20208Y-22700D01*
X20208Y-22700D01*
X20214Y-22701D01*
X20227Y-22696D01*
X20251Y-22685D01*
X20267Y-22677D01*
X20285Y-22668D01*
X20293Y-22665D01*
X20300Y-22669D01*
X20317Y-22680D01*
X20342Y-22697D01*
X20372Y-22717D01*
X20401Y-22737D01*
X20428Y-22755D01*
X20447Y-22767D01*
X20457Y-22772D01*
X20458Y-22772D01*
X20466Y-22767D01*
X20482Y-22755D01*
X20505Y-22733D01*
X20537Y-22701D01*
X20542Y-22696D01*
X20569Y-22668D01*
X20591Y-22645D01*
X20606Y-22629D01*
X20611Y-22622D01*
X20611Y-22622D01*
X20606Y-22612D01*
X20594Y-22593D01*
X20576Y-22566D01*
X20555Y-22535D01*
X20499Y-22453D01*
X20530Y-22376D01*
X20539Y-22353D01*
X20551Y-22324D01*
X20560Y-22304D01*
X20565Y-22295D01*
X20573Y-22292D01*
X20594Y-22287D01*
X20625Y-22280D01*
X20661Y-22274D01*
X20696Y-22267D01*
X20727Y-22261D01*
X20750Y-22257D01*
X20760Y-22255D01*
X20762Y-22253D01*
X20764Y-22248D01*
X20766Y-22238D01*
X20766Y-22219D01*
X20767Y-22189D01*
X20767Y-22145D01*
X20767Y-22141D01*
X20766Y-22099D01*
X20766Y-22066D01*
X20765Y-22045D01*
X20763Y-22037D01*
X20763Y-22037D01*
X20753Y-22034D01*
X20731Y-22030D01*
X20700Y-22023D01*
X20662Y-22016D01*
X20660Y-22016D01*
X20623Y-22009D01*
X20592Y-22002D01*
X20570Y-21997D01*
X20561Y-21994D01*
X20559Y-21992D01*
X20551Y-21977D01*
X20540Y-21954D01*
X20528Y-21926D01*
X20516Y-21897D01*
X20505Y-21870D01*
X20498Y-21851D01*
X20496Y-21842D01*
X20496Y-21842D01*
X20502Y-21833D01*
X20515Y-21813D01*
X20533Y-21787D01*
X20555Y-21755D01*
X20556Y-21752D01*
X20578Y-21721D01*
X20595Y-21694D01*
X20607Y-21675D01*
X20611Y-21667D01*
X20611Y-21666D01*
X20604Y-21657D01*
X20588Y-21639D01*
X20565Y-21615D01*
X20537Y-21587D01*
X20528Y-21579D01*
X20498Y-21549D01*
X20477Y-21529D01*
X20463Y-21519D01*
X20457Y-21516D01*
X20457Y-21517D01*
X20447Y-21522D01*
X20427Y-21535D01*
X20400Y-21554D01*
X20368Y-21575D01*
X20366Y-21577D01*
X20335Y-21598D01*
X20309Y-21616D01*
X20290Y-21628D01*
X20282Y-21633D01*
X20280Y-21633D01*
X20268Y-21629D01*
X20245Y-21622D01*
X20218Y-21611D01*
X20189Y-21599D01*
X20162Y-21588D01*
X20142Y-21579D01*
X20133Y-21574D01*
X20133Y-21573D01*
X20129Y-21562D01*
X20124Y-21538D01*
X20117Y-21506D01*
X20110Y-21467D01*
X20109Y-21461D01*
X20102Y-21424D01*
X20096Y-21393D01*
X20091Y-21371D01*
X20089Y-21362D01*
X20084Y-21361D01*
X20065Y-21360D01*
X20037Y-21359D01*
X20003Y-21359D01*
X19968Y-21359D01*
X19934Y-21360D01*
X19904Y-21361D01*
X19883Y-21362D01*
X19874Y-21364D01*
X19873Y-21365D01*
X19870Y-21376D01*
X19865Y-21400D01*
X19858Y-21432D01*
X19851Y-21471D01*
X19850Y-21478D01*
X19843Y-21515D01*
X19836Y-21546D01*
X19832Y-21567D01*
X19829Y-21575D01*
X19826Y-21577D01*
X19811Y-21584D01*
X19786Y-21594D01*
X19754Y-21607D01*
X19682Y-21636D01*
X19594Y-21575D01*
X19586Y-21570D01*
X19554Y-21548D01*
X19528Y-21531D01*
X19510Y-21519D01*
X19502Y-21515D01*
X19502Y-21515D01*
X19493Y-21523D01*
X19475Y-21539D01*
X19451Y-21563D01*
X19424Y-21590D01*
X19403Y-21611D01*
X19379Y-21636D01*
X19363Y-21652D01*
X19355Y-21663D01*
X19352Y-21670D01*
X19353Y-21674D01*
X19358Y-21683D01*
X19371Y-21702D01*
X19389Y-21729D01*
X19411Y-21760D01*
X19429Y-21787D01*
X19448Y-21816D01*
X19460Y-21837D01*
X19465Y-21848D01*
X19464Y-21852D01*
X19457Y-21869D01*
X19447Y-21896D01*
X19434Y-21927D01*
X19403Y-21997D01*
X19357Y-22005D01*
X19329Y-22011D01*
X19290Y-22018D01*
X19253Y-22025D01*
X19195Y-22037D01*
X19193Y-22249D01*
X19202Y-22253D01*
X19211Y-22256D01*
X19232Y-22260D01*
X19263Y-22266D01*
X19299Y-22273D01*
X19330Y-22279D01*
X19361Y-22285D01*
X19383Y-22289D01*
X19393Y-22291D01*
X19396Y-22295D01*
X19404Y-22310D01*
X19415Y-22334D01*
X19427Y-22363D01*
X19439Y-22392D01*
X19450Y-22420D01*
X19458Y-22441D01*
X19461Y-22452D01*
X19457Y-22460D01*
X19445Y-22478D01*
X19428Y-22504D01*
X19407Y-22535D01*
X19385Y-22566D01*
X19368Y-22593D01*
X19355Y-22612D01*
X19350Y-22620D01*
X19353Y-22626D01*
X19365Y-22641D01*
X19388Y-22665D01*
X19423Y-22700D01*
X19429Y-22705D01*
X19456Y-22732D01*
X19480Y-22753D01*
X19496Y-22768D01*
X19503Y-22773D01*
X19503Y-22773D01*
G37*
G54D12*
X18535Y-26564D02*
X18235Y-26564D01*
X18385Y-26714D02*
X18385Y-26414D01*
X19815Y-24792D02*
X19515Y-24792D01*
%LPC*%
G54D14*
X24330Y-26811D03*
G54D15*
X24330Y-26023D03*
X25118Y-26811D03*
X25118Y-26023D03*
X25905Y-26811D03*
X25905Y-26023D03*
G54D16*
X31043Y-25590D03*
X30255Y-25590D03*
X31043Y-25885D03*
X31043Y-25295D03*
X30255Y-25295D03*
X30255Y-25885D03*
X20137Y-25590D03*
X20925Y-25590D03*
X20137Y-25295D03*
X20137Y-25885D03*
X20925Y-25885D03*
X20925Y-25295D03*
G54D17*
X29507Y-25090D03*
G54D18*
X29507Y-26090D03*
G54D17*
X21673Y-26090D03*
G54D18*
X21673Y-25090D03*
G54D19*
X19468Y-26555D03*
X18681Y-24783D03*
M02*
